<svg width="61" height="77" viewBox="0 0 61 77" fill="none" xmlns="http://www.w3.org/2000/svg">
<g id="logo">
<path id="logo_2" fill-rule="evenodd" clip-rule="evenodd" d="M32.0895 8.8638C29.9304 8.8638 28.1793 7.03654 28.1793 4.7835C28.1793 2.53047 29.9304 0.703206 32.0895 0.703206C34.2485 0.703206 35.9996 2.53047 35.9996 4.7835C35.9996 7.03654 34.2485 8.8638 32.0895 8.8638ZM29.1823 60.1336C29.1823 67.8951 24.3116 76.2242 16.1683 76.2597V76.7121C27.2358 76.7032 37.1302 73.3591 37.1302 60.1336C37.1302 49.8353 29.0888 44.7793 22.059 43.6262C28.8933 42.4021 35.1071 38.1976 35.1071 29.2564C35.1071 17.3881 25.9437 14.7891 16.1768 14.7181V15.1617C23.0876 15.4544 27.1678 22.6215 27.1678 29.2564C27.1678 35.8913 23.1131 43.1383 16.1768 43.4044V43.8657C24.4136 44.0697 29.1908 52.1327 29.1908 60.1336H29.1823ZM7.47246 14.7181H0.842194V76.7032H9.06203V14.7181H7.46396H7.47246ZM39.1617 15.1617C45.401 15.1971 51.3427 17.1663 55.1679 22.5505C58.0835 26.6486 59.5201 31.6514 59.7156 36.7251H60.1491V14.7093H39.1532V15.1617H39.1617ZM39.1617 76.7032H60.1576V54.6962H59.7241C59.5286 59.77 58.0835 64.7728 55.1764 68.8708C51.3087 74.2994 45.4605 76.2153 39.1702 76.2597V76.7121L39.1617 76.7032ZM44.2024 40.3531C46.064 38.4105 47.2116 35.7317 47.2116 32.7779V31.9885H47.6451V55.2816H47.2116V54.4922C47.2116 51.5295 46.064 48.8507 44.2024 46.917C42.3664 45.0011 39.8333 43.8923 37.0282 43.8657V43.4133C39.8248 43.3867 42.3579 42.2779 44.2024 40.3619V40.3531ZM47.4241 8.85493C45.265 8.85493 43.5139 7.02767 43.5139 4.77464C43.5139 2.5216 45.265 0.694336 47.4241 0.694336C49.5832 0.694336 51.3342 2.5216 51.3342 4.77464C51.3342 7.02767 49.5832 8.85493 47.4241 8.85493Z" fill="#1F1E20"/>
</g>
</svg>
