<svg width="36" height="36" viewBox="0 0 36 36" fill="none" xmlns="http://www.w3.org/2000/svg">
<path d="M31.438 29.2065H30.6657C30.1299 27.8645 30.1297 26.5551 30.6651 25.2198H31.438C32.2993 25.2198 33 24.4811 33 23.5731C33 22.6651 32.2993 21.9263 31.438 21.9263H28.3303C28.7258 21.4499 28.9663 20.8271 28.9663 20.1458V14.9862C28.9663 13.4935 27.8144 12.2791 26.3985 12.2791H25.1348C25.242 12.0538 25.3027 11.7997 25.3027 11.5309C25.3027 10.6064 24.5901 9.85428 23.7141 9.85428H23.2794C22.8915 8.84331 22.8912 7.85587 23.2788 6.85139H23.7141C24.5901 6.85139 25.3027 6.09923 25.3027 5.17474C25.3027 4.25129 24.5901 3.5 23.7141 3.5H8.88973C6.35098 3.5 4.28555 5.67655 4.28555 8.35187C4.28555 9.64568 4.7652 10.8638 5.63602 11.7819C5.80916 11.9644 5.99396 12.1299 6.18791 12.2791H5.8476C4.98627 12.2791 4.28555 13.0178 4.28555 13.9258C4.28555 14.8339 4.98627 15.5726 5.8476 15.5726H6.62045C7.15588 16.9077 7.1557 18.2172 6.61986 19.5592H5.8476C4.98627 19.5592 4.28555 20.2979 4.28555 21.206C4.28555 21.5533 4.38838 21.8757 4.56322 22.1416C3.64518 22.5546 3 23.5159 3 24.6334V29.793C3 31.2857 4.15113 32.5 5.56605 32.5H31.4379C32.2992 32.5 32.9999 31.7613 32.9999 30.8532C33 29.9452 32.2993 29.2065 31.438 29.2065ZM31.438 22.8528C31.8146 22.8528 32.1211 23.1759 32.1211 23.5731C32.1211 23.9702 31.8146 24.2933 31.438 24.2933H23.5069C23.2641 24.2933 23.0674 24.5007 23.0674 24.7565C23.0674 25.0124 23.2641 25.2198 23.5069 25.2198H29.7224C29.5506 25.7283 29.4456 26.2387 29.406 26.7499C29.406 26.7499 29.2304 27.6668 29.7233 29.2065H6.25137C6.18246 29.2065 6.12422 29.1451 6.12422 29.0724V25.3539C6.12422 25.2813 6.18246 25.2199 6.25137 25.2199H10.6049L10.6052 26.7414C10.5775 27.1968 10.7885 27.3763 10.9181 27.4431C11.0494 27.5108 11.3191 27.5763 11.6511 27.2565C11.6534 27.2542 11.6556 27.252 11.6579 27.2498L12.8862 26.0147L14.1146 27.2498C14.1168 27.2521 14.1191 27.2543 14.1214 27.2565C14.3157 27.4437 14.4887 27.499 14.6252 27.499C14.7228 27.499 14.8018 27.4707 14.8566 27.4423C14.9863 27.3749 15.1971 27.1946 15.1672 26.7401L15.1678 25.2199H21.3431C21.5859 25.2199 21.7826 25.0125 21.7826 24.7566C21.7826 24.5008 21.5859 24.2933 21.3431 24.2933H15.1681L15.1687 22.8529H31.438V22.8528ZM7.8798 17.1028C7.8402 16.5916 7.73314 16.0812 7.56152 15.5727H25.715C25.784 15.5727 25.8422 15.6341 25.8422 15.7067V19.4252C25.8422 19.4979 25.784 19.5593 25.715 19.5593H15.17L15.1706 18.0292H18.2461C18.4888 18.0292 18.6855 17.8218 18.6855 17.5659C18.6855 17.3101 18.4888 17.1027 18.2461 17.1027H7.8798V17.1028ZM10.6038 19.5593H7.56053C7.73203 19.0501 7.83926 18.5397 7.87934 18.0292H10.6035L10.6038 19.5593ZM14.2917 18.0293L14.2885 26.1442L13.1895 25.0392C13.0197 24.8685 12.7526 24.8685 12.5828 25.0392L11.484 26.1441L11.4824 18.0292H14.2917V18.0293ZM5.16445 8.35194C5.16445 6.1875 6.83561 4.42659 8.88973 4.42659H23.7141C24.1055 4.42659 24.4238 4.76224 24.4238 5.1748C24.4238 5.5884 24.1054 5.92492 23.7141 5.92492H15.6131C15.3704 5.92492 15.1736 6.13234 15.1736 6.38818C15.1736 6.64403 15.3704 6.85145 15.6131 6.85145H22.3424C22.0322 7.84803 22.0326 8.85344 22.3436 9.85434H8.88973C8.5118 9.85434 8.15396 9.69738 7.88385 9.41405C7.6135 9.12757 7.46461 8.75041 7.46461 8.35194C7.46461 7.52454 8.10393 6.85145 8.88973 6.85145H13.4493C13.692 6.85145 13.8888 6.64403 13.8888 6.38818C13.8888 6.13234 13.692 5.92492 13.4493 5.92492H8.88973C7.6193 5.92492 6.5857 7.01365 6.5857 8.35194C6.5857 8.99699 6.82547 9.60627 7.26234 10.0692C7.69992 10.5281 8.27783 10.7809 8.88973 10.7809H23.7141C24.1055 10.7809 24.4238 11.1174 24.4238 11.531C24.4238 11.9435 24.1054 12.2792 23.7141 12.2792H8.88973C7.89721 12.2792 6.9624 11.87 6.25752 11.1268C5.55264 10.3838 5.16445 9.3983 5.16445 8.35194ZM5.8476 14.6462C5.4709 14.6462 5.16445 14.3231 5.16445 13.9259C5.16445 13.5288 5.4709 13.2057 5.8476 13.2057H26.3985C27.3298 13.2057 28.0874 14.0045 28.0874 14.9863V20.1458C28.0874 21.1276 27.3297 21.9264 26.3985 21.9264H15.169L15.1696 20.4859H25.715C26.2697 20.4859 26.7211 20.0101 26.7211 19.4253V15.7069C26.7211 15.122 26.2697 14.6463 25.715 14.6463H5.8476V14.6462ZM5.8476 20.4859H10.604L10.6043 21.9263H5.84766C5.47096 21.9263 5.16451 21.6032 5.16451 21.2061C5.16445 20.809 5.4709 20.4859 5.8476 20.4859ZM31.438 31.5735H5.56605C4.63576 31.5735 3.87891 30.7747 3.87891 29.793V24.6334C3.87891 23.6516 4.63576 22.8528 5.56605 22.8528H10.6044L10.6047 24.2933H6.25137C5.6966 24.2933 5.24531 24.7691 5.24531 25.3538V29.0723C5.24531 29.6572 5.69666 30.133 6.25137 30.133H31.438C31.8146 30.133 32.1211 30.4561 32.1211 30.8532C32.1211 31.2503 31.8146 31.5735 31.438 31.5735Z" fill="#041E42"/>
</svg>
