<svg width="36" height="36" viewBox="0 0 36 36" fill="none" xmlns="http://www.w3.org/2000/svg">
<path d="M22.6452 28.3226C22.6452 28.0375 22.8762 27.8065 23.1613 27.8065C23.4463 27.8065 23.6774 28.0375 23.6774 28.3226V31.4194C23.6774 31.7044 23.4463 31.9355 23.1613 31.9355C22.8762 31.9355 22.6452 31.7044 22.6452 31.4194V28.3226Z" fill="#041E42"/>
<path d="M24.7097 28.3226C24.7097 28.0375 24.9408 27.8065 25.2258 27.8065C25.5109 27.8065 25.7419 28.0375 25.7419 28.3226V31.4194C25.7419 31.7044 25.5109 31.9355 25.2258 31.9355C24.9408 31.9355 24.7097 31.7044 24.7097 31.4194V28.3226Z" fill="#041E42"/>
<path d="M29.871 20.0594V9.22581H28.8387V3.9711L27.8065 4.14297V3.54839C27.8065 3.26334 27.5754 3.03226 27.2903 3.03226C27.0053 3.03226 26.7742 3.26334 26.7742 3.54839V4.31535L25.7419 4.48723V2.51613C25.7419 2.23108 25.5109 2 25.2258 2C24.9408 2 24.7097 2.23108 24.7097 2.51613V4.65961L23.6774 4.83148V3.54839C23.6774 3.26334 23.4463 3.03226 23.1613 3.03226C22.8762 3.03226 22.6452 3.26334 22.6452 3.54839V5.00335L21.6129 5.17523V9.22581H20.5806V14.3871H16.4516V7.16129H14.3871V4.06452H13.3548V2H8.19355V4.06452H7.16129V7.16129H5.09677V16.8052C4.02735 17.3156 3.24852 18.3339 3.07355 19.5484H2V34H34V19.4694L29.871 20.0594ZM22.6452 6.05006L27.8065 5.18968V9.22581H22.6452V6.05006ZM21.6129 10.2581H28.8387V20.207L25.7419 20.6493V23.3337L24.9276 22.2479C24.5606 21.7585 23.8265 21.7585 23.4595 22.2479L22.6452 23.3337V14.3871H21.6129V10.2581ZM21.6129 16.4516H14.3871V15.4194H21.6129V16.4516ZM21.6129 26.7742H26.7742V32.9677H21.6129V26.7742ZM22.129 25.7419L23.4595 23.9681C23.8265 23.4787 24.5606 23.4787 24.9276 23.9681L26.2581 25.7419H22.129ZM9.22581 3.03226H12.3226V4.06452H9.22581V3.03226ZM8.19355 5.09677H13.3548V7.16129H8.19355V5.09677ZM6.12903 8.19355H15.4194V14.3871H13.3548V16.8052C12.8846 16.5812 12.3608 16.4516 11.8065 16.4516H6.64516C6.46968 16.4516 6.29832 16.4686 6.12903 16.4929V8.19355ZM6.64516 17.4839H11.8065C13.0524 17.4839 14.095 18.3721 14.335 19.5484H4.11664C4.35664 18.3721 5.39923 17.4839 6.64516 17.4839ZM15.4194 20.5806V21.6129H3.03226V20.5806H15.4194ZM13.3548 29.871H11.2903V27.8065H13.3548V29.871ZM10.2581 29.871H8.19355V27.8065H10.2581V29.871ZM10.2581 30.9032V32.9677H8.19355V30.9032H10.2581ZM11.2903 30.9032H13.3548V32.9677H11.2903V30.9032ZM13.3548 26.7742H11.2903V24.7097H13.3548V26.7742ZM10.2581 26.7742H8.19355V24.7097H10.2581V26.7742ZM7.16129 26.7742H5.09677V24.7097H7.16129V26.7742ZM5.09677 27.8065H7.16129V29.871H5.09677V27.8065ZM5.09677 30.9032H7.16129V32.9677H5.09677V30.9032ZM14.3871 32.9677V23.6774H4.06452V32.9677H3.03226V22.6452H15.4194V32.9677H14.3871ZM15.3781 19.5484C15.2666 18.7732 14.9105 18.0759 14.3871 17.5412V17.4839H21.6129V24.7097L20.5806 26.0862V32.9677H16.4516V19.5484H15.3781ZM32.9677 32.9677H27.8065V26.0862L26.7742 24.7097V21.5443L32.9677 20.6596V32.9677Z" fill="#041E42"/>
<path d="M17.4839 19.0323C17.4839 18.7472 17.7149 18.5161 18 18.5161C18.285 18.5161 18.5161 18.7472 18.5161 19.0323C18.5161 19.3173 18.285 19.5484 18 19.5484C17.7149 19.5484 17.4839 19.3173 17.4839 19.0323Z" fill="#041E42"/>
<path d="M17.4839 31.4194C17.4839 31.1343 17.7149 30.9032 18 30.9032C18.285 30.9032 18.5161 31.1343 18.5161 31.4194C18.5161 31.7044 18.285 31.9355 18 31.9355C17.7149 31.9355 17.4839 31.7044 17.4839 31.4194Z" fill="#041E42"/>
<path d="M17.4839 21.0968C17.4839 20.8117 17.7149 20.5806 18 20.5806C18.285 20.5806 18.5161 20.8117 18.5161 21.0968C18.5161 21.3818 18.285 21.6129 18 21.6129C17.7149 21.6129 17.4839 21.3818 17.4839 21.0968Z" fill="#041E42"/>
<path d="M17.4839 29.3548C17.4839 29.0698 17.7149 28.8387 18 28.8387C18.285 28.8387 18.5161 29.0698 18.5161 29.3548C18.5161 29.6399 18.285 29.871 18 29.871C17.7149 29.871 17.4839 29.6399 17.4839 29.3548Z" fill="#041E42"/>
<path d="M17.4839 25.2258C17.4839 24.9408 17.7149 24.7097 18 24.7097C18.285 24.7097 18.5161 24.9408 18.5161 25.2258C18.5161 25.5109 18.285 25.7419 18 25.7419C17.7149 25.7419 17.4839 25.5109 17.4839 25.2258Z" fill="#041E42"/>
<path d="M17.4839 23.1613C17.4839 22.8762 17.7149 22.6452 18 22.6452C18.285 22.6452 18.5161 22.8762 18.5161 23.1613C18.5161 23.4463 18.285 23.6774 18 23.6774C17.7149 23.6774 17.4839 23.4463 17.4839 23.1613Z" fill="#041E42"/>
<path d="M17.4839 27.2903C17.4839 27.0053 17.7149 26.7742 18 26.7742C18.285 26.7742 18.5161 27.0053 18.5161 27.2903C18.5161 27.5754 18.285 27.8065 18 27.8065C17.7149 27.8065 17.4839 27.5754 17.4839 27.2903Z" fill="#041E42"/>
<path d="M19.5484 23.1613C19.5484 22.8762 19.7795 22.6452 20.0645 22.6452C20.3496 22.6452 20.5806 22.8762 20.5806 23.1613C20.5806 23.4463 20.3496 23.6774 20.0645 23.6774C19.7795 23.6774 19.5484 23.4463 19.5484 23.1613Z" fill="#041E42"/>
<path d="M19.5484 21.0968C19.5484 20.8117 19.7795 20.5806 20.0645 20.5806C20.3496 20.5806 20.5806 20.8117 20.5806 21.0968C20.5806 21.3818 20.3496 21.6129 20.0645 21.6129C19.7795 21.6129 19.5484 21.3818 19.5484 21.0968Z" fill="#041E42"/>
<path d="M19.5484 19.0323C19.5484 18.7472 19.7795 18.5161 20.0645 18.5161C20.3496 18.5161 20.5806 18.7472 20.5806 19.0323C20.5806 19.3173 20.3496 19.5484 20.0645 19.5484C19.7795 19.5484 19.5484 19.3173 19.5484 19.0323Z" fill="#041E42"/>
<path d="M30.9032 31.4194C30.9032 31.1343 31.1343 30.9032 31.4194 30.9032C31.7044 30.9032 31.9355 31.1343 31.9355 31.4194C31.9355 31.7044 31.7044 31.9355 31.4194 31.9355C31.1343 31.9355 30.9032 31.7044 30.9032 31.4194Z" fill="#041E42"/>
<path d="M30.9032 27.2903C30.9032 27.0053 31.1343 26.7742 31.4194 26.7742C31.7044 26.7742 31.9355 27.0053 31.9355 27.2903C31.9355 27.5754 31.7044 27.8065 31.4194 27.8065C31.1343 27.8065 30.9032 27.5754 30.9032 27.2903Z" fill="#041E42"/>
<path d="M30.9032 29.3548C30.9032 29.0698 31.1343 28.8387 31.4194 28.8387C31.7044 28.8387 31.9355 29.0698 31.9355 29.3548C31.9355 29.6399 31.7044 29.871 31.4194 29.871C31.1343 29.871 30.9032 29.6399 30.9032 29.3548Z" fill="#041E42"/>
<path d="M30.9032 25.2258C30.9032 24.9408 31.1343 24.7097 31.4194 24.7097C31.7044 24.7097 31.9355 24.9408 31.9355 25.2258C31.9355 25.5109 31.7044 25.7419 31.4194 25.7419C31.1343 25.7419 30.9032 25.5109 30.9032 25.2258Z" fill="#041E42"/>
<path d="M30.9032 23.1613C30.9032 22.8762 31.1343 22.6452 31.4194 22.6452C31.7044 22.6452 31.9355 22.8762 31.9355 23.1613C31.9355 23.4463 31.7044 23.6774 31.4194 23.6774C31.1343 23.6774 30.9032 23.4463 30.9032 23.1613Z" fill="#041E42"/>
<path d="M28.8387 29.3548C28.8387 29.0698 29.0698 28.8387 29.3548 28.8387C29.6399 28.8387 29.871 29.0698 29.871 29.3548C29.871 29.6399 29.6399 29.871 29.3548 29.871C29.0698 29.871 28.8387 29.6399 28.8387 29.3548Z" fill="#041E42"/>
<path d="M28.8387 23.1613C28.8387 22.8762 29.0698 22.6452 29.3548 22.6452C29.6399 22.6452 29.871 22.8762 29.871 23.1613C29.871 23.4463 29.6399 23.6774 29.3548 23.6774C29.0698 23.6774 28.8387 23.4463 28.8387 23.1613Z" fill="#041E42"/>
<path d="M28.8387 27.2903C28.8387 27.0053 29.0698 26.7742 29.3548 26.7742C29.6399 26.7742 29.871 27.0053 29.871 27.2903C29.871 27.5754 29.6399 27.8065 29.3548 27.8065C29.0698 27.8065 28.8387 27.5754 28.8387 27.2903Z" fill="#041E42"/>
<path d="M28.8387 31.4194C28.8387 31.1343 29.0698 30.9032 29.3548 30.9032C29.6399 30.9032 29.871 31.1343 29.871 31.4194C29.871 31.7044 29.6399 31.9355 29.3548 31.9355C29.0698 31.9355 28.8387 31.7044 28.8387 31.4194Z" fill="#041E42"/>
<path d="M28.8387 25.2258C28.8387 24.9408 29.0698 24.7097 29.3548 24.7097C29.6399 24.7097 29.871 24.9408 29.871 25.2258C29.871 25.5109 29.6399 25.7419 29.3548 25.7419C29.0698 25.7419 28.8387 25.5109 28.8387 25.2258Z" fill="#041E42"/>
<path d="M13.3548 9.74194C13.3548 9.45689 13.5859 9.22581 13.871 9.22581C14.156 9.22581 14.3871 9.45689 14.3871 9.74194C14.3871 10.027 14.156 10.2581 13.871 10.2581C13.5859 10.2581 13.3548 10.027 13.3548 9.74194Z" fill="#041E42"/>
<path d="M11.2903 9.74194C11.2903 9.45689 11.5214 9.22581 11.8065 9.22581C12.0915 9.22581 12.3226 9.45689 12.3226 9.74194C12.3226 10.027 12.0915 10.2581 11.8065 10.2581C11.5214 10.2581 11.2903 10.027 11.2903 9.74194Z" fill="#041E42"/>
<path d="M7.16129 9.74194C7.16129 9.45689 7.39237 9.22581 7.67742 9.22581C7.96247 9.22581 8.19355 9.45689 8.19355 9.74194C8.19355 10.027 7.96247 10.2581 7.67742 10.2581C7.39237 10.2581 7.16129 10.027 7.16129 9.74194Z" fill="#041E42"/>
<path d="M9.22581 9.74194C9.22581 9.45689 9.45689 9.22581 9.74194 9.22581C10.027 9.22581 10.2581 9.45689 10.2581 9.74194C10.2581 10.027 10.027 10.2581 9.74194 10.2581C9.45689 10.2581 9.22581 10.027 9.22581 9.74194Z" fill="#041E42"/>
<path d="M9.22581 11.8065C9.22581 11.5214 9.45689 11.2903 9.74194 11.2903C10.027 11.2903 10.2581 11.5214 10.2581 11.8065C10.2581 12.0915 10.027 12.3226 9.74194 12.3226C9.45689 12.3226 9.22581 12.0915 9.22581 11.8065Z" fill="#041E42"/>
<path d="M13.3548 11.8065C13.3548 11.5214 13.5859 11.2903 13.871 11.2903C14.156 11.2903 14.3871 11.5214 14.3871 11.8065C14.3871 12.0915 14.156 12.3226 13.871 12.3226C13.5859 12.3226 13.3548 12.0915 13.3548 11.8065Z" fill="#041E42"/>
<path d="M7.16129 11.8065C7.16129 11.5214 7.39237 11.2903 7.67742 11.2903C7.96247 11.2903 8.19355 11.5214 8.19355 11.8065C8.19355 12.0915 7.96247 12.3226 7.67742 12.3226C7.39237 12.3226 7.16129 12.0915 7.16129 11.8065Z" fill="#041E42"/>
<path d="M11.2903 11.8065C11.2903 11.5214 11.5214 11.2903 11.8065 11.2903C12.0915 11.2903 12.3226 11.5214 12.3226 11.8065C12.3226 12.0915 12.0915 12.3226 11.8065 12.3226C11.5214 12.3226 11.2903 12.0915 11.2903 11.8065Z" fill="#041E42"/>
<path d="M7.16129 13.871C7.16129 13.5859 7.39237 13.3548 7.67742 13.3548C7.96247 13.3548 8.19355 13.5859 8.19355 13.871C8.19355 14.156 7.96247 14.3871 7.67742 14.3871C7.39237 14.3871 7.16129 14.156 7.16129 13.871Z" fill="#041E42"/>
<path d="M9.22581 13.871C9.22581 13.5859 9.45689 13.3548 9.74194 13.3548C10.027 13.3548 10.2581 13.5859 10.2581 13.871C10.2581 14.156 10.027 14.3871 9.74194 14.3871C9.45689 14.3871 9.22581 14.156 9.22581 13.871Z" fill="#041E42"/>
<path d="M11.2903 13.871C11.2903 13.5859 11.5214 13.3548 11.8065 13.3548C12.0915 13.3548 12.3226 13.5859 12.3226 13.871C12.3226 14.156 12.0915 14.3871 11.8065 14.3871C11.5214 14.3871 11.2903 14.156 11.2903 13.871Z" fill="#041E42"/>
<path d="M26.7742 11.8065C26.7742 11.5214 27.0053 11.2903 27.2903 11.2903C27.5754 11.2903 27.8065 11.5214 27.8065 11.8065C27.8065 12.0915 27.5754 12.3226 27.2903 12.3226C27.0053 12.3226 26.7742 12.0915 26.7742 11.8065Z" fill="#041E42"/>
<path d="M24.7097 11.8065C24.7097 11.5214 24.9408 11.2903 25.2258 11.2903C25.5109 11.2903 25.7419 11.5214 25.7419 11.8065C25.7419 12.0915 25.5109 12.3226 25.2258 12.3226C24.9408 12.3226 24.7097 12.0915 24.7097 11.8065Z" fill="#041E42"/>
<path d="M22.6452 11.8065C22.6452 11.5214 22.8762 11.2903 23.1613 11.2903C23.4463 11.2903 23.6774 11.5214 23.6774 11.8065C23.6774 12.0915 23.4463 12.3226 23.1613 12.3226C22.8762 12.3226 22.6452 12.0915 22.6452 11.8065Z" fill="#041E42"/>
<path d="M26.7742 13.871C26.7742 13.5859 27.0053 13.3548 27.2903 13.3548C27.5754 13.3548 27.8065 13.5859 27.8065 13.871C27.8065 14.156 27.5754 14.3871 27.2903 14.3871C27.0053 14.3871 26.7742 14.156 26.7742 13.871Z" fill="#041E42"/>
<path d="M22.6452 13.871C22.6452 13.5859 22.8762 13.3548 23.1613 13.3548C23.4463 13.3548 23.6774 13.5859 23.6774 13.871C23.6774 14.156 23.4463 14.3871 23.1613 14.3871C22.8762 14.3871 22.6452 14.156 22.6452 13.871Z" fill="#041E42"/>
<path d="M24.7097 13.871C24.7097 13.5859 24.9408 13.3548 25.2258 13.3548C25.5109 13.3548 25.7419 13.5859 25.7419 13.871C25.7419 14.156 25.5109 14.3871 25.2258 14.3871C24.9408 14.3871 24.7097 14.156 24.7097 13.871Z" fill="#041E42"/>
<path d="M24.7097 20.0645C24.7097 19.7795 24.9408 19.5484 25.2258 19.5484C25.5109 19.5484 25.7419 19.7795 25.7419 20.0645C25.7419 20.3496 25.5109 20.5806 25.2258 20.5806C24.9408 20.5806 24.7097 20.3496 24.7097 20.0645Z" fill="#041E42"/>
<path d="M24.7097 18C24.7097 17.7149 24.9408 17.4839 25.2258 17.4839C25.5109 17.4839 25.7419 17.7149 25.7419 18C25.7419 18.285 25.5109 18.5161 25.2258 18.5161C24.9408 18.5161 24.7097 18.285 24.7097 18Z" fill="#041E42"/>
<path d="M24.7097 15.9355C24.7097 15.6504 24.9408 15.4194 25.2258 15.4194C25.5109 15.4194 25.7419 15.6504 25.7419 15.9355C25.7419 16.2205 25.5109 16.4516 25.2258 16.4516C24.9408 16.4516 24.7097 16.2205 24.7097 15.9355Z" fill="#041E42"/>
<path d="M26.7742 18C26.7742 17.7149 27.0053 17.4839 27.2903 17.4839C27.5754 17.4839 27.8065 17.7149 27.8065 18C27.8065 18.285 27.5754 18.5161 27.2903 18.5161C27.0053 18.5161 26.7742 18.285 26.7742 18Z" fill="#041E42"/>
<path d="M26.7742 15.9355C26.7742 15.6504 27.0053 15.4194 27.2903 15.4194C27.5754 15.4194 27.8065 15.6504 27.8065 15.9355C27.8065 16.2205 27.5754 16.4516 27.2903 16.4516C27.0053 16.4516 26.7742 16.2205 26.7742 15.9355Z" fill="#041E42"/>
</svg>
