<svg width="36" height="36" viewBox="0 0 36 36" fill="none" xmlns="http://www.w3.org/2000/svg">
<path d="M32.2039 15.5526L30.1635 15.1264C29.9048 14.0337 29.4974 12.9818 28.9525 12.0001L29.8785 11.0736C29.8831 11.069 29.8845 11.0626 29.889 11.058C29.9261 11.0186 29.9568 10.9736 29.9794 10.9246V10.9184L29.9854 10.9056L32.9084 4.41495C33.0803 4.03592 32.9995 3.59006 32.7054 3.29549C32.4115 3.00092 31.9659 2.91943 31.5864 3.09041L25.0951 6.01208L25.0809 6.01804L25.0754 6.02055C25.0665 6.02444 25.0605 6.03291 25.0514 6.03795C25.0058 6.05923 24.9635 6.08739 24.9264 6.12149L23.9999 7.05006C23.0182 6.5051 21.9663 6.09769 20.8736 5.83905L20.45 3.79605C20.3518 3.33234 19.943 3.00069 19.469 3H16.5315C16.0584 3.0016 15.6505 3.33325 15.5526 3.79605L15.1264 5.83539C13.8192 6.1398 12.5714 6.65799 11.4329 7.3689L9.68907 6.22449C9.29219 5.96722 8.76942 6.02101 8.43343 6.35403L6.35358 8.43411C6.02055 8.77011 5.96722 9.29288 6.22495 9.68953L7.3689 11.4329C6.65799 12.5714 6.1398 13.8192 5.83539 15.1264L3.79605 15.5526C3.33325 15.6505 3.0016 16.0584 3 16.5315V19.469C3.00069 19.943 3.33234 20.3518 3.79605 20.45L5.83653 20.8759C6.03886 21.7354 6.33344 22.5705 6.71544 23.3666C6.38905 23.4076 6.08487 23.5545 5.85004 23.785L5.14645 24.4911C4.69556 24.9372 4.57951 25.6211 4.85806 26.191L3.73242 27.318C2.75784 28.2951 2.75784 29.8764 3.73242 30.8535L5.14645 32.2676C6.12355 33.2422 7.7049 33.2422 8.68199 32.2676L9.8074 31.1419C10.3771 31.4209 11.061 31.3056 11.5075 30.8549L12.2214 30.1461C12.4508 29.9119 12.5968 29.6089 12.6371 29.2834C13.4329 29.6656 14.2676 29.9607 15.1271 30.1635L15.553 32.2039C15.651 32.6667 16.0586 32.9982 16.5315 33H19.469C19.943 32.9993 20.3518 32.6677 20.45 32.2039L20.8759 30.1646C22.1833 29.8602 23.4311 29.342 24.5696 28.6311L26.3134 29.7755C26.7103 30.0328 27.2331 29.979 27.5691 29.646L29.6489 27.5659C29.9817 27.2299 30.0353 26.7071 29.7776 26.3105L28.6334 24.5671C29.3445 23.4286 29.8627 22.1808 30.1669 20.8736L32.2065 20.4474C32.6681 20.3486 32.9984 19.9411 33 19.469V16.5315C32.9984 16.0584 32.6667 15.6505 32.2039 15.5526ZM26.5 18C26.4947 22.6923 22.6923 26.4947 18 26.5C16.7327 26.5043 15.4809 26.2201 14.34 25.6685C12.5835 24.8301 11.1681 23.4142 10.3299 21.6575C9.77948 20.517 9.49567 19.2664 9.50002 18C9.50528 13.3077 13.3077 9.50528 18 9.50002C19.0233 9.50002 20.038 9.68816 20.9935 10.0546L18.5209 12.527C18.3534 12.511 18.1824 12.5 18 12.5C14.9639 12.5036 12.5036 14.9639 12.5 18C12.4988 18.2593 12.5169 18.5184 12.5544 18.775C12.9005 21.1947 14.8005 23.0967 17.22 23.4451C17.4784 23.4829 17.7391 23.5012 18 23.5C21.0361 23.4964 23.4964 21.0361 23.5 18C23.5 17.8176 23.489 17.6466 23.473 17.4791L25.9454 15.0065C26.3118 15.962 26.5 16.9767 26.5 18ZM25.2796 7.18259L26.695 8.60005L14.4864 20.8065C14.0337 20.2449 13.7247 19.5813 13.5865 18.8734L25.2796 7.18259ZM29.1669 5.27692C29.3775 5.57378 29.6116 5.85324 29.8671 6.11256C30.1333 6.37418 30.4216 6.6129 30.7286 6.82553L29.3649 9.85295L26.147 6.6351L29.1669 5.27692ZM13.526 17.5214C13.7542 15.4166 15.4166 13.7542 17.5214 13.526L13.526 17.5214ZM22.476 18.4786C22.2478 20.5834 20.5854 22.2458 18.4804 22.474L22.476 18.4786ZM17.1266 22.4115C16.4184 22.2735 15.7549 21.9645 15.1935 21.5115L27.3999 9.30501L28.8156 10.7204L17.1266 22.4115ZM32 4.00342L31.144 5.89993C30.943 5.74796 30.7524 5.58293 30.5734 5.40555C30.4026 5.23366 30.2424 5.05124 30.0939 4.85944L32 4.00342ZM5.85507 25.1999L6.55499 24.4929C6.64883 24.3982 6.77678 24.3448 6.91022 24.3448C7.04366 24.3448 7.1716 24.3982 7.26544 24.4929L7.35654 24.584L6.23959 26.2869L5.85347 25.9001C5.75963 25.8069 5.70676 25.6804 5.70676 25.5483C5.70676 25.4162 5.75963 25.2894 5.85347 25.1965L5.85507 25.1999ZM7.97498 31.5606C7.69368 31.8419 7.31213 32 6.91434 32C6.51631 32 6.13477 31.8419 5.85347 31.5606L4.43944 30.1465C4.15814 29.8652 3.99998 29.4837 3.99998 29.0857C3.99998 28.6879 4.15814 28.3063 4.43944 28.025L5.50008 26.9644L9.03561 30.4999L7.97498 31.5606ZM11.513 29.44L10.8001 30.1465C10.6037 30.3351 10.2938 30.3351 10.0974 30.1465L9.7115 29.7604L11.4194 28.6425L11.5101 28.7334C11.7057 28.928 11.7071 29.244 11.513 29.44ZM32 19.469L29.643 19.9611C29.4478 20.0018 29.2955 20.1547 29.2555 20.3499C28.9678 21.7578 28.4116 23.097 27.6174 24.2945C27.5075 24.4613 27.5075 24.6776 27.6174 24.8445L28.9394 26.86L26.86 28.9394L24.8445 27.6174C24.6776 27.5075 24.4613 27.5075 24.2945 27.6174C23.097 28.4116 21.7578 28.9678 20.3499 29.2555C20.1547 29.2955 20.0018 29.4478 19.9611 29.643L19.469 32H16.5315L16.0389 29.643C15.9984 29.4482 15.8462 29.296 15.6514 29.2555C14.4148 29.0005 13.2296 28.54 12.145 27.8934C12.0845 27.8616 12.02 27.8211 11.933 27.7634C11.863 27.722 11.7964 27.6764 11.717 27.622C11.6623 27.5853 11.6009 27.5595 11.5366 27.546H11.5329C11.405 27.5203 11.272 27.546 11.1626 27.6169L9.1425 28.9394L7.06242 26.8596L8.3849 24.8394C8.49728 24.6653 8.49042 24.4396 8.36751 24.2725H8.37048C8.32494 24.2059 8.27939 24.1395 8.22057 24.0429C8.18143 23.9839 8.14206 23.9205 8.09949 23.8429V23.839C7.45862 22.7603 7.00223 21.582 6.74954 20.3529C6.70903 20.1584 6.55682 20.0061 6.36205 19.9654L3.99998 19.469V16.5315L6.35701 16.0389C6.55225 15.9982 6.70445 15.8453 6.74451 15.6501C7.03221 14.2422 7.58839 12.903 8.38261 11.7055C8.49248 11.5387 8.49248 11.3224 8.38261 11.1555L7.06105 9.14044L9.14044 7.06105L11.156 8.38307C11.3228 8.49294 11.5391 8.49294 11.706 8.38307C12.9033 7.58862 14.2424 7.03244 15.6501 6.74451C15.8453 6.70445 15.9982 6.55225 16.0389 6.35701L16.5315 3.99998H19.469L19.9611 6.35701C20.0016 6.55179 20.1538 6.70399 20.3486 6.74451C21.363 6.95622 22.3433 7.30664 23.262 7.78592L21.7651 9.28304C20.5779 8.7637 19.2957 8.49706 18 8.50003C12.7556 8.50575 8.50575 12.7556 8.50003 18C8.49522 19.4161 8.81268 20.8146 9.42792 22.0899C10.3645 24.0521 11.9456 25.6337 13.9076 26.5705C15.1834 27.1869 16.583 27.5045 18 27.5C23.2444 27.4942 27.4942 23.2444 27.5 18C27.5029 16.7043 27.2363 15.4221 26.717 14.2349L28.2141 12.738C28.6931 13.6563 29.0438 14.6361 29.2555 15.6501C29.296 15.8448 29.4482 15.9968 29.643 16.0376L32 16.5315V19.469Z" fill="#041E42"/>
</svg>
