<svg width="36" height="36" viewBox="0 0 36 36" fill="none" xmlns="http://www.w3.org/2000/svg">
<path d="M33.4667 3H2.53333C2.39189 3 2.25623 3.0545 2.15621 3.1515C2.05619 3.2485 2 3.38006 2 3.51724V21.1034C2 21.2406 2.05619 21.3722 2.15621 21.4692C2.25623 21.5662 2.39189 21.6207 2.53333 21.6207H11.0667V27.8567C11.0611 27.8544 11.056 27.8515 11.0505 27.8492L9.53333 27.2185C9.83789 26.789 10.0006 26.2799 10 25.7586V25.2414C10 24.5555 9.71905 23.8977 9.21895 23.4127C8.71885 22.9276 8.04058 22.6552 7.33333 22.6552C6.62609 22.6552 5.94781 22.9276 5.44772 23.4127C4.94762 23.8977 4.66667 24.5555 4.66667 25.2414V25.7586C4.66612 26.2799 4.82899 26.7891 5.13367 27.2185L3.6162 27.8492C3.13629 28.0483 2.72726 28.3797 2.43993 28.8023C2.15259 29.2249 1.99961 29.7201 2 30.2263V32.4828C2 32.6199 2.05619 32.7515 2.15621 32.8485C2.25623 32.9455 2.39189 33 2.53333 33H31.3333C31.4748 33 31.6104 32.9455 31.7105 32.8485C31.8105 32.7515 31.8667 32.6199 31.8667 32.4828V30.2263C31.8671 29.7201 31.7141 29.2249 31.4268 28.8023C31.1394 28.3797 30.7304 28.0482 30.2505 27.8492L28.7333 27.2185C29.0379 26.789 29.2006 26.2799 29.2 25.7586V25.2414C29.2 24.5555 28.919 23.8977 28.419 23.4127C27.9189 22.9276 27.2406 22.6552 26.5333 22.6552C25.8261 22.6552 25.1478 22.9276 24.6477 23.4127C24.1476 23.8977 23.8667 24.5555 23.8667 25.2414V25.7586C23.866 26.2799 24.0288 26.789 24.3333 27.2185L22.8159 27.8492C22.3866 28.0277 22.0132 28.3125 21.7333 28.6751C21.4533 28.3125 21.0799 28.0277 20.6505 27.8492L19.1333 27.2185C19.4379 26.789 19.6006 26.2799 19.6 25.7586V25.2414C19.6 24.8401 19.5036 24.4443 19.3184 24.0854C19.1333 23.7266 18.8645 23.4145 18.5333 23.1738V21.6207H33.4667C33.6081 21.6207 33.7438 21.5662 33.8438 21.4692C33.9438 21.3722 34 21.2406 34 21.1034V3.51724C34 3.38006 33.9438 3.2485 33.8438 3.1515C33.7438 3.0545 33.6081 3 33.4667 3ZM24.9333 25.2414C24.9333 24.8298 25.1019 24.4352 25.402 24.1441C25.702 23.8531 26.109 23.6897 26.5333 23.6897C26.9577 23.6897 27.3646 23.8531 27.6647 24.1441C27.9648 24.4352 28.1333 24.8298 28.1333 25.2414V25.7586C28.1333 26.1702 27.9648 26.5648 27.6647 26.8559C27.3646 27.1469 26.9577 27.3103 26.5333 27.3103C26.109 27.3103 25.702 27.1469 25.402 26.8559C25.1019 26.5648 24.9333 26.1702 24.9333 25.7586V25.2414ZM22.2667 30.2263C22.2664 29.9226 22.3582 29.6255 22.5306 29.3719C22.703 29.1183 22.9484 28.9194 23.2364 28.8L25.1867 27.9892C25.5949 28.2219 26.0598 28.3446 26.5333 28.3446C27.0069 28.3446 27.4718 28.2219 27.88 27.9892L29.8303 28.7999C30.1182 28.9193 30.3637 29.1182 30.5361 29.3718C30.7085 29.6254 30.8003 29.9225 30.8 30.2263V31.9655H29.7333V30.4138C29.7333 30.2766 29.6771 30.1451 29.5771 30.048C29.4771 29.951 29.3414 29.8966 29.2 29.8966C29.0585 29.8966 28.9229 29.951 28.8229 30.048C28.7229 30.1451 28.6667 30.2766 28.6667 30.4138V31.9655H24.4V30.4138C24.4 30.2766 24.3438 30.1451 24.2438 30.048C24.1438 29.951 24.0081 29.8966 23.8667 29.8966C23.7252 29.8966 23.5896 29.951 23.4895 30.048C23.3895 30.1451 23.3333 30.2766 23.3333 30.4138V31.9655H22.2667V30.2263ZM3.06667 20.5862V19.5517H8.4042C8.42617 19.9189 8.5434 20.2747 8.745 20.5862H3.06667ZM10.6667 20.5862C10.3485 20.5858 10.0435 20.4631 9.81855 20.2449C9.59359 20.0268 9.46704 19.731 9.46667 19.4224V17.2537H11.0667V18.5172C11.0667 18.6544 11.1229 18.786 11.2229 18.883C11.3229 18.98 11.4586 19.0345 11.6 19.0345H14.2667V20.5862H10.6667ZM14.4301 7.65517H16.4C16.5414 7.65517 16.6771 7.70967 16.7771 7.80667C16.8771 7.90367 16.9333 8.03523 16.9333 8.17241C16.9333 8.30959 16.8771 8.44116 16.7771 8.53816C16.6771 8.63516 16.5414 8.68966 16.4 8.68966H14.2667C14.1789 8.68966 14.0924 8.71068 14.015 8.75085C13.9376 8.79103 13.8716 8.84911 13.8229 8.91996L13.2 9.82584C13.0655 9.61991 12.9881 9.38382 12.9753 9.14039C12.9624 8.89696 13.0146 8.65444 13.1267 8.43627C13.247 8.20097 13.4328 8.00306 13.6632 7.865C13.8936 7.72694 14.1593 7.65425 14.4301 7.65517ZM15.8667 9.72414V11.4052C15.8666 11.508 15.8244 11.6066 15.7494 11.6794C15.6744 11.7521 15.5727 11.793 15.4667 11.7931H15.3333C15.1919 11.7931 15.0562 11.8476 14.9562 11.9446C14.8562 12.0416 14.8 12.1732 14.8 12.3103V12.8276H13.7333V10.9152L14.5521 9.72414H15.8667ZM18 13.8621C18.1126 13.862 18.2223 13.8274 18.3133 13.7631L19 13.2789L20.1676 14.4821L19.4625 15.0683C19.4126 15.0143 19.3516 14.9711 19.2834 14.9415C19.2152 14.9119 19.1414 14.8966 19.0667 14.8966H13.7333C13.5919 14.8966 13.4562 14.951 13.3562 15.048C13.2562 15.145 13.2 15.2766 13.2 15.4138V18H12.1333V16.7365C12.1333 16.5993 12.0771 16.4678 11.9771 16.3708C11.8771 16.2738 11.7414 16.2193 11.6 16.2193H9.46667V15.5431C9.46718 15.0974 9.64996 14.6701 9.97491 14.355C10.2999 14.0398 10.7404 13.8626 11.2 13.8621H18ZM27.0667 8.99269L25.7333 10.2858L25.1543 9.72414L26.3771 8.53817C26.4267 8.49014 26.4659 8.43311 26.4927 8.37036C26.5196 8.3076 26.5333 8.24034 26.5333 8.17241C26.5333 8.10449 26.5196 8.03723 26.4927 7.97447C26.4659 7.91171 26.4267 7.85469 26.3771 7.80666C26.3276 7.75863 26.2688 7.72053 26.2041 7.69453C26.1394 7.66854 26.07 7.65516 26 7.65516C25.93 7.65516 25.8606 7.66854 25.7959 7.69453C25.7312 7.72053 25.6724 7.75863 25.6229 7.80666L24.4092 8.98338C24.4617 8.29067 24.752 7.63498 25.2337 7.12095C25.7154 6.60691 26.3607 6.26415 27.0667 6.14735V8.99269ZM27.9771 9.57265C28.0267 9.52462 28.0659 9.4676 28.0927 9.40484C28.1195 9.34208 28.1333 9.27482 28.1333 9.2069V6.14735C28.9238 6.27769 29.6351 6.6911 30.1263 7.30575C30.6175 7.92041 30.8529 8.69152 30.7858 9.46645C30.7187 10.2414 30.3541 10.9637 29.7642 11.4903C29.1742 12.017 28.4018 12.3096 27.6 12.3103C26.9353 12.3121 26.2868 12.1114 25.7461 11.7364L27.9771 9.57265ZM24.6823 10.7294L20.9787 13.8081L19.8699 12.6655L23.8118 9.88532L24.6823 10.7294ZM17.4667 22.7072C17.2943 22.6731 12.1333 22.6552 12.1333 22.6552V21.6207H14.8C14.9414 21.6207 15.0771 21.5662 15.1771 21.4692C15.2771 21.3722 15.3333 21.2406 15.3333 21.1034V20.069H17.4667V22.7072ZM18.5333 25.2414V25.7586C18.5333 26.1702 18.3648 26.5648 18.0647 26.8559C17.7646 27.1469 17.3577 27.3103 16.9333 27.3103C16.509 27.3103 16.102 27.1469 15.802 26.8559C15.5019 26.5648 15.3333 26.1702 15.3333 25.7586V25.2414C15.3333 24.8298 15.5019 24.4352 15.802 24.1441C16.102 23.8531 16.509 23.6897 16.9333 23.6897C17.3577 23.6897 17.7646 23.8531 18.0647 24.1441C18.3648 24.4352 18.5333 24.8298 18.5333 25.2414ZM15.8667 19.0345H15.3333V18.5172C15.3333 18.3801 15.2771 18.2485 15.1771 18.1515C15.0771 18.0545 14.9414 18 14.8 18H14.2667V15.931H15.8667V19.0345ZM5.73333 25.2414C5.73333 24.8298 5.9019 24.4352 6.20196 24.1441C6.50202 23.8531 6.90899 23.6897 7.33333 23.6897C7.75768 23.6897 8.16465 23.8531 8.4647 24.1441C8.76476 24.4352 8.93333 24.8298 8.93333 25.2414V25.7586C8.93333 26.1702 8.76476 26.5648 8.4647 26.8559C8.16465 27.1469 7.75768 27.3103 7.33333 27.3103C6.90899 27.3103 6.50202 27.1469 6.20196 26.8559C5.9019 26.5648 5.73333 26.1702 5.73333 25.7586V25.2414ZM11.6 31.9655H10.5333V30.4138C10.5333 30.2766 10.4771 30.1451 10.3771 30.048C10.2771 29.951 10.1414 29.8966 10 29.8966C9.85855 29.8966 9.7229 29.951 9.62288 30.048C9.52286 30.1451 9.46667 30.2766 9.46667 30.4138V31.9655H5.2V30.4138C5.2 30.2766 5.14381 30.1451 5.04379 30.048C4.94377 29.951 4.80812 29.8966 4.66667 29.8966C4.52522 29.8966 4.38956 29.951 4.28954 30.048C4.18952 30.1451 4.13333 30.2766 4.13333 30.4138V31.9655H3.06667V30.2263C3.06644 29.9226 3.15822 29.6255 3.33063 29.3719C3.50303 29.1183 3.74845 28.9194 4.0364 28.8L5.98667 27.9892C6.3949 28.2219 6.85982 28.3446 7.33333 28.3446C7.80685 28.3446 8.27177 28.2219 8.68 27.9892L10.6303 28.7998C10.9182 28.9193 11.1637 29.1182 11.3361 29.3718C11.5085 29.6254 11.6003 29.9225 11.6 30.2263V31.9655ZM12.1333 28.6751L12.1307 28.6715C12.1324 28.6545 12.1333 28.6373 12.1333 28.6197V23.6897H14.8015C14.4538 24.1367 14.2661 24.6815 14.2667 25.2414V25.7586C14.266 26.2799 14.4288 26.789 14.7333 27.2185L13.2159 27.8492C12.7866 28.0277 12.4132 28.3125 12.1333 28.6751ZM20.2303 28.8001C20.5182 28.9195 20.7636 29.1184 20.936 29.3719C21.1084 29.6255 21.2002 29.9226 21.2 30.2263V31.9655H20.1333V30.4138C20.1333 30.2766 20.0771 30.1451 19.9771 30.048C19.8771 29.951 19.7414 29.8966 19.6 29.8966C19.4586 29.8966 19.3229 29.951 19.2229 30.048C19.1229 30.1451 19.0667 30.2766 19.0667 30.4138V31.9655H14.8V30.4138C14.8 30.2766 14.7438 30.1451 14.6438 30.048C14.5438 29.951 14.4081 29.8966 14.2667 29.8966C14.1252 29.8966 13.9896 29.951 13.8895 30.048C13.7895 30.1451 13.7333 30.2766 13.7333 30.4138V31.9655H12.6667V30.2263C12.6664 29.9226 12.7582 29.6255 12.9306 29.3719C13.103 29.1183 13.3485 28.9194 13.6364 28.8L15.5867 27.9892C15.9949 28.2219 16.4598 28.3446 16.9333 28.3446C17.4069 28.3446 17.8718 28.2219 18.28 27.9892L20.2303 28.8001ZM16.9333 19.0345V15.931H18.5333V19.0345H16.9333ZM32.9333 20.5862H18.5333V20.069H19.0667C19.2081 20.069 19.3438 20.0145 19.4438 19.9175C19.5438 19.8205 19.6 19.6889 19.6 19.5517H32.9333V20.5862ZM32.9333 18.5172H19.6V16.3167L24.5784 12.1783C24.6249 12.219 24.6785 12.2513 24.7367 12.2738C25.4527 12.9028 26.3677 13.2775 27.3319 13.3365C28.296 13.3956 29.2523 13.1356 30.0443 12.599C30.8363 12.0624 31.4171 11.2811 31.6916 10.3828C31.9662 9.48444 31.9182 8.52236 31.5557 7.65389C31.1931 6.78543 30.5374 6.06201 29.6957 5.60199C28.8541 5.14197 27.8764 4.97258 26.9226 5.12153C25.9688 5.27048 25.0953 5.72896 24.4451 6.42196C23.7949 7.11495 23.4065 8.00143 23.3433 8.93638L17.8267 12.8276H15.8667V12.7738C16.1736 12.689 16.4438 12.5096 16.6362 12.2626C16.8287 12.0157 16.933 11.7147 16.9333 11.4052V9.63517C17.289 9.51305 17.5888 9.27294 17.7796 8.95726C17.9704 8.64159 18.0401 8.27066 17.9763 7.91C17.9125 7.54933 17.7193 7.22214 17.4309 6.98622C17.1424 6.7503 16.7773 6.62084 16.4 6.62069H14.4301C13.9611 6.61915 13.501 6.74509 13.1021 6.98421C12.7031 7.22334 12.3812 7.56609 12.1729 7.9736C11.9745 8.35967 11.8845 8.78965 11.9122 9.22018C11.9398 9.65071 12.084 10.0666 12.3303 10.4258L12.6667 10.9152V12.8276H11.2C10.4576 12.8284 9.74594 13.1147 9.22102 13.6238C8.69609 14.1329 8.40083 14.8232 8.4 15.5431V18.5172H3.06667V4.03448H32.9333V18.5172Z" fill="#041E42"/>
<path d="M25.4667 15.4138H26C26.1414 15.4138 26.2771 15.3593 26.3771 15.2623C26.4771 15.1653 26.5333 15.0337 26.5333 14.8966C26.5333 14.7594 26.4771 14.6278 26.3771 14.5308C26.2771 14.4338 26.1414 14.3793 26 14.3793H25.4667C25.3252 14.3793 25.1896 14.4338 25.0895 14.5308C24.9895 14.6278 24.9333 14.7594 24.9333 14.8966C24.9333 15.0337 24.9895 15.1653 25.0895 15.2623C25.1896 15.3593 25.3252 15.4138 25.4667 15.4138Z" fill="#041E42"/>
<path d="M30.8 14.3793H28.1333C27.9919 14.3793 27.8562 14.4338 27.7562 14.5308C27.6562 14.6278 27.6 14.7594 27.6 14.8966C27.6 15.0337 27.6562 15.1653 27.7562 15.2623C27.8562 15.3593 27.9919 15.4138 28.1333 15.4138H30.8C30.9414 15.4138 31.0771 15.3593 31.1771 15.2623C31.2771 15.1653 31.3333 15.0337 31.3333 14.8966C31.3333 14.7594 31.2771 14.6278 31.1771 14.5308C31.0771 14.4338 30.9414 14.3793 30.8 14.3793Z" fill="#041E42"/>
<path d="M29.7333 16.4483H25.4667C25.3252 16.4483 25.1896 16.5028 25.0895 16.5998C24.9895 16.6968 24.9333 16.8283 24.9333 16.9655C24.9333 17.1027 24.9895 17.2343 25.0895 17.3313C25.1896 17.4283 25.3252 17.4828 25.4667 17.4828H29.7333C29.8748 17.4828 30.0104 17.4283 30.1105 17.3313C30.2105 17.2343 30.2667 17.1027 30.2667 16.9655C30.2667 16.8283 30.2105 16.6968 30.1105 16.5998C30.0104 16.5028 29.8748 16.4483 29.7333 16.4483Z" fill="#041E42"/>
</svg>
