<svg width="36" height="36" viewBox="0 0 36 36" fill="none" xmlns="http://www.w3.org/2000/svg">
<path d="M33.2619 13.0366C30.6269 4.75604 21.6377 0.12849 13.2191 2.71973C4.80163 5.31204 0.0973123 14.1577 2.73179 22.4383L3.76617 22.1195C1.30995 14.4003 5.69567 6.15372 13.5431 3.73679C17.3447 2.56673 21.382 2.92279 24.9099 4.73898C28.4394 6.55622 31.0382 9.61596 32.2281 13.3554C33.4174 17.0949 33.056 21.0662 31.2094 24.5381C29.3633 28.0105 26.2532 30.5671 22.4516 31.7377C16.0887 33.6967 9.11416 31.2228 5.48653 25.7205L4.57731 26.3005C7.57587 30.8496 12.7082 33.4691 18.0285 33.4686C19.6107 33.4686 21.2108 33.2372 22.7751 32.7543C26.8524 31.4989 30.1886 28.7563 32.1695 25.0323C34.1505 21.3082 34.5379 17.048 33.2619 13.0366Z" fill="#041E42"/>
<path d="M14.8562 9.46295L15.1672 8.44158L9.74876 6.8424C9.55913 6.7859 9.35158 6.83709 9.21017 6.97621L8.12649 8.04233C8.00026 8.16652 7.94442 8.34402 7.97694 8.51677C8.00947 8.68946 8.12649 8.83502 8.28957 8.90645L13.1662 11.0387L13.6062 10.0643L9.45081 8.24702L9.74775 7.9549L14.8562 9.46295Z" fill="#041E42"/>
<path d="M19.8897 6.28753C19.8897 5.99328 19.6475 5.75447 19.3479 5.75447C19.3473 5.75447 19.3473 5.75447 19.3468 5.75447C18.1548 5.75447 17.0337 6.21128 16.1906 7.04078L11.5958 11.5606L9.72588 11.1006C9.54114 11.0553 9.34604 11.108 9.21111 11.2408L8.12743 12.3069C8.00933 12.4231 7.9519 12.5862 7.97249 12.7488C7.99307 12.9114 8.08843 13.0564 8.23149 13.1406L10.8247 14.6716L12.3809 17.2228C12.4665 17.3636 12.6133 17.4574 12.7791 17.4776C12.8008 17.4803 12.823 17.4814 12.8453 17.4814C12.9878 17.4814 13.1259 17.4259 13.2289 17.3257L14.3126 16.2596C14.447 16.1269 14.5012 15.935 14.4551 15.7532L13.988 13.9157L18.656 9.36865C19.4525 8.54821 19.8908 7.4704 19.8897 6.28753ZM13.0056 13.3709C12.8696 13.5031 12.8149 13.6961 12.861 13.8789L13.3286 15.7185L12.9526 16.0884L11.6841 14.0084C11.638 13.9333 11.5746 13.8704 11.4983 13.8256L9.38403 12.5777L9.76006 12.2078L11.63 12.6678C11.8147 12.7131 12.0098 12.6604 12.1447 12.5276L16.9563 7.79403C17.4548 7.30309 18.0822 6.98484 18.7628 6.86915C18.6555 7.52803 18.3504 8.1389 17.8823 8.62134L13.0056 13.3709Z" fill="#041E42"/>
<path d="M18.7826 15.8001L17.1571 10.4001L16.1178 10.7029L17.6452 15.7767L17.3164 16.0624L15.5098 11.9397L14.5145 12.3619L16.6168 17.1595C16.6856 17.3162 16.8265 17.4314 16.9961 17.4687C17.0357 17.4772 17.0752 17.4815 17.1148 17.4815C17.2454 17.4815 17.3732 17.4351 17.473 17.3482L18.6217 16.3514C18.7799 16.2142 18.8422 15.9994 18.7826 15.8001Z" fill="#041E42"/>
<path d="M12.3205 31.3928C8.46155 33.1918 5.43427 33.4242 4.01682 32.0303C1.56009 29.6134 4.22811 22.5913 10.2225 15.6956L9.39892 15.0026C2.82425 22.5657 0.295484 29.8778 3.25015 32.7841C4.07539 33.5954 5.24089 34 6.68649 34C8.37159 34 10.4371 33.4504 12.7844 32.356L12.3205 31.3928Z" fill="#041E42"/>
<path d="M30.6626 20.4281C30.5683 20.2549 30.3846 20.1467 30.1846 20.1467H28.3521L26.8762 17.2431C26.7841 17.0624 26.5966 16.9482 26.3912 16.9482H20.9728C20.6731 16.9482 20.4309 17.1871 20.4309 17.4813V21.7459C20.4309 22.0407 20.6732 22.2789 20.9728 22.2789H22.5983V28.1426C22.5983 28.4375 22.8405 28.6757 23.1401 28.6757H25.8493C25.9929 28.6757 26.1305 28.6197 26.233 28.519L28.4003 26.3867C28.5021 26.287 28.5591 26.1516 28.5591 26.0098V24.0391L30.6354 20.975C30.746 20.8119 30.7568 20.6014 30.6626 20.4281ZM27.5659 23.5823C27.5068 23.6697 27.4749 23.7731 27.4749 23.8782V25.7897L25.625 27.6096H23.682L23.6814 21.7459C23.6814 21.451 23.4393 21.2128 23.1396 21.2128H21.5141V18.0144H26.0558L27.5318 20.918C27.6239 21.0987 27.8114 21.2129 28.0167 21.2129H29.1719L27.5659 23.5823Z" fill="#041E42"/>
<path d="M31.0398 15.8821L29.0285 12.4193C28.932 12.253 28.7521 12.1506 28.5582 12.1506H25.3071C25.1261 12.1506 24.9571 12.2396 24.8563 12.3878L23.9336 13.7498H22.5979V11.0845H25.3071C25.4513 11.0845 25.5884 11.0285 25.6902 10.9283L27.6988 8.95227H30.1837V7.88615H27.4745C27.3303 7.88615 27.1932 7.94214 27.0914 8.04233L25.0828 10.0184H22.0561C21.7564 10.0184 21.5143 10.2572 21.5143 10.5514V14.2829C21.5143 14.5771 21.7565 14.8159 22.0561 14.8159H24.2235C24.4045 14.8159 24.5735 14.7269 24.6743 14.5787L25.597 13.2168H28.2439L30.2553 16.6796C30.3517 16.8459 30.5316 16.9482 30.7256 16.9482H32.8929V15.8821H31.0398Z" fill="#041E42"/>
<path d="M17.7218 21.2128H14.6951L13.2284 19.7698C13.127 19.6695 12.9888 19.6136 12.8453 19.6136H10.1361C9.83698 19.6136 9.59424 19.8519 9.59424 20.1467V23.8781C9.59424 24.1729 9.83698 24.4112 10.1361 24.4112H12.3034V29.7418C12.3034 29.9439 12.4194 30.1283 12.6031 30.2189C12.6795 30.2562 12.7629 30.2749 12.8453 30.2749C12.9602 30.2749 13.0745 30.2392 13.1704 30.1683L15.3378 28.5691C15.4743 28.4683 15.5545 28.31 15.5545 28.1426V26.7993L18.0606 24.8275C18.1889 24.7263 18.2637 24.5733 18.2637 24.4112V21.7459C18.2637 21.4511 18.0209 21.2128 17.7218 21.2128ZM17.18 24.1553L14.674 26.1271C14.5456 26.2285 14.4708 26.3814 14.4708 26.5435V27.8761L13.3871 28.6758V23.8782C13.3871 23.5833 13.1444 23.3451 12.8453 23.3451H10.6779V20.6798H12.6209L14.0877 22.1228C14.189 22.223 14.3272 22.279 14.4708 22.279H17.18V24.1553Z" fill="#041E42"/>
<path d="M6.8074 13.4754L5.18189 10.8101C5.08437 10.6496 4.9077 10.5515 4.71756 10.5515H4.17572V11.6176H4.4109L5.66096 13.6673L4.33454 14.9722C4.23264 15.0719 4.17578 15.2078 4.17578 15.3491V16.9482H2.55014V18.0144H4.71749C5.01659 18.0144 5.25933 17.7756 5.25933 17.4813V15.5697L6.72609 14.1267C6.90168 13.9535 6.93529 13.6854 6.8074 13.4754Z" fill="#041E42"/>
<path d="M18.806 2.55553V3.20584L17.0488 3.63815C16.9886 3.65309 16.9312 3.67815 16.8798 3.71171L15.5159 4.60621L12.5461 3.14509L12.0612 4.09871L15.3122 5.6979C15.3886 5.73521 15.4715 5.7539 15.5544 5.7539C15.6596 5.7539 15.7641 5.72352 15.8546 5.66433L17.4021 4.6494L19.479 4.13871C19.7201 4.07953 19.8897 3.86634 19.8897 3.62165V2.55553H18.806Z" fill="#041E42"/>
</svg>
