<svg width="36" height="36" viewBox="0 0 36 36" fill="none" xmlns="http://www.w3.org/2000/svg">
<path d="M15 9.07623H13.325C12.8236 9.07623 12.4156 9.4844 12.4156 9.98621V10.0156H11.4183V9.98621C11.4183 9.48446 11.0104 9.07623 10.509 9.07623H8.90931C8.40793 9.07623 8 9.4844 8 9.98621V11.3952C8 11.8969 8.40787 12.3052 8.90931 12.3052H10.5091C11.0104 12.3052 11.4184 11.897 11.4184 11.3952V10.8962H12.4157V11.3952C12.4157 11.8969 12.8236 12.3052 13.325 12.3052H15.0001C15.5014 12.3052 15.9094 11.897 15.9094 11.3952V9.98621C15.9093 9.48446 15.5014 9.07623 15 9.07623ZM10.5384 11.3952C10.5384 11.4113 10.5252 11.4246 10.509 11.4246H8.90931C8.89314 11.4246 8.87996 11.4114 8.87996 11.3952V9.98621C8.87996 9.97008 8.89308 9.95683 8.90931 9.95683H10.5091C10.5252 9.95683 10.5384 9.97003 10.5384 9.98621L10.5384 11.3952ZM15.0294 11.3952C15.0294 11.4113 15.0162 11.4246 15 11.4246H13.325C13.3088 11.4246 13.2956 11.4114 13.2956 11.3952V9.98621C13.2956 9.97008 13.3087 9.95683 13.325 9.95683H15C15.0162 9.95683 15.0294 9.97003 15.0294 9.98621V11.3952Z" fill="#041E42"/>
<path d="M9.77918 10.2505H9.72053C9.47754 10.2505 9.28055 10.4476 9.28055 10.6908C9.28055 10.934 9.47754 11.1311 9.72053 11.1311H9.77918C10.0222 11.1311 10.2192 10.934 10.2192 10.6908C10.2192 10.4476 10.0222 10.2505 9.77918 10.2505Z" fill="#041E42"/>
<path d="M14.1757 10.2505H14.1171C13.8741 10.2505 13.6771 10.4476 13.6771 10.6908C13.6771 10.934 13.8741 11.1311 14.1171 11.1311H14.1757C14.4187 11.1311 14.6157 10.934 14.6157 10.6908C14.6157 10.4476 14.4187 10.2505 14.1757 10.2505Z" fill="#041E42"/>
<path d="M13.6771 13.0097C13.5313 12.8152 13.2555 12.7757 13.0611 12.9217C12.8713 13.0642 12.4703 13.3032 11.9172 13.3032C11.6798 13.3032 11.2156 13.2536 10.7732 12.9216C10.5788 12.7758 10.3029 12.8152 10.1572 13.0097C10.0114 13.2042 10.0508 13.4803 10.2452 13.6262C10.8917 14.1114 11.5703 14.1839 11.9172 14.1839C12.7255 14.1839 13.3117 13.8345 13.5891 13.6261C13.7835 13.4802 13.823 13.2042 13.6771 13.0097Z" fill="#041E42"/>
<path d="M11.976 24.5754H11.9173C11.6744 24.5754 11.4774 24.7724 11.4774 25.0157C11.4774 25.2589 11.6744 25.456 11.9173 25.456H11.976C12.219 25.456 12.416 25.2589 12.416 25.0157C12.416 24.7724 12.219 24.5754 11.976 24.5754Z" fill="#041E42"/>
<path d="M11.976 26.9237H11.9173C11.6744 26.9237 11.4774 27.1208 11.4774 27.364C11.4774 27.6072 11.6744 27.8043 11.9173 27.8043H11.976C12.219 27.8043 12.416 27.6072 12.416 27.364C12.416 27.1208 12.219 26.9237 11.976 26.9237Z" fill="#041E42"/>
<path d="M11.976 29.272H11.9173C11.6744 29.272 11.4774 29.4691 11.4774 29.7123C11.4774 29.9555 11.6744 30.1526 11.9173 30.1526H11.976C12.219 30.1526 12.416 29.9555 12.416 29.7123C12.416 29.4691 12.219 29.272 11.976 29.272Z" fill="#041E42"/>
<path d="M29.7033 16.5505C29.495 16.4254 29.2247 16.4931 29.0997 16.7016C28.9747 16.9101 29.0423 17.1806 29.2507 17.3057C31.0519 18.3867 32.1273 20.1717 32.1273 22.0803C32.1273 25.2689 29.1666 27.863 25.5274 27.863C21.8882 27.863 18.9275 25.2689 18.9275 22.0803C18.9275 20.9658 19.291 19.8833 19.9785 18.9502C20.0732 18.8217 20.0909 18.652 20.0249 18.5067L18.9043 16.0395L21.5462 17.2413C21.6746 17.2996 21.823 17.293 21.9454 17.2234C23.0122 16.6177 24.2508 16.2976 25.5274 16.2976C26.1347 16.2976 26.7362 16.3698 27.3153 16.5124C27.5513 16.5702 27.7896 16.426 27.8476 16.1899C27.9057 15.9538 27.7614 15.7153 27.5255 15.6572C26.8777 15.4978 26.2054 15.4169 25.5273 15.4169C24.1771 15.4169 22.8624 15.7384 21.7099 16.3484L18.2002 14.7518C17.8381 14.5873 17.4529 14.9872 17.6176 15.3496L17.9748 16.1507H15.9287C16.8515 15.7985 17.4901 14.9445 17.4901 13.9199V12.0999C17.4901 12.0907 17.504 12.0818 17.5034 12.0727L18.7034 11.2961C18.8293 11.2151 18.8981 11.0755 18.8981 10.9257V5.28965C18.8981 4.01096 17.8879 3 16.6101 3H7.2239C5.94615 3 4.87728 4.01096 4.87728 5.28965V10.9256C4.87728 11.0754 4.9681 11.215 5.09396 11.296L6.2939 12.0727C6.29337 12.0817 6.28523 12.0906 6.28523 12.0998V13.9198C6.28523 14.9445 6.98249 15.7985 7.90528 16.1507H5.34662C4.06887 16.1507 3 17.1617 3 18.4403V32.5303C3 32.7735 3.22635 33 3.46934 33H20.3649C20.6079 33 20.7756 32.7735 20.7756 32.5303V27.2435C22.0663 28.1807 23.7234 28.7436 25.5128 28.7436C29.6373 28.7436 33 25.7544 33 22.0802C32.9999 19.8594 31.7721 17.7922 29.7033 16.5505ZM6.81866 6.73516C6.55253 6.68655 6.28529 6.89817 6.28529 7.16837V11.025L5.7573 10.6853V5.2897C5.7573 4.49658 6.43142 3.88072 7.22396 3.88072H16.6104C17.403 3.88072 18.0184 4.49658 18.0184 5.2897V10.6853L17.4904 11.025V7.16837C17.4904 6.89805 17.2524 6.68678 16.9864 6.73516L11.9025 7.66009L6.81866 6.73516ZM7.16525 13.9199V7.69592L11.8237 8.54093C11.8758 8.55043 11.9218 8.55043 11.9739 8.54093L16.6104 7.69592V13.9199C16.6104 14.713 15.9949 15.3876 15.2024 15.3876H8.63184C7.83937 15.3876 7.16525 14.713 7.16525 13.9199ZM14.4657 17.0314L13.3354 19.1174L13.2989 18.5038L13.6686 17.0314L14.4657 17.0314ZM12.5122 18.0295H11.322L11.0727 17.0314H12.7615L12.5122 18.0295ZM12.54 20.581L11.9171 21.7386L11.2918 20.5765C11.2935 20.5642 11.2951 20.5666 11.2959 20.5539L11.3934 18.9101H12.4409L12.54 20.581ZM10.5353 18.4964L10.4988 19.1247L9.36854 17.0314H10.1657L10.5353 18.4964ZM19.8956 26.5617V32.1195H3.87996V18.4404C3.87996 17.6473 4.55408 17.0314 5.34662 17.0314H8.36911L11.5298 22.8909C11.6927 23.1937 12.1416 23.2011 12.3046 22.8982L15.4652 17.0314H18.375L19.1195 18.6558C18.4174 19.692 18.0477 20.8684 18.0477 22.0877C18.0477 23.7798 18.7451 25.3227 19.9158 26.4992C19.9125 26.5207 19.8956 26.5391 19.8956 26.5617Z" fill="#041E42"/>
<path d="M25.5274 18C23.2146 18 21.3329 19.8831 21.3329 22.1976C21.3329 24.5122 23.2146 26.3952 25.5274 26.3952C27.8403 26.3952 29.722 24.5122 29.722 22.1976C29.722 19.8831 27.8404 18 25.5274 18ZM25.5274 25.5146C23.6998 25.5146 22.2129 24.0266 22.2129 22.1976C22.2129 20.3686 23.6998 18.8806 25.5274 18.8806C27.3551 18.8806 28.842 20.3686 28.842 22.1976C28.842 24.0266 27.3551 25.5146 25.5274 25.5146Z" fill="#041E42"/>
<path d="M24.1782 21.2876H24.1196C23.8766 21.2876 23.6796 21.4847 23.6796 21.7279C23.6796 21.9712 23.8766 22.1682 24.1196 22.1682H24.1782C24.4212 22.1682 24.6182 21.9712 24.6182 21.7279C24.6182 21.4847 24.4212 21.2876 24.1782 21.2876Z" fill="#041E42"/>
<path d="M26.9352 21.2876H26.8765C26.6335 21.2876 26.4365 21.4847 26.4365 21.7279C26.4365 21.9712 26.6335 22.1682 26.8765 22.1682H26.9352C27.1782 22.1682 27.3752 21.9712 27.3752 21.7279C27.3752 21.4847 27.1782 21.2876 26.9352 21.2876Z" fill="#041E42"/>
<path d="M27.2875 22.8727C27.1417 22.6782 26.8659 22.6386 26.6715 22.7847C26.4817 22.9272 26.0807 23.1662 25.5276 23.1662C25.2902 23.1662 24.826 23.1166 24.3836 22.7846C24.1892 22.6389 23.9134 22.6782 23.7676 22.8727C23.6218 23.0672 23.6612 23.3433 23.8556 23.4892C24.5021 23.9744 25.1807 24.0469 25.5276 24.0469C26.3359 24.0469 26.9221 23.6975 27.1995 23.4891C27.3939 23.3432 27.4333 23.0672 27.2875 22.8727Z" fill="#041E42"/>
</svg>
