<svg width="36" height="36" viewBox="0 0 36 36" fill="none" xmlns="http://www.w3.org/2000/svg">
<path d="M18 2C9.1776 2 2 9.1776 2 18C2 26.8224 9.1776 34 18 34C26.8224 34 34 26.8224 34 18C34 9.1776 26.8224 2 18 2ZM18 32.9333C9.7656 32.9333 3.06667 26.2344 3.06667 18C3.06667 9.7656 9.7656 3.06667 18 3.06667C26.2344 3.06667 32.9333 9.7656 32.9333 18C32.9333 26.2344 26.2344 32.9333 18 32.9333Z" fill="#041E42"/>
<path d="M8.80522 8.88061L8.03906 8.12215C7.70389 8.42995 7.38115 8.75519 7.08059 9.08969L7.92032 9.77416C8.19794 9.46478 8.49595 9.16421 8.80522 8.88061Z" fill="#041E42"/>
<path d="M3.67681 16.8784L4.77883 16.9616C4.96859 14.704 5.79494 12.537 7.17069 10.6893L6.26838 10.081C4.77802 12.0836 3.88271 14.4319 3.67681 16.8784Z" fill="#041E42"/>
<path d="M24.8255 7.6902C24.8255 7.1407 24.6336 6.61052 24.2866 6.20132C23.9396 5.79211 23.4618 5.53268 22.945 5.47276C22.4281 5.41285 21.9085 5.55666 21.4858 5.87663C21.0631 6.1966 20.767 6.67021 20.6543 7.20666C20.572 7.59823 20.5059 7.99361 20.4379 8.38847C19.6438 8.15757 18.8237 8.0423 18.0002 8.04584V5.96051C18.0002 5.68392 17.7819 5.4597 17.5126 5.4597C17.2433 5.4597 17.0249 5.68392 17.0249 5.96051V11.6425C17.0238 12.1997 16.8529 12.7417 16.5374 13.1882C16.3955 13.3879 16.2268 13.5647 16.0365 13.7129C15.4323 14.1839 15.0877 14.9709 15.1153 15.8207L15.5618 27.6332C15.5665 27.7646 15.5458 27.8955 15.5011 28.0182C15.4565 28.1408 15.3887 28.2526 15.3019 28.3467C15.1244 28.5315 14.8852 28.635 14.6361 28.635C14.3869 28.635 14.1477 28.5315 13.9702 28.3467C13.8834 28.2524 13.8155 28.1403 13.7708 28.0175C13.7262 27.8946 13.7055 27.7634 13.7102 27.6318L14.0593 15.8177C14.0869 14.9709 13.7424 14.184 13.1375 13.713C12.9474 13.5646 12.7788 13.3876 12.6371 13.1877C12.3216 12.7414 12.1506 12.1995 12.1496 11.6425V5.96041C12.1496 5.68388 11.9313 5.4597 11.6621 5.4597C11.3928 5.4597 11.1745 5.68388 11.1745 5.96041V11.2233C10.276 12.2556 9.59858 13.4805 9.18853 14.8144C8.77848 16.1484 8.6454 17.5601 8.79837 18.9534C8.95134 20.3467 9.38676 21.6887 10.0749 22.888C10.7631 24.0873 11.6879 25.1157 12.7862 25.9031L12.7362 27.598C12.7274 27.8676 12.7702 28.1363 12.8618 28.388C12.9535 28.6398 13.0922 28.8694 13.2696 29.0633C13.447 29.2572 13.6596 29.4114 13.8946 29.5166C14.1297 29.6218 14.3823 29.6759 14.6376 29.6757C14.8928 29.6755 15.1454 29.621 15.3803 29.5154C15.6151 29.4098 15.8275 29.2553 16.0046 29.0611C16.1818 28.867 16.3202 28.6371 16.4114 28.3852C16.5027 28.1333 16.5451 27.8646 16.536 27.595L16.5319 27.4872C18.0526 27.7516 19.6119 27.6031 21.0633 27.0557L21.0305 27.5298C21.013 27.7985 21.047 28.0682 21.1302 28.3229C21.2135 28.5775 21.3444 28.8118 21.5151 29.0118C21.6859 29.2118 21.893 29.3735 22.1241 29.4872C22.3552 29.6009 22.6056 29.6643 22.8603 29.6735C23.1151 29.6828 23.369 29.6378 23.607 29.5412C23.8449 29.4446 24.0621 29.2984 24.2454 29.1112C24.4288 28.9241 24.5747 28.6999 24.6743 28.4519C24.774 28.204 24.8254 27.9374 24.8255 27.668V24.4272C26.393 22.6277 27.2632 20.2712 27.2632 17.8252C27.2632 15.3793 26.393 13.0228 24.8255 11.2233V7.6902ZM12.8231 24.6549C11.153 23.2485 10.0634 21.213 9.78337 18.9757C9.50329 16.7384 10.0544 14.4734 11.3211 12.6564C11.5233 13.4134 11.959 14.0772 12.5591 14.5425C12.9047 14.8117 13.1014 15.2756 13.0852 15.7843L12.8231 24.6549ZM21.1422 25.9179C19.6752 26.5762 18.0545 26.7519 16.4916 26.4221L16.0894 15.7826C16.0733 15.2754 16.2699 14.8115 16.615 14.5423C16.882 14.3346 17.1186 14.0867 17.3175 13.8064C17.7593 13.1815 17.9987 12.4226 18 11.6425V9.07508C18.7708 9.07159 19.5381 9.18485 20.2786 9.41139C20.0633 10.9258 19.9536 12.4548 19.9501 13.9862V19.3709C19.9501 19.5076 20.0015 19.6386 20.0929 19.7353C20.1844 19.8319 20.3084 19.8862 20.4377 19.8862H21.5604L21.1422 25.9179ZM23.8504 27.668C23.8502 27.927 23.7527 28.1754 23.5793 28.3586C23.406 28.5418 23.171 28.6448 22.9258 28.6451C22.7992 28.6451 22.6739 28.6177 22.5578 28.5644C22.4416 28.5112 22.3371 28.4333 22.2506 28.3356C22.1641 28.2379 22.0975 28.1225 22.0549 27.9965C22.0124 27.8705 21.9947 27.7365 22.0032 27.603L22.5711 19.4087C22.576 19.338 22.5671 19.2671 22.5449 19.2003C22.5227 19.1334 22.4877 19.0721 22.4421 19.0202C22.3965 18.9684 22.3412 18.927 22.2798 18.8987C22.2183 18.8703 22.152 18.8557 22.085 18.8557H20.9252V13.9862C20.9255 11.781 21.154 9.58253 21.6065 7.42988C21.6671 7.14124 21.8264 6.8864 22.0538 6.71423C22.2813 6.54206 22.5608 6.46469 22.8389 6.49695C23.117 6.52921 23.374 6.66884 23.5607 6.88905C23.7474 7.10926 23.8505 7.39455 23.8504 7.6902V27.668ZM26.2881 17.8252C26.2889 19.595 25.7787 21.3228 24.8255 22.7779V12.8726C25.7787 14.3277 26.2889 16.0555 26.2881 17.8252Z" fill="#041E42"/>
<path d="M12.9474 6.02703C12.9474 5.71357 13.1948 5.45946 13.5 5.45946C13.8052 5.45946 14.0526 5.71357 14.0526 6.02703V10.6796C14.0526 10.9931 13.8052 11.2472 13.5 11.2472C13.1948 11.2472 12.9474 10.9931 12.9474 10.6796V6.02703Z" fill="#041E42"/>
<path d="M14.9231 6.02703C14.9231 5.71357 15.1705 5.45946 15.4757 5.45946C15.7809 5.45946 16.0283 5.71357 16.0283 6.02703V10.6796C16.0283 10.9931 15.7809 11.2472 15.4757 11.2472C15.1705 11.2472 14.9231 10.9931 14.9231 10.6796V6.02703Z" fill="#041E42"/>
</svg>
