<svg width="36" height="36" viewBox="0 0 36 36" fill="none" xmlns="http://www.w3.org/2000/svg">
<path d="M28.5259 1.00007H24.5722C24.3067 1.00007 24.0548 1.10339 23.863 1.29106L18.1126 6.91594C18.0495 6.97776 17.9507 6.97769 17.8874 6.91594L12.1369 1.29093C11.9451 1.10333 11.6933 1 11.4278 1H7.475C6.94531 1.00053 6.51359 1.44127 6.51359 1.98288V10.2899C6.51359 10.6908 6.34294 11.0706 6.04542 11.3318L5.80871 11.5396C5.29481 11.9908 5.00008 12.6467 5.00008 13.3391V14.784C5.00002 15.0597 5.21874 15.2834 5.48858 15.2834C5.75836 15.2834 5.97715 15.0598 5.97715 14.784V13.3391C5.97715 12.9383 6.1478 12.5585 6.44532 12.2973L6.68203 12.0894C7.19593 11.6383 7.49065 10.9823 7.49065 10.2899V1.99882H8.46837L17.2009 10.771C17.4212 10.9922 17.7105 11.1029 17.9998 11.1029C18.2892 11.1029 18.5786 10.9922 18.7988 10.771L27.5315 1.99882H28.5095V4.42949C28.5095 4.70534 28.7282 4.92893 28.998 4.92893C29.2679 4.92893 29.4866 4.70534 29.4866 4.42949V1.98288C29.4866 1.4412 29.0556 1.00046 28.5259 1.00007ZM18.1139 10.0585C18.051 10.1218 17.9486 10.1217 17.8857 10.0585L9.86241 1.99882H11.2971C11.394 1.99882 11.4859 2.03654 11.5559 2.10507L17.212 7.63764C17.6538 8.06981 18.3462 8.06988 18.7882 7.63764L24.4443 2.105C24.5143 2.03654 24.6062 1.99882 24.7031 1.99882H26.1375L18.1139 10.0585Z" fill="#041E42"/>
<path d="M30.1914 11.5396L29.9547 11.3317C29.6571 11.0705 29.4865 10.6908 29.4865 10.2899V7.55913C29.4865 7.28335 29.2678 7.05969 28.9979 7.05969C28.7281 7.05969 28.5094 7.28328 28.5094 7.55913V10.2899C28.5094 10.9824 28.8041 11.6383 29.318 12.0894L29.5547 12.2973C29.8522 12.5585 30.0229 12.9382 30.0229 13.3391V31.2312H5.97713V17.9469C5.97713 17.6711 5.75841 17.4474 5.48856 17.4474C5.21872 17.4474 5 17.671 5 17.9469V31.3977C5 31.8566 5.36527 32.23 5.81421 32.23H6.95913V34.1677C6.95913 34.6266 7.3244 35 7.77334 35H28.2267C28.6756 35 29.0409 34.6266 29.0409 34.1677V32.23H30.1858C30.6347 32.23 31 31.8566 31 31.3977V13.3391C31 12.6467 30.7053 11.9908 30.1914 11.5396ZM26.0446 34.0012V33.373C26.0446 33.0973 25.8259 32.8736 25.556 32.8736C25.2862 32.8736 25.0675 33.0972 25.0675 33.373V34.0011H23.5259V33.373C23.5259 33.0973 23.3072 32.8736 23.0373 32.8736C22.7675 32.8736 22.5488 33.0972 22.5488 33.373V34.0011H21.0071V33.373C21.0071 33.0973 20.7884 32.8736 20.5186 32.8736C20.2487 32.8736 20.03 33.0972 20.03 33.373V34.0011H18.4884V33.373C18.4884 33.0973 18.2697 32.8736 17.9999 32.8736C17.73 32.8736 17.5113 33.0972 17.5113 33.373V34.0011H15.9697V33.373C15.9697 33.0973 15.751 32.8736 15.4812 32.8736C15.2113 32.8736 14.9926 33.0972 14.9926 33.373V34.0011H13.451V33.373C13.451 33.0973 13.2323 32.8736 12.9624 32.8736C12.6926 32.8736 12.4738 33.0972 12.4738 33.373V34.0011H10.9323V33.373C10.9323 33.0973 10.7136 32.8736 10.4437 32.8736C10.1739 32.8736 9.95515 33.0972 9.95515 33.373V34.0011H7.93587V32.2299H28.0635V34.0012H26.0446Z" fill="#041E42"/>
<path d="M26.7431 11.9648H22.1002C21.6994 11.9648 21.3733 12.2982 21.3733 12.708V15.3301C21.3733 16.4329 21.9519 17.4638 22.8832 18.0203C23.3577 18.3039 23.8896 18.4457 24.4216 18.4457C24.9536 18.4457 25.4856 18.3039 25.9601 18.0203C26.8914 17.4638 27.47 16.4329 27.47 15.3301V12.708C27.47 12.2982 27.1438 11.9648 26.7431 11.9648ZM25.4668 17.158C24.8221 17.5434 24.021 17.5433 23.3762 17.158C22.7433 16.7799 22.3502 16.0794 22.3502 15.3301V12.9636H26.4928V15.3301C26.4928 16.0794 26.0997 16.7799 25.4668 17.158Z" fill="#041E42"/>
</svg>
