<svg width="36" height="36" viewBox="0 0 36 36" fill="none" xmlns="http://www.w3.org/2000/svg">
<path d="M32.1935 5.52727H31.9355V4.50909C31.9355 4.22795 31.7044 4 31.4194 4H29.3548C29.0698 4 28.8387 4.22795 28.8387 4.50909V5.52727H25.7419V4.50909C25.7419 4.22795 25.5108 4 25.2258 4H23.1613C22.8763 4 22.6452 4.22795 22.6452 4.50909V5.52727H19.5484V4.50909C19.5484 4.22795 19.3173 4 19.0323 4H16.9677C16.6827 4 16.4516 4.22795 16.4516 4.50909V5.52727H13.3548V4.50909C13.3548 4.22795 13.1237 4 12.8387 4H10.7742C10.4892 4 10.2581 4.22795 10.2581 4.50909V5.52727H7.16129V4.50909C7.16129 4.22795 6.93019 4 6.64516 4H4.58065C4.29561 4 4.06452 4.22795 4.06452 4.50909V5.52727H3.80645C2.80923 5.52835 2.0011 6.32546 2 7.30909V30.2182C2.0011 31.2018 2.80923 31.9989 3.80645 32H32.1935C33.1908 31.9989 33.9989 31.2018 34 30.2182V7.30909C33.9989 6.32546 33.1908 5.52835 32.1935 5.52727ZM29.871 5.01818H30.9032V7.05455H29.871V5.01818ZM23.6774 5.01818H24.7097V7.05455H23.6774V5.01818ZM17.4839 5.01818H18.5161V7.05455H17.4839V5.01818ZM11.2903 5.01818H12.3226V7.05455H11.2903V5.01818ZM5.09677 5.01818H6.12903V7.05455H5.09677V5.01818ZM32.9677 30.2182C32.9674 30.6398 32.621 30.9814 32.1935 30.9818H3.80645C3.37903 30.9814 3.03265 30.6398 3.03226 30.2182V9.6H32.9677V30.2182ZM32.9677 8.58182H3.03226V7.30909C3.03265 6.8875 3.37903 6.54584 3.80645 6.54545H4.06452V7.56364C4.06452 7.84478 4.29561 8.07273 4.58065 8.07273H6.64516C6.93019 8.07273 7.16129 7.84478 7.16129 7.56364V6.54545H10.2581V7.56364C10.2581 7.84478 10.4892 8.07273 10.7742 8.07273H12.8387C13.1237 8.07273 13.3548 7.84478 13.3548 7.56364V6.54545H16.4516V7.56364C16.4516 7.84478 16.6827 8.07273 16.9677 8.07273H19.0323C19.3173 8.07273 19.5484 7.84478 19.5484 7.56364V6.54545H22.6452V7.56364C22.6452 7.84478 22.8763 8.07273 23.1613 8.07273H25.2258C25.5108 8.07273 25.7419 7.84478 25.7419 7.56364V6.54545H28.8387V7.56364C28.8387 7.84478 29.0698 8.07273 29.3548 8.07273H31.4194C31.7044 8.07273 31.9355 7.84478 31.9355 7.56364V6.54545H32.1935C32.621 6.54584 32.9674 6.8875 32.9677 7.30909V8.58182Z" fill="#041E42"/>
<path d="M17.9997 13.6727C14.294 13.6727 11.29 16.6358 11.29 20.2909C11.29 23.9461 14.294 26.9091 17.9997 26.9091C21.7054 26.9091 24.7094 23.9461 24.7094 20.2909C24.7052 16.6375 21.7037 13.6769 17.9997 13.6727ZM17.9997 25.8909C14.8642 25.8909 12.3223 23.3837 12.3223 20.2909C12.3223 17.1981 14.8642 14.6909 17.9997 14.6909C21.1353 14.6909 23.6772 17.1981 23.6772 20.2909C23.6736 23.3822 21.1338 25.8874 17.9997 25.8909Z" fill="#041E42"/>
<path d="M17.9998 13.1636C18.2848 13.1636 18.5159 12.9357 18.5159 12.6545V11.6364C18.5159 11.3552 18.2848 11.1273 17.9998 11.1273C17.7148 11.1273 17.4837 11.3552 17.4837 11.6364V12.6545C17.4837 12.9357 17.7148 13.1636 17.9998 13.1636Z" fill="#041E42"/>
<path d="M17.9998 27.4182C17.7148 27.4182 17.4837 27.6461 17.4837 27.9273V28.9455C17.4837 29.2266 17.7148 29.4545 17.9998 29.4545C18.2848 29.4545 18.5159 29.2266 18.5159 28.9455V27.9273C18.5159 27.6461 18.2848 27.4182 17.9998 27.4182Z" fill="#041E42"/>
<path d="M26.7739 19.7818H25.7416C25.4566 19.7818 25.2255 20.0098 25.2255 20.2909C25.2255 20.572 25.4566 20.8 25.7416 20.8H26.7739C27.0589 20.8 27.29 20.572 27.29 20.2909C27.29 20.0098 27.0589 19.7818 26.7739 19.7818Z" fill="#041E42"/>
<path d="M10.2583 19.7818H9.22609C8.94106 19.7818 8.70996 20.0098 8.70996 20.2909C8.70996 20.572 8.94106 20.8 9.22609 20.8H10.2583C10.5434 20.8 10.7745 20.572 10.7745 20.2909C10.7745 20.0098 10.5434 19.7818 10.2583 19.7818Z" fill="#041E42"/>
<path d="M23.839 13.8113L23.1094 14.5312C22.913 14.735 22.9214 15.0573 23.1281 15.2509C23.3273 15.4376 23.6398 15.4376 23.839 15.2509L24.5689 14.5309C24.7682 14.3299 24.7645 14.0076 24.5607 13.811C24.3601 13.6176 24.0396 13.6178 23.839 13.8113Z" fill="#041E42"/>
<path d="M12.1602 25.3309L11.4304 26.0506C11.2266 26.2472 11.2229 26.5695 11.4222 26.7706C11.6215 26.9716 11.9482 26.9752 12.152 26.7786C12.1548 26.776 12.1575 26.7733 12.1602 26.7706L12.8899 26.0506C13.0862 25.8468 13.0778 25.5246 12.8712 25.3309C12.672 25.1443 12.3595 25.1443 12.1602 25.3309Z" fill="#041E42"/>
<path d="M23.8393 25.3309C23.6327 25.1373 23.306 25.1455 23.1097 25.3494C22.9204 25.5459 22.9204 25.8541 23.1097 26.0506L23.8396 26.7705C24.0434 26.9671 24.3702 26.9635 24.5695 26.7624C24.7656 26.5646 24.7656 26.2485 24.5695 26.0506L23.8393 25.3309Z" fill="#041E42"/>
<path d="M12.1605 15.2509C12.3671 15.4446 12.6938 15.4363 12.8901 15.2325C13.0794 15.0359 13.0794 14.7277 12.8901 14.5312L12.1605 13.8113C11.9567 13.6147 11.6299 13.6183 11.4306 13.8193C11.2345 14.0171 11.2345 14.3333 11.4306 14.5312L12.1605 15.2509Z" fill="#041E42"/>
</svg>
