<svg width="36" height="36" viewBox="0 0 36 36" fill="none" xmlns="http://www.w3.org/2000/svg">
<path d="M33.4483 16.9388H26.3917V15.5295C26.3914 15.3236 26.2839 15.1339 26.1103 15.0331L18.5517 10.6398V8.40319H20.0469V9.25333C20.0469 9.56842 20.2939 9.82389 20.5986 9.82389H25.1062C25.4109 9.82374 25.6578 9.56821 25.6577 9.25311C25.6577 9.18707 25.6466 9.12153 25.6248 9.05934L25.1724 7.72993L25.6303 6.42906C25.7339 6.13273 25.5857 5.80565 25.2991 5.69853C25.239 5.67606 25.1757 5.66458 25.1117 5.66451H23.0593V4.8372C23.0593 4.52211 22.8123 4.26664 22.5076 4.26664H18.5517V3.57056C18.5517 3.25547 18.3047 3 18 3C17.6953 3 17.4483 3.25547 17.4483 3.57056V10.6398L9.88966 15.0274C9.71614 15.1282 9.60862 15.3179 9.60828 15.5238V16.9331H2.55172C2.24703 16.9331 2 17.1885 2 17.5036V32.4294C2 32.7445 2.24703 33 2.55172 33H33.4483C33.753 33 34 32.7445 34 32.4294V17.5093C34 17.1942 33.753 16.9388 33.4483 16.9388ZM23.0593 7.83264L23.0372 7.80981V6.82845H24.2952L24.069 7.55877C24.0238 7.68586 24.0238 7.82536 24.069 7.95245L24.3283 8.68277H21.1503V8.40319H22.5076C22.8123 8.40319 23.0593 8.14773 23.0593 7.83264ZM18.5517 5.40776H21.9559V7.26208H18.5517V5.40776ZM9.60828 31.8589H3.10345V18.0799H9.60828V31.8589ZM17.4483 31.8589H14.5517V25.3431H17.4483V31.8589ZM21.4483 31.8589H18.5517V25.3431H21.4483V31.8589ZM25.3103 31.8589H22.5517V24.7725C22.5517 24.4574 22.3047 24.202 22 24.202H14C13.6953 24.202 13.4483 24.4574 13.4483 24.7725V31.8589H10.6897V15.8832L18 11.6269L25.2883 15.8604L25.3103 17.5036V31.8589ZM32.8966 31.8589H26.3917V18.0799H32.8966V31.8589Z" fill="#041E42"/>
<path d="M17.9998 13.3728C16.7222 13.3759 15.6881 14.4478 15.6881 15.7691C15.6912 17.0895 16.7286 18.1572 18.0054 18.1541C19.2821 18.1509 20.3146 17.0781 20.3116 15.7577C20.3085 14.4396 19.2744 13.3728 17.9998 13.3728ZM17.9998 17.0129C17.3325 17.0098 16.7941 16.4478 16.7971 15.7577C16.8001 15.0721 17.3368 14.517 17.9998 14.5139C18.6681 14.517 19.2081 15.0781 19.2081 15.7691H19.2136C19.2106 16.4592 18.6672 17.0161 17.9998 17.0129Z" fill="#041E42"/>
<path d="M5.53665 19.3351H4.4332V21.6173H5.53665V19.3351Z" fill="#041E42"/>
<path d="M8.2564 19.3351H7.15296V21.6173H8.2564V19.3351Z" fill="#041E42"/>
<path d="M14.5737 19.3351H12.3668V20.4762H14.5737V19.3351Z" fill="#041E42"/>
<path d="M19.1035 19.3351H16.8966V20.4762H19.1035V19.3351Z" fill="#041E42"/>
<path d="M23.633 19.3351H21.4261V20.4762H23.633V19.3351Z" fill="#041E42"/>
<path d="M14.5737 21.9939H12.3668V23.135H14.5737V21.9939Z" fill="#041E42"/>
<path d="M19.1035 21.9939H16.8966V23.135H19.1035V21.9939Z" fill="#041E42"/>
<path d="M23.633 21.9939H21.4261V23.135H23.633V21.9939Z" fill="#041E42"/>
<path d="M5.53665 23.8254H4.4332V26.1077H5.53665V23.8254Z" fill="#041E42"/>
<path d="M8.2564 23.8254H7.15296V26.1077H8.2564V23.8254Z" fill="#041E42"/>
<path d="M5.53665 28.3214H4.4332V30.6037H5.53665V28.3214Z" fill="#041E42"/>
<path d="M8.2564 28.3214H7.15296V30.6037H8.2564V28.3214Z" fill="#041E42"/>
<path d="M28.8467 19.3351H27.7433V21.6173H28.8467V19.3351Z" fill="#041E42"/>
<path d="M31.567 19.3351H30.4635V21.6173H31.567V19.3351Z" fill="#041E42"/>
<path d="M28.8467 23.8254H27.7433V26.1077H28.8467V23.8254Z" fill="#041E42"/>
<path d="M31.567 23.8254H30.4635V26.1077H31.567V23.8254Z" fill="#041E42"/>
<path d="M28.8467 28.3214H27.7433V30.6037H28.8467V28.3214Z" fill="#041E42"/>
<path d="M31.567 28.3214H30.4635V30.6037H31.567V28.3214Z" fill="#041E42"/>
</svg>
