<svg width="20" height="21" viewBox="0 0 20 21" fill="none" xmlns="http://www.w3.org/2000/svg">
<path d="M19.9561 10.3053C19.9272 10.2428 19.2221 8.76442 17.6476 7.27564C16.1865 5.89583 13.6763 4.25 10 4.25C6.32368 4.25 3.81348 5.89583 2.35245 7.27564C0.777852 8.76442 0.0727586 10.2404 0.0439446 10.3053C0.0149717 10.3668 0 10.4334 0 10.5008C0 10.5682 0.0149717 10.6348 0.0439446 10.6963C0.0727586 10.758 0.777852 12.2364 2.35245 13.7252C3.81348 15.105 6.32368 16.75 10 16.75C13.6763 16.75 16.1865 15.105 17.6476 13.7252C19.2221 12.2364 19.9272 10.7604 19.9561 10.6963C19.985 10.6348 20 10.5682 20 10.5008C20 10.4334 19.985 10.3668 19.9561 10.3053ZM10 15.7885C7.34065 15.7885 5.01858 14.8734 3.09737 13.0697C2.292 12.3129 1.61049 11.4468 1.07531 10.5C1.61034 9.55331 2.29187 8.68746 3.09737 7.93109C5.01858 6.1266 7.34065 5.21154 10 5.21154C12.6594 5.21154 14.9814 6.1266 16.9026 7.93109C17.7081 8.68746 18.3897 9.55331 18.9247 10.5C18.3848 11.4784 15.678 15.7885 10 15.7885ZM10 6.8141C9.22898 6.8141 8.47527 7.03028 7.83419 7.43529C7.19311 7.8403 6.69345 8.41596 6.39839 9.08947C6.10333 9.76298 6.02613 10.5041 6.17655 11.2191C6.32697 11.9341 6.69825 12.5908 7.24345 13.1063C7.78864 13.6218 8.48326 13.9729 9.23947 14.1151C9.99568 14.2573 10.7795 14.1843 11.4918 13.9053C12.2042 13.6263 12.813 13.1539 13.2414 12.5478C13.6697 11.9416 13.8984 11.229 13.8984 10.5C13.897 9.52283 13.4859 8.58605 12.7551 7.89508C12.0243 7.20412 11.0335 6.81537 10 6.8141ZM10 13.2244C9.43012 13.2244 8.87303 13.0646 8.39919 12.7652C7.92534 12.4659 7.55603 12.0404 7.33794 11.5426C7.11986 11.0448 7.06279 10.497 7.17397 9.9685C7.28515 9.44003 7.55958 8.9546 7.96255 8.57359C8.36552 8.19258 8.87893 7.93311 9.43787 7.82799C9.9968 7.72287 10.5762 7.77682 11.1027 7.98302C11.6292 8.18922 12.0792 8.53841 12.3958 8.98643C12.7124 9.43445 12.8814 9.96117 12.8814 10.5C12.8814 11.2225 12.5778 11.9155 12.0375 12.4264C11.4971 12.9373 10.7642 13.2244 10 13.2244Z" fill="#041E42"/>
</svg>
