<svg width="32" height="32" viewBox="0 0 32 32" fill="none" xmlns="http://www.w3.org/2000/svg">
<g clip-path="url(#clip0_3648_3500)">
<path d="M16 2C13.2311 2 10.5243 2.82108 8.22203 4.35943C5.91974 5.89776 4.12532 8.08427 3.0657 10.6424C2.00607 13.2006 1.72882 16.0155 2.26902 18.7312C2.8092 21.4469 4.14258 23.9416 6.10051 25.8995C8.05846 27.8575 10.553 29.1908 13.2687 29.7309C15.9845 30.2712 18.7995 29.994 21.3576 28.9343C23.9157 27.8747 26.1023 26.0803 27.6405 23.778C29.1789 21.4757 30 18.7689 30 16C29.9965 12.2881 28.5204 8.72915 25.8956 6.1044C23.2708 3.47965 19.712 2.00353 16 2ZM16 28.6667C13.4948 28.6667 11.0458 27.9237 8.96279 26.532C6.87976 25.1401 5.25624 23.1619 4.29754 20.8473C3.33883 18.5328 3.08799 15.986 3.57672 13.5288C4.06547 11.0718 5.27186 8.81477 7.04332 7.04332C8.81479 5.27185 11.0718 4.06547 13.5288 3.57672C15.986 3.08797 18.5328 3.33881 20.8473 4.29752C23.1619 5.25624 25.1401 6.87976 26.532 8.96277C27.9237 11.0458 28.6667 13.4948 28.6667 16C28.6632 19.3583 27.3275 22.5781 24.9528 24.9528C22.5781 27.3275 19.3583 28.6632 16 28.6667Z" fill="#1F1E20"/>
<path d="M9.00024 12.476C9.0375 12.3705 9.07441 12.2651 9.12227 12.1289C10.5294 13.4413 11.9188 14.7364 13.2744 16.0005C11.9236 17.2594 10.5318 18.5567 9.12192 19.8706C9.07441 19.7348 9.03716 19.6293 9.00024 19.5238C9.00024 17.1745 9.00024 14.8253 9.00024 12.476Z" fill="#1F1E20"/>
<path d="M23 19.5235C22.9631 19.629 22.9258 19.7345 22.878 19.8706C21.4708 18.5583 20.0821 17.2628 18.7258 15.9981C20.0766 14.7399 21.4684 13.4432 22.8783 12.1299C22.9258 12.2648 22.9627 12.3703 23 12.4757V19.5235Z" fill="#1F1E20"/>
<path d="M22.2869 11.6157C22.2506 11.651 22.2212 11.6817 22.1894 11.7108C20.4357 13.3061 18.6816 14.9011 16.9275 16.4963C16.5495 16.8403 16.1048 16.9746 15.5942 16.8043C15.4123 16.7436 15.2343 16.6356 15.0958 16.5107C13.3236 14.9089 11.5586 13.3005 9.79185 11.6933C9.76655 11.6701 9.74399 11.6448 9.6958 11.5962C9.8667 11.5624 10.0144 11.5305 10.163 11.5052C10.216 11.4961 10.2721 11.5017 10.3268 11.5017C14.1087 11.5017 17.891 11.5017 21.673 11.5011C21.8835 11.5011 22.0876 11.5214 22.2865 11.616L22.2869 11.6157Z" fill="#1F1E20"/>
<path d="M9.73472 20.4259C11.1446 19.1123 12.532 17.8197 13.9453 16.5029C14.0677 16.6237 14.1623 16.7295 14.271 16.8219C14.4775 16.9971 14.672 17.1924 14.9061 17.3301C15.736 17.8193 16.759 17.6998 17.4819 17.0503C17.6695 16.8816 17.8534 16.7092 18.0571 16.5217C19.4561 17.8262 20.8455 19.1214 22.2345 20.4168C22.1351 20.4368 21.9888 20.4688 21.8411 20.4947C21.7881 20.5038 21.7321 20.4985 21.6774 20.4985C17.8913 20.4985 14.1053 20.4997 10.3195 20.4954C10.1192 20.4954 9.91894 20.449 9.73438 20.4262L9.73472 20.4259Z" fill="#1F1E20"/>
</g>
<defs>
<clipPath id="clip0_3648_3500">
<rect width="32" height="32" fill="white"/>
</clipPath>
</defs>
</svg>
