<svg width="40" height="40" viewBox="0 0 40 40" fill="none" xmlns="http://www.w3.org/2000/svg">
<g clip-path="url(#clip0_1525_4067)">
<path d="M27.5 0H12.5C5.5975 0 0 5.5975 0 12.5V27.5C0 34.4025 5.5975 40 12.5 40H27.5C34.4025 40 40 34.4025 40 27.5V12.5C40 5.5975 34.4025 0 27.5 0ZM36.25 27.5C36.25 32.325 32.325 36.25 27.5 36.25H12.5C7.675 36.25 3.75 32.325 3.75 27.5V12.5C3.75 7.675 7.675 3.75 12.5 3.75H27.5C32.325 3.75 36.25 7.675 36.25 12.5V27.5Z" fill="#C49A6C"/>
<path d="M19.999 10.0004C14.4765 10.0004 9.99902 14.4779 9.99902 20.0004C9.99902 25.5229 14.4765 30.0004 19.999 30.0004C25.5215 30.0004 29.999 25.5229 29.999 20.0004C29.999 14.4779 25.5215 10.0004 19.999 10.0004ZM19.999 26.2504C16.554 26.2504 13.749 23.4454 13.749 20.0004C13.749 16.5529 16.554 13.7504 19.999 13.7504C23.444 13.7504 26.249 16.5529 26.249 20.0004C26.249 23.4454 23.444 26.2504 19.999 26.2504Z" fill="#C49A6C"/>
<path d="M30.7495 10.5825C31.4854 10.5825 32.082 9.98591 32.082 9.24999C32.082 8.51408 31.4854 7.9175 30.7495 7.9175C30.0136 7.9175 29.417 8.51408 29.417 9.24999C29.417 9.98591 30.0136 10.5825 30.7495 10.5825Z" fill="#C49A6C"/>
</g>
<defs>
<clipPath id="clip0_1525_4067">
<rect width="40" height="40" fill="white"/>
</clipPath>
</defs>
</svg>
