<svg width="32" height="32" viewBox="0 0 32 32" fill="none" xmlns="http://www.w3.org/2000/svg">
<path d="M16 0C9.94144 0 5 4.68535 5 10.4299C5 12.0593 5.69667 13.9297 6.64267 15.9705C7.58744 18.0124 8.806 20.1807 10.0417 22.1995C11.5986 24.7324 13.2551 27.2091 15.0076 29.6244L16 31L16.9937 29.6233C16.9937 29.6233 19.4858 26.2428 21.9583 22.1995C23.1952 20.1807 24.4126 18.0124 25.3573 15.9705C26.3033 13.9297 27 12.0593 27 10.4299C27 4.68535 22.0586 0 16 0ZM16 2.31776C20.741 2.31776 24.5556 5.93462 24.5556 10.4299C24.5556 11.357 24.03 13.1139 23.1427 15.0295C22.2541 16.944 21.0282 19.067 19.8194 21.0406C17.9006 24.1823 16.7064 25.8441 16 26.835C15.2936 25.8441 14.0994 24.1823 12.1806 21.0406C10.973 19.067 9.74589 16.944 8.85733 15.0295C7.97 13.1139 7.44444 11.357 7.44444 10.4299C7.44444 5.93462 11.259 2.31776 16 2.31776ZM16 8.11215C15.3517 8.11215 14.7299 8.35634 14.2715 8.79101C13.8131 9.22567 13.5556 9.8152 13.5556 10.4299C13.5556 11.0446 13.8131 11.6341 14.2715 12.0688C14.7299 12.5035 15.3517 12.7477 16 12.7477C16.6483 12.7477 17.2701 12.5035 17.7285 12.0688C18.1869 11.6341 18.4444 11.0446 18.4444 10.4299C18.4444 9.8152 18.1869 9.22567 17.7285 8.79101C17.2701 8.35634 16.6483 8.11215 16 8.11215Z" fill="#C49A6C"/>
</svg>
