<svg width="20" height="22" viewBox="0 0 20 22" fill="none" xmlns="http://www.w3.org/2000/svg">
<path d="M13.6361 11.615L13.4654 11.7493L13.6673 11.8294C15.3415 12.4938 16.8032 13.6013 17.8959 15.0332C18.9885 16.4649 19.6709 18.167 19.87 19.957C19.8947 20.1879 19.8272 20.4191 19.6822 20.6004C19.5386 20.78 19.3305 20.8961 19.1025 20.9241L18.9994 20.9241L18.9986 20.9241C18.7811 20.9254 18.5708 20.8461 18.4083 20.7015C18.2458 20.5569 18.1426 20.3572 18.1187 20.141L18.1187 20.1408C17.8946 18.1458 16.9433 16.3032 15.4466 14.9653C13.9499 13.6273 12.0127 12.8876 10.0052 12.8876C7.99764 12.8876 6.06046 13.6273 4.56378 14.9653C3.06709 16.3032 2.11582 18.1458 1.89172 20.1408L1.89169 20.141C1.86599 20.3746 1.74857 20.5884 1.56524 20.7354C1.38191 20.8824 1.1477 20.9505 0.914124 20.9249C0.680551 20.8992 0.466751 20.7817 0.319758 20.5984C0.246975 20.5076 0.192783 20.4034 0.160278 20.2917C0.127773 20.18 0.11759 20.0629 0.130312 19.9473C0.328381 18.1622 1.00714 16.4644 2.09423 15.0348C3.18134 13.6051 4.63604 12.4972 6.30326 11.8293L6.50413 11.7488L6.33407 11.615C5.36926 10.8559 4.66504 9.81499 4.31937 8.63703C3.9737 7.45908 4.00379 6.20268 4.40543 5.04262C4.80708 3.88256 5.56031 2.87653 6.56034 2.16449C7.56037 1.45246 8.75747 1.06982 9.9851 1.06982C11.2127 1.06982 12.4098 1.45246 13.4098 2.16449C14.4099 2.87653 15.1631 3.88256 15.5648 5.04262C15.9664 6.20268 15.9965 7.45908 15.6508 8.63703C15.3052 9.81499 14.6009 10.8559 13.6361 11.615ZM18.3252 20.7949C18.5108 20.96 18.751 21.0506 18.9994 21.0491L0.00606162 19.9336C-0.00845511 20.0656 0.00316392 20.1991 0.0402551 20.3266C0.0773462 20.4541 0.139183 20.573 0.222235 20.6766C0.389967 20.8858 0.63393 21.0198 0.900456 21.0491C1.16698 21.0784 1.43424 21.0007 1.64343 20.8329C1.85263 20.6652 1.98662 20.4212 2.01594 20.1547C2.23661 18.1903 3.17331 16.376 4.64708 15.0585C6.12086 13.741 8.02838 13.0126 10.0052 13.0126C11.982 13.0126 13.8895 13.741 15.3633 15.0585C16.8371 16.376 17.7738 18.1903 17.9944 20.1547C18.0218 20.4016 18.1396 20.6297 18.3252 20.7949ZM7.68239 10.4262C8.364 10.8816 9.16534 11.1247 9.9851 11.1247C11.0844 11.1247 12.1386 10.688 12.9159 9.91076C13.6932 9.13346 14.1298 8.07923 14.1298 6.97997C14.1298 6.16022 13.8868 5.35887 13.4313 4.67727C12.9759 3.99567 12.3286 3.46443 11.5712 3.15072C10.8139 2.83702 9.9805 2.75494 9.17649 2.91486C8.37249 3.07479 7.63397 3.46954 7.05431 4.04919C6.47466 4.62885 6.07991 5.36737 5.91998 6.17137C5.76006 6.97538 5.84214 7.80875 6.15584 8.5661C6.46955 9.32346 7.00079 9.97078 7.68239 10.4262Z" fill="#1F1E20" stroke="white" stroke-width="0.25"/>
</svg>
