<svg width="58" height="66" viewBox="0 0 58 66" fill="none" xmlns="http://www.w3.org/2000/svg">
<path d="M17.2 12L21.54 15.22C20.5133 16.4333 19.3933 18.3 18.18 20.82C17.06 23.2467 16.1267 25.9067 15.38 28.8C14.6333 31.6933 14.3533 34.54 14.54 37.34C15.1933 37.1533 15.7533 37.0133 16.22 36.92C16.78 36.7333 17.34 36.64 17.9 36.64C19.9533 36.64 21.68 37.34 23.08 38.74C24.5733 40.0467 25.32 41.9133 25.32 44.34C25.32 47.0467 24.5267 49.24 22.94 50.92C21.3533 52.5067 19.3467 53.3 16.92 53.3C13.3733 53.3 10.6667 51.9933 8.8 49.38C6.93333 46.7667 6 43.5933 6 39.86C6 37.2467 6.42 34.3067 7.26 31.04C8.19333 27.68 9.5 24.32 11.18 20.96C12.86 17.5067 14.8667 14.52 17.2 12ZM42.96 12L47.3 15.22C46.2733 16.4333 45.1533 18.3 43.94 20.82C42.82 23.2467 41.8867 25.9067 41.14 28.8C40.3933 31.6933 40.1133 34.54 40.3 37.34C40.9533 37.1533 41.5133 37.0133 41.98 36.92C42.54 36.7333 43.1 36.64 43.66 36.64C45.7133 36.64 47.44 37.34 48.84 38.74C50.3333 40.0467 51.08 41.9133 51.08 44.34C51.08 47.0467 50.2867 49.24 48.7 50.92C47.1133 52.5067 45.1067 53.3 42.68 53.3C39.1333 53.3 36.4267 51.9933 34.56 49.38C32.6933 46.7667 31.76 43.5933 31.76 39.86C31.76 37.2467 32.18 34.3067 33.02 31.04C33.9533 27.68 35.26 24.32 36.94 20.96C38.62 17.5067 40.6267 14.52 42.96 12Z" fill="#C49A6C"/>
</svg>
