<svg width="58" height="66" viewBox="0 0 58 66" fill="none" xmlns="http://www.w3.org/2000/svg">
<path d="M39.9602 53.3L35.6202 50.08C36.6468 48.8667 37.7668 47 38.9802 44.48C40.1002 42.0533 41.0335 39.3933 41.7802 36.5C42.5268 33.6067 42.8068 30.76 42.6202 27.96C41.9668 28.1467 41.4068 28.2867 40.9402 28.38C40.3802 28.5667 39.8202 28.66 39.2602 28.66C37.2068 28.66 35.4802 27.96 34.0802 26.56C32.5868 25.2533 31.8402 23.3867 31.8402 20.96C31.8402 18.2533 32.6335 16.06 34.2202 14.38C35.8068 12.7933 37.8135 12 40.2402 12C43.7868 12 46.4935 13.3067 48.3602 15.92C50.2268 18.5333 51.1602 21.7067 51.1602 25.44C51.1602 28.0534 50.7402 30.9934 49.9002 34.26C48.9668 37.62 47.6602 40.98 45.9802 44.34C44.3002 47.7934 42.2935 50.78 39.9602 53.3ZM14.2002 53.3L9.86016 50.08C10.8868 48.8667 12.0068 47 13.2202 44.48C14.3402 42.0533 15.2735 39.3933 16.0202 36.5C16.7668 33.6067 17.0468 30.76 16.8602 27.96C16.2068 28.1467 15.6468 28.2867 15.1802 28.38C14.6202 28.5667 14.0602 28.66 13.5002 28.66C11.4468 28.66 9.72016 27.96 8.32016 26.56C6.82683 25.2533 6.08016 23.3867 6.08016 20.96C6.08016 18.2533 6.87349 16.06 8.46016 14.38C10.0468 12.7933 12.0535 12 14.4802 12C18.0268 12 20.7335 13.3067 22.6002 15.92C24.4668 18.5333 25.4002 21.7067 25.4002 25.44C25.4002 28.0534 24.9802 30.9933 24.1402 34.26C23.2068 37.62 21.9002 40.98 20.2202 44.34C18.5402 47.7933 16.5335 50.78 14.2002 53.3Z" fill="#C49A6C"/>
</svg>
