<svg width="24" height="24" viewBox="0 0 24 24" fill="none" xmlns="http://www.w3.org/2000/svg">
<path d="M17.9234 16.5527L17.853 16.6404L17.9329 16.7196L21.641 20.3978C21.6413 20.3981 21.6416 20.3984 21.6419 20.3987C21.7991 20.5617 21.8869 20.7794 21.8869 21.0059C21.8869 21.2326 21.7989 21.4504 21.6415 21.6135C21.5603 21.6952 21.4638 21.7601 21.3574 21.8044C21.2508 21.8488 21.1364 21.8717 21.0209 21.8717C20.9054 21.8717 20.791 21.8488 20.6844 21.8044C20.5778 21.76 20.481 21.6949 20.3997 21.6129L20.3993 21.6125L16.7193 17.9325L16.6401 17.8533L16.5527 17.9234C14.782 19.3435 12.5346 20.0312 10.2724 19.8451C8.01031 19.6591 5.90544 18.6133 4.39063 16.923C2.87583 15.2327 2.06624 13.0262 2.12832 10.7572C2.19041 8.48832 3.11946 6.32941 4.72443 4.72443C6.32941 3.11946 8.48832 2.19041 10.7572 2.12832C13.0262 2.06624 15.2327 2.87583 16.923 4.39063C18.6133 5.90544 19.6591 8.01031 19.8451 10.2724C20.0312 12.5346 19.3435 14.782 17.9234 16.5527ZM7.06246 16.9451C8.23416 17.728 9.61171 18.1459 11.0209 18.1459C12.9106 18.1459 14.7228 17.3952 16.059 16.059C17.3952 14.7228 18.1459 12.9106 18.1459 11.0209C18.1459 9.61171 17.728 8.23416 16.9451 7.06246C16.1622 5.89076 15.0494 4.97753 13.7475 4.43826C12.4456 3.89898 11.013 3.75789 9.63088 4.03281C8.24877 4.30772 6.97921 4.98632 5.98276 5.98276C4.98632 6.97921 4.30772 8.24877 4.03281 9.63088C3.75789 11.013 3.89898 12.4456 4.43826 13.7475C4.97753 15.0494 5.89076 16.1622 7.06246 16.9451Z" fill="#1F1E20" stroke="white" stroke-width="0.25"/>
</svg>
