<svg width="36" height="36" viewBox="0 0 36 36" fill="none" xmlns="http://www.w3.org/2000/svg">
<path d="M33.2515 16.3017L34.8827 14.5375C34.9717 14.4413 35.0128 14.3158 34.9965 14.1909L34.2387 8.40034C34.2157 8.22419 34.0822 8.07637 33.897 8.02187C33.7119 7.96756 33.5089 8.0163 33.3772 8.14698L29.946 11.5553L23.6754 12.1376C23.4017 12.163 23.2025 12.386 23.2303 12.6354C23.2582 12.885 23.5031 13.0669 23.7762 13.0413L30.2353 12.4414C30.3567 12.4302 30.4692 12.3787 30.5517 12.2968L33.378 9.48936L33.9817 14.1027L32.5345 15.6679L29.6063 17.4691C29.4591 17.5597 29.3758 17.7149 29.3879 17.8764L29.6154 20.9346C29.632 21.1566 29.8223 21.3349 30.0651 21.356L32.1505 21.537L33.2193 24.0183L32.731 25.1657L31.3075 23.4335C31.1968 23.2989 31.0138 23.231 30.8313 23.2573L28.6691 23.5686C28.4909 23.5943 28.3419 23.7059 28.2795 23.8602L27.5789 25.5943L23.5354 26.3418C23.2658 26.3916 23.0916 26.6313 23.1462 26.8771C23.1941 27.0925 23.4018 27.2411 23.6339 27.2411C23.6667 27.2411 23.6999 27.2382 23.7333 27.232L28.0492 26.4342C28.2184 26.4029 28.3578 26.2939 28.4175 26.146L29.1132 24.4242L30.6904 24.1971L32.472 26.3651C32.5806 26.4971 32.7589 26.5653 32.9383 26.5427C33.1176 26.5203 33.2695 26.411 33.3349 26.2572L34.2183 24.1816C34.2636 24.0752 34.2634 23.9573 34.2176 23.8512L32.9658 20.9453C32.8972 20.786 32.7363 20.6754 32.5495 20.6592L30.5807 20.4883L30.4012 18.0758L33.1491 16.3855C33.1875 16.3621 33.2219 16.3338 33.2515 16.3017Z" fill="#041E42"/>
<path d="M21.3506 26.7457L19.6998 27.0509L15.7676 23.2888C15.6437 23.1703 15.4596 23.1217 15.2853 23.1618L12.4322 23.8174L11.153 22.3818C11.0688 22.2873 10.9466 22.2276 10.8137 22.216L6.03398 21.8009C5.89459 21.7888 5.75553 21.8309 5.65174 21.917C5.54795 22.0031 5.48871 22.1251 5.48871 22.253V23.2094L3.59792 24.9723L2.97821 22.4936L3.7808 20.5709C3.82921 20.4549 3.8235 20.3259 3.76487 20.2138C3.70629 20.1018 3.59991 20.0165 3.47055 19.9779L2.09162 19.5655L3.76692 13.3233L6.92934 11.5591L9.61263 12.6973C9.86205 12.8031 10.1582 12.7045 10.2742 12.477C10.3902 12.2496 10.2821 11.9795 10.0327 11.8737L7.10731 10.6329C6.9561 10.5688 6.77959 10.5779 6.63735 10.6572L3.07205 12.6462C2.95995 12.7088 2.87947 12.8092 2.84819 12.9256L1.01437 19.758C0.952482 19.9886 1.09572 20.2236 1.34295 20.2976L2.66411 20.6926L1.99354 22.299C1.95854 22.3827 1.95157 22.4741 1.97342 22.5615L2.82966 25.9862C2.87017 26.1483 3.00458 26.2773 3.17996 26.3224C3.35534 26.3674 3.5438 26.3217 3.6713 26.2028L6.34283 23.7122C6.43388 23.6273 6.48481 23.5133 6.48481 23.3946V22.7525L10.5115 23.1023L11.8594 24.615C11.9815 24.7521 12.1798 24.8121 12.3676 24.769L15.247 24.1073L19.1686 27.8592C19.2636 27.95 19.3943 28 19.5291 28C19.562 28 19.5951 27.997 19.6281 27.991L21.5485 27.636C21.8181 27.5862 21.9923 27.3465 21.9376 27.1006C21.8831 26.8548 21.6205 26.6957 21.3506 26.7457Z" fill="#041E42"/>
<path d="M21.8056 10.8817C19.3609 10.8817 18.1726 10.6217 16.9146 10.3464C15.7399 10.0893 14.5277 9.82403 12.2891 9.7897V9.27122C12.2891 9.02041 12.0661 8.81706 11.7911 8.81706C11.516 8.81706 11.293 9.02041 11.293 9.27122V19.7814C11.293 20.0322 11.516 20.2356 11.7911 20.2356C12.0661 20.2356 12.2891 20.0322 12.2891 19.7814V17.5148C14.4034 17.5477 15.5126 17.7905 16.6821 18.0464C17.9411 18.322 19.243 18.6069 21.8056 18.6069C22.0806 18.6069 22.3036 18.4035 22.3036 18.1527V11.3359C22.3036 11.085 22.0806 10.8817 21.8056 10.8817ZM16.6821 11.2296C17.8568 11.4867 19.069 11.7519 21.3075 11.7863V13.1696C19.1933 13.1367 18.0841 12.8939 16.9146 12.638C15.7399 12.3808 14.5277 12.1156 12.2891 12.0813V10.698C14.4034 10.7309 15.5126 10.9736 16.6821 11.2296ZM16.9146 17.1632C15.7399 16.9061 14.5277 16.6408 12.2891 16.6065V15.229C14.4034 15.2619 15.5126 15.5046 16.682 15.7605C16.8463 15.7965 17.0105 15.8324 17.1776 15.8678C17.2155 15.8758 17.2533 15.8796 17.2906 15.8796C17.5171 15.8796 17.722 15.7378 17.7754 15.5279C17.8375 15.2836 17.6707 15.0396 17.4027 14.9829C17.2382 14.9481 17.0764 14.9126 16.9145 14.8772C15.7398 14.6202 14.5277 14.3549 12.2892 14.3205V12.9896C14.4035 13.0225 15.5127 13.2653 16.6822 13.5212C17.8569 13.7783 19.069 14.0436 21.3076 14.0779V15.4088C20.6742 15.3988 20.0986 15.3692 19.5596 15.3193C19.2854 15.2938 19.0415 15.4756 19.0136 15.7251C18.9858 15.9747 19.1851 16.1975 19.4587 16.2229C20.0306 16.276 20.6393 16.3071 21.3076 16.3173V17.6947C19.1931 17.6618 18.0841 17.4191 16.9146 17.1632Z" fill="#041E42"/>
</svg>
