<svg width="36" height="36" viewBox="0 0 36 36" fill="none" xmlns="http://www.w3.org/2000/svg">
<path d="M26.5354 3H9.46461C8.10562 3 7 4.15369 7 5.57176V7.11837C7 7.36103 7.18853 7.55775 7.42107 7.55775C7.65361 7.55775 7.84214 7.36103 7.84214 7.11837V5.57176C7.84214 4.63823 8.56998 3.87876 9.46461 3.87876H26.5354C27.43 3.87876 28.1579 4.63823 28.1579 5.57176V30.4282C28.1579 31.3618 27.43 32.1212 26.5354 32.1212H9.46461C8.56998 32.1212 7.84214 31.3618 7.84214 30.4282V8.87588C7.84214 8.63323 7.65361 8.43651 7.42107 8.43651C7.18853 8.43651 7 8.63323 7 8.87588V30.4282C7 31.8463 8.10562 33 9.46461 33H26.5354C27.8944 33 29 31.8463 29 30.4282V5.57176C29 4.15369 27.8944 3 26.5354 3Z" fill="#041E42"/>
<path d="M8.67699 6.59926V23.2006C8.67699 23.4432 8.86552 23.64 9.09806 23.64C9.3306 23.64 9.51913 23.4432 9.51913 23.2006V7.03863H26.4816V13.0642C26.4816 13.3069 26.6701 13.5036 26.9026 13.5036C27.1352 13.5036 27.3237 13.3069 27.3237 13.0642V6.59926C27.3237 6.3566 27.1352 6.15988 26.9026 6.15988H9.09806C8.86546 6.15988 8.67699 6.3566 8.67699 6.59926Z" fill="#041E42"/>
<path d="M8.67699 28.3093C8.67699 28.552 8.86552 28.7487 9.09806 28.7487H26.9026C27.1352 28.7487 27.3237 28.552 27.3237 28.3093V14.8217C27.3237 14.5791 27.1352 14.3823 26.9026 14.3823C26.6701 14.3823 26.4816 14.5791 26.4816 14.8217V27.8699H9.51913V24.9582C9.51913 24.7155 9.3306 24.5188 9.09806 24.5188C8.86552 24.5188 8.67699 24.7155 8.67699 24.9582V28.3093Z" fill="#041E42"/>
<path d="M16.7176 30.331C16.7176 31.0691 17.293 31.6695 18.0004 31.6695C18.7077 31.6695 19.2831 31.0691 19.2831 30.331C19.2831 29.5929 18.7076 28.9925 18.0004 28.9925C17.293 28.9925 16.7176 29.5929 16.7176 30.331ZM18.441 30.331C18.441 30.5845 18.2433 30.7907 18.0004 30.7907C17.7574 30.7907 17.5597 30.5845 17.5597 30.331C17.5597 30.0775 17.7574 29.8712 18.0004 29.8712C18.2433 29.8712 18.441 30.0775 18.441 30.331Z" fill="#041E42"/>
<path d="M19.8191 5.4498C20.0516 5.4498 20.2401 5.25308 20.2401 5.01043C20.2401 4.76777 20.0516 4.57105 19.8191 4.57105H17.8999C17.6673 4.57105 17.4788 4.76777 17.4788 5.01043C17.4788 5.25308 17.6673 5.4498 17.8999 5.4498H19.8191Z" fill="#041E42"/>
<path d="M16.2927 5.44792C16.5252 5.44792 16.7137 5.25121 16.7137 5.00854C16.7137 4.76588 16.5252 4.56917 16.2927 4.56917C16.0601 4.56917 15.8716 4.76588 15.8716 5.00854C15.8716 5.25121 16.0601 5.44792 16.2927 5.44792Z" fill="#041E42"/>
</svg>
