<svg width="36" height="36" viewBox="0 0 36 36" fill="none" xmlns="http://www.w3.org/2000/svg">
<path d="M2.78573 21.9422C2.96122 22.0637 3.14637 22.1708 3.33932 22.2622C3.57024 22.38 3.95636 22.5773 3.98356 22.716C4.0175 22.8981 3.99576 23.0862 3.92116 23.2557C3.8417 23.4264 3.75797 23.5731 3.6865 23.7C3.49078 24.0445 3.16439 24.6221 3.65717 25.0253C3.77237 25.132 3.9713 25.2861 4.15316 25.4253C4.01952 25.6586 3.95895 25.9267 3.9793 26.1949C4.00731 26.4047 4.12055 26.5938 4.29235 26.7175C4.41235 26.8028 4.54088 26.8775 4.66567 26.9495C4.97926 27.1282 5.10193 27.2114 5.14566 27.3762C5.17434 27.5931 5.1543 27.8138 5.08699 28.022C5.05553 28.1607 5.02513 28.2988 5.0054 28.4407C4.95253 28.9271 5.01427 29.4191 5.18566 29.8774C5.42501 30.7267 6.19299 31.3184 7.0752 31.3334C7.22161 31.3329 7.3676 31.3175 7.51092 31.2875C9.0345 30.9265 10.5358 30.4772 12.0073 29.942C13.2083 30.647 13.9678 32.791 14.1656 33.5957C14.2249 33.8334 14.4385 34.0002 14.6835 34L28.0697 33.9627C28.2394 33.9623 28.3987 33.8813 28.499 33.7444C28.5992 33.6076 28.6283 33.4312 28.5774 33.2694C28.4456 32.908 28.2637 32.5669 28.0372 32.256C27.9091 32.0721 27.7936 31.8797 27.6916 31.6801C27.4505 31.1909 27.2491 30.6832 27.0895 30.1617C26.7853 29.131 26.5741 28.075 26.4586 27.0066C26.2714 25.411 26.5133 23.7944 27.1594 22.3235C27.5536 21.5077 28.0396 20.7396 28.6078 20.0339C28.9278 19.602 29.2601 19.1545 29.5582 18.6846C30.0708 17.8884 30.4424 17.0098 30.6568 16.0874C30.7182 15.8026 30.5398 15.5213 30.256 15.4555C29.9723 15.3897 29.6882 15.5637 29.6179 15.8463C29.4304 16.6514 29.1057 17.4181 28.658 18.1129C28.3812 18.5508 28.0612 18.9817 27.7513 19.3988C27.1342 20.1688 26.6076 21.0072 26.1818 21.8974C25.4595 23.5424 25.1896 25.3504 25.3999 27.1346C25.5229 28.2677 25.748 29.3874 26.0725 30.4801C26.2477 31.0538 26.469 31.6124 26.7343 32.1504C26.8559 32.3908 26.994 32.6225 27.1476 32.8438L27.1834 32.8971L15.0867 32.9334C14.7322 31.6683 14.0895 30.5026 13.2089 29.5276L13.6889 29.3606C14.0472 29.2353 14.3176 29.1409 14.4574 29.094C16.741 28.366 17.8834 27.326 17.8519 26.0007C17.8504 25.8592 17.7917 25.7242 17.6891 25.6267C17.5866 25.5291 17.4489 25.4772 17.3074 25.4829C17.013 25.4899 16.78 25.7341 16.7869 26.0285C16.7997 26.574 16.3501 27.373 14.1331 28.0791C13.988 28.1255 13.7065 28.2231 13.3379 28.3527C12.9417 28.4908 12.4393 28.6668 11.8846 28.8551H11.8809C10.3811 29.405 8.85076 29.868 7.29759 30.2417C6.80084 30.3351 6.31797 30.0231 6.19896 29.5318C6.08426 29.2308 6.03922 28.9077 6.06723 28.5868C6.08269 28.4801 6.10776 28.3681 6.13229 28.2593C6.24579 27.8871 6.26413 27.4923 6.18562 27.1111C6.03074 26.6227 5.67155 26.2256 5.20112 26.0226L5.08646 25.957C5.14395 25.8402 5.21291 25.7295 5.29232 25.6263C5.38168 25.5128 5.42117 25.3679 5.40177 25.2248C5.38237 25.0817 5.30573 24.9525 5.18939 24.8669C5.06193 24.773 4.76274 24.5469 4.53874 24.3688C4.56434 24.3224 4.59208 24.2712 4.61927 24.2253C4.70301 24.0781 4.799 23.9053 4.8918 23.7096C5.06081 23.336 5.11036 22.9193 5.03366 22.5165C4.9062 21.8659 4.28275 21.547 3.82783 21.3144C3.67457 21.2415 3.52758 21.1561 3.38838 21.059C3.27409 20.9825 3.16699 20.8957 3.06839 20.7998C3.06839 20.7187 3.15532 20.523 3.56117 20.0286C4.5155 18.799 5.3336 17.4695 6.0011 16.0634C6.1264 15.8429 6.197 15.5957 6.20696 15.3423C6.1511 14.8057 5.8658 14.3195 5.42458 14.009C5.20859 13.8106 5.00433 13.624 4.9814 13.4666C4.98628 13.336 5.01559 13.2073 5.06779 13.0874C5.15472 12.8592 5.25552 12.6352 5.35578 12.4107C5.58068 11.9474 5.75932 11.4631 5.8891 10.9648C6.01131 10.3671 6.17163 9.77785 6.36909 9.20061C6.78944 8.04021 7.44036 6.97693 8.28263 6.07482C9.30233 4.99484 10.9076 4.23113 13.0622 3.80341C14.7103 3.44157 16.3826 3.20058 18.0658 3.08236C18.6321 3.05317 19.1998 3.06529 19.7644 3.11862C19.9545 3.13634 20.1397 3.05127 20.2501 2.89545C20.3606 2.73963 20.3795 2.53674 20.2997 2.3632C20.22 2.18966 20.0537 2.07184 19.8636 2.05412C19.2473 1.99765 18.6278 1.98535 18.0098 2.01732C16.2746 2.13772 14.5506 2.38513 12.8515 2.75757C10.4468 3.23755 8.69914 4.08073 7.50665 5.3415C6.56499 6.34816 5.83711 7.53523 5.36698 8.83102C5.15086 9.4616 4.97539 10.1054 4.84167 10.7584C4.72768 11.1772 4.57448 11.5844 4.38408 11.9744C4.27742 12.2171 4.16756 12.4597 4.07156 12.712C3.95018 12.994 3.90035 13.3016 3.9265 13.6074C4.03682 14.0835 4.31351 14.5045 4.70674 14.7946C4.96806 15.0341 5.14032 15.2026 5.14246 15.3498C5.12305 15.4308 5.09254 15.5086 5.05179 15.5813C4.41328 16.9261 3.63077 18.1977 2.718 19.3737C2.33188 19.8446 1.92656 20.3934 2.01136 20.9427C2.12492 21.3663 2.40396 21.7264 2.78573 21.9422Z" fill="#041E42"/>
<path d="M8.36829 9.94138C8.68946 9.05099 9.18722 8.23468 9.83171 7.54144C10.5426 6.78893 11.7719 6.23481 13.486 5.89402C13.7749 5.83673 13.9627 5.55605 13.9054 5.2671C13.8482 4.97815 13.5675 4.79035 13.2785 4.84764C11.3431 5.2327 9.92291 5.89188 9.0568 6.80706C8.31259 7.60582 7.73786 8.54703 7.36725 9.57393C7.18772 10.1067 7.04149 10.6501 6.9294 11.2011L7.97097 11.432C8.07319 10.9276 8.20587 10.4298 8.36829 9.94138Z" fill="#041E42"/>
<path d="M19.5253 4.98739L19.2053 6.58308C18.8968 6.68438 18.5965 6.80919 18.3072 6.95641L16.9531 6.04976C16.53 5.77269 15.9705 5.83082 15.6134 6.18896L14.7281 7.07374C14.3629 7.43226 14.3038 7.99963 14.5873 8.4257L15.4896 9.77341C15.3424 10.0628 15.2176 10.363 15.1163 10.6715L13.5228 10.9915C13.0248 11.0921 12.6669 11.5299 12.6673 12.0379V13.2965C12.667 13.8037 13.0238 14.2409 13.5206 14.3424L15.1163 14.6624C15.2176 14.9708 15.3424 15.2711 15.4896 15.5605L14.583 16.9146C14.3059 17.3377 14.3641 17.8972 14.7222 18.2543L15.6075 19.1396C15.9667 19.5031 16.5328 19.5618 16.9589 19.2798L18.3066 18.3775C18.596 18.5247 18.8963 18.6495 19.2047 18.7508L19.5247 20.3443C19.6251 20.8425 20.0629 21.2007 20.5711 21.2003H21.8297C22.3369 21.2007 22.7741 20.8439 22.8755 20.347L23.1955 18.7513C23.504 18.65 23.8043 18.5252 24.0936 18.378L25.4477 19.2846C25.8708 19.5617 26.4303 19.5036 26.7874 19.1454L27.6722 18.2607C28.0374 17.9021 28.0965 17.3348 27.813 16.9087L26.9106 15.561C27.0578 15.2716 27.1826 14.9714 27.2839 14.6629L28.8775 14.3429C29.194 14.2789 29.4643 14.0744 29.6119 13.7872L30.4156 14.3258C30.5706 14.4235 30.7501 14.4755 30.9334 14.4757C31.1891 14.4758 31.4342 14.3738 31.6145 14.1925L32.3238 13.4832C32.6463 13.159 32.6982 12.6533 32.448 12.2704L31.7601 11.2411C31.8599 11.0405 31.9461 10.8335 32.0182 10.6214L33.2251 10.3809C33.6766 10.2921 34.0017 9.89547 34 9.43528V8.43264C34.0016 7.97417 33.6788 7.57855 33.2294 7.48813L32.0171 7.24653C31.9456 7.03437 31.8597 6.82732 31.7601 6.62682L32.4587 5.58524C32.7008 5.20376 32.6454 4.70531 32.3254 4.38634L31.6161 3.67702C31.292 3.35426 30.7861 3.30243 30.4033 3.55276L29.374 4.24074C29.1734 4.14095 28.9664 4.05471 28.7543 3.98261L28.5132 2.77571C28.4246 2.32435 28.0282 1.99932 27.5682 2.0008H26.5656C26.1071 1.99918 25.7115 2.32198 25.6211 2.77144L25.3795 3.98368C25.1673 4.05573 24.9602 4.14215 24.7598 4.24234L23.7182 3.54369C23.3366 3.30202 22.8384 3.35742 22.5193 3.67702L22.0393 4.15701C21.9703 4.14263 21.9002 4.13495 21.8297 4.13408H20.5711C20.0639 4.13372 19.6267 4.49049 19.5253 4.98739ZM27.6786 7.07801L27.4295 6.82895C28.3539 6.95269 29.0892 7.66549 29.2415 8.58561C29.3939 9.50574 28.9276 10.4175 28.0924 10.8326L27.2829 10.6726C27.1816 10.3641 27.0568 10.0639 26.9096 9.77447L27.8162 8.42037C28.0943 7.99742 28.0368 7.43726 27.6786 7.0796V7.07801ZM23.2147 4.4882L24.4339 5.30738C24.6049 5.42203 24.8265 5.42805 25.0035 5.32285C25.3088 5.14317 25.6371 5.00591 25.9794 4.91486C26.1751 4.86203 26.3238 4.70292 26.3634 4.5042L26.6498 3.06744H27.4839L27.7703 4.5074C27.8099 4.70612 27.9587 4.86523 28.1543 4.91806C28.4966 5.00911 28.825 5.14637 29.1303 5.32605C29.3078 5.43029 29.5295 5.42303 29.6999 5.30738L30.919 4.48927L31.511 5.08125L30.6934 6.30096C30.5788 6.47192 30.5728 6.69361 30.678 6.87054C30.8576 7.17584 30.9949 7.50418 31.086 7.84652C31.1388 8.04213 31.2979 8.19092 31.4966 8.23051L32.9366 8.5169V9.35102L31.4993 9.63741C31.3006 9.677 31.1414 9.82579 31.0886 10.0214C30.9976 10.3637 30.8603 10.6921 30.6806 10.9974C30.5754 11.1743 30.5815 11.396 30.6961 11.567L31.5142 12.7861L30.9222 13.3781L29.7335 12.5829V12.0379C29.7335 11.7256 29.5972 11.4289 29.3601 11.2256C30.2991 10.3211 30.5937 8.93657 30.1043 7.72816C29.6149 6.51975 28.4399 5.73033 27.1362 5.73404C26.8138 5.73607 26.4936 5.78861 26.1874 5.88977C25.9269 5.8518 25.6614 5.91021 25.4408 6.05403L24.0942 6.95641C23.8048 6.80919 23.5045 6.68438 23.1961 6.58308L22.8761 4.98952C22.8666 4.94679 22.8543 4.90474 22.8393 4.86366L23.2147 4.4882ZM20.1871 7.1084L20.5711 5.20072H21.8297L22.2132 7.11C22.253 7.30817 22.4015 7.46676 22.5966 7.51959C23.0373 7.63838 23.4605 7.81408 23.8558 8.04225C24.0319 8.14441 24.2508 8.13737 24.42 8.02412L26.0338 6.94468L26.9277 7.83372L25.8451 9.44915C25.7318 9.61835 25.7248 9.83727 25.8269 10.0134C26.0551 10.4086 26.2308 10.8319 26.3496 11.2726C26.4024 11.4677 26.561 11.6162 26.7592 11.656L28.6668 12.0373V13.2965L26.7576 13.68C26.5594 13.7198 26.4008 13.8683 26.348 14.0634C26.2292 14.5041 26.0535 14.9274 25.8253 15.3226C25.7232 15.4987 25.7302 15.7177 25.8435 15.8869L26.9229 17.5007L26.0338 18.3945L24.4184 17.3119C24.2492 17.1986 24.0303 17.1916 23.8542 17.2938C23.4589 17.5219 23.0357 17.6976 22.595 17.8164C22.3999 17.8692 22.2514 18.0278 22.2116 18.226L21.8297 20.1337H20.5711L20.1876 18.2244C20.1478 18.0262 19.9993 17.8676 19.8042 17.8148C19.3635 17.696 18.9403 17.5203 18.545 17.2922C18.3689 17.19 18.15 17.197 17.9808 17.3103L16.367 18.3897L15.4731 17.5007L16.5557 15.8853C16.669 15.7161 16.676 15.4971 16.5739 15.321C16.3457 14.9258 16.17 14.5025 16.0512 14.0618C15.9984 13.8667 15.8398 13.7182 15.6416 13.6784L13.734 13.2965V12.0379L15.6432 11.6544C15.8414 11.6146 16 11.4661 16.0528 11.271C16.1716 10.8303 16.3473 10.407 16.5755 10.0118C16.6776 9.83567 16.6706 9.61675 16.5573 9.44755L15.4779 7.83372L16.367 6.93988L17.9824 8.02252C18.1516 8.13577 18.3705 8.14281 18.5466 8.04065C18.9419 7.81248 19.3651 7.63678 19.8058 7.51799C20.0001 7.46447 20.1476 7.30601 20.1871 7.1084Z" fill="#041E42"/>
<path d="M21.2005 16.4004C23.2623 16.4004 24.9338 14.729 24.9338 12.6672C24.9338 10.6054 23.2623 8.93395 21.2005 8.93395C19.1388 8.93395 17.4673 10.6054 17.4673 12.6672C17.4697 14.728 19.1397 16.3981 21.2005 16.4004ZM21.2005 10.0006C22.6733 10.0006 23.8671 11.1945 23.8671 12.6672C23.8671 14.1399 22.6733 15.3338 21.2005 15.3338C19.7278 15.3338 18.534 14.1399 18.534 12.6672C18.5357 11.1952 19.7286 10.0024 21.2005 10.0006Z" fill="#041E42"/>
<path d="M21.2004 13.2005C21.4949 13.2005 21.7337 12.9617 21.7337 12.6672C21.7337 12.3726 21.4949 12.1339 21.2004 12.1339C20.9059 12.1339 20.6671 12.3726 20.6671 12.6672C20.6671 12.9617 20.9059 13.2005 21.2004 13.2005Z" fill="#041E42"/>
<path d="M6.80118 13.7338C7.09572 13.7338 7.3345 13.4951 7.3345 13.2005C7.3345 12.906 7.09572 12.6672 6.80118 12.6672C6.50664 12.6672 6.26786 12.906 6.26786 13.2005C6.26786 13.4951 6.50664 13.7338 6.80118 13.7338Z" fill="#041E42"/>
</svg>
