<svg width="36" height="36" viewBox="0 0 36 36" fill="none" xmlns="http://www.w3.org/2000/svg">
<path d="M32.5 7.67742H31V6.64516C31 6.50828 30.9473 6.377 30.8536 6.2802C30.7598 6.18341 30.6326 6.12903 30.5 6.12903H29V5.6129C28.9989 4.65504 28.6299 3.73672 27.9737 3.0594C27.3176 2.38209 26.4279 2.00109 25.5 2H10.5C9.57207 2.00109 8.68244 2.38209 8.0263 3.0594C7.37015 3.73672 7.00106 4.65504 7 5.6129V6.12903H5.5C5.36739 6.12903 5.24021 6.18341 5.14645 6.2802C5.05268 6.377 5 6.50828 5 6.64516V7.67742H3.5C3.36739 7.67742 3.24021 7.7318 3.14645 7.82859C3.05268 7.92538 3 8.05666 3 8.19355V20.5806C3 20.8544 3.10536 21.117 3.29289 21.3106C3.48043 21.5041 3.73478 21.6129 4 21.6129H5C5.26522 21.6129 5.51957 21.5041 5.70711 21.3106C5.89464 21.117 6 20.8544 6 20.5806V11.8065C6 11.6696 5.94732 11.5383 5.85355 11.4415C5.75979 11.3447 5.63261 11.2903 5.5 11.2903H4V8.70968H5V9.74194C5 9.87882 5.05268 10.0101 5.14645 10.1069C5.24021 10.2037 5.36739 10.2581 5.5 10.2581H7V28.3226C7.00073 28.9173 7.20005 29.4935 7.56436 29.9542C7.92867 30.4149 8.43571 30.7318 9 30.8516V32.9677C9 33.2415 9.10536 33.5041 9.29289 33.6977C9.48043 33.8912 9.73478 34 10 34H13C13.2652 34 13.5196 33.8912 13.7071 33.6977C13.8946 33.5041 14 33.2415 14 32.9677V30.9032H22V32.9677C22 33.2415 22.1054 33.5041 22.2929 33.6977C22.4804 33.8912 22.7348 34 23 34H26C26.2652 34 26.5196 33.8912 26.7071 33.6977C26.8946 33.5041 27 33.2415 27 32.9677V30.8516C27.5643 30.7318 28.0713 30.4149 28.4356 29.9542C28.8 29.4935 28.9993 28.9173 29 28.3226V10.2581H30.5C30.6326 10.2581 30.7598 10.2037 30.8536 10.1069C30.9473 10.0101 31 9.87882 31 9.74194V8.70968H32V11.2903H30.5C30.3674 11.2903 30.2402 11.3447 30.1464 11.4415C30.0527 11.5383 30 11.6696 30 11.8065V20.5806C30 20.8544 30.1054 21.117 30.2929 21.3106C30.4804 21.5041 30.7348 21.6129 31 21.6129H32C32.2652 21.6129 32.5196 21.5041 32.7071 21.3106C32.8946 21.117 33 20.8544 33 20.5806V8.19355C33 8.05666 32.9473 7.92538 32.8536 7.82859C32.7598 7.7318 32.6326 7.67742 32.5 7.67742ZM5 12.3226V20.5806H4V12.3226H5ZM21.026 26.2426C21.023 26.2477 21.022 26.2529 21.0195 26.2581H14.9805C14.9775 26.2534 14.977 26.2477 14.974 26.2431L14.383 25.2258H21.617L21.026 26.2426ZM8 24.7546L12.95 25.1804C13.0289 25.1872 13.1052 25.2132 13.1725 25.2564C13.2398 25.2995 13.2962 25.3586 13.337 25.4286L14.1165 26.7742H8V24.7546ZM22.665 25.4292C22.7058 25.359 22.7621 25.2998 22.8294 25.2566C22.8967 25.2133 22.973 25.1872 23.052 25.1804L28.002 24.7546V26.7742H21.8835L22.665 25.4292ZM28 23.7187L22.969 24.1512C22.9015 24.1608 22.8347 24.1749 22.769 24.1935H13.229C13.1633 24.1749 13.0965 24.1608 13.029 24.1512L8 23.7187V20.8996L8.643 21.2315C9.12909 21.4818 9.66478 21.6124 10.208 21.6129H10.2325C10.1491 21.7407 10.1828 21.9116 10.3084 21.9982L10.4875 22.1214C10.7213 22.2825 11.042 22.2186 11.1962 21.9802L11.434 21.6129H25.792C26.3352 21.6124 26.8709 21.4818 27.357 21.2315L28 20.8996V23.7187ZM28 19.7445L26.9095 20.3071C26.5624 20.4861 26.18 20.5797 25.792 20.5806H12.1L12.7665 19.5484H24.4839C24.7689 19.5484 25 19.3173 25 19.0323C25 18.7472 24.7689 18.5161 24.4839 18.5161H12.5C12.4177 18.5161 12.3367 18.5371 12.2641 18.5771C12.1915 18.6172 12.1297 18.6751 12.084 18.7458L10.9 20.5806H10.208C9.82012 20.58 9.43764 20.4868 9.0905 20.3081L8 19.7455V6.12903H28V19.7445ZM10.5 3.03226H25.5C26.0761 3.03301 26.6343 3.23876 27.0806 3.61482C27.5269 3.99089 27.834 4.51428 27.95 5.09677H8.05C8.16605 4.51428 8.47309 3.99089 8.91937 3.61482C9.36566 3.23876 9.9239 3.03301 10.5 3.03226ZM6 9.22581V7.16129H7V9.22581H6ZM13 32.9677H10V30.9032H13V32.9677ZM23 32.9677V30.9032H26V32.9677H23ZM26.5 29.871H9.5C9.10218 29.871 8.72064 29.7078 8.43934 29.4175C8.15803 29.1271 8 28.7332 8 28.3226V27.8065H14.1165C14.2921 27.8075 14.4648 27.7603 14.6169 27.6696C14.7689 27.5789 14.8948 27.4479 14.9815 27.2903H21.0185C21.1052 27.4479 21.2311 27.5789 21.3831 27.6696C21.5352 27.7603 21.7079 27.8075 21.8835 27.8065H28V28.3226C28 28.7332 27.842 29.1271 27.5607 29.4175C27.2794 29.7078 26.8978 29.871 26.5 29.871ZM30 9.22581H29V7.16129H30V9.22581ZM32 20.5806H31V12.3226H32V20.5806Z" fill="#041E42"/>
</svg>
