<svg width="40" height="40" viewBox="0 0 40 40" fill="none" xmlns="http://www.w3.org/2000/svg">
<path fill-rule="evenodd" clip-rule="evenodd" d="M33.2649 6.67966C29.7565 3.16724 25.0908 1.23204 20.1202 1.22998C9.8777 1.22998 1.54182 9.56563 1.5377 19.8108C1.53633 23.0859 2.39189 26.2829 4.0181 29.1009L1.38184 38.73L11.2327 36.1459C13.947 37.6265 17.0028 38.4068 20.1126 38.4077H20.1204C30.3617 38.4077 38.6985 30.0714 38.7024 19.8257C38.7045 14.8603 36.7734 10.1918 33.2649 6.67966ZM20.1202 35.2695H20.1138C17.3425 35.2684 14.6245 34.5236 12.2528 33.1166L11.6891 32.7818L5.84343 34.3153L7.40372 28.6159L7.03636 28.0316C5.49027 25.5725 4.67384 22.7302 4.67522 19.812C4.67842 11.2964 11.6071 4.36841 20.1263 4.36841C24.2517 4.36978 28.1297 5.97836 31.0456 8.89775C33.9616 11.8171 35.5665 15.6976 35.5651 19.8246C35.5615 28.3408 28.6332 35.2695 20.1202 35.2695ZM28.592 23.7021C28.1278 23.4695 25.845 22.3466 25.4192 22.1914C24.994 22.0365 24.6841 21.9593 24.3749 22.424C24.0652 22.8886 23.1755 23.9346 22.9045 24.2443C22.6335 24.5542 22.363 24.5931 21.8986 24.3605C21.4342 24.1282 19.9382 23.6377 18.1646 22.0559C16.7844 20.8248 15.8527 19.3043 15.5817 18.8397C15.3111 18.3746 15.5794 18.1475 15.7854 17.8921C16.288 17.268 16.7913 16.6136 16.946 16.3039C17.101 15.994 17.0234 15.7228 16.9071 15.4905C16.7913 15.2581 15.8627 12.9728 15.4759 12.0428C15.0987 11.1378 14.7163 11.26 14.4311 11.2458C14.1605 11.2323 13.8509 11.2296 13.5412 11.2296C13.2317 11.2296 12.7287 11.3456 12.3029 11.8107C11.8774 12.2756 10.6781 13.3987 10.6781 15.6841C10.6781 17.9695 12.3418 20.1773 12.5739 20.4872C12.806 20.7971 15.8481 25.4869 20.5056 27.4978C21.6134 27.9766 22.4781 28.2621 23.1526 28.4761C24.265 28.8295 25.2769 28.7796 26.077 28.6601C26.9692 28.5267 28.8239 27.5367 29.2111 26.4523C29.5979 25.3676 29.5979 24.4381 29.4817 24.2443C29.3658 24.0506 29.0562 23.9346 28.592 23.7021Z" fill="#C49A6C"/>
</svg>
