<svg width="31" height="30" viewBox="0 0 31 30" fill="none" xmlns="http://www.w3.org/2000/svg">
<circle cx="15.4194" cy="15" r="14.5" stroke="white"/>
<path d="M22.0171 9.26091C21.9293 9.65683 21.8389 10.0524 21.7543 10.4491C21.1103 13.4648 20.4679 16.4806 19.8248 19.4964C19.7776 19.7171 19.7374 19.9395 19.6796 20.1571C19.4896 20.8747 18.966 21.0569 18.3645 20.617C17.3351 19.864 16.3064 19.1095 15.2777 18.3554C15.0773 18.2085 14.8889 18.2192 14.7124 18.3876C14.212 18.8656 13.7109 19.3432 13.212 19.8228C13.0492 19.9791 12.8627 20.0714 12.6106 20.0691C12.6247 19.8574 12.6373 19.6496 12.6523 19.4422C12.7176 18.5219 12.7817 17.6012 12.8533 16.6813C12.8588 16.6095 12.906 16.5242 12.9607 16.4751C15.0389 14.6023 17.1203 12.7331 19.2013 10.8631C19.2193 10.8466 19.2441 10.834 19.2555 10.814C19.2961 10.7417 19.3319 10.6671 19.3692 10.5932C19.2795 10.5755 19.1859 10.5331 19.1013 10.5465C19.0042 10.5622 18.9094 10.6184 18.8232 10.6726C16.2411 12.2869 13.6593 13.902 11.0799 15.5215C10.958 15.598 10.8573 15.6161 10.7164 15.5713C9.64724 15.2312 8.5745 14.9032 7.5049 14.5646C7.36249 14.5195 7.22088 14.4515 7.10011 14.3643C6.89673 14.2178 6.87392 14.0077 7.05723 13.8372C7.20121 13.7033 7.3743 13.5831 7.55604 13.5112C8.5623 13.1121 9.57486 12.7288 10.5858 12.3419C14.0452 11.0159 17.5038 9.69179 20.9632 8.3693C21.0627 8.3312 21.1689 8.29899 21.2744 8.28917C21.6544 8.25382 21.8916 8.42704 21.988 8.79586C21.9954 8.82375 22.0072 8.85085 22.0171 8.87834V9.2613V9.26091Z" fill="white"/>
</svg>
