<svg width="36" height="36" viewBox="0 0 36 36" fill="none" xmlns="http://www.w3.org/2000/svg">
<path d="M36 19.6344C36 18.4645 35.0485 17.5126 33.8787 17.5126C33.3123 17.5126 32.7797 17.7335 32.3787 18.1343L30.3871 20.1259V4.30556C30.3871 3.86066 30.0264 3.5 29.5815 3.5H11.9515L7 8.45149V31.6944C7 32.1393 7.36066 32.5 7.80556 32.5H29.5815C30.0264 32.5 30.3871 32.1393 30.3871 31.6944V26.1261L35.3788 21.1344C35.7791 20.7341 36 20.2012 36 19.6344ZM24.539 27.7614L25.756 28.9785L25.4508 29.0676C24.8428 29.245 24.2772 28.6837 24.4501 28.0743L24.539 27.7614ZM26.6452 28.5443L26.1377 28.0368L32.8156 21.3585L33.3235 21.8664L26.6452 28.5443ZM25.4758 27.3754L24.9679 26.8675L31.6467 20.1891L32.1546 20.6971L25.4758 27.3754ZM11.6774 5.0969V7.37186C11.6774 7.81676 11.3168 8.17742 10.8719 8.17742H8.5969L11.6774 5.0969ZM29.4516 30.759C29.4516 31.2039 29.091 31.5645 28.6461 31.5645H8.74104C8.29614 31.5645 7.93548 31.2039 7.93548 30.759V9.1129H11.8073C12.2522 9.1129 12.6129 8.75224 12.6129 8.30735V4.43548H28.6461C29.091 4.43548 29.4516 4.79614 29.4516 5.24104V21.0613L23.8896 26.6229L23.0879 29.4461C22.9148 30.0554 23.4803 30.6169 24.0883 30.4395L26.8911 29.6221L29.4516 27.0616V30.759ZM34.7174 20.473L33.9854 21.205L32.3081 19.5277L33.0401 18.7957C33.2641 18.5717 33.5622 18.4481 33.8787 18.4481C34.5321 18.4481 35.0645 18.9805 35.0645 19.6344C35.0645 19.9514 34.941 20.2494 34.7174 20.473Z" fill="#041E42"/>
<path d="M16.8226 23.1452C16.6314 22.9713 16.3354 22.9855 16.1616 23.1767L14.4633 25.0451C13.8697 24.4497 13.0498 24.0806 12.1452 24.0806C10.3402 24.0806 8.87097 25.5499 8.87097 27.3548C8.87097 29.1598 10.3402 30.629 12.1452 30.629C13.9501 30.629 15.4194 29.1598 15.4194 27.3548C15.4194 26.7969 15.2787 26.2716 15.0311 25.8114L16.8541 23.8061C17.0279 23.6149 17.0138 23.319 16.8226 23.1452ZM14.4839 27.3548C14.4839 28.6443 13.4346 29.6935 12.1452 29.6935C10.8557 29.6935 9.80645 28.6443 9.80645 27.3548C9.80645 26.0654 10.8557 25.0161 12.1452 25.0161C12.8079 25.0161 13.4043 25.2964 13.8304 25.741L12.3295 27.3923C12.1802 27.5566 11.9332 27.587 11.7485 27.4639L11.3908 27.2255C11.1759 27.0822 10.8855 27.1403 10.7422 27.3553C10.5989 27.5702 10.6569 27.8606 10.8719 28.004L11.6981 28.5549C11.9987 28.7553 12.4007 28.7058 12.6438 28.4385L14.3398 26.5728C14.4272 26.8184 14.4839 27.0789 14.4839 27.3548Z" fill="#041E42"/>
<path d="M16.8226 15.0925C16.6313 14.9187 16.3354 14.9328 16.1616 15.124L14.4633 16.9925C13.8697 16.3971 13.0498 16.028 12.1452 16.028C10.3402 16.028 8.87096 17.4972 8.87096 19.3022C8.87096 21.1071 10.3402 22.5764 12.1452 22.5764C13.9501 22.5764 15.4193 21.1071 15.4193 19.3022C15.4193 18.7442 15.2787 18.2189 15.0311 17.7587L16.8541 15.7534C17.0279 15.5622 17.0138 15.2663 16.8226 15.0925ZM14.4839 19.3022C14.4839 20.5917 13.4346 21.6409 12.1452 21.6409C10.8557 21.6409 9.80644 20.5917 9.80644 19.3022C9.80644 18.0127 10.8557 16.9635 12.1452 16.9635C12.8079 16.9635 13.4043 17.2437 13.8304 17.6884L12.3295 19.3396C12.1802 19.5039 11.9332 19.5343 11.7485 19.4112L11.3908 19.1728C11.1758 19.0296 10.8855 19.0877 10.7422 19.3026C10.5989 19.5176 10.6569 19.808 10.8719 19.9513L11.698 20.5022C11.9987 20.7027 12.4007 20.6532 12.6438 20.3858L14.3397 18.5202C14.4272 18.7657 14.4839 19.0263 14.4839 19.3022Z" fill="#041E42"/>
<path d="M27.5806 18.9355C27.5806 18.6772 27.7901 18.4677 28.0484 18.4677C28.3067 18.4677 28.5161 18.6772 28.5161 18.9355C28.5161 19.1938 28.3067 19.4032 28.0484 19.4032C27.7901 19.4032 27.5806 19.1938 27.5806 18.9355Z" fill="#041E42"/>
<path d="M17.2903 18.9355C17.2903 18.6772 17.4997 18.4677 17.7581 18.4677H26.1774C26.4357 18.4677 26.6452 18.6772 26.6452 18.9355C26.6452 19.1938 26.4357 19.4032 26.1774 19.4032H17.7581C17.4997 19.4032 17.2903 19.1938 17.2903 18.9355Z" fill="#041E42"/>
<path d="M17.2903 17.0645C17.2903 16.8062 17.4997 16.5968 17.7581 16.5968H28.0484C28.3067 16.5968 28.5161 16.8062 28.5161 17.0645C28.5161 17.3228 28.3067 17.5323 28.0484 17.5323H17.7581C17.4997 17.5323 17.2903 17.3228 17.2903 17.0645Z" fill="#041E42"/>
<path d="M17.2903 20.8065C17.2903 20.5481 17.4997 20.3387 17.7581 20.3387H28.0484C28.3067 20.3387 28.5161 20.5481 28.5161 20.8065C28.5161 21.0648 28.3067 21.2742 28.0484 21.2742H17.7581C17.4997 21.2742 17.2903 21.0648 17.2903 20.8065Z" fill="#041E42"/>
<path d="M17.2903 27.3548C17.2903 27.0965 17.4997 26.8871 17.7581 26.8871H21.9677C22.2261 26.8871 22.4355 27.0965 22.4355 27.3548C22.4355 27.6132 22.2261 27.8226 21.9677 27.8226H17.7581C17.4997 27.8226 17.2903 27.6132 17.2903 27.3548Z" fill="#041E42"/>
<path d="M17.2903 29.2258C17.2903 28.9675 17.4997 28.7581 17.7581 28.7581H21.9677C22.2261 28.7581 22.4355 28.9675 22.4355 29.2258C22.4355 29.4841 22.2261 29.6935 21.9677 29.6935H17.7581C17.4997 29.6935 17.2903 29.4841 17.2903 29.2258Z" fill="#041E42"/>
<path d="M17.2903 25.4839C17.2903 25.2255 17.4997 25.0161 17.7581 25.0161H21.9677C22.2261 25.0161 22.4355 25.2255 22.4355 25.4839C22.4355 25.7422 22.2261 25.9516 21.9677 25.9516H17.7581C17.4997 25.9516 17.2903 25.7422 17.2903 25.4839Z" fill="#041E42"/>
<path d="M15.8871 13.7903H26.1774C27.4669 13.7903 28.5161 12.7411 28.5161 11.4516V7.70968C28.5161 6.42019 27.4669 5.37097 26.1774 5.37097H15.8871C14.5976 5.37097 13.5484 6.42019 13.5484 7.70968V11.4516C13.5484 12.7411 14.5976 13.7903 15.8871 13.7903ZM14.4839 7.70968C14.4839 6.93612 15.1135 6.30645 15.8871 6.30645H26.1774C26.951 6.30645 27.5806 6.93612 27.5806 7.70968V11.4516C27.5806 12.2252 26.951 12.8548 26.1774 12.8548H15.8871C15.1135 12.8548 14.4839 12.2252 14.4839 11.4516V7.70968Z" fill="#041E42"/>
<path d="M26.6452 8.98298C26.6452 8.53808 26.2845 8.17742 25.8396 8.17742H24.6443C24.1994 8.17742 23.8387 8.53808 23.8387 8.98298V10.1783C23.8387 10.6232 24.1994 10.9839 24.6443 10.9839H25.8396C26.2845 10.9839 26.6452 10.6232 26.6452 10.1783V8.98298ZM25.7097 9.58065C25.7097 9.83897 25.5003 10.0484 25.2419 10.0484C24.9836 10.0484 24.7742 9.83897 24.7742 9.58065C24.7742 9.32232 24.9836 9.1129 25.2419 9.1129C25.5003 9.1129 25.7097 9.32232 25.7097 9.58065Z" fill="#041E42"/>
<path d="M22.4355 8.98298C22.4355 8.53808 22.0748 8.17742 21.6299 8.17742H20.4346C19.9897 8.17742 19.629 8.53808 19.629 8.98298V10.1783C19.629 10.6232 19.9897 10.9839 20.4346 10.9839H21.6299C22.0748 10.9839 22.4355 10.6232 22.4355 10.1783V8.98298ZM21.5 9.58065C21.5 9.83897 21.2906 10.0484 21.0323 10.0484C20.7739 10.0484 20.5645 9.83897 20.5645 9.58065C20.5645 9.32232 20.7739 9.1129 21.0323 9.1129C21.2906 9.1129 21.5 9.32232 21.5 9.58065Z" fill="#041E42"/>
<path d="M18.2258 8.98298C18.2258 8.53808 17.8651 8.17742 17.4203 8.17742H16.2249C15.78 8.17742 15.4194 8.53808 15.4194 8.98298V10.1783C15.4194 10.6232 15.78 10.9839 16.2249 10.9839H17.4203C17.8651 10.9839 18.2258 10.6232 18.2258 10.1783V8.98298ZM17.2903 9.58065C17.2903 9.83897 17.0809 10.0484 16.8226 10.0484C16.5643 10.0484 16.3548 9.83897 16.3548 9.58065C16.3548 9.32232 16.5643 9.1129 16.8226 9.1129C17.0809 9.1129 17.2903 9.32232 17.2903 9.58065Z" fill="#041E42"/>
</svg>
