<svg width="65" height="65" viewBox="0 0 65 65" fill="none" xmlns="http://www.w3.org/2000/svg">
<path d="M5.33545 35.0459V40.6251C5.33545 54.1667 10.7521 59.5834 24.2938 59.5834H40.5438C54.0855 59.5834 59.5021 54.1667 59.5021 40.6251V35.2084" stroke="#1F1E20" stroke-width="4" stroke-linecap="round" stroke-linejoin="round"/>
<path d="M29.7104 5.41675H24.2938C10.7521 5.41675 5.33545 10.8334 5.33545 24.3751" stroke="#1F1E20" stroke-width="4" stroke-linecap="round" stroke-linejoin="round"/>
<path d="M50.1313 8.12495C51.9188 7.12286 53.6521 6.28328 55.2771 5.63328C56.55 5.14578 57.7958 5.52495 58.5812 6.31036C59.3937 7.12286 59.8 8.3687 59.2854 9.64161C55.9542 17.9562 47.5854 29.277 40.5979 34.8833L36.3187 38.2958C35.7771 38.702 35.2354 39.027 34.6125 39.2708C34.6125 38.8645 34.5854 38.4583 34.5313 38.0249C34.2875 36.2104 33.475 34.5041 32.0125 33.0687C30.5229 31.5791 28.7354 30.7395 26.8938 30.4958C26.4604 30.4687 26.0271 30.4416 25.5938 30.4687C25.8375 29.7916 26.1896 29.1687 26.65 28.6541L30.0354 24.3749C32.9333 20.7458 37.4021 16.7374 42.1958 13.2437" stroke="#1F1E20" stroke-width="4" stroke-linecap="round" stroke-linejoin="round"/>
<path d="M34.6126 39.2437C34.6126 41.6271 33.6918 43.9021 31.9855 45.6354C30.6584 46.9625 28.8709 47.8833 26.7313 48.1541L21.3959 48.7229C18.498 49.0479 16.0063 46.5833 16.3313 43.6312L16.9001 38.2958C17.4147 33.5562 21.3688 30.5229 25.5938 30.4416C26.0272 30.4146 26.4605 30.4416 26.8938 30.4687C28.7355 30.7125 30.523 31.5521 32.0126 33.0416C33.4751 34.5041 34.2876 36.1833 34.5313 37.9979C34.5855 38.4312 34.6126 38.8646 34.6126 39.2437Z" stroke="#1F1E20" stroke-width="4" stroke-linecap="round" stroke-linejoin="round"/>
<path d="M42.8459 32.4457C42.8459 26.7853 38.2688 22.1812 32.5813 22.1812" stroke="#1F1E20" stroke-width="4" stroke-linecap="round" stroke-linejoin="round"/>
</svg>
