<svg width="65" height="65" viewBox="0 0 65 65" fill="none" xmlns="http://www.w3.org/2000/svg">
<path d="M27.0833 47.3958H37.9166" stroke="#1F1E20" stroke-width="4" stroke-linecap="round" stroke-linejoin="round"/>
<path d="M5.41675 47.3958V20.3124C5.41675 9.47909 8.12508 6.77075 18.9584 6.77075" stroke="#1F1E20" stroke-width="4" stroke-linecap="round" stroke-linejoin="round"/>
<path d="M59.5834 47.3958V20.3124C59.5834 9.47909 56.8751 6.77075 46.0417 6.77075" stroke="#1F1E20" stroke-width="4" stroke-linecap="round" stroke-linejoin="round"/>
<path d="M27.0834 43.0897V52.0001C27.0834 57.4168 24.9167 59.5834 19.5001 59.5834H13.0001C7.58342 59.5834 5.41675 57.4168 5.41675 52.0001V43.0897C5.41675 37.673 7.58342 35.5063 13.0001 35.5063H19.5001" stroke="#1F1E20" stroke-width="4" stroke-linecap="round" stroke-linejoin="round"/>
<path d="M59.5834 43.0897V52.0001C59.5834 57.4168 57.4167 59.5834 52.0001 59.5834H45.5001C40.0834 59.5834 37.9167 57.4168 37.9167 52.0001V43.0897C37.9167 37.673 40.0834 35.5063 45.5001 35.5063H52.0001C57.4167 35.5063 59.5834 37.673 59.5834 43.0897Z" stroke="#1F1E20" stroke-width="4" stroke-linecap="round" stroke-linejoin="round"/>
</svg>
