<svg width="65" height="65" viewBox="0 0 65 65" fill="none" xmlns="http://www.w3.org/2000/svg">
<path d="M5.41675 59.5833H59.5834" stroke="#1F1E20" stroke-width="4" stroke-miterlimit="10" stroke-linecap="round" stroke-linejoin="round"/>
<path d="M8.125 27.0019C8.125 25.3499 8.91042 23.7792 10.2104 22.75L29.1688 7.98955C31.1188 6.47288 33.8542 6.47288 35.8312 7.98955L54.7896 22.7229C56.1167 23.7521 56.875 25.3228 56.875 27.0019V59.5833" stroke="#1F1E20" stroke-width="4" stroke-miterlimit="10" stroke-linecap="round" stroke-linejoin="round"/>
<path d="M7.9895 59.5834L8.07075 37.998" stroke="#1F1E20" stroke-width="4" stroke-miterlimit="10" stroke-linecap="round" stroke-linejoin="round"/>
<path d="M35.2084 46.0417H29.7917C27.5438 46.0417 25.7292 47.8563 25.7292 50.1042V59.5834H39.2709V50.1042C39.2709 47.8563 37.4563 46.0417 35.2084 46.0417Z" stroke="#1F1E20" stroke-width="4" stroke-miterlimit="10" stroke-linejoin="round"/>
<path d="M25.7292 37.2397H20.3126C18.823 37.2397 17.6042 36.0209 17.6042 34.5313V30.4688C17.6042 28.9792 18.823 27.7605 20.3126 27.7605H25.7292C27.2188 27.7605 28.4376 28.9792 28.4376 30.4688V34.5313C28.4376 36.0209 27.2188 37.2397 25.7292 37.2397Z" stroke="#1F1E20" stroke-width="4" stroke-miterlimit="10" stroke-linejoin="round"/>
<path d="M44.6875 37.2397H39.2708C37.7812 37.2397 36.5625 36.0209 36.5625 34.5313V30.4688C36.5625 28.9792 37.7812 27.7605 39.2708 27.7605H44.6875C46.1771 27.7605 47.3958 28.9792 47.3958 30.4688V34.5313C47.3958 36.0209 46.1771 37.2397 44.6875 37.2397Z" stroke="#1F1E20" stroke-width="4" stroke-miterlimit="10" stroke-linejoin="round"/>
<path d="M51.4584 18.9583L51.3771 10.8333H39.4604" stroke="#1F1E20" stroke-width="4" stroke-miterlimit="10" stroke-linecap="round" stroke-linejoin="round"/>
</svg>
