<svg width="65" height="65" viewBox="0 0 65 65" fill="none" xmlns="http://www.w3.org/2000/svg">
<path d="M5.4165 21.0979C5.4165 12.5396 8.26025 9.6958 16.8186 9.6958H33.9353C42.4936 9.6958 45.3373 12.5396 45.3373 21.0979V43.902C45.3373 52.4604 42.4936 55.3041 33.9353 55.3041H16.8186C8.26025 55.3041 5.4165 49.6166 5.4165 43.902V32.825" stroke="#1F1E20" stroke-width="4" stroke-linecap="round" stroke-linejoin="round"/>
<path d="M52.8666 46.3126L45.3374 41.0314V23.9418L52.8666 18.6605C56.5499 16.0876 59.5832 17.6584 59.5832 22.1814V42.8189C59.5832 47.3418 56.5499 48.9126 52.8666 46.3126Z" stroke="#1F1E20" stroke-width="4" stroke-linecap="round" stroke-linejoin="round"/>
<path d="M35.2085 25.7292C35.2085 23.4813 33.3939 21.6667 31.146 21.6667C28.8981 21.6667 27.0835 23.4813 27.0835 25.7292C27.0835 27.9772 28.8981 29.7917 31.146 29.7917" stroke="#1F1E20" stroke-width="4" stroke-linecap="round" stroke-linejoin="round"/>
</svg>
