<svg width="65" height="65" viewBox="0 0 65 65" fill="none" xmlns="http://www.w3.org/2000/svg">
<path d="M54.1666 29.873V46.0418C54.1666 56.8751 51.4583 59.5834 40.6249 59.5834H24.3749C13.5416 59.5834 10.8333 56.8751 10.8333 46.0418V18.9584C10.8333 8.12508 13.5416 5.41675 24.3749 5.41675H40.6249C51.4583 5.41675 54.1666 8.12508 54.1666 18.9584" stroke="#1F1E20" stroke-width="4" stroke-linecap="round" stroke-linejoin="round"/>
<path d="M37.9166 14.8958H27.0833" stroke="#1F1E20" stroke-width="4" stroke-linecap="round" stroke-linejoin="round"/>
<path d="M32.4999 51.7291C34.8184 51.7291 36.6978 49.8496 36.6978 47.5312C36.6978 45.2127 34.8184 43.3333 32.4999 43.3333C30.1815 43.3333 28.302 45.2127 28.302 47.5312C28.302 49.8496 30.1815 51.7291 32.4999 51.7291Z" stroke="#1F1E20" stroke-width="4" stroke-linecap="round" stroke-linejoin="round"/>
</svg>
