<svg width="65" height="65" viewBox="0 0 65 65" fill="none" xmlns="http://www.w3.org/2000/svg">
<path d="M51.3771 59.5834H13.4604C5.33545 59.5834 5.33545 55.9272 5.33545 51.4584V48.7501C5.33545 47.2605 6.5542 46.0417 8.04378 46.0417H56.7938C58.2834 46.0417 59.5021 47.2605 59.5021 48.7501V51.4584C59.5021 55.9272 59.5021 59.5834 51.3771 59.5834Z" stroke="#1F1E20" stroke-width="4" stroke-linecap="round" stroke-linejoin="round"/>
<path d="M12.5125 23.1834C15.6 18.5792 20.3937 15.2209 25.9729 14.0292C27.4354 13.7042 28.952 13.5417 30.5229 13.5417H34.45C36.0208 13.5417 37.5645 13.7042 39.027 14.0292C48.8041 16.1417 56.1166 24.8084 56.1166 35.2084V46.0417H8.8562V35.2084" stroke="#1F1E20" stroke-width="4" stroke-linecap="round" stroke-linejoin="round"/>
<path d="M39.2709 12.1876C39.2709 12.8376 39.1897 13.4334 39.0272 14.0292C37.5647 13.7042 36.0209 13.5417 34.4501 13.5417H30.523C28.9522 13.5417 27.4355 13.7042 25.973 14.0292C25.8105 13.4334 25.7292 12.8376 25.7292 12.1876C25.7292 8.45008 28.7626 5.41675 32.5001 5.41675C36.2376 5.41675 39.2709 8.45008 39.2709 12.1876Z" stroke="#1F1E20" stroke-width="4" stroke-linecap="round" stroke-linejoin="round"/>
<path d="M40.625 29.7917H24.375" stroke="#1F1E20" stroke-width="4" stroke-linecap="round" stroke-linejoin="round"/>
</svg>
