<svg width="65" height="65" viewBox="0 0 65 65" fill="none" xmlns="http://www.w3.org/2000/svg">
<path d="M16.2499 14.0021L10.9145 17.4959C5.68737 20.9084 5.68737 28.5459 10.9145 31.9584L27.2186 42.6021C30.1436 44.525 34.9645 44.525 37.8895 42.6021L54.1124 31.9584C59.3124 28.5459 59.3124 20.9354 54.1124 17.5229L37.8895 6.8792C34.9645 4.95628 30.1436 4.95628 27.2186 6.8792" stroke="#1F1E20" stroke-width="4" stroke-linecap="round" stroke-linejoin="round"/>
<path d="M15.2478 35.425L15.2207 48.1271C15.2207 51.5667 17.8749 55.25 21.1249 56.3334L29.7645 59.2042C31.254 59.6917 33.7186 59.6917 35.2353 59.2042L43.8749 56.3334C47.1249 55.25 49.779 51.5667 49.779 48.1271V35.5605" stroke="#1F1E20" stroke-width="4" stroke-linecap="round" stroke-linejoin="round"/>
<path d="M57.9585 40.625V24.375" stroke="#1F1E20" stroke-width="4" stroke-linecap="round" stroke-linejoin="round"/>
</svg>
