<svg width="72" height="73" viewBox="0 0 72 73" fill="none" xmlns="http://www.w3.org/2000/svg">
<path d="M34.3463 0.600098C35.2838 0.600098 36.2212 0.600098 37.1587 0.600098C49.005 1.3351 58.3106 6.26822 65.0756 15.3995C69.3019 21.107 71.61 27.8101 72 35.5089C72 36.4014 72 37.292 72 38.1807C71.235 49.1157 66.6562 57.9864 58.2638 64.7926C58.1136 64.9134 57.941 64.9859 57.7687 65.0007C56.5275 65.1057 55.9912 64.6576 56.16 63.6563C56.2425 63.1688 56.5612 62.6851 57.1162 62.2051C63.1462 57.0113 66.9413 50.5426 68.5013 42.7988C68.7637 41.4938 68.9288 39.8795 68.9963 37.9557C69.0488 36.332 69.0994 34.7082 69.1481 33.0845C69.1498 33.0444 69.1452 33.0063 69.1344 32.9732C69.1237 32.94 69.1072 32.9127 69.0863 32.8932C69.0563 32.8632 69.0244 32.8426 68.9906 32.8313C68.947 32.8167 68.8953 32.827 68.8454 32.8603C68.7955 32.8935 68.7511 32.9473 68.7206 33.0113C68.1506 34.1513 67.395 35.0045 66.4538 35.5707C65.565 36.1032 64.9313 35.8857 64.5525 34.9182C63.8962 33.2495 63.2738 31.5713 62.685 29.8838C62.4038 29.0851 61.6331 28.2038 60.3731 27.2401C60.289 27.1745 60.1976 27.1285 60.1098 27.1076C60.022 27.0866 59.9416 27.0916 59.8781 27.122C59.6644 27.2195 59.6044 27.4632 59.6981 27.8532C59.7444 28.0525 59.7388 28.2606 59.6817 28.4575C59.6245 28.6544 59.5179 28.8337 59.3719 28.9782C57.3094 31.0032 54.8175 32.5276 51.8963 33.5513C51.075 33.8401 50.4487 33.6076 50.0175 32.8538C49.035 31.1438 48.0788 29.3213 47.1488 27.3863C47.1338 27.3563 46.965 27.0676 46.6425 26.5201C46.3575 26.0364 46.2244 25.5057 46.2431 24.9282C46.2505 24.7276 46.205 24.5455 46.1138 24.4107C45.2775 23.162 44.1281 22.3163 42.6656 21.8738C41.3569 21.4801 40.9594 20.7995 41.4731 19.832C41.8256 19.1682 42.3619 18.9413 43.0819 19.1513C45.7931 19.9463 47.7356 21.4238 48.9094 23.5838C48.9881 23.7301 49.0275 23.9082 49.0275 24.1182C49.02 24.662 49.1663 25.2245 49.4663 25.8057C50.2238 27.2907 51.0056 28.7832 51.8119 30.2832C51.8501 30.3559 51.9143 30.4117 51.9923 30.4398C52.0702 30.4678 52.1562 30.4662 52.2337 30.4351C53.6737 29.8613 54.9881 29.072 56.1769 28.067C56.238 28.0142 56.2815 27.9435 56.3015 27.8641C56.3216 27.7848 56.3174 27.7006 56.2894 27.6226C55.9444 26.6813 56.0119 25.8938 56.4919 25.2601C56.8969 24.7238 57.5775 24.4238 58.5337 24.3601C59.2237 24.3151 59.91 24.3432 60.5925 24.4445C61.2712 24.5457 61.8787 24.8176 62.415 25.2601C64.065 26.6138 65.2125 28.3801 65.8575 30.5588C66.0262 31.1288 66.1913 31.127 66.3525 30.5532C66.5738 29.7845 67.0331 29.0101 67.7306 28.2301C67.7893 28.1646 67.8309 28.0869 67.8516 28.0043C67.8722 27.9216 67.8713 27.8368 67.8488 27.7576C66.5175 22.7926 64.1287 18.4013 60.6825 14.5838C55.0912 8.39635 48.0337 4.75322 39.51 3.65447C39.398 3.64069 39.285 3.65462 39.1817 3.69495C39.0784 3.73529 38.9881 3.80071 38.9194 3.8851L35.3587 8.2726C35.0061 8.70599 34.573 9.02203 34.11 9.18385L25.8975 12.0807C25.7191 12.1425 25.5579 12.2373 25.4249 12.3587C25.2919 12.4801 25.1902 12.6251 25.1269 12.7838L23.4338 17.0645C23.4011 17.1473 23.3896 17.237 23.4004 17.3255C23.4112 17.4139 23.4439 17.4982 23.4956 17.5707L24.9975 19.7195C25.0422 19.7828 25.1013 19.8346 25.1702 19.8708C25.239 19.907 25.3158 19.9267 25.3946 19.9283C25.4734 19.9299 25.5521 19.9135 25.6247 19.8802C25.6972 19.8469 25.7617 19.7977 25.8131 19.7363C27.4444 17.7788 29.4694 16.9745 31.8881 17.3232C32.074 17.3525 32.2422 17.4395 32.3662 17.5707C33.09 18.3395 33.1331 18.992 32.4956 19.5282C32.2369 19.742 31.695 19.892 30.87 19.9782C29.64 20.1057 28.5694 20.7338 27.6581 21.8626C27.3694 22.2188 27.4537 22.397 27.9112 22.397C29.04 22.397 29.9981 22.3576 30.7856 22.2788C32.4094 22.1176 33.5887 22.6838 34.3237 23.9776C34.3875 24.0901 34.4269 24.2663 34.4419 24.5063C34.4831 25.0651 34.8937 25.5095 35.6737 25.8395C35.7612 25.876 35.8559 25.892 35.9505 25.8861C36.0451 25.8803 36.1371 25.8528 36.2194 25.8057C37.1981 25.2245 38.1019 24.9563 38.9306 25.0013C39.4256 25.0276 40.2863 25.2526 41.5125 25.6763C43.6313 26.4076 45.1575 27.9976 46.0913 30.4463C47.055 32.9776 47.7806 34.502 48.2681 35.0195C48.9506 35.7395 50.0175 36.2195 51.4688 36.4595C52.41 36.617 52.9894 37.1176 53.2069 37.9613C53.3681 38.6026 53.2481 39.2588 52.8469 39.9301C52.5131 40.4813 52.0425 41.0945 51.435 41.7695C50.6513 42.6357 49.8619 43.4982 49.0669 44.357C48.5306 44.942 48.2569 45.497 48.2456 46.022C48.2306 46.5695 48.3206 47.2257 48.5156 47.9907C48.8981 49.4907 48.5513 50.852 47.475 52.0745C46.8788 52.7532 46.4644 53.3063 46.2319 53.7338C45.8944 54.3489 45.5438 54.9582 45.18 55.562C45.1575 55.5995 44.7169 56.4732 43.8581 58.1832C43.0856 59.7132 41.8894 60.8851 40.2694 61.6988C38.1544 62.7638 36.6019 62.3551 35.6119 60.4726C35.2369 59.7526 34.305 57.6676 32.8162 54.2176C32.0812 52.5151 32.0062 50.8501 32.5912 49.2226C33.0112 48.0489 32.9306 47.0307 32.3494 46.1682C31.6144 45.0807 31.245 44.5332 31.2413 44.5257C30.9638 43.817 30.8156 43.0932 30.7969 42.3545C30.794 42.2242 30.7615 42.0963 30.7017 41.9807C30.6419 41.865 30.5565 41.7647 30.4521 41.6875C30.3477 41.6103 30.227 41.5582 30.0996 41.5354C29.9721 41.5125 29.8411 41.5195 29.7169 41.5557C25.3519 42.8007 22.0444 41.7976 19.7944 38.5463C19.0744 37.5038 18.6337 36.3976 18.4725 35.2276C18.3 33.9676 18.3994 32.7432 18.7706 31.5545C19.0819 30.5495 19.8619 29.2407 21.1106 27.6282C22.0519 26.4132 23.0175 25.2207 24.0075 24.0507C24.1162 23.9244 24.1769 23.7638 24.179 23.5971C24.1811 23.4305 24.1243 23.2684 24.0188 23.1395C22.65 21.4782 21.45 19.7082 20.4187 17.8295C20.3729 17.7449 20.3446 17.6546 20.3358 17.5652C20.3271 17.4758 20.3381 17.3893 20.3681 17.312L22.9331 10.8488C23.0303 10.6049 23.1879 10.3804 23.3954 10.1902C23.603 10.0001 23.8558 9.8488 24.1369 9.74635C26.3456 8.9476 28.6256 8.14697 30.9769 7.34447C32.0906 6.96572 32.9156 6.54197 33.4519 6.07322C34.1681 5.45072 34.7437 4.69697 35.1787 3.81197C35.1925 3.78481 35.199 3.75451 35.1974 3.7241C35.1958 3.69368 35.1863 3.6642 35.1698 3.6386C35.1533 3.61299 35.1304 3.59216 35.1034 3.57817C35.0763 3.56418 35.0461 3.55752 35.0156 3.55885C28.0181 3.7651 21.63 6.02635 15.8512 10.3426C15.8197 10.3653 15.7937 10.3949 15.7751 10.4291C15.7565 10.4633 15.7458 10.5014 15.7436 10.5406C15.7415 10.5798 15.748 10.6192 15.7627 10.6559C15.7774 10.6927 15.8 10.7259 15.8287 10.7532C18.0975 12.917 18.8494 15.1988 18.0844 17.5988C17.8631 18.3001 17.2688 19.232 16.3013 20.3945C15.4125 21.467 14.7712 22.3801 14.3775 23.1338C13.545 24.7351 12.6469 26.297 11.6831 27.8195C11.3644 28.322 10.9763 28.7382 10.5188 29.0682C10.0538 29.3982 9.56813 29.7207 9.06188 30.0357C9.00337 30.0733 8.95294 30.1222 8.91355 30.1795C8.87415 30.2368 8.84658 30.3014 8.83244 30.3695C8.8183 30.4376 8.81787 30.5078 8.83119 30.576C8.84451 30.6443 8.8713 30.7092 8.91 30.767C9.32625 31.3895 9.73688 32.0495 10.1419 32.747C10.6706 33.6695 10.6313 34.3538 10.0238 34.8001C9.73875 35.0063 9.19875 35.1657 8.40375 35.2782C7.32375 35.4282 6.24187 35.567 5.15812 35.6945C4.78312 35.7395 4.4475 35.7113 4.15125 35.6101C3.82125 35.4976 3.5025 35.3588 3.195 35.1938C3.16733 35.1793 3.13647 35.1716 3.1053 35.1713C3.07412 35.1711 3.04363 35.1783 3.01668 35.1923C2.98973 35.2064 2.96719 35.2268 2.95116 35.2516C2.93513 35.2765 2.92613 35.305 2.925 35.3345L2.84625 37.472C2.80875 38.5745 3.33563 38.8538 4.42688 38.3101C6.06188 37.4888 7.27875 37.3726 8.0775 37.9613C9.76875 39.2101 11.4994 40.5188 13.2694 41.8876C13.6969 42.2192 14.2051 42.4326 14.7431 42.5063C15.9769 42.6676 17.1375 43.0332 18.225 43.6032C19.845 44.4507 20.6025 45.8082 20.4975 47.6757C20.4338 48.767 20.4769 49.6257 20.6269 50.252C20.8031 50.9832 20.8913 51.3582 20.8913 51.377C21.1538 53.9045 20.1019 55.6595 17.7356 56.642C17.6493 56.678 17.5738 56.7308 17.5159 56.7956C17.458 56.8604 17.4194 56.9352 17.4037 57.0132L16.2787 63.0151C16.2635 63.0967 16.2745 63.1826 16.3104 63.2625C16.3463 63.3423 16.4057 63.4127 16.4812 63.4651C26.2387 70.0838 36.6994 71.4845 47.8631 67.667C48.0464 67.6047 48.2344 67.5949 48.4031 67.6388C49.6669 67.9688 50.0231 68.5801 49.4719 69.4726C49.1981 69.9113 48.7237 70.247 48.0487 70.4795C44.595 71.6757 41.0363 72.3826 37.3725 72.6001C36.6675 72.6001 35.9644 72.6001 35.2631 72.6001C29.3944 72.3151 24.2138 70.9913 19.7213 68.6288C7.75875 62.3363 1.185 52.2113 0 38.2538C0 37.3613 0 36.4707 0 35.582C0.62625 24.3245 5.1375 15.3001 13.5337 8.50885C19.3725 3.79135 26.31 1.1551 34.3463 0.600098ZM6.41813 32.117C5.57438 31.2582 5.33437 30.3207 5.69812 29.3045C5.75291 29.1408 5.87211 28.9938 6.03562 28.8882C8.16187 27.5007 9.37313 26.4976 9.66938 25.8788C10.8581 23.3926 12.2869 21.0638 13.9556 18.8926C14.9156 17.6438 15.4388 16.6726 15.525 15.9788C15.6938 14.6213 15.0394 13.5376 13.5619 12.7276C13.4792 12.6817 13.3835 12.664 13.2893 12.6772C13.195 12.6903 13.1071 12.7337 13.0387 12.8007C7.90875 17.9345 4.70438 23.9476 3.42563 30.8401C3.38918 31.0266 3.41088 31.2141 3.4875 31.3745C4.05375 32.5257 4.9575 32.9945 6.19875 32.7807C6.69375 32.6982 6.76688 32.477 6.41813 32.117ZM49.6856 38.957C48.0919 38.7245 46.8469 37.9501 45.9506 36.6338C45.0656 35.3363 44.1712 33.4557 43.2675 30.992C42.6637 29.3382 41.4131 28.3482 39.5156 28.022C38.9044 27.917 38.4319 28.0632 38.0981 28.4607C37.9523 28.6285 37.8035 28.7455 37.6763 28.7926C36.5625 29.1938 35.43 29.042 34.2787 28.337C33.0562 27.5907 32.1694 27.0151 31.6181 26.6101C31.5058 26.5268 31.4056 26.3666 31.3369 26.1601L31.095 25.4288C31.0699 25.3541 31.0183 25.2883 30.947 25.2401C30.8757 25.192 30.7881 25.1636 30.6956 25.1588C29.3419 25.0801 28.0125 25.2132 26.7075 25.5582C26.5315 25.6023 26.3711 25.6981 26.2463 25.8338C24.9638 27.2063 23.7844 28.6576 22.7081 30.1876C21.8269 31.4476 21.3225 32.5445 21.195 33.4782C21.0112 34.8432 21.3412 36.0826 22.185 37.1963C23.34 38.7263 24.8925 39.3732 26.8425 39.137C27.735 39.0282 28.6313 38.9438 29.5312 38.8838C31.3275 38.7713 32.5744 39.407 33.2719 40.7907C33.3431 40.9332 33.4613 41.5351 33.6263 42.5964C33.7238 43.2226 33.9994 43.802 34.4531 44.3345C35.7581 45.8645 36.0881 47.6232 35.4431 49.6107C35.0194 50.912 35.0737 52.1889 35.6063 53.4413C36.3638 55.2226 37.14 57.0582 37.935 58.9482C37.9941 59.0893 38.1051 59.2021 38.2447 59.263C38.3842 59.3238 38.5414 59.3279 38.6831 59.2745C39.9881 58.7982 40.9219 57.917 41.4844 56.6307C41.9156 55.652 42.135 55.1551 42.1425 55.1401C43.14 53.2801 44.3138 51.422 45.6637 49.5657C45.7347 49.4705 45.7811 49.3586 45.7987 49.2399C45.8164 49.1213 45.8048 48.9995 45.765 48.8851C45.2738 47.5051 45.2213 46.157 45.6075 44.8407C45.8588 43.9932 46.47 43.0201 47.4412 41.9213C48.225 41.0326 49.02 40.1832 49.8263 39.3732C50.0513 39.1445 50.0044 39.0057 49.6856 38.957ZM13.2806 60.6245C13.6706 61.007 13.8881 60.9263 13.9331 60.3826C14.0231 59.2501 14.2106 58.1007 14.4956 56.9345C14.5031 56.9045 14.5594 56.5613 14.6644 55.9051C14.8256 54.9188 15.4575 54.2851 16.56 54.0038C17.9175 53.6551 18.3975 52.7757 18 51.3657C17.7038 50.312 17.5725 49.3801 17.6062 48.5701C17.6512 47.5463 17.6569 46.9707 17.6231 46.8432C17.4281 46.1645 16.9444 45.7501 16.1719 45.6001C15.1519 45.4051 14.3288 45.2382 13.7025 45.0995C12.9338 44.9307 12.1931 44.5726 11.4806 44.0251C10.0556 42.9413 8.5725 41.8238 7.03125 40.6726C6.92424 40.5913 6.80308 40.5359 6.67849 40.5114C6.55389 40.4868 6.42969 40.4939 6.31687 40.532L3.56625 41.4488C3.48075 41.4774 3.40878 41.5385 3.36338 41.621C3.31798 41.7036 3.30214 41.8021 3.31875 41.8988C4.59 49.1738 7.91062 55.4157 13.2806 60.6245Z" fill="#041E42"/>
<path d="M37.4625 20.0063C38.2143 20.0063 38.8237 19.3969 38.8237 18.6451C38.8237 17.8933 38.2143 17.2838 37.4625 17.2838C36.7107 17.2838 36.1012 17.8933 36.1012 18.6451C36.1012 19.3969 36.7107 20.0063 37.4625 20.0063Z" fill="#041E42"/>
<path d="M56.2837 45.707C56.895 46.4495 57.3019 47.2763 57.5044 48.1876C57.6619 48.8888 57.6 49.7776 57.3187 50.8538C56.9625 52.2113 56.595 53.5632 56.2163 54.9095C55.68 56.8182 54.9525 58.2732 54.0337 59.2745C53.3925 59.9757 52.6575 60.2157 51.8287 59.9945C51.2137 59.8295 50.64 59.4395 50.1075 58.8245C49.1362 57.6995 48.93 56.4826 49.4888 55.1738C49.7363 54.5888 49.8694 53.9795 49.8881 53.3457C49.9256 52.0295 50.1656 51.0039 50.6081 50.2689C50.7319 50.0664 51.3169 49.6107 52.3631 48.902C53.1769 48.3507 53.7806 47.5895 54.1744 46.6182C54.8081 45.0657 55.5112 44.762 56.2837 45.707ZM52.6106 54.5832C52.4456 55.1607 52.2525 55.7289 52.0312 56.2876C51.945 56.5051 51.9825 56.6326 52.1437 56.6701C52.2204 56.688 52.3021 56.6732 52.3729 56.6284C52.4437 56.5836 52.4984 56.5122 52.5262 56.4282L54.18 51.5289C54.2475 51.3339 54.1781 51.2626 53.9719 51.3151C53.1694 51.5214 52.7569 52.0276 52.7344 52.8339C52.7081 53.8088 52.6669 54.392 52.6106 54.5832Z" fill="#041E42"/>
<path d="M53.2575 67.9482C54.0031 67.9482 54.6075 67.3438 54.6075 66.5982C54.6075 65.8526 54.0031 65.2482 53.2575 65.2482C52.5119 65.2482 51.9075 65.8526 51.9075 66.5982C51.9075 67.3438 52.5119 67.9482 53.2575 67.9482Z" fill="#041E42"/>
</svg>
