<svg width="72" height="73" viewBox="0 0 72 73" fill="none" xmlns="http://www.w3.org/2000/svg">
<mask id="mask0_1932_316" style="mask-type:luminance" maskUnits="userSpaceOnUse" x="0" y="0" width="72" height="73">
<path d="M0 0.600098H72V72.6001H0V0.600098Z" fill="white"/>
</mask>
<g mask="url(#mask0_1932_316)">
<path d="M28.5659 37.9331H26.3059V35.9201C31.6569 34.1611 35.5329 29.1171 35.5329 23.1841V10.1611C35.5329 4.6261 29.9579 0.600098 24.8149 0.600098H19.4099C17.8959 0.600098 15.5439 1.0401 13.4839 2.2781C12.3169 2.9781 13.4039 4.7871 14.5699 4.0861C16.2619 3.0701 18.2349 2.7091 19.4099 2.7091H24.8159C25.1319 2.7091 32.5479 2.7951 33.4239 10.2221V14.6811C32.0519 13.6191 31.1089 12.0711 30.5799 10.4351C30.1449 9.0911 28.2639 8.8561 27.5309 10.0721C24.2309 15.5481 13.9969 15.6141 10.8019 15.4941V10.2221C10.9049 9.3521 11.1039 8.5401 11.3919 7.8111C11.8939 6.5461 9.93193 5.7691 9.43193 7.0341C9.05593 7.9811 8.69293 9.1341 8.69293 10.1611V23.1831C8.69293 29.1161 12.5679 34.1601 17.9209 35.9191V37.9331H15.6609C11.1049 37.9331 7.39893 41.6391 7.39893 46.1941V71.5451C7.39893 71.8249 7.51008 72.0932 7.70793 72.2911C7.90578 72.4889 8.17412 72.6001 8.45393 72.6001C8.73373 72.6001 9.00207 72.4889 9.19992 72.2911C9.39777 72.0932 9.50893 71.8249 9.50893 71.5451V46.1951C9.51078 44.5642 10.1594 43.0007 11.3125 41.8474C12.4656 40.6941 14.0291 40.0452 15.6599 40.0431H17.9859C18.1588 41.0113 18.6664 41.888 19.42 42.5199C20.1737 43.1518 21.1254 43.4988 22.1089 43.5001H22.1179C23.1014 43.4988 24.0532 43.1518 24.8068 42.5199C25.5605 41.888 26.0681 41.0113 26.2409 40.0431H28.5659C30.197 40.045 31.7607 40.6937 32.914 41.847C34.0673 43.0003 34.7161 44.5641 34.7179 46.1951V71.5451C34.7179 71.8249 34.8291 72.0932 35.0269 72.2911C35.2248 72.4889 35.4931 72.6001 35.7729 72.6001C36.0527 72.6001 36.3211 72.4889 36.5189 72.2911C36.7168 72.0932 36.8279 71.8249 36.8279 71.5451V46.1951C36.8279 41.6391 33.1209 37.9331 28.5659 37.9331ZM10.7999 23.1831V17.6101C11.2159 17.6261 11.7279 17.6401 12.3169 17.6401C16.6579 17.6401 25.1119 16.9461 28.8559 11.8781C30.1419 15.1161 32.2959 16.5951 33.4219 17.1761V23.1831C33.4219 29.4101 28.3559 34.4761 22.1289 34.4761H22.0939C15.8669 34.4761 10.7999 29.4101 10.7999 23.1831ZM24.1949 39.3111C24.1944 39.8625 23.9751 40.3911 23.5851 40.7809C23.1951 41.1707 22.6663 41.3898 22.1149 41.3901H22.1069C21.5555 41.3898 21.0268 41.1707 20.6368 40.7809C20.2468 40.3911 20.0275 39.8625 20.0269 39.3111V36.5861H24.1949V39.3111Z" fill="#041E42"/>
<path d="M25.7239 29.0001C25.822 28.9023 25.8999 28.7861 25.9531 28.6581C26.0062 28.5302 26.0337 28.3931 26.0339 28.2545C26.0341 28.116 26.007 27.9787 25.9541 27.8507C25.9013 27.7226 25.8237 27.6062 25.7259 27.5081C25.6281 27.41 25.5119 27.3321 25.3839 27.2789C25.256 27.2258 25.1189 27.1983 24.9803 27.1981C24.8418 27.1979 24.7045 27.225 24.5765 27.2779C24.4484 27.3307 24.332 27.4083 24.2339 27.5061C23.67 28.0661 22.9076 28.3803 22.1129 28.3803C21.3182 28.3803 20.5558 28.0661 19.9919 27.5061C19.8938 27.4083 19.7774 27.3307 19.6493 27.2779C19.5213 27.225 19.384 27.1979 19.2455 27.1981C19.1069 27.1983 18.9698 27.2258 18.8419 27.2789C18.7139 27.3321 18.5977 27.41 18.4999 27.5081C18.4021 27.6062 18.3245 27.7226 18.2717 27.8507C18.2188 27.9787 18.1917 28.116 18.1919 28.2545C18.1921 28.3931 18.2196 28.5302 18.2727 28.6581C18.3259 28.7861 18.4038 28.9023 18.5019 29.0001C18.9764 29.4735 19.5395 29.8486 20.1591 30.1041C20.7788 30.3596 21.4427 30.4905 22.1129 30.4891C22.7832 30.4903 23.4472 30.3594 24.0668 30.1037C24.6864 29.848 25.2495 29.4737 25.7239 29.0001ZM56.4199 23.5621C55.0851 23.5649 53.7711 23.8922 52.591 24.5159C51.4108 25.1395 50.4001 26.0408 49.6459 27.1421C44.1919 27.5021 39.8629 32.0401 39.8629 37.5701V45.2661C39.8629 49.9641 42.6139 54.2301 47.1799 55.6791V56.1721H44.3439C43.7819 56.1721 43.3239 56.6121 43.2919 57.1661C40.7239 58.0991 38.9359 60.5861 38.9359 63.3731V71.5451C38.9359 71.8249 39.047 72.0933 39.2449 72.2911C39.4428 72.4889 39.7111 72.6001 39.9909 72.6001C40.2707 72.6001 40.539 72.4889 40.7369 72.2911C40.9347 72.0933 41.0459 71.8249 41.0459 71.5451V63.3741C41.0491 62.5872 41.2578 61.8147 41.6512 61.1331C42.0446 60.4516 42.6091 59.8845 43.2889 59.4881V71.5451C43.2889 71.8249 43.4 72.0933 43.5979 72.2911C43.7958 72.4889 44.0641 72.6001 44.3439 72.6001C44.6237 72.6001 44.892 72.4889 45.0899 72.2911C45.2877 72.0933 45.3989 71.8249 45.3989 71.5451V58.2821H47.2829C47.4671 58.9957 47.8832 59.6278 48.4658 60.0791C49.0484 60.5304 49.7644 60.7753 50.5014 60.7753C51.2383 60.7753 51.9544 60.5304 52.537 60.0791C53.1196 59.6278 53.5357 58.9957 53.7199 58.2821H55.8299V71.5451C55.8256 71.6863 55.8496 71.827 55.9006 71.9587C55.9517 72.0904 56.0287 72.2106 56.127 72.312C56.2254 72.4134 56.3431 72.4941 56.4732 72.5491C56.6033 72.6042 56.7431 72.6326 56.8844 72.6326C57.0257 72.6326 57.1655 72.6042 57.2956 72.5491C57.4257 72.4941 57.5434 72.4134 57.6418 72.312C57.7401 72.2106 57.8171 72.0904 57.8682 71.9587C57.9192 71.827 57.9432 71.6863 57.9389 71.5451V59.6241C58.5591 60.0337 59.0682 60.5906 59.4207 61.245C59.7732 61.8993 59.9581 62.6308 59.9589 63.3741V71.5451C59.9545 71.6863 59.9786 71.827 60.0296 71.9587C60.0807 72.0904 60.1577 72.2106 60.256 72.312C60.3544 72.4134 60.4721 72.4941 60.6022 72.5491C60.7323 72.6042 60.8721 72.6326 61.0134 72.6326C61.1547 72.6326 61.2945 72.6042 61.4246 72.5491C61.5547 72.4941 61.6724 72.4134 61.7708 72.312C61.8691 72.2106 61.9461 72.0904 61.9972 71.9587C62.0482 71.827 62.0722 71.6863 62.0679 71.5451V63.3741C62.0665 62.0587 61.6728 60.7737 60.9371 59.6833C60.2014 58.5929 59.1571 57.7467 57.9379 57.2531V57.2271C57.9379 56.6451 57.4669 56.1721 56.8839 56.1721H53.8239V55.5671C57.5289 54.2721 60.2669 50.8841 60.7459 46.9861C60.9119 45.6361 58.8189 45.3781 58.6529 46.7291C58.5124 47.8406 58.1508 48.9128 57.5896 49.8824C57.0284 50.8521 56.2787 51.6996 55.3849 52.3751C54.4845 53.0479 53.4589 53.5342 52.3682 53.8055C51.2775 54.0769 50.1435 54.1277 49.0329 53.9551C44.7259 53.2851 41.9729 49.4931 41.9729 45.2671V41.5681H52.5289C52.8729 41.5681 53.1949 41.4011 53.3919 41.1191L54.4419 39.6241L55.3329 41.0681C55.5259 41.3791 55.8649 41.5681 56.2309 41.5681H59.7709C60.3529 41.5681 60.8249 41.0961 60.8249 40.5141V37.5701C60.8249 35.8451 60.4009 34.2171 59.6549 32.7801H63.5489C64.1309 32.7801 64.6029 32.3081 64.6029 31.7261C64.6029 27.2241 60.9339 23.5621 56.4199 23.5621ZM50.3219 56.1641C50.7879 56.1641 51.2529 56.1311 51.7139 56.0701V57.4601C51.7139 57.7817 51.5862 58.0901 51.3588 58.3175C51.1314 58.5449 50.823 58.6726 50.5014 58.6726C50.1798 58.6726 49.8714 58.5449 49.644 58.3175C49.4166 58.0901 49.2889 57.7817 49.2889 57.4601V56.1111C49.6339 56.1451 49.9779 56.1641 50.3219 56.1641ZM58.7149 39.4591H56.8199L55.3949 37.1531C55.0029 36.5181 54.0629 36.4911 53.6349 37.1011L51.9799 39.4601H41.9719V37.5701C41.9719 32.9691 45.7279 29.2261 50.3439 29.2261C54.9599 29.2261 58.7159 32.9691 58.7159 37.5701L58.7149 39.4591ZM58.2079 30.6711C56.6638 28.9181 54.5785 27.7309 52.2829 27.2981C53.4084 26.2558 54.8849 25.675 56.4189 25.6711C57.8441 25.671 59.224 26.1716 60.3176 27.0855C61.4112 27.9994 62.1489 29.2685 62.4019 30.6711H58.2079Z" fill="#041E42"/>
<path d="M51.7829 48.0631C51.4001 48.4434 50.8824 48.6569 50.3429 48.6569C49.8033 48.6569 49.2856 48.4434 48.9029 48.0631C48.7048 47.8655 48.4363 47.7547 48.1565 47.7551C47.8766 47.7555 47.6085 47.867 47.4109 48.0651C47.2133 48.2632 47.1025 48.5317 47.1029 48.8115C47.1032 49.0913 47.2147 49.3595 47.4129 49.5571C47.7979 49.9412 48.2548 50.2456 48.7576 50.4529C49.2603 50.6601 49.799 50.7662 50.3429 50.7651C50.8867 50.766 51.4253 50.6598 51.928 50.4526C52.4308 50.2453 52.8877 49.941 53.2729 49.5571C53.471 49.3595 53.5825 49.0913 53.5829 48.8115C53.5832 48.5317 53.4725 48.2632 53.2749 48.0651C53.0773 47.867 52.8091 47.7555 52.5293 47.7551C52.2495 47.7547 51.981 47.8655 51.7829 48.0631ZM30.7059 46.6071C30.1239 46.6071 29.6519 47.0791 29.6519 47.6621V48.0421H14.5739V47.6621C14.5739 47.3823 14.4627 47.1139 14.2649 46.9161C14.067 46.7182 13.7987 46.6071 13.5189 46.6071C13.2391 46.6071 12.9707 46.7182 12.7729 46.9161C12.575 47.1139 12.4639 47.3823 12.4639 47.6621V71.5451C12.4639 71.6836 12.4912 71.8208 12.5442 71.9488C12.5972 72.0768 12.6749 72.1931 12.7729 72.2911C12.8708 72.389 12.9871 72.4668 13.1151 72.5198C13.2431 72.5728 13.3803 72.6001 13.5189 72.6001C13.6574 72.6001 13.7946 72.5728 13.9226 72.5198C14.0506 72.4668 14.1669 72.389 14.2649 72.2911C14.3628 72.1931 14.4405 72.0768 14.4936 71.9488C14.5466 71.8208 14.5739 71.6836 14.5739 71.5451V65.9681H29.6509V71.5451C29.6509 71.8249 29.762 72.0932 29.9599 72.2911C30.1577 72.4889 30.4261 72.6001 30.7059 72.6001C30.9857 72.6001 31.254 72.4889 31.4519 72.2911C31.6497 72.0932 31.7609 71.8249 31.7609 71.5451V47.6621C31.7609 47.0791 31.2889 46.6071 30.7059 46.6071ZM14.5739 54.8271H29.6509V59.1831H14.5739V54.8271ZM29.6519 50.1511V52.7171H14.5739V50.1511H29.6519ZM14.5739 63.8601V61.2941H29.6509V63.8601H14.5739Z" fill="#041E42"/>
</g>
</svg>
