<svg width="72" height="73" viewBox="0 0 72 73" fill="none" xmlns="http://www.w3.org/2000/svg">
<g clip-path="url(#clip0_1932_152)">
<path d="M65.6731 68.3811V52.5611H59.3442V68.3811H65.6731ZM61.4541 66.2711V61.5261H63.5641V66.2721L61.4541 66.2711ZM63.5641 54.6711V59.4161H61.4541V54.6701L63.5641 54.6711ZM6.32715 52.5601V68.3811H12.6561V52.5611L6.32715 52.5601ZM10.5461 54.6701V59.4161H8.43615V54.6701H10.5461ZM8.43615 66.2721V61.5261H10.5461V66.2721H8.43615Z" fill="#041E42"/>
<path d="M69.89 68.3811V46.2331H72V39.9051H55.125V27.2491H58.289V21.3491L37.055 9.7501V6.9301H45.492V0.600098H34.945V9.7481L13.711 21.3501V27.2491H16.875V39.9051H0V46.2331H2.11V68.3811H4.219V46.2331H16.875V66.2721H14.765V70.4911H0V72.6001H72V70.4901H57.234V66.2721H55.125V46.2331H67.781V68.3811H69.89ZM37.056 2.7101H43.384V4.8201H37.056V2.7101ZM53.106 20.9221H18.896L36 11.5761L53.104 20.9211L53.106 20.9221ZM2.108 44.1241V42.0141H16.874V44.1241H2.108ZM16.875 70.4901V68.3801H34.945V66.2701H23.203V64.1611H48.797V66.2711H37.055V68.3811H55.125V70.4901H16.875ZM37.055 62.0521V50.4511H43.523V62.0531L37.055 62.0521ZM45.633 48.3421H26.367V46.2321H45.633V48.3421ZM34.945 50.4511V62.0521H28.477V50.4521L34.945 50.4511ZM50.906 66.2711V62.0521H45.633V50.4521H47.743V44.1231H24.257V50.4521H26.367V62.0531H21.093V66.2721H18.983V27.2491H34.944V25.1391H15.82V23.0301H56.18V25.1401H37.055V27.2491H53.015V66.2721L50.906 66.2711ZM55.125 42.0131H69.891V44.1231H55.125V42.0131Z" fill="#041E42"/>
<path d="M26.3672 38.8501H34.9452V40.9601H26.3672V38.8501ZM26.3672 34.6311H34.9452V36.7411H26.3672V34.6311ZM37.0552 34.6311H45.6332V36.7411H37.0552V34.6311ZM37.0552 38.8501H45.6332V40.9601H37.0552V38.8501ZM32.8362 16.7021H34.9462V18.8121H32.8362V16.7021ZM48.7972 29.3581H50.9072V31.4681H48.7972V29.3581ZM40.3602 29.3581H46.6882V31.4681H40.3592L40.3602 29.3581ZM37.0552 16.7021H39.1652V18.8121H37.0552V16.7021Z" fill="#041E42"/>
</g>
<defs>
<clipPath id="clip0_1932_152">
<rect width="72" height="72" fill="white" transform="translate(0 0.600098)"/>
</clipPath>
</defs>
</svg>
