<svg width="72" height="73" viewBox="0 0 72 73" fill="none" xmlns="http://www.w3.org/2000/svg">
<g clip-path="url(#clip0_1932_373)">
<path d="M15.445 70.3801L13.328 67.3971C13.1121 67.093 12.7843 66.8872 12.4166 66.8248C12.0489 66.7625 11.6716 66.8487 11.3675 67.0646C11.0634 67.2805 10.8576 67.6083 10.7952 67.976C10.7329 68.3436 10.8191 68.721 11.035 69.0251L13.152 72.0081C13.2587 72.1588 13.3942 72.2869 13.5505 72.3852C13.7069 72.4834 13.8811 72.5499 14.0631 72.5807C14.2452 72.6115 14.4315 72.6062 14.6115 72.5649C14.7915 72.5236 14.9616 72.4472 15.112 72.3401C15.746 71.8901 15.895 71.0131 15.445 70.3801ZM31.67 70.9051L29.365 59.9231C28.2616 54.6097 25.1168 49.9416 20.607 46.9231L15.687 43.6141C14.7302 42.9749 13.5806 42.689 12.4359 42.8059C11.2911 42.9227 10.2229 43.4348 9.41499 44.2541V27.3101C9.42016 26.2375 9.05674 25.1957 8.38556 24.359C7.71438 23.5224 6.77617 22.9417 5.72799 22.7141C5.03986 22.5595 4.3257 22.5623 3.6388 22.7223C2.9519 22.8823 2.31 23.1954 1.76099 23.6381C1.21024 24.0783 0.765929 24.6371 0.461193 25.2729C0.156456 25.9087 -0.000852473 26.605 0.000992607 27.3101V49.1141C0.000992607 51.9701 0.873993 54.7121 2.52799 57.0411L5.03599 60.5741C5.14274 60.7248 5.27817 60.8529 5.43452 60.9512C5.59086 61.0494 5.76505 61.1159 5.94712 61.1467C6.12918 61.1775 6.31554 61.1722 6.49552 61.1309C6.6755 61.0896 6.84557 61.0132 6.99599 60.9061C7.62999 60.4561 7.77899 59.5791 7.32899 58.9461L4.81999 55.4131C3.50991 53.574 2.8078 51.3711 2.81199 49.1131V27.3101C2.81199 26.7321 3.06999 26.1931 3.52099 25.8321C3.74187 25.654 4.0001 25.528 4.27645 25.4636C4.5528 25.3992 4.84012 25.398 5.11699 25.4601C5.53906 25.5516 5.91689 25.7852 6.18723 26.122C6.45757 26.4588 6.60399 26.8782 6.60199 27.3101V44.6091C6.60199 47.0581 7.50199 49.3911 9.13599 51.2061C9.20599 51.2901 9.27799 51.3731 9.35399 51.4541C10.288 52.4441 11.386 53.6091 12.42 54.7081L13.868 56.2491L13.882 56.2631L16.053 58.5731C16.1794 58.7077 16.3311 58.8161 16.4993 58.8921C16.6676 58.9681 16.8492 59.0102 17.0338 59.016C17.2184 59.0218 17.4022 58.9912 17.575 58.9259C17.7477 58.8606 17.9059 58.762 18.0405 58.6356C18.1751 58.5092 18.2835 58.3575 18.3595 58.1892C18.4355 58.021 18.4776 57.8393 18.4834 57.6548C18.4892 57.4702 18.4586 57.2863 18.3933 57.1136C18.328 56.9409 18.2294 56.7827 18.103 56.6481C18.078 56.6211 16.432 54.8681 14.552 52.8701L11.327 49.4381L11.304 49.4121C10.9358 48.9751 10.7377 48.42 10.7459 47.8487C10.7542 47.2774 10.9683 46.7282 11.349 46.3021C11.6901 45.9189 12.1584 45.672 12.6673 45.607C13.1762 45.5419 13.6914 45.6631 14.118 45.9481L19.037 49.2561C22.938 51.867 25.6581 55.905 26.612 60.5011L28.916 71.4821C29.0045 71.8348 29.2261 72.1395 29.5343 72.3324C29.8426 72.5252 30.2135 72.5913 30.5694 72.5167C30.9253 72.4421 31.2384 72.2326 31.4433 71.9321C31.6481 71.6317 31.7286 71.2636 31.668 70.9051H31.67Z" fill="#041E42"/>
<path d="M10.4189 63.2991L10.4089 63.2861C10.1904 62.9875 9.86308 62.7871 9.49781 62.7282C9.13254 62.6694 8.7588 62.7569 8.45761 62.9717C8.15642 63.1866 7.95207 63.5115 7.88885 63.8761C7.82563 64.2406 7.90864 64.6154 8.11989 64.9191L8.12989 64.9321C8.23695 65.0825 8.3726 65.2102 8.52909 65.3081C8.68558 65.406 8.85983 65.4721 9.04188 65.5025C9.22392 65.533 9.41019 65.5273 9.59002 65.4857C9.76985 65.4441 9.93971 65.3674 10.0899 65.2601C10.7229 64.8091 10.8699 63.9301 10.4189 63.2991ZM70.2379 23.6381C69.6889 23.1956 69.0472 22.8828 68.3605 22.7228C67.6738 22.5628 66.9599 22.5598 66.2719 22.7141C65.2237 22.9417 64.2855 23.5224 63.6143 24.359C62.9431 25.1957 62.5797 26.2375 62.5849 27.3101V44.2551C61.7769 43.4355 60.7085 42.9233 59.5635 42.8064C58.4186 42.6896 57.2687 42.9756 56.3119 43.6151L51.3919 46.9221C46.8816 49.9411 43.7368 54.6099 42.6339 59.9241L40.3299 70.9041C40.2532 71.2692 40.3248 71.6497 40.5287 71.9621C40.7326 72.2744 41.0523 72.4929 41.4174 72.5696C41.7825 72.6462 42.163 72.5747 42.4754 72.3708C42.7877 72.1668 43.0062 71.8472 43.0829 71.4821L45.3869 60.5011C46.3407 55.9049 49.0608 51.8669 52.9619 49.2561L57.8819 45.9481C58.3084 45.6633 58.8234 45.5423 59.3321 45.6074C59.8408 45.6725 60.3088 45.9192 60.6499 46.3021C61.4409 47.1951 61.4519 48.5041 60.6989 49.4081L60.6719 49.4381L53.8959 56.6481C53.6406 56.9199 53.5038 57.2821 53.5155 57.6548C53.5272 58.0275 53.6865 58.3803 53.9584 58.6356C54.2302 58.8909 54.5924 59.0277 54.9651 59.016C55.3378 59.0042 55.6906 58.8449 55.9459 58.5731C55.9649 58.5531 61.7109 52.4431 62.6449 51.4531C62.7209 51.3731 62.7929 51.2901 62.8629 51.2061C64.4965 49.3974 65.3996 47.0463 65.3969 44.6091V27.3091C65.3969 26.4151 66.0069 25.6541 66.8819 25.4591C67.1588 25.3972 67.4462 25.3986 67.7225 25.4632C67.9989 25.5277 68.2571 25.6539 68.4779 25.8321C68.9289 26.1931 69.1879 26.7321 69.1879 27.3101V49.1141C69.1879 51.3841 68.4929 53.5621 67.1789 55.4141L56.5549 70.3781C56.3389 70.6822 56.2525 71.0596 56.3148 71.4274C56.377 71.7951 56.5828 72.1231 56.8869 72.3391C57.191 72.5551 57.5684 72.6415 57.9361 72.5792C58.3039 72.517 58.6319 72.3112 58.8479 72.0071L69.4719 57.0401C71.1205 54.7264 72.0044 51.9551 71.9999 49.1141V27.3101C72.0014 26.6049 71.8438 25.9084 71.5387 25.2727C71.2336 24.6369 70.789 24.0781 70.2379 23.6381Z" fill="#041E42"/>
<path d="M53.8108 27.5521L51.3088 26.9541V26.5061C52.1398 25.9269 52.8185 25.1555 53.2874 24.2577C53.7563 23.3598 54.0013 22.362 54.0018 21.3491V18.0971C54.0002 16.4283 53.3366 14.8283 52.1566 13.6483C50.9766 12.4683 49.3766 11.8047 47.7078 11.8031C46.1498 11.8031 44.7238 12.3731 43.6238 13.3131C42.3988 10.3131 39.4518 8.1931 36.0178 8.1931C32.5778 8.1931 29.6278 10.3191 28.4058 13.3241C27.2673 12.3419 25.8135 11.8021 24.3098 11.8031C22.6412 11.8047 21.0414 12.4682 19.8614 13.648C18.6814 14.8278 18.0177 16.4275 18.0158 18.0961V21.3491C18.0162 22.3619 18.2611 23.3597 18.7298 24.2575C19.1985 25.1554 19.8771 25.9267 20.7078 26.5061V26.9541L18.2058 27.5521C16.759 27.894 15.4703 28.7152 14.5493 29.8822C13.6283 31.0492 13.1291 32.4934 13.1328 33.9801V36.6061C13.1328 37.3831 13.7628 38.0131 14.5388 38.0131H21.0008C20.9908 38.1831 20.9838 38.3551 20.9838 38.5271V43.5841C20.9838 44.3611 21.6138 44.9901 22.3898 44.9901H30.8428C31.2157 44.9901 31.5733 44.842 31.837 44.5783C32.1007 44.3146 32.2488 43.957 32.2488 43.5841C32.2488 43.2112 32.1007 42.8536 31.837 42.5899C31.5733 42.3262 31.2157 42.1781 30.8428 42.1781H29.3898V39.2721C29.3898 38.8992 29.2417 38.5416 28.978 38.2779C28.7143 38.0142 28.3567 37.8661 27.9838 37.8661C27.6109 37.8661 27.2533 38.0142 26.9896 38.2779C26.726 38.5416 26.5778 38.8992 26.5778 39.2721V42.1781H23.7968V38.5281C23.7935 37.2148 24.2343 35.939 25.0476 34.9078C25.8609 33.8767 26.9989 33.1508 28.2768 32.8481L32.1348 31.9231L34.7178 37.7991C34.8276 38.0492 35.0078 38.2619 35.2364 38.4112C35.465 38.5606 35.7322 38.6401 36.0053 38.6401C36.2784 38.6401 36.5456 38.5606 36.7743 38.4112C37.0029 38.2619 37.1831 38.0492 37.2928 37.7991L39.8728 31.9321L43.7188 32.8511C44.9975 33.153 46.1364 33.8786 46.9505 34.9098C47.7646 35.941 48.206 37.2173 48.2028 38.5311V42.1781H45.4218V39.2721C45.4218 38.8991 45.2736 38.5413 45.0099 38.2776C44.7461 38.0138 44.3884 37.8656 44.0153 37.8656C43.6423 37.8656 43.2846 38.0138 43.0208 38.2776C42.757 38.5413 42.6088 38.8991 42.6088 39.2721V42.1781H41.0148C40.6418 42.1781 40.2841 42.3263 40.0203 42.5901C39.7565 42.8538 39.6083 43.2116 39.6083 43.5846C39.6083 43.9576 39.7565 44.3154 40.0203 44.5791C40.2841 44.8429 40.6418 44.9911 41.0148 44.9911H49.6088C50.3858 44.9911 51.0148 44.3611 51.0148 43.5841V38.5321C51.0143 38.3586 51.0086 38.1852 50.9978 38.0121H57.4778C58.2548 38.0121 58.8848 37.3831 58.8848 36.6071V33.9801C58.8885 32.4933 58.3892 31.049 57.4679 29.8819C56.5467 28.7149 55.2579 27.8938 53.8108 27.5521ZM47.7078 14.6151C48.591 14.6164 49.4407 14.9529 50.0854 15.5565C50.73 16.1601 51.1216 16.9859 51.1808 17.8671H49.2258C47.5848 17.8667 45.9678 17.4723 44.5108 16.7171C44.7807 16.0932 45.2272 15.5618 45.7952 15.1883C46.3632 14.8148 47.028 14.6156 47.7078 14.6151ZM44.2258 21.1431C44.2278 21.0751 44.2318 21.0071 44.2318 20.9381V19.6851C45.8098 20.3381 47.5068 20.6791 49.2258 20.6791H51.1888V21.3491C51.1878 22.272 50.8207 23.1568 50.1681 23.8094C49.5155 24.4619 48.6307 24.829 47.7078 24.8301C46.7848 24.8293 45.8997 24.4623 45.2469 23.8097C44.5941 23.1571 44.2269 22.2722 44.2258 21.3491V21.1431ZM30.6158 16.4081C30.6174 14.9759 31.1871 13.6028 32.1998 12.5901C33.2125 11.5773 34.5856 11.0077 36.0178 11.0061C37.3012 11.0078 38.5421 11.4656 39.519 12.2978C40.4959 13.13 41.1452 14.2824 41.3508 15.5491L38.9838 14.1591C38.6971 13.9906 38.36 13.9292 38.0322 13.9857C37.7045 14.0423 37.4075 14.2132 37.1938 14.4681C36.6243 15.1491 35.912 15.6967 35.1074 16.072C34.3029 16.4474 33.4256 16.6413 32.5378 16.6401H30.6158V16.4081ZM24.3098 14.6151C25.7398 14.6151 26.9708 15.4821 27.5058 16.7171C26.0489 17.4723 24.4319 17.8667 22.7908 17.8671H20.8358C20.8951 16.9858 21.2868 16.1598 21.9317 15.5561C22.5765 14.9525 23.4265 14.6161 24.3098 14.6151ZM20.8288 20.6791H22.7908C24.5128 20.6791 26.2108 20.3381 27.7908 19.6831V21.3491C27.7895 22.2718 27.4223 23.1564 26.7697 23.8087C26.1172 24.4611 25.2326 24.828 24.3098 24.8291C23.3871 24.828 22.5025 24.4611 21.8499 23.8087C21.1974 23.1564 20.8302 22.2718 20.8288 21.3491V20.6791ZM27.6208 30.1131C26.2934 30.4279 25.0595 31.0531 24.0207 31.9374C22.9818 32.8218 22.1676 33.9399 21.6448 35.2001H15.9448V33.9801C15.9425 33.1259 16.2294 32.296 16.7586 31.6255C17.2879 30.955 18.0284 30.4833 18.8598 30.2871L22.4408 29.4321C22.7485 29.3588 23.0224 29.1839 23.2184 28.9356C23.4143 28.6874 23.5209 28.3804 23.5208 28.0641V27.5911C23.7798 27.6241 24.0428 27.6431 24.3098 27.6431C24.5748 27.6431 24.8358 27.6241 25.0928 27.5921V27.9931C25.0768 28.3313 25.1833 28.6639 25.393 28.9298C25.6026 29.1956 25.9012 29.3769 26.2338 29.4401L28.3318 29.9421L27.6208 30.1121V30.1131ZM31.5438 27.9301C31.1807 27.7698 30.8038 27.6426 30.4178 27.5501L27.9058 26.9481V26.5101C28.3586 26.1934 28.7681 25.8189 29.1238 25.3961C29.7526 26.3643 30.5769 27.1903 31.5438 27.8211V27.9301ZM37.6508 29.9961L36.0058 33.7391L34.3558 29.9861V28.9831C35.4426 29.2072 36.5634 29.2089 37.6508 28.9881V29.9961ZM36.0178 26.3391C34.5857 26.3378 33.2126 25.7683 32.1999 24.7558C31.1871 23.7432 30.6174 22.3702 30.6158 20.9381V19.4531H32.5378C34.7678 19.4531 36.8878 18.6231 38.5138 17.1441L41.4138 18.8481V21.1441C41.3591 22.5392 40.7669 23.859 39.7611 24.8273C38.7553 25.7956 37.414 26.3373 36.0178 26.3391ZM40.4638 27.9341V27.8391C41.4386 27.2092 42.2699 26.3813 42.9038 25.4091C43.2558 25.8251 43.6628 26.1961 44.1118 26.5091V26.9481L41.5988 27.5501C41.2097 27.6435 40.8298 27.772 40.4638 27.9341ZM56.0718 35.2001H50.3518C49.8285 33.9398 49.0136 32.8217 47.974 31.9377C46.9344 31.0537 45.6999 30.429 44.3718 30.1151L43.6668 29.9471L45.7758 29.4411C46.1047 29.3802 46.4011 29.2039 46.6115 28.944C46.822 28.684 46.9328 28.3575 46.9238 28.0231V27.5921C47.4461 27.6575 47.9745 27.6575 48.4968 27.5921V28.0641C48.4968 28.7141 48.9428 29.2811 49.5758 29.4321L53.1568 30.2871C53.9881 30.4834 54.7286 30.9552 55.2578 31.6257C55.7871 32.2961 56.0739 33.1259 56.0718 33.9801V35.2001Z" fill="#041E42"/>
<path d="M36.9938 42.5891C36.7292 42.3272 36.372 42.1804 35.9998 42.1804C35.6276 42.1804 35.2704 42.3272 35.0058 42.5891C34.7423 42.8537 34.5942 43.2117 34.5938 43.5851C34.5938 43.9551 34.7428 44.3151 35.0058 44.5791C35.2668 44.8401 35.6288 44.9911 35.9998 44.9911C36.3698 44.9911 36.7308 44.8411 36.9938 44.5791C37.2562 44.3146 37.4042 43.9576 37.4058 43.5851C37.4058 43.2131 37.2558 42.8521 36.9938 42.5891ZM35.9988 0.600098C35.2218 0.600098 34.5928 1.2301 34.5928 2.0061V4.1101C34.5928 4.48299 34.7409 4.84061 35.0046 5.10429C35.2683 5.36797 35.6259 5.5161 35.9988 5.5161C36.3717 5.5161 36.7293 5.36797 36.993 5.10429C37.2567 4.84061 37.4048 4.48299 37.4048 4.1101V2.0061C37.4048 1.2301 36.7738 0.600098 35.9988 0.600098ZM30.8188 5.1871L29.3438 3.7131C29.0799 3.44947 28.7221 3.30147 28.3491 3.30166C27.9761 3.30185 27.6184 3.45021 27.3548 3.7141C27.0912 3.97799 26.9432 4.33579 26.9434 4.7088C26.9435 5.08181 27.0919 5.43947 27.3558 5.7031L28.8308 7.1771C28.9615 7.30763 29.1166 7.41115 29.2872 7.48175C29.4579 7.55234 29.6408 7.58863 29.8255 7.58853C30.0102 7.58844 30.1931 7.55197 30.3637 7.4812C30.5343 7.41044 30.6893 7.30676 30.8198 7.1761C30.9503 7.04543 31.0538 6.89034 31.1244 6.71966C31.195 6.54899 31.2313 6.36609 31.2312 6.18139C31.2311 5.9967 31.1947 5.81383 31.1239 5.64322C31.0531 5.47262 30.9495 5.31763 30.8188 5.1871ZM44.6098 3.7501C44.4792 3.6193 44.3241 3.51553 44.1534 3.44473C43.9826 3.37392 43.7996 3.33748 43.6148 3.33748C43.43 3.33748 43.2469 3.37392 43.0762 3.44473C42.9055 3.51553 42.7504 3.6193 42.6198 3.7501L41.1568 5.2151C40.8932 5.47899 40.7452 5.83679 40.7454 6.2098C40.7455 6.58281 40.8939 6.94047 41.1578 7.2041C41.4217 7.46772 41.7795 7.61572 42.1525 7.61553C42.5255 7.61535 42.8832 7.46699 43.1468 7.2031L44.6098 5.7381C45.1588 5.1881 45.1588 4.2981 44.6098 3.7491V3.7501Z" fill="#041E42"/>
</g>
<defs>
<clipPath id="clip0_1932_373">
<rect width="72" height="72" fill="white" transform="translate(0 0.600098)"/>
</clipPath>
</defs>
</svg>
