<svg width="215" height="65" viewBox="0 0 215 65" fill="none" xmlns="http://www.w3.org/2000/svg">
<path fill-rule="evenodd" clip-rule="evenodd" d="M27.6512 6.98035C25.7405 6.98035 24.1914 5.4182 24.1914 3.49132C24.1914 1.56444 25.7405 0.00229614 27.6512 0.00229614C29.562 0.00229614 31.1111 1.56444 31.1111 3.49132C31.1111 5.4182 29.562 6.98035 27.6512 6.98035ZM76.2661 28.9238H68.266V29.105H70.6658V44.6623H68.266V44.8435H81.068V38.6132H80.886C80.8769 38.916 80.8519 39.2188 80.8087 39.5216C80.7586 39.8657 80.6881 40.2121 80.5949 40.5631C80.4993 40.9163 80.3742 41.2581 80.2173 41.5907C80.0626 41.9211 79.8761 42.2399 79.6577 42.5496C79.4461 42.8638 79.1959 43.1483 78.9093 43.4029C78.6227 43.6598 78.2997 43.8846 77.9426 44.0796C77.5832 44.2746 77.1874 44.4214 76.7552 44.5178C76.3252 44.6141 75.8589 44.6623 75.3608 44.6623H73.6343V29.105H76.2661V28.9238ZM84.0751 44.66H82.1257V44.8412H86.8253L86.8207 44.66H84.3709L86.2611 39.3014H91.4133L93.6312 44.66H91.1745V44.8412H99.0563V44.66H97.0409L89.9234 28.0819L84.1593 44.66H84.0774H84.0751ZM91.1426 39.1225H86.3316L88.62 32.6353L91.3178 39.1225H91.1426ZM113.053 28.9238H105.851V29.105H108.251V44.6623H105.851V44.8435H113.482C113.99 44.8435 114.465 44.8137 114.904 44.7563C115.345 44.699 115.753 44.6118 116.13 44.4948C116.508 44.3778 116.849 44.2402 117.156 44.0865C117.461 43.9328 117.732 43.7585 117.966 43.5635C118.202 43.3662 118.407 43.1575 118.58 42.935C118.753 42.7147 118.894 42.4808 119.005 42.233C119.119 41.9853 119.203 41.733 119.258 41.476C119.315 41.2191 119.342 40.9599 119.342 40.6938C119.342 40.2786 119.283 39.8887 119.165 39.5308C118.58 37.7599 115.741 36.473 114.206 36.4042C115.855 36.2941 117.618 34.8008 118.057 33.3235C118.15 33.0115 118.198 32.6812 118.198 32.3371C118.198 32.032 118.155 31.7384 118.066 31.4609C117.977 31.1833 117.845 30.9149 117.668 30.6603C117.311 30.1442 116.749 29.7267 115.98 29.4078C115.593 29.2472 115.159 29.128 114.672 29.0477C114.185 28.9674 113.646 28.9284 113.055 28.9284L113.053 28.9238ZM111.219 36.1909V29.105H112.959C113.296 29.105 113.603 29.167 113.878 29.2908C114.156 29.4147 114.401 29.6028 114.613 29.8528C115.02 30.3506 115.223 31.3209 115.223 32.7684C115.223 33.257 115.202 33.6859 115.159 34.0599C115.116 34.4361 115.052 34.7526 114.966 35.0141C114.879 35.2756 114.777 35.4935 114.658 35.6656C114.536 35.8445 114.397 35.9776 114.24 36.0647C113.94 36.2276 113.562 36.3102 113.1 36.3102H111.215V36.1932L111.219 36.1909ZM111.219 44.543V36.4868H113.194C113.776 36.4868 114.258 36.5877 114.64 36.7919C115.029 36.9983 115.314 37.3103 115.493 37.7232C115.835 38.5146 116.007 39.5125 116.007 40.7168C116.007 41.2948 115.971 41.8041 115.9 42.2376C115.828 42.6758 115.718 43.0428 115.573 43.3341C115.425 43.6277 115.266 43.864 115.093 44.0475C114.916 44.2356 114.727 44.3687 114.522 44.4444C114.331 44.5155 114.124 44.5705 113.901 44.6049C113.678 44.6416 113.444 44.66 113.196 44.66H111.221V44.543H111.219ZM133.086 28.9238H120.971V29.105H123.371V44.6623H120.971V44.8435H134.003V39.0743H133.821C133.809 39.3519 133.782 39.6294 133.736 39.9093C133.686 40.2259 133.614 40.547 133.52 40.8682C133.429 41.1962 133.306 41.5127 133.154 41.8201C133.004 42.1252 132.822 42.4234 132.608 42.7124C132.392 43.0038 132.142 43.2676 131.853 43.5038C131.566 43.7378 131.243 43.9466 130.884 44.1255C130.522 44.3044 130.124 44.4398 129.692 44.5269C129.26 44.6164 128.791 44.66 128.291 44.66H126.344V36.7185H126.46C126.774 36.7185 127.076 36.7529 127.36 36.8217C127.645 36.8905 127.913 36.9915 128.168 37.1291C128.423 37.2644 128.652 37.4319 128.855 37.6292C129.057 37.8264 129.232 38.0558 129.38 38.315C129.528 38.5742 129.642 38.8564 129.715 39.1569C129.781 39.4207 129.817 39.7029 129.824 39.9965H129.992V33.3006H129.824C129.813 33.7571 129.733 34.1723 129.587 34.5462C129.428 34.9545 129.187 35.3123 128.866 35.6174C128.548 35.9225 128.186 36.1519 127.783 36.3056C127.381 36.457 126.94 36.535 126.457 36.535H126.341V29.1004H128.166C128.73 29.1004 129.242 29.1624 129.701 29.2908C130.163 29.417 130.57 29.6097 130.923 29.8666C131.271 30.1212 131.569 30.3988 131.817 30.7039C132.064 31.009 132.262 31.3393 132.408 31.6971C132.556 32.0504 132.67 32.4082 132.754 32.773C132.829 33.0987 132.879 33.4313 132.902 33.7639H133.088V28.9215L133.086 28.9238ZM142.778 28.9192H135.408V29.1004H137.81V44.6623H135.408V44.8435H143.183V44.6623H140.786V36.3927H142.519C142.947 36.3927 143.315 36.4226 143.622 36.4822C143.936 36.5441 144.189 36.6382 144.38 36.7667C144.569 36.8951 144.721 37.0534 144.839 37.2415C144.955 37.4296 145.037 37.6452 145.078 37.8907C145.117 38.1292 145.149 38.4481 145.174 38.8472C145.199 39.2418 145.217 39.7235 145.228 40.2924C145.24 40.8957 145.312 41.4852 145.447 42.0587C145.581 42.6299 145.776 43.185 146.033 43.7241C146.284 44.2494 146.673 44.6439 147.2 44.9054C147.737 45.1715 148.42 45.3046 149.245 45.3046C149.484 45.3046 149.725 45.2793 149.969 45.2289C150.214 45.1784 150.462 45.1004 150.715 44.9972C151.183 44.8045 151.42 44.6095 151.42 44.4053C151.42 44.3686 151.415 44.3365 151.406 44.309C151.397 44.2815 151.383 44.2563 151.365 44.231C151.349 44.2104 151.333 44.1966 151.318 44.1897C151.299 44.1805 151.279 44.1782 151.256 44.1782C151.192 44.1782 151.117 44.2058 151.029 44.2585C150.931 44.3182 150.822 44.4099 150.701 44.5338L150.697 44.5384C150.535 44.6829 150.38 44.7953 150.23 44.871C150.073 44.949 149.921 44.988 149.773 44.988C149.573 44.988 149.393 44.949 149.241 44.8687C149.086 44.7884 148.956 44.6691 148.852 44.5109C148.758 44.3595 148.679 44.192 148.617 44.0062C148.556 43.8227 148.513 43.6208 148.483 43.4006C148.456 43.185 148.435 42.935 148.422 42.6505C148.408 42.3684 148.399 42.0495 148.395 41.6917C148.39 41.3453 148.385 41.054 148.381 40.8154C148.376 40.586 148.37 40.4071 148.36 40.2809C148.322 39.8015 148.238 39.3702 148.103 38.9871C147.969 38.6064 147.789 38.2692 147.56 37.9801C146.629 36.808 145.146 36.4157 143.738 36.1886C144.814 36.0097 146.304 35.372 147.084 34.576C147.323 34.3305 147.501 34.0438 147.621 33.7204C147.742 33.3923 147.803 33.023 147.803 32.6124C147.803 32.3922 147.783 32.1743 147.744 31.9586C147.705 31.7453 147.646 31.5297 147.567 31.3186C147.487 31.1076 147.382 30.9034 147.25 30.7085C147.118 30.5135 146.959 30.3231 146.775 30.1419C146.588 29.9629 146.366 29.7978 146.106 29.6487C145.847 29.4996 145.553 29.3665 145.224 29.2518C144.892 29.1417 144.523 29.0592 144.118 29.0018C143.713 28.9467 143.267 28.9192 142.783 28.9192H142.778ZM140.786 36.09V29.1004H142.276C142.503 29.1004 142.715 29.1211 142.913 29.1624C143.11 29.2037 143.295 29.2679 143.461 29.3505C143.636 29.4376 143.793 29.5707 143.934 29.7519C144.068 29.9262 144.186 30.1465 144.289 30.408C144.391 30.6695 144.468 30.9906 144.518 31.3714C144.568 31.7499 144.594 32.1857 144.594 32.6766C144.594 33.8396 144.375 34.7159 143.938 35.3054C143.495 35.9064 142.833 36.2069 141.953 36.2069H140.788V36.09H140.786ZM164.477 28.9238H152.362V29.105H154.761V44.6623H152.362V44.8435H165.391V39.0743H165.209C165.198 39.3519 165.17 39.6294 165.125 39.9093C165.075 40.2259 165.002 40.547 164.909 40.8682C164.818 41.1962 164.695 41.5127 164.543 41.8201C164.393 42.1252 164.211 42.4234 163.997 42.7124C163.781 43.0038 163.53 43.2676 163.242 43.5038C162.955 43.7378 162.632 43.9466 162.272 44.1255C161.911 44.3044 161.513 44.4398 161.081 44.5269C160.648 44.6164 160.18 44.66 159.677 44.66H157.73V36.7185H157.846C158.16 36.7185 158.462 36.7529 158.747 36.8217C159.031 36.8905 159.299 36.9915 159.554 37.1291C159.809 37.2644 160.039 37.4319 160.241 37.6292C160.444 37.8264 160.619 38.0558 160.767 38.315C160.914 38.5742 161.028 38.8564 161.101 39.1569C161.167 39.4207 161.203 39.7029 161.21 39.9965H161.379V33.3006H161.21C161.199 33.7571 161.119 34.1723 160.971 34.5462C160.812 34.9545 160.571 35.3123 160.25 35.6174C159.932 35.9225 159.57 36.1519 159.168 36.3056C158.765 36.457 158.324 36.535 157.841 36.535H157.725V29.1004H159.55C160.114 29.1004 160.626 29.1624 161.085 29.2908C161.547 29.417 161.954 29.6097 162.307 29.8666C162.655 30.1212 162.953 30.3988 163.201 30.7039C163.449 31.009 163.646 31.3393 163.792 31.6971C163.94 32.0504 164.054 32.4082 164.138 32.773C164.213 33.0987 164.263 33.4313 164.286 33.7639H164.472V28.9215L164.477 28.9238ZM178.393 28.9238H167.402L167.395 33.9933H167.595C167.652 33.3029 167.782 32.6927 167.98 32.1651C168.191 31.6054 168.485 31.1374 168.86 30.7635C169.229 30.3919 169.602 30.0891 169.981 29.8597C170.364 29.628 170.753 29.4652 171.148 29.3757C171.924 29.1968 172.666 29.1073 173.375 29.1073H175.031L166.649 44.8435H179.151V38.6132H178.976C178.935 39.1385 178.841 39.6432 178.691 40.1272C178.532 40.6456 178.311 41.1411 178.027 41.6137C177.743 42.0839 177.415 42.506 177.049 42.8799C176.68 43.2515 176.273 43.575 175.821 43.8456C175.37 44.1186 174.902 44.3228 174.419 44.4581C173.933 44.5957 173.432 44.6623 172.916 44.6623H170.157L178.393 28.9261V28.9238ZM188.32 28.9238H180.545V29.105H182.945V44.6623H180.545V44.8435H188.32V44.6623H185.913V29.105H188.32V28.9238ZM186.116 36.9616L193.177 29.105H191.109V28.9238H195.635V29.105H193.413C191.718 30.9975 190.024 32.8877 188.329 34.7801C190.74 38.0742 193.149 41.3682 195.56 44.6623H197.232V44.8435H189.689V44.6623H191.725L186.089 36.9937L186.116 36.9639V36.9616ZM200.019 44.6623H198.069V44.8435H202.769L202.764 44.6623H200.315L202.205 39.3037H207.357L209.575 44.6623H207.118V44.8435H215V44.6623H212.985L205.867 28.0842L200.103 44.6623H200.021H200.019ZM207.086 39.1248H202.278L204.566 32.6376L207.264 39.1248H207.089H207.086ZM156.263 26.5381C155.533 26.5381 154.941 25.9417 154.941 25.2054C154.941 24.469 155.533 23.8726 156.263 23.8726C156.993 23.8726 157.584 24.469 157.584 25.2054C157.584 25.9417 156.993 26.5381 156.263 26.5381ZM161.547 26.5381C160.817 26.5381 160.225 25.9417 160.225 25.2054C160.225 24.469 160.817 23.8726 161.547 23.8726C162.277 23.8726 162.868 24.469 162.868 25.2054C162.868 25.9417 162.277 26.5381 161.547 26.5381ZM72.9314 55.3129C72.8973 55.2165 72.8745 55.072 72.8677 54.8816C72.7494 55.0376 72.597 55.1592 72.4128 55.244C72.2285 55.3289 72.0352 55.3725 71.8282 55.3725C71.5347 55.3725 71.2959 55.2899 71.1139 55.1248C70.9319 54.9596 70.841 54.7509 70.841 54.4962C70.841 54.1957 70.9638 53.9571 71.2117 53.7828C71.4597 53.6085 71.8054 53.519 72.249 53.519H72.8632V53.1681C72.8632 52.9478 72.7949 52.7735 72.6607 52.6451C72.5265 52.5189 72.3286 52.4547 72.0716 52.4547C71.835 52.4547 71.6416 52.5143 71.487 52.6359C71.3323 52.7574 71.255 52.902 71.255 53.074H70.916C70.916 52.8263 71.0298 52.6152 71.255 52.4363C71.4801 52.2574 71.7577 52.1679 72.0898 52.1679C72.4219 52.1679 72.6994 52.2528 72.8973 52.4248C73.0952 52.5969 73.1975 52.8377 73.2021 53.1451V54.604C73.2021 54.9022 73.2339 55.127 73.2954 55.2761V55.3106H72.9337L72.9314 55.3129ZM71.8691 55.0743C72.0943 55.0743 72.2968 55.0192 72.4765 54.9068C72.6539 54.7967 72.7835 54.6499 72.8654 54.4641V53.7828H72.2604C71.9214 53.7874 71.6598 53.8493 71.4688 53.9709C71.2777 54.0925 71.1844 54.2577 71.1844 54.471C71.1844 54.6453 71.2481 54.7875 71.3755 54.9022C71.5029 55.0169 71.6689 55.0743 71.8737 55.0743H71.8691ZM82.492 55.0858C82.7285 55.0858 82.9264 55.0192 83.0857 54.8839C83.2449 54.7485 83.3313 54.5742 83.345 54.3609H83.6702C83.6612 54.549 83.602 54.721 83.4951 54.8747C83.3859 55.0284 83.2449 55.15 83.0675 55.2372C82.89 55.3243 82.6967 55.3679 82.4942 55.3679C82.0916 55.3679 81.7754 55.2257 81.5411 54.9458C81.3068 54.6637 81.1886 54.2852 81.1886 53.8103V53.7071C81.1886 53.4043 81.2409 53.1336 81.3478 52.8997C81.4524 52.6657 81.6048 52.4845 81.8005 52.3583C81.9984 52.2299 82.2281 52.1679 82.492 52.1679C82.8263 52.1679 83.1039 52.2688 83.3222 52.4707C83.5406 52.6726 83.6566 52.9364 83.6725 53.2667H83.3472C83.3336 53.0258 83.2449 52.8308 83.0879 52.6817C82.931 52.5326 82.7331 52.4592 82.492 52.4592C82.1849 52.4592 81.9483 52.5693 81.78 52.7941C81.6116 53.0167 81.5275 53.3286 81.5275 53.7301V53.8287C81.5275 54.2232 81.6116 54.5306 81.78 54.7508C81.9483 54.9711 82.1871 55.0812 82.4942 55.0812L82.492 55.0858ZM93.5379 55.3129C93.5038 55.2165 93.481 55.072 93.4742 54.8816C93.3559 55.0376 93.2035 55.1592 93.0193 55.244C92.835 55.3289 92.6417 55.3725 92.4347 55.3725C92.1412 55.3725 91.9024 55.2899 91.7204 55.1248C91.5384 54.9596 91.4474 54.7509 91.4474 54.4962C91.4474 54.1957 91.5703 53.9571 91.8182 53.7828C92.0662 53.6085 92.4119 53.519 92.8555 53.519H93.4697V53.1681C93.4697 52.9478 93.4014 52.7735 93.2672 52.6451C93.133 52.5189 92.9351 52.4547 92.6781 52.4547C92.4415 52.4547 92.2481 52.5143 92.0935 52.6359C91.9388 52.7574 91.8614 52.902 91.8614 53.074H91.5225C91.5225 52.8263 91.6363 52.6152 91.8614 52.4363C92.0866 52.2574 92.3642 52.1679 92.6963 52.1679C93.0284 52.1679 93.3059 52.2528 93.5038 52.4248C93.7017 52.5969 93.804 52.8377 93.8086 53.1451V54.604C93.8086 54.9022 93.8404 55.127 93.9018 55.2761V55.3106H93.5402L93.5379 55.3129ZM92.4756 55.0743C92.7008 55.0743 92.9033 55.0192 93.083 54.9068C93.2604 54.7967 93.39 54.6499 93.4719 54.4641V53.7828H92.8669C92.5279 53.7874 92.2663 53.8493 92.073 53.9709C91.8819 54.0925 91.7887 54.2577 91.7887 54.471C91.7887 54.6453 91.8523 54.7875 91.9797 54.9022C92.1071 55.0169 92.2732 55.0743 92.4779 55.0743H92.4756ZM101.834 53.7438C101.834 53.2644 101.941 52.8813 102.152 52.5969C102.364 52.3124 102.653 52.1702 103.017 52.1702C103.431 52.1702 103.744 52.3354 103.961 52.6634V50.9315H104.297V55.3129H103.981L103.967 54.9022C103.751 55.2142 103.433 55.3725 103.012 55.3725C102.659 55.3725 102.375 55.2303 102.159 54.9435C101.943 54.6568 101.834 54.2714 101.834 53.7828V53.7438ZM102.177 53.8035C102.177 54.1957 102.255 54.5077 102.411 54.7348C102.568 54.9619 102.789 55.0766 103.073 55.0766C103.49 55.0766 103.785 54.8908 103.961 54.5215V53.074C103.785 52.6726 103.492 52.473 103.078 52.473C102.794 52.473 102.573 52.5854 102.414 52.8102C102.255 53.035 102.177 53.3676 102.177 53.8058V53.8035ZM113.635 55.3725C113.373 55.3725 113.139 55.3083 112.93 55.1798C112.718 55.0491 112.557 54.8701 112.438 54.6385C112.322 54.4068 112.263 54.1476 112.263 53.8608V53.7369C112.263 53.441 112.32 53.1726 112.434 52.9341C112.548 52.6955 112.707 52.5097 112.912 52.3744C113.116 52.239 113.335 52.1702 113.573 52.1702C113.944 52.1702 114.24 52.2987 114.458 52.5533C114.677 52.8102 114.784 53.1589 114.784 53.6039V53.7943H112.6V53.8585C112.6 54.2095 112.7 54.5008 112.898 54.7348C113.096 54.9665 113.346 55.0835 113.649 55.0835C113.828 55.0835 113.99 55.0514 114.128 54.9825C114.267 54.916 114.392 54.8082 114.506 54.6614L114.718 54.8243C114.47 55.1867 114.108 55.3702 113.635 55.3702V55.3725ZM113.571 52.4638C113.316 52.4638 113.103 52.5579 112.927 52.746C112.752 52.9341 112.645 53.1864 112.609 53.503H114.445V53.4663C114.436 53.1703 114.351 52.9295 114.192 52.7437C114.033 52.5579 113.826 52.4638 113.569 52.4638H113.571ZM123.007 52.2299L123.018 52.7299C123.132 52.5441 123.273 52.4042 123.443 52.3101C123.614 52.2161 123.803 52.1702 124.01 52.1702C124.492 52.1702 124.799 52.3698 124.929 52.7689C125.038 52.5762 125.184 52.4294 125.368 52.3262C125.552 52.223 125.752 52.1702 125.973 52.1702C126.63 52.1702 126.965 52.5303 126.976 53.2529V55.3129H126.637V53.2804C126.637 53.0052 126.576 52.801 126.46 52.668C126.344 52.5349 126.155 52.4684 125.893 52.4684C125.65 52.473 125.445 52.551 125.277 52.707C125.111 52.863 125.015 53.0511 124.997 53.2736V55.3151H124.658V53.2575C124.658 52.9937 124.594 52.7964 124.472 52.6657C124.351 52.5349 124.162 52.4707 123.91 52.4707C123.698 52.4707 123.514 52.5326 123.361 52.6542C123.209 52.7758 123.095 52.9593 123.023 53.2002V55.3151H122.684V52.2299H123.009H123.007ZM136.061 54.8243L136.955 52.2299H137.319L136.013 55.8382L135.945 55.9987C135.779 56.3726 135.517 56.5607 135.167 56.5607C135.085 56.5607 134.999 56.547 134.906 56.5217V56.2396L135.078 56.2579C135.245 56.2579 135.379 56.2166 135.481 56.1341C135.583 56.0515 135.672 55.9093 135.743 55.7074L135.893 55.2899L134.737 52.2321H135.108L136.059 54.8265L136.061 54.8243ZM146.154 53.6268H144.798V53.3401H146.154V53.6268ZM155.735 52.2299L155.746 52.7299C155.86 52.5441 156.001 52.4042 156.172 52.3101C156.342 52.2161 156.531 52.1702 156.738 52.1702C157.22 52.1702 157.527 52.3698 157.657 52.7689C157.766 52.5762 157.912 52.4294 158.096 52.3262C158.28 52.223 158.481 52.1702 158.701 52.1702C159.359 52.1702 159.693 52.5303 159.704 53.2529V55.3129H159.365V53.2804C159.365 53.0052 159.304 52.801 159.188 52.668C159.072 52.5349 158.883 52.4684 158.622 52.4684C158.378 52.473 158.173 52.551 158.005 52.707C157.837 52.863 157.744 53.0511 157.725 53.2736V55.3151H157.386V53.2575C157.386 52.9937 157.323 52.7964 157.2 52.6657C157.079 52.5349 156.891 52.4707 156.638 52.4707C156.427 52.4707 156.242 52.5326 156.09 52.6542C155.937 52.7758 155.824 52.9593 155.751 53.2002V55.3151H155.412V52.2299H155.737H155.735ZM167.634 53.7255C167.634 53.4296 167.691 53.1612 167.805 52.9249C167.918 52.6863 168.08 52.5005 168.289 52.3698C168.498 52.2367 168.733 52.1702 168.999 52.1702C169.406 52.1702 169.736 52.3147 169.988 52.6015C170.241 52.8905 170.368 53.2713 170.368 53.7484V53.8195C170.368 54.1177 170.311 54.3861 170.195 54.627C170.082 54.8655 169.92 55.0491 169.713 55.1798C169.506 55.3083 169.269 55.3725 169.003 55.3725C168.598 55.3725 168.266 55.228 168.014 54.9412C167.759 54.6522 167.634 54.2714 167.634 53.7943V53.7255ZM167.973 53.8218C167.973 54.1911 168.068 54.4939 168.257 54.7302C168.446 54.9665 168.694 55.0858 169.003 55.0858C169.313 55.0858 169.556 54.9665 169.745 54.7302C169.936 54.4939 170.029 54.182 170.029 53.792V53.7278C170.029 53.4915 169.986 53.2759 169.9 53.0786C169.813 52.8836 169.69 52.7299 169.536 52.6244C169.379 52.5166 169.201 52.4638 168.999 52.4638C168.696 52.4638 168.451 52.5831 168.259 52.8217C168.068 53.0602 167.973 53.3722 167.973 53.7599V53.8218ZM180.156 54.5306C180.156 54.3609 180.09 54.2255 179.954 54.1223C179.82 54.0191 179.615 53.9388 179.344 53.8815C179.071 53.8241 178.862 53.7576 178.712 53.6819C178.562 53.6062 178.45 53.5144 178.377 53.4066C178.305 53.2988 178.268 53.1681 178.268 53.0121C178.268 52.7689 178.371 52.5671 178.571 52.4088C178.773 52.2505 179.03 52.1702 179.346 52.1702C179.688 52.1702 179.961 52.2551 180.168 52.4248C180.372 52.5946 180.477 52.8171 180.477 53.0901H180.138C180.138 52.9088 180.063 52.7597 179.913 52.6405C179.763 52.5212 179.574 52.4615 179.346 52.4615C179.119 52.4615 178.944 52.512 178.81 52.6106C178.675 52.7116 178.607 52.84 178.607 53.0006C178.607 53.1612 178.664 53.2759 178.775 53.3607C178.887 53.4456 179.092 53.5236 179.39 53.5947C179.688 53.6658 179.908 53.7392 180.056 53.8195C180.204 53.8998 180.313 53.9962 180.386 54.1086C180.456 54.221 180.493 54.3563 180.493 54.5146C180.493 54.7738 180.388 54.9825 180.181 55.1385C179.972 55.2945 179.701 55.3725 179.365 55.3725C179.007 55.3725 178.719 55.2853 178.498 55.111C178.277 54.9367 178.166 54.7164 178.166 54.4503H178.505C178.518 54.6499 178.6 54.8059 178.755 54.9183C178.907 55.0307 179.112 55.0858 179.365 55.0858C179.601 55.0858 179.79 55.033 179.936 54.9298C180.081 54.8242 180.152 54.6912 180.152 54.5306H180.156ZM189.648 55.0858C189.885 55.0858 190.083 55.0192 190.242 54.8839C190.401 54.7485 190.488 54.5742 190.502 54.3609H190.827C190.818 54.549 190.759 54.721 190.652 54.8747C190.542 55.0284 190.401 55.15 190.224 55.2372C190.047 55.3243 189.853 55.3679 189.651 55.3679C189.25 55.3679 188.932 55.2257 188.698 54.9458C188.463 54.6637 188.345 54.2852 188.345 53.8103V53.7071C188.345 53.4043 188.397 53.1336 188.504 52.8997C188.609 52.6657 188.761 52.4845 188.957 52.3583C189.155 52.2299 189.385 52.1679 189.648 52.1679C189.983 52.1679 190.26 52.2688 190.479 52.4707C190.697 52.6726 190.813 52.9364 190.829 53.2667H190.504C190.49 53.0258 190.401 52.8308 190.244 52.6817C190.088 52.5349 189.89 52.4592 189.648 52.4592C189.341 52.4592 189.105 52.5693 188.937 52.7941C188.768 53.0167 188.684 53.3286 188.684 53.7301V53.8287C188.684 54.2232 188.768 54.5306 188.937 54.7508C189.105 54.9711 189.344 55.0812 189.651 55.0812L189.648 55.0858ZM198.574 53.7255C198.574 53.4296 198.631 53.1612 198.745 52.9249C198.859 52.6863 199.02 52.5005 199.23 52.3698C199.439 52.2367 199.673 52.1702 199.939 52.1702C200.346 52.1702 200.676 52.3147 200.929 52.6015C201.181 52.8905 201.309 53.2713 201.309 53.7484V53.8195C201.309 54.1177 201.252 54.3861 201.136 54.627C201.022 54.8655 200.86 55.0491 200.653 55.1798C200.446 55.3083 200.21 55.3725 199.944 55.3725C199.539 55.3725 199.209 55.228 198.954 54.9412C198.7 54.6522 198.574 54.2714 198.574 53.7943V53.7255ZM198.913 53.8218C198.913 54.1911 199.009 54.4939 199.198 54.7302C199.386 54.9665 199.634 55.0858 199.944 55.0858C200.253 55.0858 200.497 54.9665 200.685 54.7302C200.876 54.4939 200.97 54.182 200.97 53.792V53.7278C200.97 53.4915 200.926 53.2759 200.84 53.0786C200.754 52.8836 200.631 52.7299 200.476 52.6244C200.319 52.5166 200.142 52.4638 199.939 52.4638C199.637 52.4638 199.391 52.5831 199.2 52.8217C199.009 53.0602 198.913 53.3722 198.913 53.7599V53.8218ZM209.998 54.604L210.048 54.8678L210.116 54.588L210.851 52.2276H211.14L211.868 54.5673L211.947 54.8931L212.013 54.5926L212.641 52.2276H212.991L212.102 55.3129H211.813L211.026 52.8675L210.99 52.7001L210.953 52.8721L210.18 55.3151H209.891L209.004 52.2299H209.352L210 54.604H209.998ZM25.0899 50.8237C25.0899 57.4577 20.7771 64.5825 13.5754 64.6146V65C23.3725 64.9908 32.121 62.1303 32.121 50.826C32.121 42.022 25.0058 37.6934 18.7867 36.707C24.8374 35.6564 30.3308 32.0619 30.3308 24.4209C30.3308 14.275 22.2238 12.0522 13.5754 11.9902V12.371C19.6921 12.6233 23.2997 18.7504 23.2997 24.4209C23.2997 30.0914 19.708 36.2918 13.5754 36.5212V36.9158C20.8613 37.0855 25.0899 43.9856 25.0899 50.826V50.8237ZM5.86417 11.9833H0V64.9954H7.27676V11.9833H5.86417ZM33.9044 12.3641C39.4274 12.3962 44.6796 14.08 48.0712 18.6792C50.6484 22.1843 51.9246 26.4647 52.0974 30.8025H52.4796V11.9788H33.9044V12.3641ZM33.9044 64.9931H52.4796V46.1694H52.0974C51.9246 50.5048 50.6484 54.7876 48.0712 58.2926C44.6501 62.9355 39.4774 64.5756 33.9044 64.6077V64.9931ZM38.3673 33.9108C40.012 32.2523 41.0287 29.9607 41.0287 27.4305V26.7538H41.4109V46.6763H41.0287V45.9996C41.0287 43.4694 40.012 41.1778 38.3673 39.5193C36.7409 37.8792 34.5004 36.9318 32.0209 36.9089V36.5235C34.4981 36.5006 36.7387 35.5555 38.3673 33.913V33.9108ZM41.2198 6.97805C39.3091 6.97805 37.76 5.41591 37.76 3.48903C37.76 1.56215 39.3091 0 41.2198 0C43.1306 0 44.6796 1.56215 44.6796 3.48903C44.6796 5.41591 43.1306 6.97805 41.2198 6.97805Z" fill="white"/>
</svg>
