<svg width="54" height="52" viewBox="0 0 54 52" fill="none" xmlns="http://www.w3.org/2000/svg">
<g id="cookies" clip-path="url(#clip0_2510_2222)">
<path id="Vector" d="M27.9964 51.6329C18.2136 51.4232 11.0587 48.1383 5.67589 41.5133C1.35863 36.1968 -0.557081 29.9804 0.254475 23.0518C1.41384 13.1254 7.02848 6.51706 15.7789 2.31021C17.4517 1.50418 19.3012 1.02939 21.1065 0.549082C23.0829 0.024607 23.9828 0.593248 23.9331 2.50344C23.8062 7.4059 29.9453 11.1214 35.0189 8.36652C36.2445 7.6985 36.9677 7.78132 37.6689 9.06214C39.3361 12.1151 41.9254 13.683 45.4532 13.3739C46.5353 13.28 47.5952 12.888 48.6497 12.5678C49.5441 12.2973 50.1569 12.5513 50.593 13.3573C53.0111 17.8568 54.3527 22.6433 53.8116 27.75C53.0719 34.7338 50.0133 40.5582 44.6085 45.1405C41.6604 47.6414 38.3203 49.4191 34.66 50.4681C32.1315 51.1913 29.4539 51.39 28.002 51.6329H27.9964ZM25.0318 49.2977C32.9928 49.3197 38.2596 47.2494 42.886 43.4732C47.275 39.8847 50.317 35.3466 51.4819 29.7982C52.437 25.2436 51.6585 20.7773 49.649 16.5318C49.0472 15.262 48.4178 14.7486 46.9383 15.0356C43.427 15.7202 40.0373 15.2289 37.5805 12.4519C36.2059 10.9006 34.903 10.8343 33.1032 11.1048C27.9192 11.8888 23.4142 8.81923 21.9236 4.21489C21.3881 2.56969 20.9574 2.23844 19.3895 2.85125C16.3476 4.03822 13.4823 5.52883 11.009 7.70955C6.51505 11.6735 3.30747 16.3441 2.42967 22.4501C1.55738 28.5229 2.88237 34.0713 6.42672 38.9683C11.4451 45.9134 18.4455 49.1707 25.0373 49.2977H25.0318Z" fill="#1F1E20"/>
<path id="Vector_2" d="M26.4892 36.8538C26.3457 39.6915 23.8724 42.7224 20.3888 42.7335C16.7671 42.7445 14.0509 40.1994 14.0675 36.7655C14.084 33.3923 16.8555 30.8527 20.4826 30.908C23.911 30.9632 26.3402 33.8174 26.4892 36.8538ZM24.4245 36.8704C24.4521 34.4247 22.8013 32.7464 20.3115 32.6912C17.9486 32.6415 15.9887 34.4468 15.9556 36.7048C15.9224 39.0566 17.8106 40.9392 20.2342 40.9779C22.6357 41.0165 24.3969 39.2885 24.4245 36.8704Z" fill="#1F1E20"/>
<path id="Vector_3" d="M18.0921 24.2002C14.7741 24.0953 11.7929 21.4619 11.9254 18.1218C12.0689 14.4505 14.7189 12.3194 18.1308 12.2477C21.4543 12.1814 24.1926 14.5278 24.2809 18.1384C24.3748 21.8373 20.847 24.2444 18.0921 24.1947V24.2002ZM22.6523 18.0887C22.6302 15.7258 20.6262 13.9315 18.059 13.9812C15.525 14.0309 13.67 15.781 13.6424 18.1384C13.6203 20.573 15.6575 22.4943 18.2246 22.4556C20.6372 22.417 22.6689 20.4129 22.6468 18.0887H22.6523Z" fill="#1F1E20"/>
<path id="Vector_4" d="M37.3376 30.6043C37.3652 32.2219 35.6703 33.9775 34.0306 34.0437C32.3302 34.11 30.6409 32.3654 30.6519 30.5601C30.663 28.788 32.0818 27.3636 33.8981 27.2973C35.5157 27.2421 37.31 28.9646 37.3376 30.6043ZM35.6814 30.5767C35.6427 29.5719 35.0244 29.0143 33.9644 28.9425C32.8934 28.8652 32.2474 29.5112 32.2529 30.5933C32.2529 31.7029 32.8713 32.2826 33.9147 32.382C34.8588 32.4648 35.6593 31.6477 35.6814 30.5767Z" fill="#1F1E20"/>
<path id="Vector_5" d="M38.1713 40.9503C38.1879 42.3967 37.426 43.2193 36.0403 43.2414C34.9416 43.2635 33.716 42.0931 33.6774 40.9944C33.6442 39.9952 34.9637 38.626 35.9795 38.615C37.0892 38.5984 38.1603 39.7357 38.1713 40.9448V40.9503Z" fill="#1F1E20"/>
<path id="Vector_6" d="M33.3737 21.7214C33.4013 20.3577 34.3012 19.4358 35.5709 19.4744C36.6862 19.5131 37.7682 20.7442 37.713 21.9091C37.6578 23.096 36.504 24.2057 35.3722 24.1505C34.1079 24.0898 33.3405 23.1623 33.3682 21.7158L33.3737 21.7214Z" fill="#1F1E20"/>
<path id="Vector_7" d="M6.91258 27.9764C6.92914 26.7563 7.89528 25.7957 9.07121 25.8343C10.2582 25.873 11.4231 26.9551 11.4286 28.0261C11.4286 29.1413 10.1698 30.2786 8.95527 30.2455C7.79039 30.2123 6.89602 29.2186 6.91258 27.9764Z" fill="#1F1E20"/>
</g>
<defs>
<clipPath id="clip0_2510_2222">
<rect width="53.8553" height="51.2661" fill="white" transform="translate(0.0722656 0.366943)"/>
</clipPath>
</defs>
</svg>
