<svg width="183" height="27" viewBox="0 0 183 27" fill="none" xmlns="http://www.w3.org/2000/svg">
<path id="logo" fill-rule="evenodd" clip-rule="evenodd" d="M9.98253 6.73318H0.00390625V6.95826H2.99562V26.1934H0.00390625V26.4185H15.966V18.7188H15.7409C15.7315 19.0939 15.694 19.4691 15.6471 19.8442C15.5814 20.2662 15.497 20.6976 15.3845 21.129C15.2626 21.5698 15.1125 21.9918 14.9156 22.3951C14.7186 22.8078 14.4935 23.2017 14.2216 23.5768C13.959 23.9613 13.6495 24.3177 13.2931 24.6272C12.9367 24.946 12.5335 25.218 12.0833 25.4619C11.6331 25.7057 11.1361 25.8839 10.6015 26.0058C10.0669 26.1277 9.48547 26.184 8.8665 26.184H6.71884V6.95826H10.0013V6.73318H9.98253ZM109.713 3.77898C108.803 3.77898 108.062 3.03809 108.062 2.12838C108.062 1.21868 108.803 0.477783 109.713 0.477783C110.622 0.477783 111.363 1.21868 111.363 2.12838C111.363 3.03809 110.622 3.77898 109.713 3.77898ZM116.306 3.77898C115.396 3.77898 114.655 3.03809 114.655 2.12838C114.655 1.21868 115.396 0.477783 116.306 0.477783C117.215 0.477783 117.956 1.21868 117.956 2.12838C117.956 3.03809 117.215 3.77898 116.306 3.77898ZM19.7173 26.1934H17.2883V26.4185H23.1498V26.1934H20.0925L22.4464 19.5722H28.8706L31.6373 26.1934H28.5705V26.4185H38.3991V26.1934H35.8857L27.0043 5.69218L19.8205 26.1934H19.7173ZM28.5236 19.3471H22.5308L25.3819 11.3286L28.7487 19.3471H28.533H28.5236ZM55.8429 6.73318H46.8678V6.95826H49.8595V26.1934H46.8678V26.4185H56.3869C57.0246 26.4185 57.6155 26.3809 58.1594 26.3059C58.7127 26.2309 59.2192 26.1277 59.6881 25.987C60.157 25.8464 60.5884 25.6776 60.9635 25.4806C61.3387 25.293 61.6763 25.0773 61.9764 24.8335C62.2671 24.5897 62.5297 24.3271 62.7454 24.0551C62.9611 23.7831 63.1393 23.4924 63.2706 23.1923C63.4113 22.8828 63.5145 22.5733 63.5895 22.2544C63.6552 21.9356 63.6927 21.6167 63.6927 21.2885C63.6927 20.7727 63.6176 20.2944 63.4676 19.8536C62.7361 17.6684 59.2004 16.0741 57.2872 15.9897C59.3411 15.8584 61.545 14.0108 62.089 12.182C62.2015 11.7975 62.2671 11.3849 62.2671 10.9628C62.2671 10.5877 62.2109 10.2219 62.0983 9.87495C61.9858 9.52795 61.8264 9.1997 61.6013 8.88084C61.1605 8.2431 60.4571 7.72729 59.5005 7.3334C59.0222 7.13645 58.4783 6.9864 57.8687 6.89261C57.2591 6.78945 56.5932 6.74256 55.8523 6.74256L55.8429 6.73318ZM53.5546 15.7177V6.95826H55.721C56.143 6.95826 56.5182 7.03329 56.8652 7.19272C57.2122 7.34278 57.5123 7.57724 57.7843 7.88672C58.2907 8.49632 58.5439 9.69676 58.5439 11.488C58.5439 12.0883 58.5158 12.6228 58.4595 13.0824C58.4032 13.5419 58.3282 13.9358 58.2157 14.264C58.1031 14.5829 57.9812 14.8549 57.8312 15.0706C57.6811 15.2957 57.5029 15.4551 57.306 15.5676C56.9308 15.774 56.4619 15.8677 55.8898 15.8677H53.5359V15.7271L53.5546 15.7177ZM53.5546 26.0433V16.0835H56.0117C56.7339 16.0835 57.3341 16.2054 57.8124 16.4586C58.3001 16.7118 58.6565 17.0963 58.8722 17.6121C59.2942 18.5875 59.5099 19.8254 59.5099 21.3166C59.5099 22.0294 59.463 22.6577 59.3786 23.2017C59.2848 23.7456 59.1535 24.1958 58.9659 24.5615C58.7784 24.9273 58.5814 25.218 58.3657 25.4431C58.1406 25.6776 57.9062 25.837 57.653 25.9308C57.4185 26.0152 57.1559 26.0902 56.8746 26.1277C56.5932 26.1746 56.3025 26.1934 55.993 26.1934H53.5359V26.0527L53.5546 26.0433ZM80.8176 6.73318H65.709V6.95826H68.7007V26.1934H65.709V26.4185H81.9524V19.2909H81.7273C81.7086 19.6285 81.6804 19.9755 81.6242 20.3225C81.5585 20.7164 81.4741 21.1103 81.3522 21.5042C81.2397 21.9074 81.0896 22.3013 80.8927 22.6859C80.7051 23.061 80.48 23.4361 80.2174 23.7925C79.9454 24.1583 79.6359 24.4771 79.2796 24.7679C78.9232 25.0586 78.5199 25.3118 78.0698 25.5369C77.6196 25.762 77.1225 25.9214 76.5786 26.0339C76.0347 26.1465 75.4532 26.2028 74.8342 26.2028H72.4052V16.3836H72.5553C72.9492 16.3836 73.3243 16.4211 73.6807 16.5055C74.037 16.5899 74.3747 16.7118 74.6842 16.89C75.003 17.0588 75.2844 17.2651 75.5376 17.509C75.7908 17.7528 76.0065 18.0342 76.1941 18.353C76.3816 18.6719 76.5223 19.0189 76.6161 19.394C76.7005 19.7223 76.7474 20.0693 76.7568 20.435H76.9631V12.1539H76.7568C76.738 12.7166 76.6442 13.2324 76.4567 13.692C76.2597 14.1984 75.9596 14.6392 75.5563 15.0143C75.1625 15.3894 74.7123 15.6802 74.2059 15.8677C73.7088 16.0553 73.1555 16.1491 72.5553 16.1491H72.4052V6.95826H74.6842C75.3875 6.95826 76.0253 7.03329 76.5974 7.19272C77.1694 7.35216 77.6852 7.58662 78.1167 7.90548C78.5481 8.21497 78.9232 8.56197 79.2327 8.93711C79.5422 9.31224 79.786 9.72489 79.9736 10.1657C80.1611 10.6065 80.3018 11.0472 80.405 11.4974C80.4988 11.9007 80.5644 12.3133 80.5926 12.726H80.827V6.73318H80.8176ZM92.9064 6.73318H83.7156V6.95826H86.7073V26.1934H83.7156V26.4185H93.4128V26.1934H90.4211V15.9709H92.5782C93.1127 15.9709 93.5723 16.0084 93.9568 16.0835C94.3507 16.1585 94.6602 16.2804 94.904 16.4305C95.1385 16.5899 95.326 16.7868 95.4761 17.0213C95.6261 17.2558 95.7199 17.5183 95.7762 17.8278C95.8231 18.1186 95.8606 18.5125 95.8981 19.0095C95.9262 19.4972 95.9544 20.0974 95.9638 20.8008C95.9731 21.5511 96.0669 22.2732 96.2357 22.986C96.4045 23.6893 96.6484 24.3833 96.9672 25.0492C97.2767 25.6963 97.7644 26.184 98.4209 26.5122C99.0868 26.8405 99.9402 26.9999 100.972 26.9999C101.272 26.9999 101.572 26.9718 101.872 26.9061C102.182 26.8405 102.491 26.7467 102.801 26.6248C103.382 26.3903 103.682 26.1465 103.682 25.8933C103.682 25.8464 103.682 25.8089 103.663 25.7713C103.654 25.7338 103.635 25.7057 103.607 25.6776C103.588 25.6494 103.57 25.6307 103.551 25.6213C103.532 25.6119 103.504 25.6025 103.476 25.6025C103.391 25.6025 103.298 25.64 103.195 25.7057C103.073 25.7807 102.941 25.8933 102.782 26.0433C102.585 26.2309 102.388 26.3622 102.2 26.456C102.003 26.5498 101.816 26.606 101.628 26.606C101.375 26.606 101.159 26.5591 100.962 26.456C100.766 26.3528 100.606 26.2121 100.475 26.0152C100.353 25.8276 100.259 25.6213 100.184 25.3962C100.109 25.1711 100.053 24.9179 100.015 24.6459C99.9777 24.3833 99.959 24.0739 99.9402 23.7175C99.9214 23.3705 99.9121 22.9766 99.9027 22.5264C99.9027 22.095 99.8933 21.7386 99.8839 21.4479C99.8839 21.1665 99.8652 20.9415 99.8558 20.782C99.8089 20.1912 99.7057 19.6566 99.5369 19.1783C99.3681 18.7094 99.143 18.2874 98.8617 17.931C97.6988 16.4773 95.8512 15.999 94.0975 15.7177C95.4386 15.4926 97.2955 14.7048 98.2709 13.7201C98.571 13.42 98.7867 13.0636 98.9367 12.6603C99.0868 12.2571 99.1618 11.7975 99.1618 11.2911C99.1618 11.0191 99.1337 10.7471 99.0868 10.4845C99.0399 10.2219 98.9649 9.95935 98.8617 9.69676C98.7679 9.43416 98.6366 9.18094 98.4678 8.94648C98.299 8.70265 98.102 8.46819 97.877 8.2431C97.6425 8.01802 97.3705 7.82108 97.0423 7.63351C96.7234 7.44594 96.3483 7.28651 95.945 7.14583C95.5324 7.00515 95.0728 6.90199 94.5664 6.83634C94.06 6.77069 93.5066 6.73318 92.897 6.73318H92.9064ZM90.4211 15.5958V6.94888H92.278C92.5594 6.94888 92.822 6.97702 93.0752 7.02391C93.319 7.08018 93.5535 7.15521 93.7598 7.25837C93.9755 7.36153 94.1725 7.53034 94.3507 7.75543C94.5195 7.97113 94.6695 8.2431 94.7915 8.57135C94.9228 8.89959 95.0165 9.29349 95.0822 9.76241C95.1478 10.2313 95.176 10.7659 95.176 11.3755C95.176 12.8104 94.904 13.8983 94.3601 14.6204C93.8067 15.3613 92.9814 15.7365 91.8842 15.7365H90.4305V15.5958H90.4211ZM119.954 6.73318H104.845V6.95826H107.837V26.1934H104.845V26.4185H121.089V19.2909H120.863C120.854 19.6285 120.817 19.9755 120.76 20.3225C120.695 20.7164 120.61 21.1103 120.488 21.5042C120.376 21.9074 120.226 22.3013 120.029 22.6859C119.841 23.061 119.616 23.4361 119.344 23.7925C119.072 24.1583 118.763 24.4771 118.406 24.7679C118.05 25.0586 117.647 25.3118 117.196 25.5369C116.746 25.762 116.249 25.9214 115.705 26.0339C115.161 26.1465 114.58 26.2028 113.961 26.2028H111.532V16.3836H111.673C112.066 16.3836 112.442 16.4211 112.798 16.5055C113.154 16.5899 113.492 16.7118 113.801 16.89C114.12 17.0588 114.402 17.2651 114.655 17.509C114.908 17.7528 115.124 18.0342 115.311 18.353C115.499 18.6719 115.64 19.0189 115.733 19.394C115.818 19.7223 115.865 20.0693 115.874 20.435H116.08V12.1539H115.874C115.855 12.7166 115.762 13.2324 115.574 13.692C115.377 14.1984 115.077 14.6392 114.674 15.0143C114.28 15.3894 113.83 15.6802 113.323 15.8677C112.826 16.0553 112.273 16.1491 111.673 16.1491H111.532V6.95826H113.811C114.514 6.95826 115.152 7.03329 115.724 7.19272C116.296 7.35216 116.812 7.58662 117.243 7.90548C117.675 8.21497 118.05 8.56197 118.359 8.93711C118.669 9.31224 118.913 9.72489 119.1 10.1657C119.288 10.6065 119.429 11.0472 119.532 11.4974C119.625 11.9007 119.691 12.3133 119.719 12.726H119.954V6.73318ZM137.304 6.73318H123.602V12.998H123.846C123.921 12.1445 124.08 11.3849 124.324 10.7378C124.587 10.0438 124.952 9.47168 125.421 9.00276C125.881 8.54321 126.35 8.16808 126.819 7.88672C127.297 7.59599 127.785 7.39905 128.272 7.28651C129.238 7.06142 130.167 6.95826 131.048 6.95826H133.112L122.664 26.4185H138.251V18.7188H138.035C137.988 19.3659 137.866 19.9942 137.679 20.5945C137.482 21.2322 137.201 21.8512 136.854 22.4326C136.497 23.0141 136.094 23.5393 135.634 23.9988C135.175 24.4584 134.668 24.8616 134.106 25.1899C133.543 25.5275 132.962 25.7807 132.361 25.9495C131.752 26.1183 131.133 26.2028 130.486 26.2028H127.044L137.313 6.74256L137.304 6.73318ZM149.683 6.73318H139.986V6.95826H142.978V26.1934H139.986V26.4185H149.683V26.1934H146.682V6.95826H149.683V6.73318ZM146.935 16.6743L155.742 6.95826H153.163V6.73318H158.808V6.95826H156.042C153.932 9.29349 151.822 11.6381 149.702 13.9733C152.703 18.0435 155.714 22.1138 158.715 26.1934H160.797V26.4185H151.39V26.1934H153.932L146.898 16.7118L146.935 16.6743ZM164.267 26.1934H161.838V26.4185H167.699V26.1934H164.642L166.996 19.5722H173.42L176.187 26.1934H173.12V26.4185H182.948V26.1934H180.435L171.563 5.69218L164.379 26.1934H164.276H164.267ZM173.073 19.3471H167.08L169.931 11.3286L173.298 19.3471H173.082H173.073Z" fill="#1F1E20"/>
</svg>
