<svg width="203" height="53" viewBox="0 0 203 53" fill="none" xmlns="http://www.w3.org/2000/svg">
<path d="M30.479 1.43652V2.63893C28.7212 2.77834 27.6545 3.04554 27.2702 3.44634C26.8888 3.84714 26.6952 4.90432 26.6952 6.61499V23.1843C26.6952 24.8979 26.8859 25.9522 27.2702 26.353C27.6516 26.7538 28.7063 27.0239 30.4343 27.1604V28.3628H18.7909V27.1604C20.6023 27.0239 21.7077 26.7538 22.104 26.353C22.5002 25.9522 22.6998 24.8979 22.6998 23.1843V15.0231H8.76229V23.1843C8.76229 24.8979 8.95297 25.9522 9.33433 26.353C9.71569 26.7538 10.7734 27.0239 12.5014 27.1604V28.3628H1.06953V27.1604C2.77075 27.0239 3.81056 26.7538 4.19192 26.353C4.57328 25.9522 4.76694 24.8979 4.76694 23.1843V6.61499C4.76694 4.90432 4.57626 3.84714 4.19192 3.44634C3.81056 3.04554 2.74096 2.77834 0.983124 2.63893V1.43652H12.2869V2.63893C10.6721 2.77834 9.67994 3.04554 9.31347 3.44634C8.94403 3.84714 8.76229 4.90432 8.76229 6.61499V13.2021H22.6998V6.61499C22.6998 4.90432 22.5151 3.84714 22.1486 3.44634C21.7792 3.04554 20.7603 2.77834 19.0888 2.63893V1.43652H30.476H30.479Z" fill="#041E42"/>
<path d="M54.1472 21.5663L55.4224 21.7725C54.9695 24.369 54.472 26.5647 53.9357 28.3596H33.2409V27.1572C35.1656 27.0207 36.3424 26.7419 36.7685 26.3295C37.1945 25.9141 37.4061 24.8511 37.4061 23.1405V6.77736C37.4061 4.95343 37.2214 3.84396 36.8549 3.44316C36.4855 3.04236 35.4665 2.77516 33.7951 2.63575V1.43335H52.9167C52.9436 1.76445 53.0091 2.6706 53.1074 4.14601C53.2057 5.62433 53.2713 6.72218 53.2981 7.43955L52.0229 7.64576C51.7101 6.21101 51.2304 5.02313 50.5779 4.08212C50.2651 3.64066 49.7765 3.3357 49.1121 3.17015C48.4477 3.0046 47.3751 2.92038 45.9033 2.92038H42.8435C42.1642 2.92038 41.753 2.99008 41.61 3.12659C41.467 3.266 41.3985 3.65228 41.3985 4.28543V13.6055H45.224C47.095 13.6055 48.254 13.4399 48.7099 13.1088C49.1627 12.7778 49.5322 11.9064 49.8152 10.4978H51.0904V18.4935H49.8152C49.5322 17.0297 49.1568 16.1323 48.689 15.8012C48.2212 15.4701 47.0682 15.3045 45.227 15.3045H41.4014V22.9691C41.4014 24.7931 41.7411 25.9258 42.4204 26.3672C42.9567 26.6983 44.3897 26.8639 46.7137 26.8639C48.2421 26.8639 49.3832 26.768 50.134 26.5734C50.8848 26.3817 51.5015 26.0216 51.9812 25.4959C52.8035 24.5288 53.5245 23.2189 54.1472 21.5605V21.5663Z" fill="#041E42"/>
<path d="M83.2975 27.5728L83.1276 28.691C82.4752 28.691 81.9955 28.6765 81.6826 28.6503C79.898 28.5399 78.4798 28.2088 77.434 27.657C76.3853 27.1052 75.3932 26.1671 74.4606 24.8398C73.8647 24.0121 72.4912 21.8309 70.3401 18.2963C69.9439 17.6602 69.5029 17.2188 69.0232 16.9719C68.5406 16.7221 67.8047 16.6002 66.8125 16.6002H65.5791V23.103C65.5791 24.8427 65.7757 25.9202 66.175 26.3326C66.5712 26.748 67.62 27.0239 69.3182 27.1604V28.3628H57.8863V27.1604C59.6144 27.0239 60.675 26.7451 61.0743 26.3326C61.4705 25.9173 61.6701 24.8427 61.6701 23.103V6.57432C61.6701 4.86366 61.4854 3.81229 61.119 3.42601C60.7495 3.03973 59.7306 2.77834 58.0591 2.63893V1.43652H68.8087C71.952 1.43652 74.261 1.90703 75.7358 2.84514C77.6337 4.06206 78.5841 5.86857 78.5841 8.27047C78.5841 11.4478 76.7845 13.8062 73.1884 15.3542C74.1508 17.0678 75.3991 19.0398 76.9275 21.2791C78.2295 23.2134 79.3647 24.6743 80.327 25.6704C81.2059 26.6086 82.1981 27.2446 83.3004 27.5757L83.2975 27.5728ZM65.5791 15.2293H67.4501C69.491 15.2293 71.0045 14.843 71.9967 14.0705C73.4983 12.8826 74.2491 11.1719 74.2491 8.93266C74.2491 6.83281 73.677 5.2877 72.527 4.29441C71.3799 3.30112 69.9558 2.80448 68.2575 2.80448C67.1254 2.80448 66.3716 2.94389 66.0051 3.2198C65.7221 3.46957 65.5791 4.06206 65.5791 5.00017V15.2322V15.2293Z" fill="#041E42"/>
<path d="M96.088 28.3596H84.5309V27.1572C86.259 27.0207 87.3196 26.7506 87.7189 26.3498C88.1151 25.949 88.3148 24.8802 88.3148 23.1405V6.65247C88.3148 4.91276 88.1151 3.84396 87.7189 3.44316C87.3226 3.04236 86.259 2.77516 84.5309 2.63575V1.43335H96.088V2.63575C94.3599 2.77516 93.2963 3.04236 92.9 3.44316C92.5038 3.84396 92.3041 4.91276 92.3041 6.65247V23.1405C92.3041 24.8802 92.5008 25.9519 92.9 26.3498C93.2963 26.7506 94.3599 27.0207 96.088 27.1572V28.3596Z" fill="#041E42"/>
<path d="M123.028 7.85782L121.752 7.98271C121.326 6.13263 120.847 4.86343 120.307 4.1722C119.938 3.67555 119.464 3.34445 118.883 3.1789C118.302 3.01336 117.262 2.92913 115.761 2.92913H112.957V23.1841C112.957 24.8686 113.184 25.9258 113.636 26.3527C114.089 26.7826 115.308 27.0498 117.292 27.1601V28.3626H104.8V27.1601C106.698 27.0498 107.865 26.7797 108.306 26.3527C108.747 25.9258 108.965 24.8686 108.965 23.1841V2.92913H106.543C104.871 2.92913 103.709 3.01917 103.057 3.19924C102.404 3.37931 101.925 3.71621 101.612 4.21286C101.159 4.84891 100.691 6.10359 100.208 7.98271H98.8915C99.1746 4.66884 99.3444 2.14205 99.401 0.402344H100.295C100.605 0.843805 100.912 1.12843 101.209 1.25041C101.507 1.3724 101.981 1.43629 102.634 1.43629H119.503C120.069 1.43629 120.486 1.36659 120.757 1.23009C121.025 1.09358 121.332 0.814762 121.672 0.402344H122.607C122.607 2.11591 122.747 4.59913 123.033 7.85782H123.028Z" fill="#041E42"/>
<path d="M149.63 28.3598H138.881V27.1574C140.213 26.9919 141.026 26.7653 141.324 26.4749C141.622 26.1845 141.613 25.6268 141.303 24.7962C140.934 23.6635 140.198 21.6479 139.092 18.7493H130.169C129.743 19.9082 129.135 21.6217 128.343 23.8871C127.917 25.1563 127.86 25.9783 128.173 26.3529C128.486 26.7247 129.433 26.9948 131.021 27.1603V28.3627H121.717V27.1603C123.132 26.9686 124.103 26.6434 124.627 26.1874C125.152 25.7314 125.769 24.6335 126.475 22.8938L135.27 1.23027L136.757 0.814941C141.261 12.9929 143.993 20.3525 144.959 22.8938C145.638 24.6626 146.234 25.7808 146.743 26.2484C147.253 26.7189 148.215 27.0209 149.633 27.1603V28.3627L149.63 28.3598ZM138.455 16.8847L134.844 6.61203H134.716C133.214 10.562 131.924 13.9862 130.848 16.8847H138.455Z" fill="#041E42"/>
<path d="M178.653 15.8101V17.0125C177.407 17.2071 176.647 17.454 176.379 17.7589C176.108 18.0639 175.974 18.8365 175.974 20.0795V23.5589C175.974 25.3277 176.072 26.6375 176.272 27.4943C171.767 28.4876 168.579 28.9843 166.711 28.9843C162.007 28.9843 158.22 27.7063 155.345 25.1534C152.47 22.6005 151.031 19.2518 151.031 15.1073C151.031 12.0432 151.817 9.40602 153.39 7.19581C154.963 4.98559 156.96 3.37078 159.382 2.34844C161.804 1.32611 164.459 0.814941 167.349 0.814941C169.416 0.814941 172.152 1.21574 175.551 2.01734C175.748 4.28274 175.977 6.44939 176.23 8.52019L174.955 8.81063C174.076 4.47443 171.314 2.30778 166.669 2.30778C163.467 2.30778 160.848 3.42015 158.807 5.64198C156.766 7.86381 155.747 10.8408 155.747 14.57C155.747 16.6959 156.137 18.7116 156.915 20.6168C157.693 22.5221 158.977 24.1456 160.761 25.4845C162.546 26.8234 164.697 27.4943 167.221 27.4943C168.666 27.4943 169.828 27.2591 170.707 26.7915C171.556 26.35 171.982 25.4816 171.982 24.1805V20.5762C171.982 19.0862 171.761 18.1597 171.323 17.7996C170.882 17.4424 169.616 17.1781 167.522 17.0125V15.8101H178.656H178.653Z" fill="#041E42"/>
<path d="M4.59421 52.7358H0V52.2595C0.685258 52.2043 1.10833 52.0968 1.26624 51.9371C1.42414 51.7773 1.50161 51.3533 1.50161 50.6621V44.1098C1.50161 43.4186 1.42414 42.9917 1.26624 42.8348C1.10833 42.6751 0.685258 42.5676 0 42.5124V42.0361H4.59421V42.5124C3.90597 42.5676 3.48588 42.6751 3.32797 42.8348C3.17006 42.9946 3.0926 43.4186 3.0926 44.1098V50.6621C3.0926 51.3533 3.17006 51.7802 3.32797 51.9371C3.48588 52.0968 3.90895 52.2043 4.59421 52.2595V52.7358Z" fill="#041E42"/>
<path d="M17.3966 42.0334V42.5098C16.9139 42.533 16.5653 42.6143 16.3568 42.7566C16.1482 42.899 16.0231 43.1458 15.9754 43.4972C15.9069 44.1769 15.8741 45.1004 15.8741 46.2622V52.8986H15.2991L8.13666 44.3366H8.10389V48.3882C8.10389 49.5964 8.13666 50.5171 8.20518 51.156C8.24987 51.5626 8.38395 51.8385 8.61038 51.9867C8.83681 52.1348 9.24499 52.2248 9.84384 52.2597V52.736H5.80678V52.2597C6.31328 52.2277 6.67378 52.1377 6.8883 51.9867C7.10281 51.8385 7.23093 51.5713 7.27562 51.188C7.35308 50.398 7.39479 49.4657 7.39479 48.3882V44.7984C7.39479 44.2175 7.37692 43.8371 7.34414 43.6628C7.31137 43.4885 7.21603 43.3056 7.05812 43.1197C6.77508 42.7683 6.2805 42.5649 5.57141 42.5098V42.0334H8.17241L15.1144 50.1017H15.165V46.2651C15.165 45.1905 15.1263 44.2785 15.0458 43.5321C15.0012 43.1691 14.8641 42.9164 14.6317 42.7741C14.3993 42.6317 13.9882 42.5446 13.3893 42.5098V42.0334H17.3936H17.3966Z" fill="#041E42"/>
<path d="M27.8542 44.5864L27.3477 44.6358C27.1779 43.901 26.9872 43.3957 26.7727 43.1197C26.6267 42.9222 26.439 42.7915 26.2066 42.7247C25.9742 42.6579 25.5631 42.626 24.9642 42.626H23.8499V50.6769C23.8499 51.3478 23.9393 51.766 24.1211 51.9374C24.2998 52.1087 24.7855 52.2162 25.575 52.2597V52.736H20.6084V52.2597C21.3622 52.2162 21.8269 52.1087 22.0027 51.9374C22.1785 51.7689 22.2649 51.3478 22.2649 50.6769V42.626H21.3026C20.6382 42.626 20.1764 42.6608 19.9172 42.7335C19.6579 42.8061 19.4673 42.9397 19.3421 43.1372C19.1634 43.3898 18.9757 43.8894 18.785 44.6358H18.2606C18.3738 43.3172 18.4394 42.3152 18.4632 41.6211H18.8178C18.9429 41.7983 19.0621 41.9086 19.1812 41.958C19.3004 42.0074 19.4881 42.0306 19.7473 42.0306H26.4539C26.6774 42.0306 26.8442 42.0045 26.9515 41.9493C27.0587 41.8941 27.1809 41.7837 27.315 41.6211H27.6874C27.6874 42.3007 27.744 43.2911 27.8572 44.5864H27.8542Z" fill="#041E42"/>
<path d="M37.0575 50.0349L37.564 50.1163C37.3823 51.1473 37.1856 52.0215 36.9741 52.7331H28.748V52.2568C29.5137 52.2016 29.9815 52.0912 30.1513 51.9286C30.3211 51.763 30.4046 51.3419 30.4046 50.6594V44.1565C30.4046 43.4333 30.3301 42.989 30.1841 42.8321C30.0381 42.6724 29.6329 42.5649 28.9685 42.5098V42.0334H36.5689C36.5808 42.1641 36.6046 42.5243 36.6464 43.111C36.6851 43.6976 36.7119 44.1362 36.7208 44.4208L36.2143 44.5021C36.0892 43.9329 35.8985 43.4595 35.6393 43.0848C35.5142 42.9106 35.3205 42.7886 35.0554 42.7218C34.7902 42.655 34.3641 42.623 33.7802 42.623H32.5646C32.2935 42.623 32.1296 42.6492 32.076 42.7044C32.0194 42.7595 31.9926 42.9135 31.9926 43.1661V46.8721H33.512C34.2569 46.8721 34.7157 46.8053 34.8975 46.6746C35.0762 46.5439 35.2252 46.1983 35.3354 45.6378H35.8419V48.8151H35.3354C35.2222 48.2342 35.0732 47.877 34.8885 47.7434C34.7038 47.6127 34.245 47.5459 33.512 47.5459H31.9926V50.5926C31.9926 51.3158 32.1266 51.7659 32.3978 51.9431C32.6123 52.0738 33.1813 52.1406 34.1049 52.1406C34.7127 52.1406 35.1656 52.1028 35.4635 52.0244C35.7615 51.9489 36.0058 51.8037 36.1995 51.5975C36.5272 51.2141 36.8132 50.6913 37.0605 50.032L37.0575 50.0349Z" fill="#041E42"/>
<path d="M48.6474 52.4252L48.5788 52.8696C48.3196 52.8696 48.1289 52.8638 48.0038 52.8522C47.2947 52.8086 46.7316 52.6779 46.3145 52.4572C45.8974 52.2364 45.5041 51.8647 45.1317 51.3361C44.8963 51.0079 44.3481 50.1395 43.493 48.7338C43.3351 48.4811 43.1593 48.3069 42.9687 48.2081C42.778 48.1094 42.483 48.06 42.0897 48.06H41.6011V50.6449C41.6011 51.3361 41.6786 51.7659 41.8365 51.9286C41.9944 52.0941 42.4115 52.2045 43.0878 52.2568V52.7331H38.5443V52.2568C39.2295 52.2016 39.6526 52.0912 39.8105 51.9286C39.9684 51.763 40.0459 51.3361 40.0459 50.6449V44.0752C40.0459 43.3956 39.9714 42.9774 39.8254 42.8234C39.6794 42.6695 39.2742 42.5649 38.6098 42.5098V42.0334H42.8823C44.1336 42.0334 45.0512 42.2193 45.6352 42.594C46.389 43.0761 46.7674 43.7964 46.7674 44.7519C46.7674 46.0153 46.0523 46.9534 44.6222 47.5691C45.0036 48.2488 45.5011 49.0329 46.1089 49.9246C46.6273 50.6942 47.0772 51.2751 47.4616 51.6701C47.8102 52.0448 48.2034 52.2945 48.6444 52.4281L48.6474 52.4252ZM41.6041 47.5169H42.349C43.1593 47.5169 43.7612 47.3629 44.1574 47.0551C44.7533 46.5846 45.0512 45.902 45.0512 45.0133C45.0512 44.1798 44.8218 43.564 44.366 43.1691C43.9101 42.7741 43.3441 42.5766 42.6677 42.5766C42.2179 42.5766 41.9199 42.6317 41.7739 42.7421C41.6607 42.8409 41.6041 43.0761 41.6041 43.4508V47.5169Z" fill="#041E42"/>
<path d="M60.6721 42.0334V42.5098C60.1894 42.533 59.8408 42.6143 59.6323 42.7566C59.4237 42.899 59.2986 43.1458 59.2509 43.4972C59.1824 44.1769 59.1496 45.1004 59.1496 46.2622V52.8986H58.5746L51.4122 44.3366H51.3794V48.3882C51.3794 49.5964 51.4122 50.5171 51.4807 51.156C51.5254 51.5626 51.6595 51.8385 51.8859 51.9867C52.1123 52.1348 52.5205 52.2248 53.1194 52.2597V52.736H49.0823V52.2597C49.5888 52.2277 49.9493 52.1377 50.1638 51.9867C50.3783 51.8385 50.5064 51.5713 50.5511 51.188C50.6286 50.398 50.6703 49.4657 50.6703 48.3882V44.7984C50.6703 44.2175 50.6524 43.8371 50.6197 43.6628C50.5869 43.4885 50.4915 43.3056 50.3336 43.1197C50.0506 42.7683 49.556 42.5649 48.8469 42.5098V42.0334H51.4479L58.3899 50.1017H58.4405V46.2651C58.4405 45.1905 58.4018 44.2785 58.3214 43.5321C58.2767 43.1691 58.1396 42.9164 57.9072 42.7741C57.6748 42.6317 57.2637 42.5446 56.6648 42.5098V42.0334H60.6691H60.6721Z" fill="#041E42"/>
<path d="M71.821 52.7358H67.5486V52.2594C68.0789 52.1926 68.4007 52.1026 68.5198 51.9864C68.639 51.8703 68.636 51.6495 68.5109 51.3184C68.3649 50.8683 68.0729 50.0667 67.632 48.9136H64.0835C63.9137 49.3754 63.6724 50.055 63.3566 50.9554C63.1867 51.4607 63.1659 51.786 63.288 51.9342C63.4132 52.0823 63.7886 52.1897 64.4202 52.2565V52.7329H60.7198V52.2565C61.2829 52.181 61.6673 52.0503 61.8758 51.8703C62.0844 51.6902 62.3287 51.2516 62.6117 50.5604L66.1095 41.949L66.6994 41.7834C68.49 46.625 69.5775 49.5497 69.9589 50.5604C70.23 51.2633 70.4654 51.7076 70.668 51.8935C70.8706 52.0794 71.2519 52.2014 71.818 52.2565V52.7329L71.821 52.7358ZM67.3787 48.1759L65.9427 44.0924H65.892C65.2961 45.6637 64.7837 47.0229 64.3547 48.1759H67.3787Z" fill="#041E42"/>
<path d="M81.0601 44.5864L80.5536 44.6358C80.3838 43.901 80.1931 43.3957 79.9786 43.1197C79.8326 42.9222 79.6449 42.7915 79.4125 42.7247C79.1801 42.6579 78.769 42.626 78.1701 42.626H77.0558V50.6769C77.0558 51.3478 77.1452 51.766 77.3269 51.9374C77.5057 52.1087 77.9913 52.2162 78.7809 52.2597V52.736H73.8142V52.2597C74.568 52.2162 75.0328 52.1087 75.2086 51.9374C75.3844 51.7689 75.4708 51.3478 75.4708 50.6769V42.626H74.5084C73.844 42.626 73.3822 42.6608 73.123 42.7335C72.8638 42.8061 72.6731 42.9397 72.548 43.1372C72.3692 43.3898 72.1815 43.8894 71.9909 44.6358H71.4665C71.5797 43.3172 71.6453 42.3152 71.6691 41.6211H72.0236C72.1488 41.7983 72.2679 41.9086 72.3871 41.958C72.5063 42.0074 72.694 42.0306 72.9532 42.0306H79.6598C79.8832 42.0306 80.0501 42.0045 80.1573 41.9493C80.2646 41.8941 80.3868 41.7837 80.5208 41.6211H80.8932C80.8932 42.3007 80.9499 43.2911 81.0631 44.5864H81.0601Z" fill="#041E42"/>
<path d="M86.703 52.7358H82.1088V52.2595C82.7941 52.2043 83.2172 52.0968 83.3751 51.9371C83.533 51.7773 83.6104 51.3533 83.6104 50.6621V44.1098C83.6104 43.4186 83.533 42.9917 83.3751 42.8348C83.2172 42.6751 82.7941 42.5676 82.1088 42.5124V42.0361H86.703V42.5124C86.0148 42.5676 85.5947 42.6751 85.4368 42.8348C85.2789 42.9946 85.2014 43.4186 85.2014 44.1098V50.6621C85.2014 51.3533 85.2789 51.7802 85.4368 51.9371C85.5947 52.0968 86.0178 52.2043 86.703 52.2595V52.7358Z" fill="#041E42"/>
<path d="M93.6271 41.7866C95.1257 41.7866 96.4128 42.2978 97.4883 43.3172C98.5639 44.3396 99.1002 45.6494 99.1002 47.2526C99.1002 48.9865 98.555 50.3748 97.4615 51.4175C96.3681 52.4601 95.0244 52.9829 93.4245 52.9829C91.8245 52.9829 90.5434 52.4601 89.4798 51.4117C88.4161 50.3632 87.8828 49.0533 87.8828 47.485C87.8828 45.9166 88.4072 44.6009 89.453 43.477C90.4987 42.353 91.8901 41.7895 93.6241 41.7895L93.6271 41.7866ZM93.2546 42.3965C92.2863 42.3965 91.464 42.809 90.7877 43.6309C90.1114 44.4528 89.7747 45.5971 89.7747 47.0551C89.7747 48.5131 90.1501 49.8491 90.8979 50.8598C91.6458 51.8705 92.6081 52.3759 93.779 52.3759C94.7473 52.3759 95.5607 51.9693 96.2191 51.1561C96.8776 50.3428 97.2083 49.1898 97.2083 47.697C97.2083 46.027 96.8359 44.7287 96.094 43.7935C95.3521 42.8612 94.4047 42.3936 93.2576 42.3936L93.2546 42.3965Z" fill="#041E42"/>
<path d="M111.822 42.0334V42.5098C111.339 42.533 110.991 42.6143 110.782 42.7566C110.574 42.899 110.449 43.1458 110.401 43.4972C110.332 44.1769 110.3 45.1004 110.3 46.2622V52.8986H109.725L102.562 44.3366H102.529V48.3882C102.529 49.5964 102.562 50.5171 102.631 51.156C102.675 51.5626 102.809 51.8385 103.036 51.9867C103.262 52.1348 103.671 52.2248 104.269 52.2597V52.736H100.232V52.2597C100.739 52.2277 101.099 52.1377 101.314 51.9867C101.528 51.8385 101.656 51.5713 101.701 51.188C101.779 50.398 101.82 49.4657 101.82 48.3882V44.7984C101.82 44.2175 101.802 43.8371 101.77 43.6628C101.737 43.4885 101.642 43.3056 101.484 43.1197C101.201 42.7683 100.706 42.5649 99.9969 42.5098V42.0334H102.598L109.54 50.1017H109.591V46.2651C109.591 45.1905 109.552 44.2785 109.471 43.5321C109.427 43.1691 109.29 42.9164 109.057 42.7741C108.825 42.6317 108.414 42.5446 107.815 42.5098V42.0334H111.819H111.822Z" fill="#041E42"/>
<path d="M122.971 52.7358H118.698V52.2594C119.229 52.1926 119.551 52.1026 119.67 51.9864C119.789 51.8703 119.786 51.6495 119.661 51.3184C119.515 50.8683 119.223 50.0667 118.782 48.9136H115.233C115.064 49.3754 114.822 50.055 114.507 50.9554C114.337 51.4607 114.316 51.786 114.438 51.9342C114.563 52.0823 114.939 52.1897 115.57 52.2565V52.7329H111.87V52.2565C112.433 52.181 112.817 52.0503 113.026 51.8703C113.234 51.6902 113.479 51.2516 113.762 50.5604L117.259 41.949L117.849 41.7834C119.64 46.625 120.727 49.5497 121.109 50.5604C121.38 51.2633 121.615 51.7076 121.818 51.8935C122.021 52.0794 122.402 52.2014 122.968 52.2565V52.7329L122.971 52.7358ZM118.529 48.1759L117.093 44.0924H117.042C116.446 45.6637 115.934 47.0229 115.505 48.1759H118.529Z" fill="#041E42"/>
<path d="M131.704 50.003L132.21 50.1018C132.019 51.1677 131.817 52.0448 131.602 52.736H123.85V52.2597C124.571 52.2045 125.012 52.0942 125.176 51.9315C125.34 51.766 125.42 51.339 125.42 50.6478V44.1101C125.42 43.7267 125.408 43.445 125.387 43.2707C125.363 43.0965 125.298 42.9484 125.185 42.8264C125.071 42.7044 124.931 42.6289 124.762 42.5969C124.592 42.565 124.324 42.5359 123.951 42.5156V42.0393H128.495V42.5156C128.012 42.5476 127.678 42.5998 127.5 42.6725C127.318 42.7451 127.193 42.8787 127.118 43.0762C127.044 43.2736 127.008 43.6193 127.008 44.113V50.6013C127.008 51.0399 127.035 51.3565 127.091 51.5482C127.148 51.7398 127.249 51.8734 127.395 51.9519C127.643 52.0826 128.161 52.1494 128.951 52.1494C129.886 52.1494 130.506 51.978 130.81 51.6382C131.158 51.2664 131.456 50.7204 131.704 50.0089V50.003Z" fill="#041E42"/>
<path d="M143.222 44.4701L142.697 44.5514C142.519 43.8921 142.262 43.3635 141.938 42.9627C141.61 42.5619 141.121 42.3615 140.469 42.3615C139.882 42.3615 139.432 42.5329 139.116 42.8814C138.8 43.227 138.643 43.6481 138.643 44.1419C138.643 44.6792 138.809 45.1177 139.14 45.4605C139.471 45.8003 140.016 46.1575 140.77 46.5322C141.232 46.7616 141.592 46.9562 141.851 47.1072C142.111 47.2612 142.405 47.4732 142.739 47.7404C143.07 48.0105 143.317 48.3154 143.475 48.6611C143.633 49.0067 143.71 49.3929 143.71 49.8228C143.71 50.7231 143.356 51.4754 142.647 52.0795C141.938 52.6836 141.02 52.9856 139.894 52.9856C139.319 52.9856 138.768 52.9043 138.237 52.7388C138.035 52.672 137.743 52.5587 137.358 52.3931C137.224 52.0214 137.072 51.153 136.903 49.7908L137.409 49.6601C137.487 49.9564 137.594 50.2439 137.731 50.5257C137.865 50.8045 138.044 51.0949 138.264 51.3911C138.485 51.6874 138.762 51.9255 139.101 52.1085C139.438 52.2886 139.81 52.3815 140.216 52.3815C140.823 52.3815 141.303 52.2073 141.652 51.8616C142 51.516 142.176 51.0455 142.176 50.453C142.176 49.9157 142 49.4743 141.652 49.1287C141.303 48.783 140.761 48.4171 140.031 48.0337C139.694 47.8594 139.435 47.72 139.253 47.6213C139.072 47.5225 138.83 47.3628 138.526 47.145C138.222 46.9242 137.99 46.718 137.832 46.5205C137.674 46.323 137.531 46.0704 137.4 45.7625C137.272 45.4546 137.206 45.1265 137.206 44.775C137.206 43.9299 137.531 43.2212 138.178 42.6519C138.824 42.0827 139.685 41.7952 140.755 41.7952C141.318 41.7952 142.039 41.92 142.918 42.1727C142.942 42.3818 142.989 42.742 143.061 43.2502C143.135 43.7614 143.186 44.1709 143.222 44.4759V44.4701Z" fill="#041E42"/>
<path d="M154.725 49.8227L155.214 50.0028C154.91 51.057 154.594 51.908 154.269 52.5557C152.908 52.8403 151.865 52.9826 151.144 52.9826C150.119 52.9826 149.207 52.8229 148.406 52.5063C147.605 52.1897 146.967 51.7657 146.49 51.2371C146.014 50.7085 145.65 50.1306 145.409 49.5003C145.167 48.8701 145.045 48.2137 145.045 47.5312C145.045 45.8176 145.653 44.4322 146.869 43.3721C148.084 42.312 149.657 41.7834 151.582 41.7834C151.898 41.7834 152.229 41.8038 152.577 41.8415C152.926 41.8793 153.203 41.92 153.405 41.9664C153.608 42.0129 153.849 42.0652 154.132 42.132C154.412 42.1988 154.567 42.2307 154.588 42.2307C154.746 43.3082 154.859 44.1476 154.925 44.7488L154.4 44.865C154.174 43.9966 153.799 43.3692 153.268 42.98C152.738 42.5909 152.035 42.3963 151.156 42.3963C149.839 42.3963 148.802 42.8668 148.048 43.8049C147.295 44.743 146.916 45.8757 146.916 47.2059C146.916 48.7307 147.324 49.9737 148.141 50.9263C148.957 51.8819 149.997 52.3582 151.257 52.3582C152.056 52.3582 152.717 52.152 153.242 51.7396C153.766 51.3272 154.257 50.6882 154.719 49.8198L154.725 49.8227Z" fill="#041E42"/>
<path d="M167.951 42.0334V42.5098C167.254 42.5649 166.827 42.6724 166.676 42.8321C166.524 42.9919 166.446 43.4101 166.446 44.0926V50.6797C166.446 51.3593 166.521 51.7805 166.676 51.9402C166.827 52.0999 167.248 52.2074 167.933 52.2626V52.7389H163.303V52.2626C164.024 52.2074 164.462 52.0999 164.62 51.9402C164.778 51.7805 164.855 51.3622 164.855 50.6797V47.4355H159.313V50.6797C159.313 51.3593 159.391 51.7805 159.543 51.9402C159.695 52.0999 160.115 52.2074 160.8 52.2626V52.7389H156.257V52.2626C156.933 52.2074 157.347 52.0999 157.499 51.9402C157.651 51.7805 157.728 51.3622 157.728 50.6797V44.0926C157.728 43.413 157.654 42.9919 157.499 42.8321C157.347 42.6724 156.921 42.5649 156.224 42.5098V42.0334H160.717V42.5098C160.076 42.5649 159.68 42.6724 159.534 42.8321C159.388 42.9919 159.313 43.4101 159.313 44.0926V46.7095H164.855V44.0926C164.855 43.413 164.781 42.9919 164.635 42.8321C164.489 42.6724 164.083 42.5649 163.419 42.5098V42.0334H167.945H167.951Z" fill="#041E42"/>
<path d="M174.86 41.7866C176.358 41.7866 177.646 42.2978 178.721 43.3172C179.797 44.3396 180.333 45.6494 180.333 47.2526C180.333 48.9865 179.788 50.3748 178.694 51.4175C177.601 52.4601 176.257 52.9829 174.657 52.9829C173.057 52.9829 171.776 52.4601 170.713 51.4117C169.649 50.3632 169.116 49.0533 169.116 47.485C169.116 45.9166 169.64 44.6009 170.686 43.477C171.731 42.353 173.123 41.7895 174.857 41.7895L174.86 41.7866ZM174.487 42.3965C173.519 42.3965 172.697 42.809 172.02 43.6309C171.344 44.4528 171.008 45.5971 171.008 47.0551C171.008 48.5131 171.383 49.8491 172.131 50.8598C172.879 51.8705 173.841 52.3759 175.012 52.3759C175.98 52.3759 176.793 51.9693 177.452 51.1561C178.11 50.3428 178.441 49.1898 178.441 47.697C178.441 46.027 178.069 44.7287 177.327 43.7935C176.585 42.8612 175.637 42.3936 174.49 42.3936L174.487 42.3965Z" fill="#041E42"/>
<path d="M187.832 41.7866C189.331 41.7866 190.618 42.2978 191.693 43.3172C192.769 44.3396 193.305 45.6494 193.305 47.2526C193.305 48.9865 192.76 50.3748 191.667 51.4175C190.573 52.4601 189.229 52.9829 187.629 52.9829C186.03 52.9829 184.748 52.4601 183.685 51.4117C182.621 50.3632 182.088 49.0533 182.088 47.485C182.088 45.9166 182.612 44.6009 183.658 43.477C184.704 42.353 186.095 41.7895 187.829 41.7895L187.832 41.7866ZM187.46 42.3965C186.491 42.3965 185.669 42.809 184.993 43.6309C184.316 44.4528 183.98 45.5971 183.98 47.0551C183.98 48.5131 184.355 49.8491 185.103 50.8598C185.851 51.8705 186.813 52.3759 187.984 52.3759C188.952 52.3759 189.766 51.9693 190.424 51.1561C191.083 50.3428 191.413 49.1898 191.413 47.697C191.413 46.027 191.041 44.7287 190.299 43.7935C189.557 42.8612 188.61 42.3936 187.463 42.3936L187.46 42.3965Z" fill="#041E42"/>
<path d="M202.291 50.003L202.797 50.1018C202.607 51.1677 202.404 52.0448 202.19 52.736H194.437V52.2597C195.158 52.2045 195.599 52.0942 195.763 51.9315C195.927 51.766 196.007 51.339 196.007 50.6478V44.1101C196.007 43.7267 195.995 43.445 195.975 43.2707C195.951 43.0965 195.885 42.9484 195.772 42.8264C195.659 42.7044 195.519 42.6289 195.349 42.5969C195.179 42.565 194.911 42.5359 194.539 42.5156V42.0393H199.082V42.5156C198.599 42.5476 198.266 42.5998 198.087 42.6725C197.905 42.7451 197.78 42.8787 197.706 43.0762C197.631 43.2736 197.595 43.6193 197.595 44.113V50.6013C197.595 51.0399 197.622 51.3565 197.679 51.5482C197.735 51.7398 197.837 51.8734 197.983 51.9519C198.23 52.0826 198.748 52.1494 199.538 52.1494C200.473 52.1494 201.093 51.978 201.397 51.6382C201.746 51.2664 202.044 50.7204 202.291 50.0089V50.003Z" fill="#041E42"/>
<path d="M201.725 21.5663L203 21.7725C202.547 24.369 202.05 26.5647 201.513 28.3596H180.818V27.1572C182.743 27.0207 183.92 26.7419 184.346 26.3295C184.772 25.9141 184.984 24.8511 184.984 23.1405V6.77736C184.984 4.95343 184.799 3.84396 184.432 3.44316C184.063 3.04236 183.044 2.77516 181.373 2.63575V1.43335H200.494C200.521 1.76445 200.587 2.6706 200.685 4.14601C200.783 5.62433 200.849 6.72218 200.876 7.43955L199.601 7.64576C199.288 6.21101 198.808 5.02313 198.155 4.08212C197.843 3.64066 197.354 3.3357 196.69 3.17015C196.025 3.0046 194.953 2.92038 193.481 2.92038H190.421C189.742 2.92038 189.331 2.99008 189.188 3.12659C189.045 3.266 188.976 3.65228 188.976 4.28543V13.6055H192.802C194.673 13.6055 195.832 13.4399 196.287 13.1088C196.74 12.7778 197.11 11.9064 197.393 10.4978H198.668V18.4935H197.393C197.11 17.0297 196.734 16.1323 196.267 15.8012C195.799 15.4701 194.646 15.3045 192.805 15.3045H188.979V22.9691C188.979 24.7931 189.319 25.9258 189.998 26.3672C190.534 26.6983 191.967 26.8639 194.291 26.8639C195.82 26.8639 196.961 26.768 197.712 26.5734C198.462 26.3817 199.079 26.0216 199.559 25.4959C200.381 24.5288 201.102 23.2189 201.725 21.5605V21.5663Z" fill="#041E42"/>
</svg>
