<svg width="60" height="25" viewBox="0 0 60 25" fill="none" xmlns="http://www.w3.org/2000/svg">
<path id="logo/legacy" d="M24.4678 14.296C24.5146 14.2491 24.5602 14.2034 24.6058 14.1577C24.575 14.3416 24.5368 14.5342 24.4912 14.733C24.4456 14.933 24.4296 15.133 24.4456 15.333C24.4456 15.6552 24.4764 15.9588 24.5368 16.2428C24.5984 16.528 24.6909 16.7699 24.8142 16.9687C24.9362 17.1687 25.0817 17.323 25.2505 17.4304C25.4194 17.5378 25.6117 17.5909 25.8262 17.5909C26.1479 17.5909 26.4549 17.5217 26.747 17.3835C27.0379 17.2452 27.314 17.0613 27.5754 16.8304C27.8367 16.6008 28.082 16.3551 28.3113 16.0934C28.4062 15.9848 28.4986 15.8811 28.5886 15.7811C28.6552 15.707 28.7735 15.7848 28.7316 15.8761C28.617 16.128 28.4999 16.381 28.3791 16.6354C28.1843 17.0489 27.9969 17.4588 27.8157 17.8649C27.8083 17.8822 27.796 17.8958 27.7788 17.9044C27.4484 18.0847 27.1045 18.2896 26.7445 18.513C26.376 18.7439 26.0111 18.9784 25.6512 19.2167C25.2912 19.455 24.9411 19.7006 24.6034 19.9537C24.2669 20.208 23.9402 20.4648 23.6259 20.7265C23.3115 20.987 23.0243 21.2487 22.763 21.5092C22.5017 21.7709 22.2798 22.0277 22.0949 22.282C21.9112 22.5351 21.7657 22.7894 21.6585 23.0424C21.5513 23.2955 21.497 23.5375 21.497 23.7683C21.497 23.8918 21.5118 24.0251 21.5426 24.172C21.5735 24.3177 21.6314 24.4485 21.7152 24.5633C21.8003 24.6794 21.9223 24.7744 22.0838 24.8522C22.2453 24.9288 22.4487 24.967 22.694 24.967C23.0157 24.9818 23.346 24.9016 23.6838 24.7251C24.0216 24.5485 24.3507 24.314 24.6736 24.0214C24.9954 23.7301 25.3134 23.3955 25.6277 23.019C25.9421 22.6425 26.2453 22.2511 26.5375 21.8437C26.8284 21.4363 27.0971 21.029 27.3424 20.6228C27.5877 20.2154 27.8108 19.8389 28.0105 19.4932C28.2102 19.1476 28.3704 18.8513 28.4937 18.6056C28.6071 18.3785 28.6885 18.2081 28.7353 18.0995C28.7427 18.0834 28.755 18.0699 28.7711 18.0612C29.2235 17.8192 29.6598 17.5501 30.0814 17.2575C30.5116 16.9576 30.9135 16.6428 31.2894 16.3119C31.6654 15.9823 32.0069 15.6478 32.3138 15.3095L33.3492 14.1577C33.3184 14.3416 33.2802 14.5293 33.2346 14.7219C33.189 14.9132 33.1656 15.107 33.1656 15.3058C33.1656 15.3083 33.1656 15.3107 33.1656 15.3132C33.1804 15.5885 33.2112 15.8638 33.258 16.1391C33.3036 16.4156 33.3801 16.6662 33.4873 16.8884C33.5945 17.1106 33.7326 17.2884 33.9015 17.418C34.0704 17.5489 34.2774 17.6143 34.5228 17.6143C34.8149 17.6143 35.1021 17.5526 35.3869 17.4304C35.6704 17.3069 35.9354 17.1452 36.1807 16.9465C36.426 16.7465 36.6602 16.523 36.8821 16.2773C37.0325 16.1119 37.173 15.9502 37.3049 15.7922C37.3604 15.7255 37.4689 15.7737 37.4565 15.8601C37.4491 15.9119 37.4417 15.9626 37.4331 16.0119C37.4109 16.1564 37.3912 16.3045 37.3764 16.4564C37.3764 16.4601 37.3764 16.465 37.3764 16.4687C37.3764 16.6354 37.3949 16.7909 37.4331 16.9341C37.4713 17.081 37.533 17.2032 37.618 17.3032C37.7018 17.4032 37.8017 17.4761 37.9163 17.5217C38.0322 17.5686 38.1665 17.5909 38.3194 17.5909C38.5031 17.5909 38.6991 17.5526 38.9062 17.4761C39.1132 17.3995 39.324 17.2958 39.5398 17.165C39.7542 17.0341 39.965 16.8773 40.1721 16.6921C40.3792 16.5082 40.5826 16.3243 40.7823 16.1391C40.982 15.9551 41.1694 15.7675 41.3456 15.5749C41.5219 15.3823 41.6797 15.2095 41.8177 15.0564L42.566 14.3071C42.6042 14.2528 42.6461 14.196 42.693 14.1342C42.6461 14.3182 42.6153 14.4873 42.6005 14.6416C42.5845 14.7935 42.5697 14.9527 42.5549 15.1206C42.5549 15.1243 42.5549 15.1268 42.5549 15.1305C42.5549 15.5132 42.6042 15.8564 42.704 16.1625C42.8039 16.4699 42.942 16.7354 43.1182 16.9576C43.2945 17.1798 43.5016 17.3464 43.7395 17.4526C43.9774 17.56 44.2338 17.6143 44.5099 17.6143C44.7404 17.6143 44.9783 17.5798 45.2236 17.5106C45.4689 17.4415 45.7155 17.3415 45.9608 17.2106C46.2061 17.081 46.444 16.9304 46.6745 16.7613C46.9038 16.5921 47.1232 16.4156 47.3303 16.2317C47.5374 16.0465 47.7321 15.8589 47.917 15.6663C48.1007 15.4749 48.2696 15.2897 48.4224 15.1132C48.5765 14.9367 48.7072 14.7799 48.8144 14.6416L49.0215 14.5034C49.0671 14.4725 49.1054 14.4416 49.1362 14.4108C49.2742 14.2725 49.416 14.1194 49.5627 13.9491C49.7081 13.7812 49.861 13.6083 50.0225 13.4306C50.1839 13.2553 50.3442 13.0738 50.5057 12.8899C50.6672 12.7047 50.8286 12.5319 50.9889 12.3714C51.1504 12.2097 51.3118 12.0566 51.4721 11.9097C51.6336 11.764 51.7864 11.6368 51.9331 11.5294C52.0786 11.422 52.2203 11.3332 52.3584 11.264C52.4965 11.1949 52.6197 11.1603 52.727 11.1603C52.7726 11.1603 52.8194 11.1764 52.865 11.2072C52.9106 11.2381 52.9488 11.2727 52.9797 11.3109C53.0105 11.3492 53.024 11.3653 53.0388 11.4109C53.0549 11.4578 53.0561 11.522 53.0265 11.5529C52.8884 11.9368 52.7072 12.3059 52.4854 12.659C52.2622 13.0121 52.0404 13.3652 51.8172 13.7195C51.5954 14.0725 51.392 14.4305 51.2083 14.791C51.0234 15.1515 50.8927 15.5329 50.8163 15.9317C50.7855 16.086 50.7892 16.2514 50.8286 16.428C50.8668 16.6045 50.9359 16.765 51.0357 16.9119C51.1343 17.0576 51.2502 17.1847 51.3809 17.2921C51.5103 17.3995 51.6533 17.4526 51.8062 17.4526C51.9294 17.4526 52.0675 17.4267 52.2203 17.3724C52.3744 17.318 52.531 17.2452 52.6924 17.1538C52.8539 17.0613 53.0216 16.9502 53.1991 16.8193C53.3754 16.6884 53.5516 16.5502 53.7279 16.4045C53.9042 16.2588 54.0841 16.1008 54.269 15.9317C54.4527 15.7626 54.629 15.5897 54.7979 15.4132C54.9667 15.2367 55.1319 15.0638 55.2934 14.8947C55.4537 14.7256 55.604 14.5639 55.7421 14.4108C55.4352 14.9947 55.1356 15.5823 54.8447 16.1737C54.5563 16.7563 54.2703 17.3366 53.9818 17.9118C53.9732 17.9279 53.9609 17.9402 53.9461 17.9489C53.6613 18.1007 53.3544 18.2723 53.0265 18.4674C52.6888 18.6661 52.3399 18.8785 51.9787 19.1007C51.6188 19.3241 51.2613 19.5624 50.9088 19.8154C50.5562 20.0685 50.2148 20.3265 49.8844 20.5882C49.554 20.8487 49.252 21.1178 48.9759 21.3944C48.6998 21.6709 48.457 21.9437 48.2499 22.2128C48.0428 22.4807 47.8862 22.7511 47.779 23.019C47.6717 23.2881 47.6249 23.5535 47.6409 23.814C47.6557 24.0449 47.7063 24.2374 47.7901 24.3905C47.8751 24.5436 47.9787 24.6633 48.1007 24.7485C48.224 24.8325 48.3584 24.8893 48.5038 24.9214C48.6493 24.9522 48.791 24.9596 48.9291 24.9436C49.2052 24.9288 49.4936 24.8485 49.792 24.7016C50.0915 24.5559 50.3873 24.3597 50.6782 24.114C50.9704 23.8683 51.2613 23.5844 51.5535 23.2609C51.8444 22.9387 52.1242 22.5968 52.3929 22.2363C52.6616 21.8746 52.918 21.5018 53.1646 21.1178C53.4099 20.7339 53.6441 20.3574 53.866 19.9883C54.0891 19.6192 54.2875 19.2698 54.4638 18.9402C54.6364 18.618 54.7892 18.3291 54.9248 18.0748C54.9322 18.06 54.9446 18.0489 54.9581 18.0415C55.3809 17.8131 55.7877 17.5612 56.1785 17.281C56.5779 16.9971 56.9575 16.6971 57.3187 16.3823C57.6786 16.0675 58.0164 15.7416 58.3307 15.4033C58.6451 15.0651 58.9335 14.7194 59.1936 14.3663C59.2096 14.3355 59.2059 14.2972 59.1825 14.2503C59.1591 14.2046 59.1246 14.1812 59.079 14.1812C59.0334 14.1812 58.9939 14.2046 58.9643 14.2503C58.9335 14.2972 58.8953 14.3355 58.8484 14.3663C58.5723 14.6577 58.2962 14.9503 58.0201 15.2416C57.744 15.5342 57.4568 15.8144 57.1572 16.0823C56.8577 16.3514 56.5544 16.6094 56.2475 16.8551C56.0342 17.0255 55.8173 17.1859 55.5966 17.3353C55.5214 17.3859 55.4278 17.3008 55.4721 17.2205C55.7248 16.7637 55.9788 16.2959 56.2364 15.8181C56.5507 15.2342 56.8651 14.6577 57.1806 14.0886C57.495 13.5207 57.8056 12.9639 58.1125 12.4183C58.3924 11.9208 58.6722 11.4467 58.952 10.9949C58.9877 10.9369 58.9458 10.8628 58.878 10.8628H57.7033C57.6712 10.8628 57.6429 10.8801 57.6281 10.9073C57.495 11.1554 57.3397 11.4245 57.1572 11.7146C56.9649 12.0232 56.7541 12.3417 56.5248 12.6714C56.2943 13.0022 56.0527 13.3368 55.7988 13.6738C55.5461 14.012 55.2897 14.3392 55.0284 14.654C54.767 14.9688 54.5033 15.2688 54.2345 15.5527C53.9658 15.8379 53.7008 16.0872 53.4407 16.302C53.1794 16.5168 52.9304 16.6971 52.6924 16.844C52.4545 16.9897 52.2364 17.0773 52.0367 17.1082C51.9898 17.1242 51.9405 17.1168 51.8863 17.0859C51.8333 17.0551 51.7827 17.0168 51.7371 16.9699C51.6915 16.9242 51.6607 16.8699 51.6447 16.8094C51.6299 16.7477 51.6299 16.6934 51.6447 16.6477C51.7063 16.4477 51.7914 16.2477 51.8986 16.0477C52.0058 15.849 52.1168 15.649 52.2314 15.449C52.3473 15.2502 52.4693 15.054 52.6 14.8614C52.7307 14.6688 52.8576 14.4774 52.9797 14.2849C53.1029 14.0935 53.2176 13.9009 53.3248 13.7083C53.4321 13.517 53.5282 13.3256 53.6133 13.1331C53.6971 12.9405 53.7624 12.7528 53.808 12.5677C53.8549 12.3837 53.8771 12.1911 53.8771 11.9911C53.8771 11.8689 53.8549 11.7344 53.808 11.5887C53.7624 11.443 53.6971 11.3085 53.6133 11.185C53.5282 11.0616 53.421 10.9665 53.2903 10.8974C53.1621 10.8295 53.0154 10.7949 52.849 10.7937C52.8441 10.7937 52.8391 10.7937 52.8342 10.7937C52.6986 10.8085 52.5519 10.8468 52.3929 10.9073C52.2314 10.969 52.0675 11.0566 51.8986 11.1727C51.7297 11.2875 51.5535 11.422 51.3686 11.5751C51.1849 11.7294 51.0012 11.8986 50.8163 12.0825C50.6326 12.2677 50.4477 12.4553 50.2641 12.6479C50.0804 12.8393 49.9004 13.0355 49.7229 13.2355C49.5466 13.4355 49.3741 13.6355 49.2052 13.8343C49.114 13.9429 49.0289 14.0503 48.9513 14.154L48.3312 14.733C48.1932 14.8873 48.0428 15.0478 47.8825 15.2169C47.7211 15.3873 47.5522 15.5552 47.3759 15.7243C47.1996 15.8934 47.0197 16.0551 46.8348 16.2082C46.6511 16.3625 46.4662 16.5082 46.2825 16.6465C46.0988 16.7847 45.9139 16.9032 45.7303 17.0032C45.5466 17.1032 45.3654 17.1798 45.1891 17.2341C45.0129 17.2884 44.8403 17.3143 44.6714 17.3143C44.5494 17.3143 44.4298 17.2921 44.3152 17.2452C44.1993 17.1995 44.0957 17.1304 44.0045 17.0378C43.9121 16.9465 43.8393 16.8267 43.7851 16.681C43.7321 16.5354 43.705 16.3625 43.705 16.1625C43.705 15.9169 43.7358 15.6515 43.7974 15.3675C43.8578 15.0823 43.9466 14.7984 44.0612 14.5145C44.1771 14.2305 44.3152 13.954 44.4754 13.6849C44.6369 13.4158 44.8132 13.1578 45.0055 12.9121C45.1978 12.6664 45.3925 12.4368 45.5922 12.2208C45.7919 12.006 45.9953 11.822 46.2024 11.6677C46.4095 11.5146 46.6166 11.3949 46.8237 11.3109C47.0308 11.227 47.2181 11.1838 47.387 11.1838C47.4486 11.1838 47.5103 11.1949 47.5719 11.2183C47.6323 11.2418 47.6902 11.2677 47.7445 11.2986C47.7975 11.3307 47.8394 11.3714 47.8702 11.4257C47.901 11.4801 47.917 11.5381 47.917 11.5986C47.917 11.6443 47.8973 11.6912 47.8591 11.7368C47.8209 11.7825 47.779 11.8257 47.7321 11.864C47.6865 11.9023 47.6409 11.9368 47.5941 11.9677C47.5485 11.9986 47.5103 12.0368 47.4795 12.0825C47.4178 12.1603 47.3525 12.2368 47.2835 12.3134C47.2144 12.3899 47.1799 12.4751 47.1799 12.5664C47.1799 12.6578 47.1996 12.7479 47.2378 12.8318C47.2761 12.9158 47.3303 12.9812 47.3993 13.0281C47.4684 13.0738 47.5485 13.1121 47.6409 13.1429C47.7321 13.1738 47.8172 13.1812 47.8936 13.1664C48.0169 13.1664 48.1278 13.1355 48.2277 13.0738C48.3275 13.0121 48.4151 12.9318 48.4915 12.8318C48.5691 12.7319 48.6258 12.617 48.6653 12.4862C48.7023 12.3578 48.7281 12.2343 48.7442 12.1134C48.7442 12.1084 48.7442 12.1023 48.7442 12.0973C48.7442 11.8702 48.701 11.6813 48.6172 11.5294C48.5334 11.3764 48.4138 11.2492 48.261 11.1492C48.1069 11.0492 47.9429 10.9764 47.7654 10.9307C47.5892 10.8838 47.4166 10.8616 47.2477 10.8616C46.9716 10.8616 46.6955 10.8998 46.4193 10.9764C46.1432 11.0529 45.8708 11.1603 45.6021 11.2986C45.3346 11.4369 45.0659 11.5949 44.7971 11.7714C44.5284 11.9479 44.2757 12.1368 44.0378 12.3368C43.7999 12.5356 43.5731 12.7356 43.3586 12.9355C43.1441 13.1355 42.9481 13.3306 42.7718 13.5232C42.5956 13.7158 42.4489 13.8886 42.3342 14.0417L41.6439 14.7219C41.4985 14.8836 41.3444 15.0478 41.1842 15.2169C41.0227 15.3873 40.8575 15.5552 40.6886 15.7243C40.5197 15.8934 40.3509 16.0514 40.182 16.1971C40.0143 16.3428 39.8529 16.481 39.6988 16.6119C39.5459 16.7428 39.3968 16.8539 39.2501 16.9465C39.1046 17.0378 38.974 17.1069 38.8593 17.1538C38.7447 17.1995 38.6411 17.223 38.5487 17.223C38.5179 17.223 38.487 17.2193 38.4562 17.2106C38.4254 17.2032 38.3946 17.1921 38.3638 17.1761C38.3342 17.1613 38.3071 17.1304 38.2837 17.0847C38.2602 17.0378 38.2491 16.9773 38.2491 16.8995C38.2491 16.7613 38.2837 16.6008 38.3527 16.4156C38.4217 16.2317 38.5179 16.028 38.6411 15.8045C38.7632 15.5823 38.9049 15.3404 39.0664 15.0786C39.2279 14.8182 39.4005 14.549 39.5841 14.2725C39.7678 13.996 39.9564 13.712 40.1475 13.4195C40.3398 13.1281 40.5321 12.8355 40.7231 12.5442C40.9154 12.2516 41.0991 11.964 41.2754 11.6788C41.4221 11.4418 41.5614 11.2134 41.6932 10.9924C41.7278 10.9344 41.6859 10.8616 41.6181 10.8616H40.2979C40.2683 10.8616 40.2412 10.8764 40.2251 10.8998L39.451 12.064C39.4017 12.1381 39.2834 12.0998 39.2908 12.0109C39.3018 11.8788 39.2932 11.7603 39.2624 11.6566C39.2008 11.4492 39.1009 11.2838 38.9629 11.1603C38.8248 11.0381 38.6596 10.9566 38.4673 10.9184C38.2763 10.8801 38.0963 10.8616 37.9274 10.8616C37.6353 10.8764 37.3517 10.927 37.0756 11.011C36.7995 11.0949 36.5271 11.2035 36.2584 11.3332C35.9896 11.464 35.7295 11.6146 35.4756 11.7825C35.2229 11.9529 34.9813 12.1294 34.7508 12.3134C34.5203 12.4973 34.3058 12.6862 34.1061 12.8775C33.9076 13.0701 33.7227 13.2578 33.5539 13.4429C33.385 13.6269 33.2358 13.7997 33.1052 13.9614L31.9428 15.1823C31.6358 15.4823 31.3252 15.7749 31.0108 16.0588C30.6965 16.3428 30.3822 16.6082 30.0678 16.8539C29.8595 17.0168 29.6598 17.1699 29.4675 17.3119C29.3948 17.3662 29.2974 17.2847 29.3381 17.2032C29.5551 16.7687 29.7868 16.3292 30.0333 15.8848C30.3403 15.3317 30.6509 14.775 30.9652 14.2133C31.2796 13.6528 31.6013 13.0923 31.9317 12.5306C32.2361 12.0134 32.5307 11.4998 32.8155 10.99C32.8475 10.9319 32.8056 10.8603 32.7391 10.8603H31.621C31.5927 10.8603 31.5656 10.8739 31.5495 10.8974L30.5165 12.3813C30.5165 12.2887 30.5202 12.201 30.5276 12.1158C30.535 12.0319 30.5387 11.943 30.5387 11.8504C30.5239 11.6825 30.4746 11.5319 30.3896 11.4011C30.3058 11.2714 30.1985 11.1677 30.0678 11.09C29.9372 11.0134 29.7954 10.9554 29.6413 10.9171C29.4885 10.8789 29.343 10.8603 29.205 10.8603C28.9584 10.8603 28.7094 10.8912 28.4567 10.9517C28.2028 11.0134 27.9501 11.106 27.6974 11.2282C27.4435 11.3517 27.1945 11.4899 26.9492 11.643C26.7039 11.7973 26.4623 11.9665 26.2244 12.1504C25.9864 12.3356 25.7596 12.5269 25.5451 12.7269C25.3294 12.9269 25.1273 13.122 24.935 13.3145C24.7427 13.5071 24.5701 13.6985 24.4172 13.8911L24.0006 14.3194C23.8638 14.4873 23.7146 14.6552 23.5544 14.8243C23.3929 14.9935 23.2326 15.1626 23.0712 15.3317C22.9097 15.5008 22.7408 15.665 22.5645 15.8268C22.3883 15.9885 22.212 16.1416 22.0357 16.2885C21.8594 16.4341 21.6782 16.5687 21.4946 16.6909C21.3109 16.8144 21.1334 16.9218 20.9657 17.0143C20.7956 17.1057 20.628 17.1748 20.4591 17.2217C20.2902 17.2674 20.1288 17.2909 19.9759 17.2909C19.8687 17.2909 19.7565 17.2711 19.6418 17.2329C19.5272 17.1946 19.4237 17.1292 19.3312 17.0366C19.2388 16.9452 19.166 16.8329 19.113 16.7033C19.0588 16.5724 19.0317 16.407 19.0317 16.207C19.0169 16.0539 19.0243 15.8996 19.0551 15.7465C19.0822 15.6107 19.1093 15.4601 19.1364 15.2996C19.1426 15.2638 19.1697 15.2342 19.2055 15.228C19.4323 15.1836 19.6702 15.1256 19.9167 15.0552C20.1855 14.9774 20.4542 14.8898 20.7229 14.7898C20.9904 14.6898 21.2517 14.5824 21.5044 14.4676C21.7584 14.3515 22.0037 14.2256 22.2416 14.0861C22.4795 13.9478 22.694 13.7985 22.8863 13.6367C23.0773 13.4763 23.2462 13.3071 23.3917 13.1306C23.5383 12.9541 23.653 12.7689 23.7368 12.5775C23.8219 12.385 23.8638 12.1813 23.8638 11.9665C23.8638 11.8282 23.8367 11.6899 23.7836 11.5517C23.7294 11.4134 23.6493 11.2949 23.542 11.1937C23.4348 11.0937 23.2967 11.0134 23.1279 10.9517C22.9577 10.8912 22.7667 10.8603 22.5522 10.8603C22.2601 10.8443 21.9691 10.8752 21.677 10.9517C21.3861 11.0295 21.1026 11.1369 20.8264 11.2751C20.5491 11.4134 20.2767 11.5739 20.0092 11.7591C19.7405 11.943 19.4915 12.1356 19.2609 12.3356C19.0304 12.5343 18.8122 12.738 18.6052 12.9454C18.3981 13.1528 18.2132 13.3491 18.0529 13.533C17.8914 13.7182 17.7571 13.8873 17.6498 14.0404L17.5377 14.1836C17.2295 14.4923 16.9423 14.7836 16.6748 15.0601C16.4061 15.3367 16.1102 15.5823 15.7885 15.7971C15.4655 16.0132 15.1056 16.1897 14.7062 16.328C14.3068 16.4662 13.8322 16.5502 13.28 16.581C12.8954 16.5971 12.5083 16.5736 12.1176 16.5119C11.7256 16.4514 11.3385 16.3662 10.9551 16.2588C10.5718 16.1514 10.1958 16.0366 9.82725 15.9132C9.51908 15.8095 9.21584 15.7231 8.91876 15.6527C8.8485 15.6366 8.83001 15.5478 8.88548 15.5021C9.18502 15.2601 9.46854 15.0132 9.73479 14.7601C10.0417 14.4688 10.3339 14.1688 10.61 13.8614C10.8861 13.554 11.1388 13.2429 11.3693 12.9281C11.5998 12.6133 11.818 12.2985 12.0251 11.9825C12.2322 11.6677 12.4245 11.3566 12.6008 11.0492C12.777 10.7418 12.9422 10.4468 13.0951 10.1616C13.2479 9.87768 13.3909 9.60485 13.5216 9.34437C13.6461 9.09377 13.7681 8.85674 13.8865 8.63453C13.8963 8.61601 13.9123 8.60243 13.9308 8.59503C14.456 8.39874 14.9638 8.1827 15.4544 7.94938C15.9524 7.71112 16.4332 7.45434 16.893 7.17782C17.3528 6.90005 17.783 6.61612 18.1811 6.32477C18.5805 6.03343 18.9528 5.73344 19.2979 5.42605C19.6431 5.11866 19.95 4.81127 20.2187 4.50388C20.4862 4.19649 20.7204 3.88909 20.9201 3.5817C21.1198 3.27431 21.2739 2.97433 21.3812 2.68298C21.4884 2.39164 21.5562 2.12128 21.587 1.86204C21.587 1.8571 21.587 1.85093 21.587 1.84599C21.5858 1.71019 21.5513 1.57069 21.4835 1.42749C21.4144 1.28182 21.322 1.14726 21.2073 1.02504C21.0915 0.901593 20.9657 0.805302 20.8277 0.73617C20.6896 0.667037 20.5516 0.632471 20.4135 0.632471C20.2138 0.64852 20.0104 0.686789 19.8033 0.74728C19.5962 0.809005 19.3854 0.885545 19.1697 0.978133C18.9552 1.07072 18.7408 1.17442 18.5263 1.28923C18.3105 1.40527 18.1035 1.52749 17.9038 1.65834C17.7053 1.7892 17.5167 1.92376 17.3404 2.06203C17.1642 2.20029 17.0027 2.33115 16.8572 2.45337C16.7105 2.57682 16.5848 2.68792 16.4776 2.78792C16.4085 2.85211 16.3506 2.9089 16.3074 2.95704C16.2729 2.99408 16.2162 2.99408 16.1817 2.95704C15.7712 2.50892 15.3238 2.1077 14.843 1.7497C14.3364 1.37317 13.8039 1.05838 13.2442 0.804067C12.6834 0.550994 12.104 0.354708 11.5062 0.216443C10.9169 0.0794131 10.3179 0.0176879 9.72 0.0337364C8.73756 0.0337364 7.87098 0.168297 7.11905 0.436185C6.36711 0.705307 5.74215 1.06702 5.24291 1.52008C4.74491 1.97314 4.36031 2.49657 4.09282 3.0879C3.8241 3.67923 3.68234 4.29772 3.66631 4.94336C3.65152 5.25075 3.67494 5.5495 3.73534 5.84208C3.79698 6.13342 3.89682 6.41489 4.03488 6.68278C4.17294 6.9519 4.34182 7.20497 4.54152 7.44323C4.73998 7.68149 4.96679 7.90494 5.22072 8.11234C5.47342 8.31973 5.75324 8.50367 6.06018 8.66539C6.36711 8.82588 6.69624 8.96538 7.05002 9.08019C7.40256 9.195 7.77114 9.28018 8.1545 9.33326C8.53786 9.38758 8.94465 9.4061 9.37485 9.39128C9.77301 9.37647 10.1798 9.3456 10.594 9.29869C10.9514 9.25919 11.3102 9.22586 11.6676 9.19746C11.7379 9.19129 11.7847 9.26907 11.7478 9.32956C11.4593 9.80608 11.1894 10.2912 10.9391 10.7863C10.663 11.3319 10.3795 11.8776 10.0873 12.4232C9.79643 12.9689 9.4784 13.4948 9.13325 14.0022C8.79549 14.4984 8.39487 14.9638 7.93385 15.4009C7.91413 15.4206 7.88578 15.4292 7.85742 15.4243C7.50364 15.3626 7.14987 15.2762 6.79609 15.1663C6.42752 15.0515 6.05894 14.9441 5.69037 14.8429C5.32303 14.7441 4.95076 14.6626 4.5748 14.6009C4.19883 14.5404 3.82656 14.5244 3.45799 14.5552C3.33595 14.5552 3.20529 14.5663 3.06723 14.5898C2.92917 14.6132 2.79111 14.6404 2.65305 14.67C2.51499 14.7021 2.37323 14.7392 2.22654 14.7861C2.08109 14.8317 1.94672 14.8824 1.82469 14.9354C1.70142 14.9898 1.58308 15.0515 1.46721 15.1206C1.35257 15.1898 1.26012 15.27 1.19109 15.3626C1.12206 15.4539 1.06782 15.5502 1.03084 15.6502C0.991398 15.7502 0.980303 15.8539 0.996328 15.9613C1.01112 16.0996 1.04933 16.2267 1.11097 16.3415C1.17137 16.4564 1.24903 16.565 1.34148 16.6637C1.4327 16.765 1.53994 16.8526 1.66321 16.9292C1.78648 17.0069 1.91591 17.0798 2.05397 17.1489C2.19203 17.218 2.33379 17.2748 2.48047 17.3217C2.62593 17.3674 2.77509 17.402 2.92917 17.4254C3.08202 17.4477 3.23611 17.4711 3.38896 17.4946C3.54304 17.5168 3.6885 17.5291 3.82656 17.5291C4.16432 17.544 4.50207 17.5094 4.83982 17.4254C5.17634 17.3403 5.5067 17.2292 5.82843 17.0909C6.15139 16.9526 6.47682 16.807 6.80718 16.6526C7.12891 16.5033 7.44571 16.3761 7.75881 16.2699C7.77607 16.2638 7.79332 16.2638 7.81058 16.2687C8.20134 16.3749 8.5884 16.5107 8.97053 16.6761C9.36129 16.8452 9.75698 17.002 10.1551 17.1489C10.5545 17.2946 10.9527 17.4057 11.3521 17.4822C11.7515 17.56 12.1496 17.5748 12.549 17.5291C13.0556 17.4674 13.5586 17.344 14.0566 17.16C14.5546 16.9761 15.0427 16.7378 15.5185 16.4452C15.9906 16.1551 16.4467 15.8181 16.8831 15.4367C16.8868 15.4329 16.8905 15.4305 16.893 15.4268L17.9038 14.2281C17.942 14.1775 17.9827 14.1318 18.0246 14.0898C17.9777 14.2602 17.9395 14.433 17.9087 14.6095C17.8779 14.7861 17.8631 14.9589 17.8631 15.128C17.8631 15.4959 17.9124 15.8305 18.0122 16.1304C18.1121 16.4304 18.2501 16.6909 18.4264 16.9144C18.6027 17.1366 18.8147 17.3094 19.06 17.4328C19.3053 17.5551 19.5666 17.6168 19.8428 17.6168C20.0881 17.6168 20.3334 17.5785 20.5787 17.502C20.824 17.4254 21.0742 17.3168 21.3269 17.1785C21.5796 17.0403 21.8249 16.8798 22.0628 16.6946C22.3007 16.5107 22.5312 16.3181 22.7544 16.1193C22.9762 15.9193 23.1796 15.7194 23.3633 15.5194C23.5482 15.3206 24.3211 14.4602 24.4678 14.2984M19.4631 14.3787C19.5469 14.1861 19.6468 13.991 19.7614 13.7911C19.8773 13.5911 20.003 13.3837 20.1411 13.1689C20.2791 12.9528 20.4295 12.7504 20.5898 12.5578C20.7513 12.3652 20.9164 12.185 21.0853 12.0158C21.2542 11.8467 21.4268 11.6973 21.603 11.5665C21.7793 11.4369 21.9556 11.3332 22.1319 11.2554C22.3081 11.1788 22.4807 11.1406 22.6508 11.1406C22.6964 11.1406 22.7494 11.1554 22.8111 11.1863C22.8727 11.2171 22.922 11.2554 22.9614 11.3011C22.9984 11.348 23.0305 11.4023 23.0527 11.4628C23.0761 11.5245 23.0872 11.5936 23.0872 11.6702C23.0872 11.8245 23.0564 11.9813 22.996 12.143C22.9343 12.3047 22.8493 12.4689 22.742 12.638C22.6348 12.8072 22.5041 12.9763 22.3513 13.1454C22.1972 13.3145 22.0283 13.4763 21.8446 13.6293C21.661 13.7836 21.465 13.9293 21.2579 14.0676C21.0508 14.2058 20.8351 14.3293 20.6132 14.4367C20.3913 14.5441 20.1682 14.6355 19.9463 14.7132C19.7713 14.7737 19.5938 14.8243 19.4138 14.8663C19.3485 14.8811 19.2918 14.8169 19.3139 14.754C19.3546 14.6392 19.4039 14.5132 19.4631 14.3787ZM16.1595 4.26438C16.1916 4.21253 16.2643 4.2076 16.3025 4.25574C16.3974 4.37549 16.4911 4.49153 16.5811 4.60634C16.697 4.75325 16.8079 4.90262 16.9152 5.0557C16.946 5.0878 16.9694 5.12607 16.9842 5.17174C16.999 5.21742 17.0187 5.26063 17.0421 5.2989C17.0643 5.33717 17.0877 5.37173 17.1111 5.4026C17.1333 5.43346 17.1605 5.44087 17.1913 5.42482C17.2369 5.41 17.264 5.38285 17.2714 5.34458C17.28 5.30631 17.2837 5.26063 17.2837 5.20631C17.2837 5.15199 17.2714 5.10261 17.2492 5.0557C17.2258 5.01003 17.2061 4.96435 17.1913 4.91744C17.0988 4.71868 16.9805 4.53474 16.835 4.36438C16.7031 4.21253 16.5823 4.05452 16.4702 3.89156C16.448 3.85823 16.4504 3.81379 16.4763 3.78293C16.7376 3.47924 17.0076 3.18913 17.2837 2.9126C17.5746 2.62126 17.8705 2.35584 18.17 2.11758C18.4683 1.87932 18.7753 1.67563 19.0896 1.5065C19.4039 1.33737 19.7306 1.22997 20.0683 1.18429C20.1904 1.16948 20.3137 1.1917 20.4369 1.25343C20.559 1.31515 20.6662 1.3954 20.7586 1.49539C20.8511 1.59538 20.9275 1.71019 20.9892 1.84105C21.0496 1.97191 21.0656 2.09042 21.0348 2.19782C20.9423 2.7052 20.7044 3.21999 20.321 3.74219C19.9377 4.26438 19.4384 4.77177 18.8258 5.26433C18.2119 5.75567 17.5019 6.22354 16.697 6.6692C15.9438 7.08646 15.1352 7.45558 14.2674 7.77778C14.1971 7.80371 14.1268 7.73334 14.1552 7.66298C14.2624 7.40126 14.3832 7.14325 14.5213 6.88771C14.6902 6.57291 14.8701 6.26552 15.0624 5.96553C15.2547 5.66555 15.4495 5.3668 15.6492 5.06681C15.8255 4.80139 15.9956 4.53474 16.1595 4.26315V4.26438ZM11.5185 8.37528C11.3114 8.40615 11.1006 8.43701 10.8849 8.46787C10.6704 8.49873 10.4596 8.52219 10.2525 8.537C10.0454 8.55182 9.83464 8.55182 9.61892 8.537C8.79056 8.52219 8.03123 8.42466 7.34093 8.24813C6.65063 8.0716 6.05155 7.82223 5.54615 7.50002C5.03952 7.17658 4.64383 6.78895 4.36031 6.33588C4.07679 5.88282 3.92641 5.37174 3.91162 4.80263C3.91162 4.51129 3.94983 4.22365 4.02625 3.93847C4.10391 3.65454 4.21486 3.37801 4.36031 3.10889C4.50577 2.83977 4.67834 2.58299 4.87804 2.33609C5.07773 2.09042 5.30824 1.86451 5.56834 1.65711C5.82967 1.44971 6.10948 1.26824 6.40902 1.11516C6.70857 0.962084 7.02167 0.831227 7.35203 0.72259C7.68238 0.616423 8.02384 0.542352 8.37638 0.504083C8.72893 0.465813 9.0901 0.46211 9.45867 0.492972C9.74959 0.523835 10.0294 0.554697 10.2981 0.584326C10.5669 0.616423 10.8306 0.658396 11.092 0.71148C11.3533 0.765798 11.606 0.831226 11.8513 0.907766C12.0966 0.984305 12.3468 1.07319 12.5995 1.17318C12.8535 1.27318 13.1025 1.39169 13.3478 1.52996C13.5931 1.66822 13.8458 1.82994 14.1071 2.01388C14.3684 2.19782 14.6285 2.40522 14.8899 2.63607C15.1327 2.85088 15.3817 3.09284 15.6381 3.35949C15.6701 3.39282 15.6701 3.44591 15.6393 3.48047C15.2929 3.85947 14.9688 4.23476 14.6717 4.60634C14.3561 4.99891 14.0529 5.39396 13.762 5.79394C13.471 6.19392 13.1949 6.60007 12.9336 7.01486C12.6797 7.41854 12.4196 7.83581 12.1508 8.26788C12.1361 8.29134 12.1114 8.30615 12.0843 8.30862C11.8994 8.32344 11.7108 8.34566 11.5185 8.37405V8.37528ZM5.18867 17.0526C4.62904 17.2612 4.05707 17.3649 3.47401 17.3649C3.27555 17.3798 3.05983 17.3687 2.83056 17.3304C2.60004 17.2921 2.38186 17.2267 2.17354 17.1341C1.96645 17.0415 1.78648 16.9304 1.63362 16.7995C1.47954 16.6699 1.3649 16.5045 1.28847 16.3045C1.24163 16.1662 1.26505 16.0354 1.3575 15.9119C1.44872 15.7897 1.57199 15.686 1.72484 15.6008C1.87893 15.5169 2.0515 15.4478 2.2438 15.3934C2.4324 15.3416 2.59511 15.307 2.73194 15.291C2.73687 15.291 2.74057 15.291 2.7455 15.291C3.09558 15.291 3.43457 15.3181 3.76369 15.3725C4.09282 15.4255 4.42318 15.4947 4.75354 15.5799C5.08266 15.6638 5.41672 15.7601 5.75447 15.8675C6.03676 15.9576 6.32397 16.0477 6.61735 16.1378C6.68761 16.1588 6.70364 16.2527 6.64323 16.2946C6.18098 16.6144 5.69654 16.8674 5.1899 17.0551L5.18867 17.0526ZM27.0811 19.3574C26.9196 19.6871 26.747 20.0253 26.5621 20.371C26.3784 20.7166 26.1824 21.0623 25.9753 21.408C25.7683 21.7536 25.5575 22.0882 25.343 22.4116C25.1273 22.7338 24.9091 23.0338 24.6872 23.3103C24.4641 23.5869 24.2496 23.8251 24.0425 24.0239C23.8354 24.2239 23.6283 24.3782 23.4212 24.4856C23.2721 24.5633 23.1291 24.6127 22.991 24.6349C22.7827 24.6683 22.5633 24.6152 22.4067 24.4732C22.3722 24.4424 22.3426 24.4078 22.3168 24.3708C22.2625 24.293 22.2206 24.209 22.1898 24.1165C22.159 24.0239 22.1442 23.9325 22.1442 23.8399C22.159 23.5634 22.228 23.2869 22.3513 23.0103C22.4745 22.7338 22.6311 22.461 22.8234 22.1919C23.0145 21.9227 23.2376 21.6623 23.4903 21.408C23.743 21.1549 24.008 20.9092 24.2841 20.671C24.5602 20.4327 24.8487 20.2055 25.147 19.9907C25.4465 19.7759 25.7374 19.5722 26.0222 19.3797C26.3057 19.1883 26.5781 19.0155 26.8395 18.8612C26.9935 18.771 27.1341 18.6859 27.261 18.6056C27.3338 18.5599 27.4213 18.6365 27.3855 18.7143C27.2931 18.9155 27.192 19.1303 27.0811 19.3574ZM28.6922 15.1391C28.4691 15.4243 28.2385 15.6922 28.0006 15.9453C27.7627 16.1996 27.5261 16.4181 27.2882 16.6033C27.049 16.7872 26.8234 16.9366 26.6089 17.0526C26.3932 17.1674 26.1948 17.2254 26.0099 17.2254C25.9186 17.2254 25.8336 17.202 25.7572 17.1563C25.6807 17.1094 25.6191 17.0489 25.5735 16.9711C25.5267 16.8946 25.4921 16.8144 25.4699 16.7292C25.4465 16.6452 25.4354 16.565 25.4354 16.4872C25.4354 16.2724 25.4699 16.0342 25.539 15.7724C25.608 15.512 25.7029 15.2391 25.8262 14.9552C25.9495 14.67 26.0912 14.3824 26.2515 14.0898C26.413 13.7985 26.5892 13.5145 26.7815 13.238C26.9726 12.9615 27.176 12.6998 27.3917 12.4541C27.6062 12.2084 27.8281 11.9973 28.0586 11.8196C28.2891 11.6443 28.5184 11.501 28.7489 11.3936C28.9794 11.2862 29.1963 11.2258 29.4096 11.2097C29.4145 11.2097 29.4195 11.2097 29.4244 11.2097C29.4983 11.2097 29.5797 11.2307 29.6697 11.2665C29.7621 11.3048 29.846 11.3591 29.9224 11.4282C30 11.4973 30.0654 11.5776 30.1184 11.6702C30.1726 11.7628 30.1985 11.8628 30.1985 11.9702C30.2145 12.1541 30.1874 12.3701 30.1184 12.6158C30.0494 12.8615 29.9458 13.122 29.8078 13.3985C29.6697 13.675 29.5045 13.9639 29.3134 14.2639C29.1211 14.5626 28.9141 14.8552 28.6922 15.1391ZM37.6094 14.8392C37.4109 15.1243 37.1952 15.3959 36.9659 15.6576C36.7354 15.9193 36.4975 16.1576 36.2522 16.3724C36.0069 16.5872 35.7567 16.7724 35.504 16.9255C35.2513 17.0785 34.9936 17.1785 34.7335 17.2254C34.6411 17.2403 34.556 17.2217 34.4796 17.1674C34.4032 17.1131 34.3378 17.044 34.2836 16.96C34.2306 16.8761 34.1924 16.7835 34.169 16.6835C34.1455 16.586 34.1345 16.5008 34.1345 16.4243C34.1345 16.4206 34.1345 16.4156 34.1345 16.4119C34.1505 16.2601 34.1887 16.0687 34.2491 15.8416C34.3107 15.612 34.3921 15.3663 34.4907 15.1046C34.5905 14.8429 34.7138 14.5663 34.8593 14.275C35.0047 13.9836 35.1699 13.6985 35.3548 13.4219C35.5385 13.1454 35.7345 12.88 35.9416 12.6269C36.1487 12.3738 36.3705 12.1467 36.6084 11.9467C36.8464 11.748 37.0953 11.5776 37.3567 11.4393C37.6143 11.3035 37.8707 11.2122 38.1283 11.1653C38.1357 11.164 38.1431 11.1628 38.1505 11.1628C38.238 11.1653 38.3305 11.1875 38.4266 11.2319C38.5265 11.2788 38.6152 11.348 38.6917 11.4393C38.7681 11.5319 38.8297 11.6282 38.8753 11.7282C38.9222 11.8282 38.9444 11.9158 38.9444 11.9924C38.9444 12.1319 38.9136 12.301 38.8532 12.4998C38.7915 12.6998 38.6991 12.9269 38.577 13.18C38.4538 13.4331 38.312 13.7022 38.1505 13.9861C37.989 14.2713 37.8091 14.5552 37.6094 14.8392ZM53.1683 19.3105C52.9994 19.6253 52.8268 19.9525 52.6505 20.2907C52.473 20.6277 52.2931 20.9672 52.1094 21.3043C51.9245 21.6425 51.7334 21.9697 51.5337 22.2844C51.334 22.5992 51.1306 22.8955 50.9236 23.1721C50.7165 23.4486 50.502 23.6905 50.2789 23.8979C50.057 24.1053 49.8339 24.2745 49.612 24.4053C49.3938 24.5325 49.1707 24.6127 48.9439 24.6461C48.9365 24.6461 48.9303 24.6473 48.9229 24.6473C48.8502 24.6448 48.7738 24.6214 48.6924 24.5782C48.6086 24.5312 48.5359 24.4658 48.4742 24.3819C48.4126 24.2967 48.3583 24.209 48.3127 24.1165C48.2671 24.0239 48.2511 23.9325 48.2671 23.8399C48.2671 23.6399 48.3053 23.4362 48.3818 23.2288C48.4582 23.0214 48.5667 22.8066 48.7047 22.5844C48.8428 22.361 49.003 22.1351 49.1879 21.9042C49.3716 21.6734 49.5861 21.4388 49.8314 21.2006C50.0779 20.9623 50.3454 20.724 50.6376 20.487C50.9285 20.2475 51.2354 20.0142 51.5584 19.7833C51.8801 19.5525 52.2179 19.3229 52.5704 19.092C52.8354 18.9192 53.1042 18.7501 53.3791 18.5859C53.4542 18.5402 53.5418 18.6241 53.4999 18.7019C53.3938 18.8957 53.2841 19.0994 53.1707 19.3105H53.1683Z" fill="#1F1E20"/>
</svg>
