<svg width="65" height="67" viewBox="0 0 65 67" fill="none" xmlns="http://www.w3.org/2000/svg">
<path d="M5.41675 22.5524C5.41675 11.6712 8.12508 8.95093 18.9584 8.95093H46.0418C56.8751 8.95093 59.5834 11.6712 59.5834 22.5524V44.3149C59.5834 55.1961 56.8751 57.9164 46.0418 57.9164H18.9584C8.12508 57.9164 5.41675 55.1961 5.41675 44.3149V34.5218" stroke="#1F1E20" stroke-width="4" stroke-linecap="round" stroke-linejoin="round"/>
<path d="M37.9167 22.5525H51.4584" stroke="#1F1E20" stroke-width="4" stroke-linecap="round" stroke-linejoin="round"/>
<path d="M40.625 33.4337H51.4583" stroke="#1F1E20" stroke-width="4" stroke-linecap="round" stroke-linejoin="round"/>
<path d="M46.0417 44.3149H51.4584" stroke="#1F1E20" stroke-width="4" stroke-linecap="round" stroke-linejoin="round"/>
<path d="M23.0207 31.5023C25.7281 31.5023 27.9228 29.2978 27.9228 26.5785C27.9228 23.8592 25.7281 21.6548 23.0207 21.6548C20.3134 21.6548 18.1187 23.8592 18.1187 26.5785C18.1187 29.2978 20.3134 31.5023 23.0207 31.5023Z" stroke="#1F1E20" stroke-width="4" stroke-linecap="round" stroke-linejoin="round"/>
<path d="M32.5001 45.2127C32.1209 41.2682 29.0063 38.1671 25.0792 37.8134C23.7251 37.6774 22.3438 37.6774 20.9626 37.8134C17.0355 38.1943 13.9209 41.2682 13.5417 45.2127" stroke="#1F1E20" stroke-width="4" stroke-linecap="round" stroke-linejoin="round"/>
</svg>
