<svg width="65" height="67" viewBox="0 0 65 67" fill="none" xmlns="http://www.w3.org/2000/svg">
<path d="M5.41675 22.5524C5.41675 11.6712 10.8334 6.23059 21.6667 6.23059H32.5001" stroke="#1F1E20" stroke-width="4" stroke-miterlimit="10" stroke-linecap="round" stroke-linejoin="round"/>
<path d="M59.5834 22.5525V36.154C59.5834 47.0352 54.1668 52.4758 43.3334 52.4758H41.9793C41.1397 52.4758 40.3272 52.8839 39.8126 53.564L35.7501 59.0046C33.9626 61.3984 31.0376 61.3984 29.2501 59.0046L25.1876 53.564C24.7542 52.9655 23.7522 52.4758 23.0209 52.4758H21.6667C10.8334 52.4758 5.41675 49.7555 5.41675 36.154V33.4337" stroke="#1F1E20" stroke-width="4" stroke-miterlimit="10" stroke-linecap="round" stroke-linejoin="round"/>
<path d="M48.7499 19.8322C47.3958 19.8322 42.602 17.6559 41.1666 13.3578C40.2729 10.6647 41.3291 7.34597 44.2541 6.42106C45.7708 5.95861 47.6666 6.33945 48.7499 7.78122C49.7791 6.28505 51.7291 5.95861 53.2458 6.42106C56.1708 7.31876 57.227 10.6647 56.3333 13.3578" stroke="#1F1E20" stroke-width="4" stroke-linecap="round" stroke-linejoin="round"/>
<path d="M43.3237 30.7134H43.348" stroke="#1F1E20" stroke-width="4" stroke-linecap="round" stroke-linejoin="round"/>
<path d="M32.4877 30.7134H32.5121" stroke="#1F1E20" stroke-width="4" stroke-linecap="round" stroke-linejoin="round"/>
<path d="M21.6518 30.7134H21.6761" stroke="#1F1E20" stroke-width="4" stroke-linecap="round" stroke-linejoin="round"/>
</svg>
