<?xml version="1.0" encoding="UTF-8"?><!DOCTYPE svg PUBLIC "-//W3C//DTD SVG 1.1//EN" "http://www.w3.org/Graphics/SVG/1.1/DTD/svg11.dtd"><svg xmlns="http://www.w3.org/2000/svg" xmlns:xlink="http://www.w3.org/1999/xlink"><defs>
        <clipPath id="clip0_1082_731">
            <path d="M0 0h40v40H0z"/>
        </clipPath>
    </defs><symbol id="ico-mono-ic-close" viewBox="0 0 20 20">
    <path fill-rule="evenodd" clip-rule="evenodd" d="M.54.54a.65.65 0 01.92 0L10 9.073 18.54.54a.65.65 0 01.92.92L10.91 10l8.548 8.54a.65.65 0 11-.918.92L10 10.927 1.46 19.46a.65.65 0 01-.92-.92L9.09 10 .54 1.46a.65.65 0 010-.92z"/>
</symbol><symbol id="ico-mono-ic-lk" viewBox="0 0 20 22">
    <path d="M13.636 11.615l-.17.134.201.08a9.924 9.924 0 016.203 8.128.88.88 0 01-.768.967H19h0a.88.88 0 01-.88-.783h0a8.164 8.164 0 00-16.227 0h0a.886.886 0 01-1.762-.194 9.924 9.924 0 016.173-8.118l.201-.08-.17-.134a5.905 5.905 0 117.302 0zm4.69 9.18c.185.165.425.256.673.254L.006 19.934a1.011 1.011 0 002.01.22 8.04 8.04 0 0115.978 0c.028.248.146.476.331.64zM7.681 10.426a4.145 4.145 0 104.606-6.893 4.145 4.145 0 00-4.606 6.893z" stroke-width=".25"/>
</symbol><symbol id="ico-mono-ic-menu" viewBox="0 0 24 16">
    <path d="M0 14h24v2H0v-2z"/>
    <path d="M0 7h24v2H0V7z"/>
    <path d="M0 0h24v2H0V0z"/>
</symbol><symbol id="ico-mono-ic-search" viewBox="0 0 24 24">
    <path d="M17.923 16.553l-.07.087.08.08 3.708 3.678s0 0 0 0a.875.875 0 010 1.215.874.874 0 01-1.241 0h0l-3.68-3.68-.08-.08-.087.07a8.875 8.875 0 111.37-1.37zm-10.86.392a7.125 7.125 0 107.916-11.848 7.125 7.125 0 00-7.917 11.848z" stroke-width=".25"/>
</symbol><symbol id="ico-mono-ic-tg" viewBox="0 0 40 40">
    <g clip-path="url(#clip0_1082_731)">
        <path d="M33.996 6.352L1.216 19c-1.32.59-1.766 1.769-.319 2.409l8.41 2.674L29.64 11.51c1.11-.79 2.247-.58 1.268.289l-17.463 15.82-.549 6.696c.508 1.034 1.439 1.039 2.032.525l4.832-4.574 8.275 6.2c1.921 1.138 2.967.403 3.38-1.683l5.428-25.715c.564-2.568-.397-3.7-2.847-2.716z"/>
    </g>
    
</symbol><symbol id="ico-mono-ic-whatsapp" viewBox="0 0 40 40">
    <path d="M33.6 11.4C28.8 4 19 1.8 11.4 6.4 4 11 1.6 21 6.4 28.4l.4.6-1.6 6 6-1.6.6.4c2.6 1.4 5.4 2.2 8.2 2.2 3 0 6-.8 8.6-2.4 7.4-4.8 9.6-14.6 5-22.2zm-4.2 15.4c-.8 1.2-1.8 2-3.2 2.2-.8 0-1.8.4-5.8-1.2-3.4-1.6-6.2-4.2-8.2-7.2-1.2-1.4-1.8-3.2-2-5 0-1.6.6-3 1.6-4 .4-.4.8-.6 1.2-.6h1c.4 0 .8 0 1 .8.4 1 1.4 3.4 1.4 3.6.2.2.2.6 0 .8.2.4 0 .8-.2 1-.2.2-.4.6-.6.8-.4.2-.6.6-.4 1 .8 1.2 1.8 2.4 2.8 3.4 1.2 1 2.4 1.8 3.8 2.4.4.2.8.2 1-.2.2-.4 1.2-1.4 1.6-1.8.4-.4.6-.4 1-.2l3.2 1.6c.4.2.8.4 1 .6.2.6.2 1.4-.2 2z"/>
</symbol></svg>