<?xml version="1.0" encoding="UTF-8"?><!DOCTYPE svg PUBLIC "-//W3C//DTD SVG 1.1//EN" "http://www.w3.org/Graphics/SVG/1.1/DTD/svg11.dtd"><svg xmlns="http://www.w3.org/2000/svg" xmlns:xlink="http://www.w3.org/1999/xlink"><symbol id="ico-mono-ic-lk" viewBox="0 0 20 22">
    <path d="M13.636 11.615l-.17.134.201.08a9.924 9.924 0 016.203 8.128.88.88 0 01-.768.967H19h0a.88.88 0 01-.88-.783h0a8.164 8.164 0 00-16.227 0h0a.886.886 0 01-1.762-.194 9.924 9.924 0 016.173-8.118l.201-.08-.17-.134a5.905 5.905 0 117.302 0zm4.69 9.18c.185.165.425.256.673.254L.006 19.934a1.011 1.011 0 002.01.22 8.04 8.04 0 0115.978 0c.028.248.146.476.331.64zM7.681 10.426a4.145 4.145 0 104.606-6.893 4.145 4.145 0 00-4.606 6.893z" stroke-width=".25"/>
</symbol><symbol id="ico-mono-ic-search" viewBox="0 0 24 24">
    <path d="M17.923 16.553l-.07.087.08.08 3.708 3.678s0 0 0 0a.875.875 0 010 1.215.874.874 0 01-1.241 0h0l-3.68-3.68-.08-.08-.087.07a8.875 8.875 0 111.37-1.37zm-10.86.392a7.125 7.125 0 107.916-11.848 7.125 7.125 0 00-7.917 11.848z" stroke-width=".25"/>
</symbol></svg>