<?xml version="1.0" encoding="UTF-8"?><!DOCTYPE svg PUBLIC "-//W3C//DTD SVG 1.1//EN" "http://www.w3.org/Graphics/SVG/1.1/DTD/svg11.dtd"><svg xmlns="http://www.w3.org/2000/svg" xmlns:xlink="http://www.w3.org/1999/xlink"><defs>
        <clipPath id="clip0_1082_731">
            <path d="M0 0h40v40H0z"/>
        </clipPath>
    </defs><symbol id="ico-mono-ic-close" viewBox="0 0 20 20">
    <path fill-rule="evenodd" clip-rule="evenodd" d="M.54.54a.65.65 0 01.92 0L10 9.073 18.54.54a.65.65 0 01.92.92L10.91 10l8.548 8.54a.65.65 0 11-.918.92L10 10.927 1.46 19.46a.65.65 0 01-.92-.92L9.09 10 .54 1.46a.65.65 0 010-.92z"/>
</symbol><symbol id="ico-mono-ic-lk" viewBox="0 0 20 22">
    <path d="M13.636 11.615l-.17.134.201.08a9.924 9.924 0 016.203 8.128.88.88 0 01-.768.967H19h0a.88.88 0 01-.88-.783h0a8.164 8.164 0 00-16.227 0h0a.886.886 0 01-1.762-.194 9.924 9.924 0 016.173-8.118l.201-.08-.17-.134a5.905 5.905 0 117.302 0zm4.69 9.18c.185.165.425.256.673.254L.006 19.934a1.011 1.011 0 002.01.22 8.04 8.04 0 0115.978 0c.028.248.146.476.331.64zM7.681 10.426a4.145 4.145 0 104.606-6.893 4.145 4.145 0 00-4.606 6.893z" stroke-width=".25"/>
</symbol><symbol id="ico-mono-ic-menu" viewBox="0 0 24 16">
    <path d="M0 14h24v2H0v-2z"/>
    <path d="M0 7h24v2H0V7z"/>
    <path d="M0 0h24v2H0V0z"/>
</symbol><symbol id="ico-mono-ic-search" viewBox="0 0 24 24">
    <path d="M17.923 16.553l-.07.087.08.08 3.708 3.678s0 0 0 0a.875.875 0 010 1.215.874.874 0 01-1.241 0h0l-3.68-3.68-.08-.08-.087.07a8.875 8.875 0 111.37-1.37zm-10.86.392a7.125 7.125 0 107.916-11.848 7.125 7.125 0 00-7.917 11.848z" stroke-width=".25"/>
</symbol><symbol id="ico-mono-ic-tg" viewBox="0 0 40 40">
    <g clip-path="url(#clip0_1082_731)">
        <path d="M33.996 6.352L1.216 19c-1.32.59-1.766 1.769-.319 2.409l8.41 2.674L29.64 11.51c1.11-.79 2.247-.58 1.268.289l-17.463 15.82-.549 6.696c.508 1.034 1.439 1.039 2.032.525l4.832-4.574 8.275 6.2c1.921 1.138 2.967.403 3.38-1.683l5.428-25.715c.564-2.568-.397-3.7-2.847-2.716z"/>
    </g>
    
</symbol><symbol id="ico-mono-ic-whatsapp" viewBox="0 0 40 40">
    <path d="M33.6 11.4C28.8 4 19 1.8 11.4 6.4 4 11 1.6 21 6.4 28.4l.4.6-1.6 6 6-1.6.6.4c2.6 1.4 5.4 2.2 8.2 2.2 3 0 6-.8 8.6-2.4 7.4-4.8 9.6-14.6 5-22.2zm-4.2 15.4c-.8 1.2-1.8 2-3.2 2.2-.8 0-1.8.4-5.8-1.2-3.4-1.6-6.2-4.2-8.2-7.2-1.2-1.4-1.8-3.2-2-5 0-1.6.6-3 1.6-4 .4-.4.8-.6 1.2-.6h1c.4 0 .8 0 1 .8.4 1 1.4 3.4 1.4 3.6.2.2.2.6 0 .8.2.4 0 .8-.2 1-.2.2-.4.6-.6.8-.4.2-.6.6-.4 1 .8 1.2 1.8 2.4 2.8 3.4 1.2 1 2.4 1.8 3.8 2.4.4.2.8.2 1-.2.2-.4 1.2-1.4 1.6-1.8.4-.4.6-.4 1-.2l3.2 1.6c.4.2.8.4 1 .6.2.6.2 1.4-.2 2z"/>
</symbol><symbol id="ico-mono-legacy" viewBox="0 0 60 25">
    <path d="M24.468 14.296l.138-.138c-.031.184-.07.376-.115.575-.045.2-.061.4-.045.6 0 .322.03.626.09.91.062.285.155.527.278.726.122.2.268.354.436.461.17.108.362.16.576.16.322 0 .629-.068.921-.206.29-.139.567-.323.828-.554.262-.23.507-.475.736-.737l.278-.312c.066-.074.184.004.143.095-.115.252-.232.505-.353.76-.195.413-.382.823-.563 1.229a.077.077 0 01-.037.04c-.33.18-.674.385-1.035.608-.368.23-.733.465-1.093.704a21.942 21.942 0 00-2.025 1.51c-.315.26-.602.522-.863.782a6.568 6.568 0 00-.668.773c-.184.253-.33.507-.436.76a1.862 1.862 0 00-.162.726c0 .124.015.257.046.404.03.146.088.276.172.391a.957.957 0 00.369.29c.161.076.365.114.61.114.322.015.652-.065.99-.242.338-.177.667-.411.99-.704a9.95 9.95 0 00.954-1.002 19.058 19.058 0 001.715-2.396 73.1 73.1 0 00.668-1.13c.2-.345.36-.642.483-.887.113-.228.195-.398.241-.507a.082.082 0 01.036-.038 13.307 13.307 0 002.518-1.75c.376-.329.718-.663 1.025-1.002l1.035-1.151c-.03.184-.069.371-.114.564a2.505 2.505 0 00-.07.584v.007c.015.275.046.55.093.826.046.277.122.527.23.75.106.222.245.4.413.529.17.13.376.196.622.196.292 0 .58-.061.864-.184.283-.123.548-.285.794-.483.245-.2.48-.424.701-.67.15-.165.291-.327.423-.485.055-.066.164-.018.151.068a8.087 8.087 0 00-.08.596v.013c0 .166.019.322.057.465.038.147.1.27.185.37.084.1.184.172.298.218.116.047.25.069.403.069.184 0 .38-.038.587-.115.207-.076.418-.18.634-.311.214-.13.425-.288.632-.473.207-.184.41-.368.61-.553.2-.184.387-.371.564-.564.176-.193.334-.365.472-.519l.748-.749c.038-.054.08-.111.127-.173a3.374 3.374 0 00-.093.508c-.016.152-.03.31-.045.479v.01c0 .382.05.725.149 1.032.1.307.238.572.414.795.176.222.384.388.621.495.238.107.495.161.77.161.231 0 .47-.034.715-.103.245-.07.492-.17.737-.3.245-.13.483-.28.714-.45a9.335 9.335 0 001.242-1.095 14.652 14.652 0 00.897-1.024l.208-.139a.785.785 0 00.114-.092c.138-.138.28-.292.427-.462.145-.168.298-.34.46-.518.16-.176.321-.357.483-.541.161-.185.323-.358.483-.519.161-.161.323-.314.483-.461.162-.146.314-.273.461-.38.146-.108.287-.197.425-.266a.844.844 0 01.369-.104c.046 0 .092.016.138.047.046.031.084.066.115.104.03.038.044.054.059.1.016.047.017.111-.013.142-.138.384-.319.753-.54 1.106-.224.353-.446.706-.669 1.06-.222.354-.425.712-.609 1.072-.185.36-.315.742-.392 1.14-.03.155-.027.32.013.497.038.177.107.337.207.484.098.146.214.273.345.38.13.107.272.16.425.16.123 0 .262-.025.414-.08a2.96 2.96 0 00.472-.218c.162-.093.33-.204.507-.335a12.93 12.93 0 001.599-1.406l.495-.518c.16-.17.311-.331.45-.484a73.859 73.859 0 00-.898 1.763c-.289.582-.575 1.163-.863 1.738a.094.094 0 01-.036.037c-.285.152-.592.323-.92.518-.337.2-.686.412-1.047.634-.36.223-.718.461-1.07.714-.353.253-.694.511-1.025.773-.33.26-.632.53-.908.806a8.54 8.54 0 00-.726.819 3.38 3.38 0 00-.471.806 1.83 1.83 0 00-.138.795c.015.23.065.423.15.576.084.154.188.273.31.358.123.084.257.141.403.173.145.031.287.039.425.023.276-.015.565-.095.863-.242.3-.146.595-.342.886-.588.292-.246.583-.53.876-.853.29-.322.57-.664.839-1.025.269-.361.525-.734.772-1.118.245-.384.48-.76.701-1.13.223-.369.422-.718.598-1.048l.46-.865a.08.08 0 01.034-.034c.423-.228.83-.48 1.22-.76.4-.284.78-.584 1.14-.899.36-.315.698-.64 1.013-.979.314-.338.602-.684.863-1.037.016-.03.012-.069-.012-.116-.023-.045-.057-.069-.103-.069-.046 0-.085.024-.115.07a.398.398 0 01-.116.115l-.828.876c-.276.292-.563.572-.863.84-.3.27-.603.527-.91.773-.213.17-.43.33-.65.48-.076.05-.17-.034-.125-.114.253-.457.507-.925.764-1.403.315-.584.63-1.16.945-1.73.314-.567.625-1.124.931-1.67.28-.497.56-.971.84-1.423a.087.087 0 00-.074-.132h-1.175a.085.085 0 00-.075.044c-.133.248-.288.518-.47.808-.193.308-.404.627-.633.956-.23.331-.472.666-.726 1.003-.253.338-.51.665-.77.98-.262.315-.526.615-.795.899a8.766 8.766 0 01-.793.749c-.262.215-.51.395-.749.542a1.812 1.812 0 01-.655.264c-.047.016-.096.009-.15-.022a.693.693 0 01-.15-.116.352.352 0 01-.092-.16.298.298 0 010-.162c.061-.2.146-.4.254-.6.107-.199.218-.399.332-.599.116-.199.238-.395.369-.588.13-.192.258-.384.38-.576.123-.191.238-.384.345-.577.107-.191.203-.382.288-.575.084-.192.15-.38.195-.565.047-.184.07-.377.07-.577 0-.122-.023-.257-.07-.402a1.528 1.528 0 00-.195-.404.893.893 0 00-.764-.391h-.015a1.803 1.803 0 00-.441.113c-.162.062-.325.15-.494.266-.17.114-.346.249-.53.402a8.934 8.934 0 00-.553.508c-.183.185-.368.372-.552.565-.184.191-.364.388-.541.588-.176.2-.349.4-.518.598a7.305 7.305 0 00-.254.32l-.62.579c-.138.154-.288.315-.449.484-.16.17-.33.338-.506.507a9.95 9.95 0 01-.541.484c-.184.155-.369.3-.553.439a4.5 4.5 0 01-.552.356c-.183.1-.365.177-.54.231a1.75 1.75 0 01-.519.08.934.934 0 01-.666-.276.968.968 0 01-.22-.357 1.517 1.517 0 01-.08-.518c0-.246.03-.511.092-.796.06-.285.15-.569.264-.853a6.2 6.2 0 01.414-.83c.162-.268.338-.526.53-.772.193-.246.387-.475.587-.691.2-.215.403-.399.61-.553.208-.153.415-.273.622-.357a1.52 1.52 0 01.563-.127c.062 0 .123.01.185.034.06.024.118.05.172.08a.345.345 0 01.173.3c0 .046-.02.093-.058.139a.948.948 0 01-.127.127 1.497 1.497 0 01-.138.104.423.423 0 00-.114.114 4.822 4.822 0 01-.197.231.37.37 0 00-.103.253c0 .092.02.182.058.266.038.084.092.15.161.196.07.046.15.084.242.115.091.03.176.038.253.023.123 0 .234-.03.334-.092a1.05 1.05 0 00.438-.588c.036-.128.062-.252.078-.373v-.016c0-.227-.043-.416-.127-.568a1.061 1.061 0 00-.356-.38 1.665 1.665 0 00-.496-.218 2.005 2.005 0 00-.517-.07c-.276 0-.552.039-.829.115a4.283 4.283 0 00-.817.323 9.004 9.004 0 00-.805.472 8.028 8.028 0 00-.76.566c-.237.199-.464.399-.678.598-.215.2-.41.396-.587.588a7.091 7.091 0 00-.438.519l-.69.68a26.18 26.18 0 01-.955 1.002c-.17.17-.338.327-.507.473-.168.146-.33.284-.483.415-.153.13-.302.242-.449.335-.145.09-.276.16-.39.207a.851.851 0 01-.311.069.404.404 0 01-.185-.047.199.199 0 01-.08-.091.412.412 0 01-.035-.186c0-.138.035-.298.104-.483.069-.184.165-.388.288-.611.122-.223.264-.465.425-.726.162-.26.334-.53.518-.806a354.739 354.739 0 001.139-1.728 48.803 48.803 0 00.97-1.552.087.087 0 00-.075-.131h-1.32a.089.089 0 00-.073.038l-.774 1.164c-.05.074-.168.036-.16-.053a.964.964 0 00-.029-.354 1.048 1.048 0 00-.3-.497 1.04 1.04 0 00-.495-.242 2.749 2.749 0 00-.54-.056 3.528 3.528 0 00-.851.149 5.683 5.683 0 00-.818.322c-.268.131-.529.282-.782.45-.253.17-.495.346-.725.53-.23.184-.445.373-.645.564a13.002 13.002 0 00-1 1.084l-1.163 1.221c-.307.3-.618.593-.932.877-.314.284-.629.55-.943.795-.209.163-.408.316-.6.458-.073.054-.17-.027-.13-.109.217-.434.449-.874.695-1.318.307-.553.618-1.11.932-1.672.315-.56.636-1.12.967-1.682.304-.518.599-1.031.884-1.541a.087.087 0 00-.077-.13h-1.118a.087.087 0 00-.072.037l-1.032 1.484c0-.092.003-.18.01-.265.008-.084.012-.173.012-.266a.968.968 0 00-.471-.76 1.799 1.799 0 00-.863-.23c-.247 0-.496.031-.748.092a3.81 3.81 0 00-.76.276 8.122 8.122 0 00-1.473.922 9.993 9.993 0 00-.679.577c-.216.2-.418.395-.61.588a6.83 6.83 0 00-.518.576l-.416.428a9.041 9.041 0 01-.447.505l-.483.508c-.161.169-.33.333-.507.495-.176.162-.352.315-.528.461a7.072 7.072 0 01-1.07.726c-.17.092-.338.16-.507.208-.169.045-.33.069-.483.069-.107 0-.22-.02-.334-.058a.79.79 0 01-.31-.196.991.991 0 01-.219-.334 1.306 1.306 0 01-.081-.496 1.565 1.565 0 01.023-.46c.027-.136.054-.287.081-.447a.087.087 0 01.07-.072 8.66 8.66 0 00.71-.173 11.374 11.374 0 001.588-.587c.254-.117.5-.242.738-.382.238-.138.452-.287.644-.45.191-.16.36-.329.506-.505.146-.177.261-.362.345-.553.085-.193.127-.397.127-.611a1.15 1.15 0 00-.08-.415.972.972 0 00-.242-.358c-.107-.1-.245-.18-.414-.242a1.707 1.707 0 00-.576-.092 2.823 2.823 0 00-.875.092c-.29.078-.574.185-.85.323-.278.138-.55.299-.818.484a8.265 8.265 0 00-.748.577c-.23.198-.449.402-.656.61-.207.207-.392.403-.552.587a6.205 6.205 0 00-.403.507l-.112.144c-.308.308-.596.6-.863.876a5.456 5.456 0 01-.886.737 4.698 4.698 0 01-1.083.531c-.4.138-.874.222-1.426.253a5.861 5.861 0 01-1.162-.07 9.91 9.91 0 01-1.163-.252c-.383-.108-.76-.222-1.128-.346-.308-.104-.611-.19-.908-.26-.07-.016-.089-.105-.034-.15.3-.243.584-.49.85-.743.307-.291.599-.591.875-.899.276-.307.529-.618.76-.933.23-.315.448-.63.655-.946.207-.314.4-.625.576-.933a35.99 35.99 0 00.92-1.705c.125-.25.247-.487.365-.71a.086.086 0 01.045-.039 19.185 19.185 0 001.523-.646 17.167 17.167 0 002.727-1.624c.4-.292.772-.592 1.117-.899.345-.307.652-.615.92-.922.268-.308.502-.615.702-.922.2-.308.354-.608.461-.899.107-.291.175-.562.206-.821v-.016a.996.996 0 00-.104-.419 1.57 1.57 0 00-.276-.402 1.348 1.348 0 00-.38-.289.918.918 0 00-.414-.104c-.2.017-.403.055-.61.115a5.82 5.82 0 00-.633.231 8.512 8.512 0 00-1.266.68 8.45 8.45 0 00-.564.404c-.176.138-.337.27-.483.391a9.968 9.968 0 00-.38.335 2.77 2.77 0 00-.17.169.085.085 0 01-.125 0 9.523 9.523 0 00-1.339-1.207 8.723 8.723 0 00-1.599-.946 9.325 9.325 0 00-1.738-.588A7.045 7.045 0 009.72.034c-.982 0-1.849.134-2.601.402-.752.27-1.377.631-1.876 1.084a4.758 4.758 0 00-1.577 3.423c-.014.308.009.607.07.9.061.29.16.572.299.84.138.269.307.522.507.76A4.985 4.985 0 006.06 8.665a6.383 6.383 0 002.095.668c.383.055.79.073 1.22.058.398-.015.805-.045 1.219-.092.357-.04.716-.073 1.074-.102.07-.006.117.072.08.133-.289.476-.559.961-.809 1.456-.276.546-.56 1.092-.852 1.637-.29.546-.609 1.072-.954 1.58a8.593 8.593 0 01-1.2 1.398.087.087 0 01-.076.023 8.499 8.499 0 01-1.06-.258 33.895 33.895 0 00-1.107-.323c-.367-.099-.74-.18-1.115-.242a4.597 4.597 0 00-1.117-.046c-.122 0-.253.011-.39.035a5.421 5.421 0 00-.84.196 3.286 3.286 0 00-.76.335.95.95 0 00-.277.242 1.127 1.127 0 00-.16.287c-.04.1-.05.204-.035.311.015.139.053.266.115.38.06.115.138.224.23.323.092.101.199.189.322.265.123.078.253.15.391.22a2.969 2.969 0 00.875.276l.46.07c.154.022.3.034.438.034.337.015.675-.02 1.013-.104.336-.085.667-.196.988-.334.323-.138.649-.284.98-.438.32-.15.638-.277.95-.383a.083.083 0 01.053-.001c.39.106.777.242 1.16.407.39.17.786.326 1.184.473.4.146.798.257 1.197.333.4.078.798.093 1.197.047a6.668 6.668 0 001.508-.369 8.237 8.237 0 001.461-.715c.473-.29.929-.627 1.365-1.008.004-.004.008-.006.01-.01l1.01-1.199c.039-.05.08-.096.122-.138-.047.17-.085.343-.116.52-.031.176-.046.349-.046.518 0 .368.05.703.15 1.002.1.3.237.56.413.784.177.223.389.395.634.519.245.122.507.184.783.184.245 0 .49-.039.736-.115.245-.077.495-.185.748-.323.253-.139.498-.3.736-.484s.468-.377.691-.576c.222-.2.426-.4.61-.6.184-.198.957-1.059 1.104-1.22m-5.005.08c.084-.193.184-.388.298-.588.116-.2.242-.407.38-.622.138-.216.289-.419.449-.611.161-.193.326-.373.495-.542a4.65 4.65 0 01.518-.45c.176-.13.353-.233.529-.31.176-.077.349-.115.519-.115a.475.475 0 01.31.16.581.581 0 01.126.37c0 .154-.03.31-.091.472a2.777 2.777 0 01-.254.495 3.78 3.78 0 01-.39.507c-.155.17-.324.331-.507.484-.184.155-.38.3-.587.439a5.404 5.404 0 01-.645.369 6.337 6.337 0 01-.667.276c-.175.06-.352.111-.532.153a.086.086 0 01-.1-.112c.04-.115.09-.24.15-.375zM16.16 4.264a.087.087 0 01.142-.008l.28.35c.115.147.226.297.333.45.031.032.054.07.07.116a.599.599 0 00.057.127c.022.038.046.073.07.104.021.03.049.038.08.022.045-.015.072-.042.08-.08a.64.64 0 00.012-.139.346.346 0 00-.035-.15.892.892 0 01-.058-.139 2.418 2.418 0 00-.356-.553 5.296 5.296 0 01-.365-.472.091.091 0 01.006-.11c.262-.303.532-.593.808-.87.29-.29.587-.556.886-.794.298-.239.605-.442.92-.611.314-.17.64-.277.978-.323a.638.638 0 01.369.07c.122.061.23.141.322.241s.168.215.23.346c.06.13.077.25.046.357-.093.507-.33 1.022-.714 1.544-.383.522-.883 1.03-1.495 1.522-.614.492-1.324.96-2.129 1.405-.753.417-1.562.787-2.43 1.109-.07.026-.14-.045-.112-.115.107-.262.228-.52.366-.775.17-.315.35-.622.541-.922.193-.3.388-.6.587-.9.177-.265.347-.531.51-.803v.001zm-4.642 4.111l-.633.093c-.215.03-.425.054-.633.069a4.52 4.52 0 01-.633 0 9.904 9.904 0 01-2.278-.289c-.69-.176-1.29-.426-1.795-.748A3.743 3.743 0 014.36 6.336a2.982 2.982 0 01-.448-1.533c0-.292.038-.58.114-.865a3.91 3.91 0 01.334-.83c.146-.268.318-.525.518-.772a4.5 4.5 0 01.69-.679c.262-.207.541-.389.841-.542.3-.153.613-.284.943-.392.33-.107.672-.18 1.024-.219A5.648 5.648 0 019.46.493c.29.03.57.062.84.091.268.032.532.074.793.127.261.055.514.12.76.197.245.076.495.165.748.265.254.1.502.219.748.357a9.028 9.028 0 011.542 1.106c.243.215.492.457.748.723a.09.09 0 01.001.121c-.346.38-.67.755-.967 1.126-.316.393-.62.788-.91 1.188-.291.4-.567.806-.828 1.22l-.783 1.254a.088.088 0 01-.067.04 8.563 8.563 0 00-.566.066v.001zm-6.33 8.678a4.874 4.874 0 01-1.714.312 2.694 2.694 0 01-.643-.035 2.695 2.695 0 01-.657-.196 2.21 2.21 0 01-.54-.335 1.187 1.187 0 01-.346-.494.405.405 0 01.07-.393c.09-.122.214-.226.367-.311a2.51 2.51 0 01.519-.208c.188-.051.351-.086.488-.102h.013c.35 0 .69.027 1.019.082.329.053.66.122.99.207.329.084.663.18 1 .287.283.09.57.18.863.27.07.022.087.116.026.158-.462.32-.946.572-1.453.76l-.001-.002zm21.893 2.304c-.161.33-.334.668-.519 1.014a25.8 25.8 0 01-1.22 2.04c-.215.323-.433.623-.655.9a7.639 7.639 0 01-.645.713c-.207.2-.414.354-.62.462-.15.077-.293.127-.431.149a.704.704 0 01-.584-.162.584.584 0 01-.09-.102.981.981 0 01-.127-.255.868.868 0 01-.046-.276c.015-.277.084-.553.207-.83.123-.276.28-.549.472-.818.192-.27.415-.53.667-.784.253-.253.518-.499.794-.737s.565-.465.863-.68c.3-.215.59-.419.875-.611.284-.192.556-.364.818-.519.154-.09.294-.175.421-.255.073-.046.16.03.125.108-.093.202-.194.416-.305.643zm1.611-4.218c-.223.285-.454.553-.691.806a6.177 6.177 0 01-.713.658c-.239.184-.465.334-.68.45a1.285 1.285 0 01-.598.172.485.485 0 01-.253-.069.527.527 0 01-.184-.185.891.891 0 01-.103-.242.897.897 0 01-.035-.242c0-.215.035-.453.104-.715.069-.26.164-.533.287-.817a9.882 9.882 0 01.955-1.717c.192-.277.395-.538.61-.784.215-.246.437-.457.668-.634.23-.176.46-.319.69-.426.23-.108.447-.168.66-.184h.015c.074 0 .156.02.246.056a.96.96 0 01.449.404c.054.093.08.193.08.3.015.184-.012.4-.08.646a4.478 4.478 0 01-.311.783 9.63 9.63 0 01-.495.865c-.192.299-.399.591-.62.875zm8.917-.3a9.349 9.349 0 01-.643.819c-.23.261-.468.5-.714.714a5.35 5.35 0 01-.748.553c-.253.153-.51.253-.77.3a.332.332 0 01-.254-.058.75.75 0 01-.196-.207 1.11 1.11 0 01-.15-.536v-.012c.017-.152.055-.343.115-.57.062-.23.143-.476.242-.737.1-.262.223-.539.368-.83.146-.291.31-.577.496-.853.184-.277.38-.542.587-.795.207-.253.428-.48.666-.68.238-.199.487-.37.749-.508a2.681 2.681 0 01.794-.276c.087.002.18.024.276.069.1.047.188.116.265.207.076.093.138.19.183.29.047.1.07.187.07.263 0 .14-.031.309-.092.508-.062.2-.154.427-.276.68-.123.253-.265.522-.426.806-.162.285-.342.57-.542.853zm15.56 4.472c-.17.314-.342.642-.518.98-.178.337-.358.676-.542 1.013-.184.338-.376.666-.575.98-.2.315-.403.611-.61.888a5.436 5.436 0 01-.645.726 3.844 3.844 0 01-.667.507 1.86 1.86 0 01-.668.241l-.021.001a.534.534 0 01-.23-.069.688.688 0 01-.219-.196 1.846 1.846 0 01-.161-.266.442.442 0 01-.046-.276c0-.2.038-.404.115-.611.076-.208.185-.422.323-.645.138-.223.298-.449.483-.68.184-.23.398-.465.643-.703.247-.239.514-.477.807-.714.29-.24.597-.473.92-.704a28.953 28.953 0 011.821-1.197c.075-.046.163.038.12.116l-.328.608h-.003z"/>
</symbol><symbol id="ico-mono-tg" viewBox="0 0 31 30">
    <circle cx="15.419" cy="15" r="14.5"/>
    <path d="M22.017 9.26c-.088.397-.178.792-.263 1.19l-1.93 9.046c-.046.221-.087.444-.144.661-.19.718-.714.9-1.316.46-1.029-.753-2.058-1.508-3.086-2.262-.2-.146-.39-.136-.566.033-.5.478-1.001.955-1.5 1.435a.813.813 0 01-.601.246c.014-.212.026-.42.041-.627.066-.92.13-1.84.201-2.76a.343.343 0 01.108-.207c2.078-1.873 4.16-3.742 6.24-5.612.018-.016.043-.029.055-.049.04-.072.076-.147.113-.22-.09-.018-.183-.06-.268-.047a.793.793 0 00-.278.126c-2.582 1.614-5.164 3.229-7.743 4.848a.389.389 0 01-.364.05c-1.069-.34-2.141-.668-3.211-1.006a1.445 1.445 0 01-.405-.2c-.203-.147-.226-.357-.043-.528.144-.134.317-.254.499-.326 1.006-.399 2.019-.782 3.03-1.17 3.46-1.325 6.918-2.65 10.377-3.972.1-.038.206-.07.311-.08.38-.035.618.138.714.507.007.028.02.055.03.082v.383z"/>
</symbol></svg>