<svg width="72" height="73" viewBox="0 0 72 73" fill="none" xmlns="http://www.w3.org/2000/svg">
<path d="M0 9.0001V59.4001C0.00264647 61.6271 0.888494 63.7621 2.46323 65.3369C4.03796 66.9116 6.17299 67.7974 8.4 67.8001H10.8V70.2001C10.7995 70.6101 10.9041 71.0133 11.1037 71.3714C11.3033 71.7295 11.5913 72.0305 11.9403 72.2456C12.2892 72.4608 12.6875 72.583 13.097 72.6006C13.5066 72.6182 13.9139 72.5306 14.28 72.3461L16.8 71.0821L19.326 72.3461C19.6919 72.5292 20.0985 72.6157 20.5072 72.5974C20.916 72.5791 21.3132 72.4567 21.6613 72.2417C22.0094 72.0266 22.2967 71.7262 22.496 71.3689C22.6953 71.0116 22.8 70.6092 22.8 70.2001V67.8001H51.6C52.5548 67.8001 53.4705 67.4208 54.1456 66.7457C54.8207 66.0705 55.2 65.1549 55.2 64.2001V60.6001H69.6C69.9152 60.6001 70.2273 60.538 70.5184 60.4174C70.8096 60.2968 71.0742 60.12 71.2971 59.8972C71.5199 59.6743 71.6967 59.4097 71.8173 59.1185C71.9379 58.8274 72 58.5153 72 58.2001V46.2001C72 45.8849 71.9379 45.5728 71.8173 45.2817C71.6967 44.9905 71.5199 44.7259 71.2971 44.503C71.0742 44.2802 70.8096 44.1034 70.5184 43.9828C70.2273 43.8622 69.9152 43.8001 69.6 43.8001H55.2V41.4001H69.6C69.9152 41.4001 70.2273 41.338 70.5184 41.2174C70.8096 41.0968 71.0742 40.92 71.2971 40.6972C71.5199 40.4743 71.6967 40.2097 71.8173 39.9185C71.9379 39.6274 72 39.3153 72 39.0001V27.0001C72 26.6849 71.9379 26.3728 71.8173 26.0817C71.6967 25.7905 71.5199 25.5259 71.2971 25.303C71.0742 25.0802 70.8096 24.9034 70.5184 24.7828C70.2273 24.6622 69.9152 24.6001 69.6 24.6001H55.2V22.2001H69.6C69.9152 22.2001 70.2273 22.138 70.5184 22.0174C70.8096 21.8968 71.0742 21.72 71.2971 21.4972C71.5199 21.2743 71.6967 21.0097 71.8173 20.7185C71.9379 20.4274 72 20.1153 72 19.8001V7.8001C72 7.48492 71.9379 7.17284 71.8173 6.88166C71.6967 6.59048 71.5199 6.3259 71.2971 6.10304C71.0742 5.88018 70.8096 5.7034 70.5184 5.58279C70.2273 5.46218 69.9152 5.4001 69.6 5.4001H55.2V4.2001C55.2 3.24532 54.8207 2.32964 54.1456 1.65451C53.4705 0.979382 52.5548 0.600098 51.6 0.600098L8.4 0.600098C6.17299 0.602744 4.03796 1.48859 2.46323 3.06332C0.888494 4.63806 0.00264647 6.77309 0 9.0001ZM2.4 9.0001C2.40157 7.83401 2.7429 6.69365 3.38225 5.71847C4.0216 4.74328 4.93126 3.97553 6 3.5091V51.3471C4.63027 51.7497 3.38936 52.5028 2.4 53.5321V9.0001ZM17.88 68.9351C17.5462 68.7694 17.1786 68.6831 16.806 68.6831C16.4334 68.6831 16.0658 68.7694 15.732 68.9351L13.2 70.2001V60.6001H20.4V70.2001L17.88 68.9351ZM22.8 60.6001H27.6C27.9183 60.6001 28.2235 60.4737 28.4485 60.2486C28.6736 60.0236 28.8 59.7184 28.8 59.4001C28.8 59.0818 28.6736 58.7766 28.4485 58.5516C28.2235 58.3265 27.9183 58.2001 27.6 58.2001H7.2C6.88174 58.2001 6.57652 58.3265 6.35147 58.5516C6.12643 58.7766 6 59.0818 6 59.4001C6 59.7184 6.12643 60.0236 6.35147 60.2486C6.57652 60.4737 6.88174 60.6001 7.2 60.6001H10.8V65.4001H8.4C6.8087 65.4001 5.28258 64.768 4.15736 63.6427C3.03214 62.5175 2.4 60.9914 2.4 59.4001C2.4 57.8088 3.03214 56.2827 4.15736 55.1575C5.28258 54.0322 6.8087 53.4001 8.4 53.4001H47.076C46.1067 55.2515 45.6004 57.3103 45.6004 59.4001C45.6004 61.4899 46.1067 63.5487 47.076 65.4001H22.8V60.6001ZM54.98 51.0001H69.6V53.4001H51.6C52.342 53.3972 53.0651 53.165 53.6701 52.7354C54.2752 52.3058 54.7327 51.6997 54.98 51.0001ZM52.8 64.2001C52.8 64.5184 52.6736 64.8236 52.4485 65.0486C52.2235 65.2737 51.9183 65.4001 51.6 65.4001H49.847C48.8969 63.9563 48.2891 62.3145 48.07 60.6001H52.8V64.2001ZM48.07 58.2001C48.167 57.3801 48.361 56.5751 48.647 55.8001H69.6V58.2001H48.07ZM69.6 46.2001V48.6001H55.2V46.2001H69.6ZM69.6 27.0001V39.0001H55.2V27.0001H69.6ZM60 19.8001V7.8001H63.6V19.8001H60ZM69.6 19.8001H66V7.8001H69.6V19.8001ZM57.6 7.8001V19.8001H55.2V7.8001H57.6ZM52.8 4.2001V49.8001C52.8 50.1184 52.6736 50.4236 52.4485 50.6486C52.2235 50.8737 51.9183 51.0001 51.6 51.0001H8.4V3.0001H51.6C51.9183 3.0001 52.2235 3.12653 52.4485 3.35157C52.6736 3.57661 52.8 3.88184 52.8 4.2001Z" fill="#041E42"/>
</svg>
