<svg width="72" height="73" viewBox="0 0 72 73" fill="none" xmlns="http://www.w3.org/2000/svg">
<mask id="mask0_1932_144" style="mask-type:luminance" maskUnits="userSpaceOnUse" x="0" y="0" width="72" height="73">
<path d="M0 0.600098H72V72.6001H0V0.600098Z" fill="white"/>
</mask>
<g mask="url(#mask0_1932_144)">
<path d="M18.7879 47.3251C17.7528 46.5104 16.4742 46.0667 15.1569 46.0651C14.2822 46.0618 13.4181 46.2556 12.6286 46.6321C11.8392 47.0087 11.1447 47.5583 10.5969 48.2401C10.1171 48.8325 9.76032 49.5147 9.5474 50.2467C9.33448 50.9787 9.26972 51.7458 9.35689 52.5031C9.44116 53.2631 9.67623 53.9986 10.0483 54.6665C10.4204 55.3345 10.9221 55.9215 11.5239 56.3931C12.5588 57.2083 13.8375 57.6524 15.1549 57.6541C16.0298 57.6573 16.8942 57.4631 17.6837 57.086C18.4732 56.709 19.1675 56.1587 19.7149 55.4761C20.1944 54.8842 20.551 54.2025 20.7637 53.471C20.9765 52.7395 21.0411 51.9729 20.9539 51.2161C20.8696 50.4563 20.6346 49.7209 20.2627 49.0529C19.8908 48.385 19.3894 47.798 18.7879 47.3261V47.3251ZM17.6429 53.8101C17.3441 54.1822 16.9652 54.4821 16.5344 54.6875C16.1037 54.8928 15.6321 54.9983 15.1549 54.9961C14.4349 54.9988 13.7355 54.7562 13.1719 54.3081C12.8471 54.054 12.5762 53.7379 12.3748 53.3781C12.1734 53.0183 12.0455 52.6221 11.9987 52.2124C11.9519 51.8028 11.9871 51.3879 12.1021 50.9919C12.2172 50.596 12.4098 50.2269 12.6689 49.9061C12.968 49.5345 13.347 49.2351 13.7778 49.0301C14.2085 48.8252 14.6799 48.7199 15.1569 48.7221C15.8768 48.7196 16.5762 48.9622 17.1399 49.4101C17.4654 49.6652 17.7367 49.9827 17.938 50.344C18.1392 50.7053 18.2663 51.1031 18.3119 51.5141C18.3587 51.9221 18.3235 52.3354 18.2085 52.7297C18.0934 53.1239 17.9018 53.4913 17.6429 53.8101ZM42.1589 33.7121C43.0359 33.7121 43.8829 33.5201 44.6809 33.1401C45.3733 32.8122 45.9934 32.3496 46.505 31.7794C47.0167 31.2092 47.4096 30.5428 47.6609 29.8191C47.9135 29.1025 48.0208 28.3427 47.9765 27.5841C47.9322 26.8256 47.7372 26.0835 47.4029 25.4011C46.4369 23.4091 44.3729 22.1211 42.1449 22.1211C41.2669 22.1211 40.4169 22.3141 39.6199 22.6941C38.9273 23.0214 38.3069 23.4835 37.7951 24.0533C37.2832 24.6232 36.8902 25.2895 36.6389 26.0131C36.1289 27.4731 36.2189 29.0431 36.8969 30.4331C37.3815 31.4156 38.1309 32.2433 39.0606 32.8228C39.9903 33.4023 41.0634 33.7096 42.1589 33.7121ZM39.1479 26.8901C39.2844 26.4982 39.4976 26.1375 39.775 25.829C40.0525 25.5204 40.3887 25.2703 40.7639 25.0931C41.5227 24.7302 42.394 24.6809 43.1889 24.9559C43.9838 25.2309 44.6384 25.8079 45.0109 26.5621C45.3759 27.3121 45.4259 28.1571 45.1509 28.9421C45.0145 29.3344 44.8013 29.6955 44.5239 30.0046C44.2464 30.3136 43.9102 30.5643 43.5349 30.7421C43.1054 30.948 42.6352 31.0547 42.1589 31.0541C40.9409 31.0541 39.8139 30.3541 39.2859 29.2701C39.1059 28.9025 39.001 28.5026 38.9773 28.094C38.9536 27.6853 39.0116 27.2761 39.1479 26.8901ZM27.6959 24.3201C28.1239 24.4161 28.5609 24.4651 28.9959 24.4651C31.7329 24.4651 34.0699 22.6151 34.6819 19.9621C34.8527 19.2223 34.8748 18.4559 34.7471 17.7075C34.6194 16.959 34.3443 16.2434 33.9379 15.6021C33.5305 14.952 32.9981 14.3893 32.3715 13.9466C31.7449 13.5039 31.0367 13.19 30.2879 13.0231C29.8597 12.9257 29.422 12.8764 28.9829 12.8761C27.665 12.8685 26.384 13.3106 25.3514 14.1295C24.3189 14.9485 23.5966 16.0951 23.3039 17.3801C23.1315 18.1195 23.1081 18.8858 23.235 19.6344C23.3619 20.383 23.6365 21.0988 24.0429 21.7401C24.4502 22.391 24.9829 22.9543 25.6101 23.3972C26.2373 23.8402 26.9463 24.1539 27.6959 24.3201ZM25.8949 17.9771C26.0549 17.2794 26.4481 16.6572 27.0095 16.2132C27.571 15.7692 28.2671 15.53 28.9829 15.5351C29.2219 15.5351 29.4629 15.5621 29.6999 15.6151C30.1076 15.7057 30.4933 15.8764 30.8346 16.1172C31.1758 16.3581 31.4659 16.6643 31.6879 17.0181C31.9074 17.3636 32.056 17.7493 32.1252 18.1527C32.1944 18.5561 32.1827 18.9692 32.0909 19.3681C31.7649 20.7811 30.4629 21.8071 28.9959 21.8071C28.7579 21.8071 28.5179 21.7801 28.2809 21.7271C27.8731 21.637 27.4873 21.4667 27.1459 21.226C26.8046 20.9853 26.5146 20.679 26.2929 20.3251C26.0741 19.9797 25.9263 19.5942 25.8579 19.1911C25.7896 18.788 25.8022 18.3753 25.8949 17.9771ZM17.1359 27.6351C17.7368 27.1625 18.2376 26.575 18.609 25.9067C18.9803 25.2385 19.2149 24.503 19.2989 23.7431C19.3861 22.9862 19.3215 22.2196 19.1089 21.488C18.8964 20.7563 18.5401 20.0744 18.0609 19.4821C17.5124 18.8006 16.8175 18.2512 16.0278 17.8747C15.2381 17.4982 14.3738 17.3042 13.4989 17.3071C12.1869 17.3071 10.8989 17.7541 9.86889 18.5661C9.26788 19.0374 8.76691 19.6238 8.39534 20.2911C8.02376 20.9583 7.78903 21.693 7.70489 22.4521C7.61732 23.2102 7.68188 23.9782 7.8948 24.7111C8.10772 25.4439 8.46472 26.1269 8.94489 26.7201C9.49324 27.4025 10.1883 27.9526 10.9784 28.3295C11.7686 28.7064 12.6335 28.9004 13.5089 28.8971C14.8252 28.8952 16.1027 28.4507 17.1359 27.6351ZM11.0169 25.0531C10.7577 24.7331 10.5649 24.3646 10.4498 23.9691C10.3348 23.5737 10.2998 23.1592 10.3469 22.7501C10.3927 22.3402 10.5197 21.9435 10.7206 21.5833C10.9215 21.2231 11.1922 20.9065 11.5169 20.6521C12.0805 20.2048 12.7794 19.9625 13.4989 19.9651C14.4749 19.9651 15.3839 20.3971 15.9899 21.1481C16.2484 21.4693 16.4406 21.8387 16.5553 22.2348C16.67 22.6308 16.705 23.0457 16.6581 23.4554C16.6112 23.8651 16.4834 24.2614 16.2822 24.6213C16.081 24.9812 15.8103 25.2976 15.4859 25.5521C14.9242 25.9992 14.2268 26.2412 13.5089 26.2381C13.0312 26.2404 12.5591 26.1351 12.1277 25.93C11.6962 25.7248 11.3166 25.4251 11.0169 25.0531Z" fill="#041E42"/>
<path d="M71.492 14.6301C71.262 14.3981 70.852 14.1221 70.205 14.1221C69.447 14.1221 67.433 14.1221 55.2 24.5311C54.955 24.7401 54.706 24.9511 54.457 25.1651C52.2361 19.4065 48.4317 14.3935 43.483 10.7051C37.81 6.48911 31.053 4.25911 23.946 4.25711H23.94C19.144 4.25711 13.313 5.93311 8.723 8.63211C3.097 11.9401 0 16.3631 0 21.0871C0.002 26.7911 3.219 29.1771 5.803 31.0931C7.911 32.6561 9.576 33.8911 9.577 36.5961C9.577 39.3021 7.913 40.5361 5.807 42.0961C3.223 44.0121 0.007 46.3961 0.009 52.1011C0.01 56.8241 3.11 61.2491 8.738 64.5601C13.331 67.2621 19.165 68.9411 23.962 68.9421H23.972C32.678 68.9421 40.862 65.5821 47.018 59.4791C53.096 53.4551 56.476 45.4691 56.564 36.9601C58.5587 34.694 60.5215 32.4001 62.452 30.0791C65.575 26.3161 67.976 23.2111 69.588 20.8511C71.725 17.7251 72.661 15.8091 71.492 14.6301ZM45.147 57.5911C39.492 63.1971 31.973 66.2831 23.972 66.2831H23.963C15.39 66.2821 2.67 60.3241 2.667 52.1001C2.665 47.7351 4.96 46.0331 7.39 44.2321C9.661 42.5481 12.235 40.6391 12.235 36.5961C12.233 32.5521 9.658 30.6431 7.387 28.9581C4.956 27.1551 2.659 25.4521 2.658 21.0871C2.657 16.0361 7.302 12.5511 10.071 10.9231C14.212 8.48811 19.656 6.91511 23.941 6.91511H23.945C30.478 6.91711 36.685 8.96511 41.898 12.8381C46.705 16.4101 50.375 21.4241 52.308 27.0251C46.543 32.0601 40.3 37.8621 35.65 42.5261C27.929 43.5261 26.877 48.6721 26.108 52.4531C25.453 55.6721 25.028 57.2281 22.543 57.4271C22.2455 57.4508 21.9646 57.5741 21.7456 57.7769C21.5266 57.9797 21.3823 58.2503 21.3359 58.5452C21.2894 58.84 21.3436 59.1419 21.4897 59.4022C21.6357 59.6625 21.8652 59.8661 22.141 59.9801C22.301 60.0461 26.101 61.5991 30.541 61.6001H30.543C33.637 61.6001 36.291 60.8491 38.431 59.3701C41.068 57.5471 42.856 54.6581 43.755 50.7831C46.793 47.7091 50.264 44.0031 53.695 40.1861C52.905 46.7581 49.94 52.8391 45.146 57.5921L45.147 57.5911ZM41.086 50.5301C39.678 56.1111 36.134 58.9401 30.543 58.9401C29.069 58.9401 27.656 58.7391 26.469 58.4881C27.887 57.0421 28.329 54.8671 28.713 52.9821C29.443 49.3921 30.134 45.9941 35.785 45.1871L41.086 50.5301ZM59.439 29.5401C54.171 35.8171 47.794 42.8661 42.544 48.2251L41.731 47.4051L38.145 43.7911C42.905 39.0531 49.011 33.4041 54.708 28.4591C55.372 27.8831 56.032 27.3141 56.682 26.7591C63.294 21.1211 66.759 18.6671 68.526 17.5991C67.471 19.3771 65.039 22.8691 59.439 29.5391V29.5401Z" fill="#041E42"/>
</g>
</svg>
