<svg width="72" height="73" viewBox="0 0 72 73" fill="none" xmlns="http://www.w3.org/2000/svg">
<path d="M61.455 11.1441C54.656 4.3441 45.615 0.600098 36 0.600098C26.384 0.600098 17.344 4.3441 10.545 11.1441C3.745 17.9441 0 26.9841 0 36.5991C0 47.3341 4.698 57.3521 12.918 64.2221L12.096 67.2891C11.9519 67.8239 11.9152 68.382 11.9882 68.9312C12.0611 69.4803 12.2422 70.0094 12.521 70.4881C12.89 71.13 13.4217 71.6632 14.0625 72.034C14.7033 72.4048 15.4306 72.6001 16.171 72.6001C17.0995 72.5986 18.0017 72.2915 18.7382 71.7262C19.4747 71.1608 20.0046 70.3687 20.246 69.4721L20.364 69.0331C25.2426 71.3795 30.5865 72.5986 36 72.6001C41.402 72.6001 46.77 71.3691 51.633 69.0271L51.753 69.4731C51.8954 70.0085 52.1425 70.5104 52.4801 70.9496C52.8178 71.3889 53.2392 71.7568 53.72 72.0321C54.1991 72.3101 54.7285 72.4907 55.2777 72.5635C55.8269 72.6362 56.385 72.5997 56.92 72.4561C57.9999 72.1655 58.9205 71.4584 59.4797 70.4899C60.0389 69.5214 60.1911 68.3707 59.903 67.2901L59.081 64.2241C63.0049 60.9373 66.1878 56.8563 68.42 52.2501C70.769 47.367 71.9921 42.0188 71.999 36.6001C71.999 26.9841 68.255 17.9431 61.455 11.1441ZM15.808 69.7391C15.6298 69.6913 15.4628 69.6086 15.3167 69.4958C15.1706 69.383 15.0484 69.2424 14.957 69.0821C14.8638 68.9229 14.8031 68.7468 14.7784 68.564C14.7537 68.3812 14.7654 68.1953 14.813 68.0171L20.637 46.2841C20.733 45.9241 20.967 45.6221 21.294 45.4331C21.6161 45.2464 21.9991 45.195 22.359 45.2901C22.719 45.3861 23.021 45.6201 23.21 45.9471C23.4 46.2741 23.45 46.6521 23.354 47.0121L17.53 68.7451C17.4327 69.1048 17.197 69.4114 16.8742 69.5976C16.5515 69.7839 16.1681 69.8348 15.808 69.7391ZM29.346 35.5151L28.982 36.8731C28.8852 37.2331 28.6495 37.54 28.3266 37.7264C28.0038 37.9127 27.6202 37.9633 27.26 37.8671L24.544 37.1401H24.542L21.826 36.4121C21.6479 36.3642 21.4812 36.2814 21.3353 36.1686C21.1894 36.0559 21.0673 35.9153 20.976 35.7551C20.8826 35.5958 20.8218 35.4195 20.7971 35.2365C20.7724 35.0535 20.7843 34.8675 20.832 34.6891L21.196 33.3311L29.346 35.5151ZM36 69.7861C30.826 69.7861 25.7 68.5711 21.107 66.2641L22.827 59.8471C26.8424 62.1274 31.3823 63.3233 36 63.3171C40.644 63.3171 45.16 62.1211 49.173 59.8441L50.891 66.2571C46.2687 68.574 41.1704 69.7816 36 69.7861ZM48.38 51.4501C48.02 51.5471 47.642 51.4961 47.315 51.3071C47.1548 51.2158 47.0142 51.0937 46.9015 50.9478C46.7887 50.8019 46.7059 50.6351 46.658 50.4571L42.29 34.1571C42.0502 33.2658 41.9896 32.3358 42.1116 31.4209C42.2337 30.506 42.536 29.6244 43.001 28.8271C43.6859 27.6309 44.7086 26.6635 45.941 26.0461L52.455 50.3591L48.38 51.4501ZM56.192 69.7391C55.832 69.8351 55.454 69.7841 55.127 69.5951C54.9667 69.5039 54.8262 69.3818 54.7134 69.2359C54.6006 69.09 54.5179 68.9232 54.47 68.7451L50.466 53.8031L53.183 53.0751L57.187 68.0161C57.2827 68.3765 57.2317 68.7601 57.0452 69.083C56.8588 69.4059 56.552 69.6418 56.192 69.7391ZM58.272 61.2011L56.326 53.9391C60.455 49.1055 62.7218 42.9561 62.718 36.5991C62.718 24.3761 54.456 13.7291 42.627 10.7101C42.4481 10.6644 42.2619 10.6544 42.0791 10.6806C41.8963 10.7069 41.7205 10.7689 41.5616 10.8631C41.4028 10.9573 41.2641 11.0819 41.1534 11.2297C41.0427 11.3775 40.9622 11.5457 40.9165 11.7246C40.8708 11.9035 40.8608 12.0897 40.887 12.2725C40.9133 12.4553 40.9753 12.6311 41.0695 12.79C41.1637 12.9488 41.2883 13.0875 41.4361 13.1982C41.5839 13.3089 41.7521 13.3894 41.931 13.4351C52.515 16.1371 59.906 25.6621 59.906 36.6001C59.906 41.6341 58.326 46.4971 55.416 50.5441L48.256 23.8231C48.1594 23.4629 47.9238 23.1559 47.6009 22.9695C47.2779 22.7831 46.8942 22.7326 46.534 22.8291C41.291 24.2331 38.169 29.6421 39.574 34.8841L43.941 51.1841C44.0834 51.7195 44.3305 52.2214 44.6681 52.6606C45.0058 53.0999 45.4272 53.4678 45.908 53.7431C46.4524 54.0588 47.0606 54.2488 47.688 54.2991L48.418 57.0261C44.6773 59.3057 40.3806 60.5098 36 60.5061C31.592 60.5061 27.318 59.3061 23.581 57.0291L26.071 47.7391C26.2151 47.2043 26.2518 46.6461 26.1788 46.097C26.1059 45.5479 25.9248 45.0188 25.646 44.5401C25.3325 43.9949 24.9009 43.5268 24.383 43.1701L25.173 40.2201L26.532 40.5841C27.6127 40.8717 28.7633 40.7193 29.7318 40.1601C30.7003 39.601 31.4077 38.6808 31.699 37.6011L32.424 34.8951L32.426 34.8851L32.429 34.8751L34.61 26.7351C34.6598 26.5561 34.6736 26.3691 34.6507 26.1848C34.6278 26.0004 34.5685 25.8225 34.4764 25.6611C34.3843 25.4998 34.2612 25.3584 34.1141 25.2449C33.967 25.1315 33.7989 25.0483 33.6194 25.0002C33.44 24.9521 33.2529 24.9401 33.0687 24.9647C32.8846 24.9894 32.7072 25.0503 32.5468 25.1439C32.3864 25.2375 32.2461 25.362 32.134 25.5102C32.022 25.6583 31.9404 25.8272 31.894 26.0071L30.074 32.7981L27.358 32.0701L29.178 25.2791C29.2745 24.9188 29.224 24.5349 29.0375 24.2119C28.851 23.8888 28.5438 23.6531 28.1835 23.5566C27.8232 23.4601 27.4393 23.5106 27.1163 23.6971C26.7933 23.8836 26.5575 24.1908 26.461 24.5511L24.641 31.3421L21.924 30.6141L23.744 23.8231C23.7918 23.6447 23.804 23.4586 23.7799 23.2755C23.7558 23.0924 23.6958 22.9158 23.6035 22.7559C23.5111 22.5959 23.3882 22.4557 23.2417 22.3433C23.0951 22.2309 22.9279 22.1484 22.7495 22.1006C22.5711 22.0528 22.385 22.0406 22.2019 22.0647C22.0188 22.0888 21.8422 22.1488 21.6823 22.2411C21.5223 22.3335 21.3821 22.4564 21.2697 22.6029C21.1573 22.7495 21.0748 22.9167 21.027 23.0951L18.847 31.2311C18.8459 31.2357 18.8449 31.2404 18.844 31.2451L18.84 31.2591L18.116 33.9611C17.9715 34.496 17.9346 35.0543 18.0074 35.6036C18.0802 36.1529 18.2612 36.6823 18.54 37.1611C18.8153 37.6419 19.1833 38.0633 19.6225 38.4009C20.0617 38.7385 20.5636 38.9857 21.099 39.1281L22.457 39.4921L21.667 42.4421C21.04 42.492 20.4321 42.6816 19.888 42.9971C19.4072 43.2724 18.9858 43.6403 18.6482 44.0796C18.3106 44.5188 18.0634 45.0207 17.921 45.5561L16.584 50.5441C13.6619 46.4821 12.0912 41.604 12.094 36.6001C12.094 25.6631 19.486 16.1381 30.068 13.4361C30.2469 13.3905 30.4151 13.31 30.563 13.1994C30.7108 13.0888 30.8354 12.9501 30.9297 12.7913C31.0239 12.6325 31.086 12.4567 31.1123 12.274C31.1386 12.0912 31.1286 11.905 31.083 11.7261C31.0374 11.5472 30.9569 11.379 30.8463 11.2311C30.7357 11.0833 30.597 10.9587 30.4382 10.8644C30.2794 10.7702 30.1036 10.7081 29.9209 10.6818C29.7381 10.6555 29.5519 10.6655 29.373 10.7111C17.543 13.7301 9.283 24.3761 9.283 36.6001C9.27861 42.9569 11.5455 49.1062 15.675 53.9391L13.729 61.1991C6.768 54.9061 2.814 46.0541 2.814 36.6001C2.813 18.3001 17.7 3.4121 36 3.4121C54.3 3.4121 69.187 18.3001 69.187 36.6001C69.187 46.0651 65.233 54.9151 58.272 61.2011Z" fill="#041E42"/>
<path d="M35.9998 9.8811C35.8152 9.88097 35.6313 9.9172 35.4607 9.98774C35.29 10.0583 35.135 10.1617 35.0043 10.2922C34.8737 10.4227 34.77 10.5776 34.6992 10.7481C34.6284 10.9187 34.5919 11.1015 34.5918 11.2861C34.5917 11.4707 34.6279 11.6536 34.6984 11.8242C34.769 11.9949 34.8724 12.1499 35.0029 12.2806C35.1334 12.4112 35.2883 12.5149 35.4588 12.5857C35.6294 12.6565 35.8122 12.693 35.9968 12.6931C36.3698 12.6935 36.7277 12.5457 36.9918 12.2822C37.2558 12.0187 37.4044 11.6611 37.4048 11.2881C37.4052 10.9151 37.2574 10.5572 36.9939 10.2931C36.7304 10.0291 36.3728 9.88049 35.9998 9.8801V9.8811Z" fill="#041E42"/>
</svg>
