<svg width="72" height="73" viewBox="0 0 72 73" fill="none" xmlns="http://www.w3.org/2000/svg">
<mask id="mask0_1932_221" style="mask-type:luminance" maskUnits="userSpaceOnUse" x="0" y="0" width="72" height="73">
<path d="M0 0.600098H72V72.6001H0V0.600098Z" fill="white"/>
</mask>
<g mask="url(#mask0_1932_221)">
<path d="M36.0397 33.2601C35.4949 33.2606 34.9665 33.4465 34.5413 33.7872C34.1161 34.1279 33.8196 34.6031 33.7003 35.1347C33.581 35.6664 33.6462 36.2227 33.8851 36.7124C34.124 37.2021 34.5224 37.5959 35.0147 37.8291V40.7461C35.0147 41.0179 35.1227 41.2787 35.315 41.4709C35.5072 41.6631 35.7679 41.7711 36.0397 41.7711C36.3116 41.7711 36.5723 41.6631 36.7645 41.4709C36.9568 41.2787 37.0647 41.0179 37.0647 40.7461V37.8301C37.5585 37.5979 37.9583 37.2043 38.1981 36.7142C38.438 36.2241 38.5035 35.6669 38.3839 35.1346C38.2644 34.6022 37.9668 34.1266 37.5405 33.7861C37.1141 33.4457 36.5844 33.2609 36.0387 33.2621L36.0397 33.2601Z" fill="#041E42"/>
<path d="M61.6131 16.2301C57.2021 14.4851 53.7011 11.2701 51.7541 7.1781C51.4897 6.62951 51.0759 6.16662 50.5603 5.84257C50.0447 5.51851 49.4481 5.34644 48.8391 5.3461H23.1611C22.5521 5.34644 21.9556 5.51851 21.44 5.84257C20.9244 6.16662 20.5106 6.62951 20.2461 7.1781C18.3001 11.2701 14.7981 14.4851 10.3871 16.2301C9.78407 16.467 9.26676 16.8808 8.90321 17.4171C8.53965 17.9534 8.34685 18.5872 8.35014 19.2351V25.4811C8.35014 33.6681 10.7381 41.7551 15.2541 48.8691C19.8151 56.0531 26.4241 62.0561 34.3651 66.2301L34.4951 66.2981C34.9593 66.542 35.4758 66.6694 36.0001 66.6694C36.5245 66.6694 37.041 66.542 37.5051 66.2981L37.6351 66.2301C45.5771 62.0561 52.1851 56.0531 56.7461 48.8701C61.2631 41.7551 63.6501 33.6671 63.6501 25.4801V19.2351C63.6501 17.8991 62.8501 16.7201 61.6131 16.2301ZM61.6011 25.4801C61.6011 33.2781 59.3241 40.9861 55.0161 47.7701C50.6471 54.6521 44.3071 60.4081 36.6821 64.4161L36.5521 64.4841C36.3819 64.5736 36.1925 64.6204 36.0001 64.6204C35.8078 64.6204 35.6184 64.5736 35.4481 64.4841L35.3181 64.4161C27.6931 60.4081 21.3531 54.6531 16.9841 47.7711C12.6761 40.9861 10.3991 33.2781 10.3991 25.4811V19.2351C10.3991 18.7451 10.6911 18.3151 11.1411 18.1351C16.0361 16.1991 19.9271 12.6201 22.0961 8.0581C22.2881 7.6561 22.7061 7.3951 23.1611 7.3951H48.8391C49.2951 7.3951 49.7121 7.6551 49.9041 8.0581C52.0741 12.6201 55.9641 16.1991 60.8591 18.1361C61.3091 18.3141 61.6011 18.7461 61.6011 19.2361V25.4811V25.4801Z" fill="#041E42"/>
<path d="M66.75 35.2051C66.6187 35.1754 66.4829 35.1719 66.3503 35.1947C66.2176 35.2175 66.0908 35.2663 65.977 35.3382C65.8633 35.4101 65.7648 35.5037 65.6872 35.6136C65.6096 35.7236 65.5545 35.8478 65.525 35.9791C62.405 49.7851 52.9 61.7581 39.448 68.8291L36.322 70.4711C36.2226 70.5232 36.1121 70.5504 36 70.5504C35.8878 70.5504 35.7773 70.5232 35.678 70.4711L32.552 68.8281C19.079 61.7471 9.56996 49.7531 6.46196 35.9221C6.43242 35.7908 6.37729 35.6666 6.29974 35.5565C6.22219 35.4465 6.12372 35.3529 6.00997 35.2809C5.89622 35.2089 5.76941 35.1601 5.63677 35.1371C5.50414 35.1142 5.36828 35.1175 5.23696 35.1471C5.10564 35.1766 4.98143 35.2318 4.87141 35.3093C4.76139 35.3869 4.66772 35.4853 4.59576 35.5991C4.52379 35.7128 4.47494 35.8397 4.45198 35.9723C4.42902 36.1049 4.43242 36.2408 4.46196 36.3721C7.70296 50.7901 17.593 63.2801 31.6 70.6411L34.725 72.2841C35.1184 72.4911 35.5564 72.5992 36.001 72.5992C36.4456 72.5992 36.8835 72.4911 37.277 72.2841L40.403 70.6411C54.386 63.2911 64.273 50.8211 67.525 36.4291C67.5847 36.1642 67.5368 35.8863 67.3919 35.6567C67.247 35.427 67.0168 35.2642 66.752 35.2041L66.75 35.2051ZM66.252 12.3251C60.78 11.7481 56.478 7.9071 55.79 2.9851C55.6 1.6251 54.43 0.600098 53.07 0.600098H18.93C17.57 0.600098 16.4 1.6251 16.21 2.9851C15.521 7.9071 11.219 11.7481 5.74796 12.3251C5.07724 12.3974 4.45721 12.716 4.00793 13.2192C3.55865 13.7225 3.31208 14.3745 3.31596 15.0491V26.0521C3.31596 27.6521 3.39796 29.2681 3.56196 30.8571C3.59826 31.1204 3.7354 31.3592 3.94443 31.5233C4.15347 31.6874 4.41806 31.7639 4.68242 31.7367C4.94677 31.7094 5.19021 31.5806 5.36139 31.3773C5.53257 31.174 5.61811 30.9122 5.59996 30.6471C5.44354 29.1204 5.36511 27.5868 5.36496 26.0521V15.0501C5.36496 14.7001 5.62696 14.4001 5.96296 14.3641C12.372 13.6881 17.42 9.1261 18.24 3.2701C18.2594 3.10069 18.3401 2.94421 18.4668 2.83005C18.5935 2.71589 18.7574 2.6519 18.928 2.6501H53.07C53.2407 2.65166 53.4049 2.71554 53.5318 2.82972C53.6587 2.94391 53.7395 3.10052 53.759 3.2701C54.578 9.1261 59.627 13.6881 66.036 14.3641C66.202 14.386 66.3543 14.4679 66.4642 14.5942C66.5742 14.7205 66.6342 14.8826 66.633 15.0501V26.0531C66.6329 27.572 66.5561 29.0899 66.403 30.6011C66.3819 30.8681 66.4662 31.1328 66.6379 31.3384C66.8095 31.5441 67.0548 31.6743 67.3213 31.7014C67.5877 31.7285 67.8542 31.6501 68.0637 31.4832C68.2731 31.3162 68.4089 31.0739 68.442 30.8081C68.602 29.2351 68.682 27.6351 68.682 26.0531V15.0501C68.6861 14.3756 68.4397 13.7236 67.9906 13.2203C67.5415 12.7171 66.9216 12.3984 66.251 12.3261L66.252 12.3251Z" fill="#041E42"/>
<path d="M47.737 26.1751H46.052V21.2831C46.052 15.7631 41.56 11.2711 36.039 11.2711C30.519 11.2711 26.027 15.7631 26.027 21.2831V26.1751H24.342C23.4781 26.1764 22.6501 26.5202 22.0393 27.1312C21.4286 27.7421 21.085 28.5703 21.084 29.4341V44.1041C21.0848 44.9681 21.4282 45.7965 22.039 46.4077C22.6498 47.0188 23.478 47.3628 24.342 47.3641H47.737C48.601 47.3628 49.4292 47.0188 50.04 46.4077C50.6507 45.7965 50.9942 44.9681 50.995 44.1041V29.4341C50.9942 28.5701 50.6507 27.7416 50.04 27.1305C49.4292 26.5194 48.601 26.1754 47.737 26.1741V26.1751ZM28.077 21.2841C28.077 16.8931 31.649 13.3211 36.039 13.3211C40.43 13.3211 44.003 16.8931 44.003 21.2841V26.1741H28.076L28.077 21.2841ZM48.947 44.1041C48.947 44.7721 48.403 45.3141 47.737 45.3141H24.342C23.675 45.3141 23.132 44.7721 23.132 44.1041V29.4341C23.132 28.7671 23.675 28.2241 24.342 28.2241H47.737C48.403 28.2241 48.947 28.7671 48.947 29.4341V44.1041Z" fill="#041E42"/>
</g>
</svg>
