<svg width="33" height="32" viewBox="0 0 33 32" fill="none" xmlns="http://www.w3.org/2000/svg">
<g clip-path="url(#clip0_3648_3508)">
<path d="M16.6233 2C13.8544 2 11.1476 2.82108 8.84532 4.35943C6.54303 5.89776 4.74861 8.08427 3.68899 10.6424C2.62936 13.2006 2.35211 16.0155 2.89231 18.7312C3.43249 21.4469 4.76587 23.9416 6.7238 25.8995C8.68175 27.8575 11.1763 29.1908 13.892 29.7309C16.6078 30.2712 19.4228 29.994 21.9809 28.9343C24.539 27.8747 26.7256 26.0803 28.2638 23.778C29.8022 21.4757 30.6233 18.7689 30.6233 16C30.6198 12.2881 29.1437 8.72915 26.5189 6.1044C23.8941 3.47965 20.3353 2.00353 16.6233 2ZM16.6233 28.6667C14.1181 28.6667 11.6691 27.9237 9.58608 26.532C7.50305 25.1401 5.87953 23.1619 4.92083 20.8473C3.96212 18.5328 3.71128 15.986 4.20001 13.5288C4.68876 11.0718 5.89515 8.81477 7.66661 7.04332C9.43808 5.27185 11.6951 4.06547 14.1521 3.57672C16.6093 3.08797 19.1561 3.33881 21.4706 4.29752C23.7852 5.25624 25.7634 6.87976 27.1553 8.96277C28.547 11.0458 29.29 13.4948 29.29 16C29.2865 19.3583 27.9508 22.5781 25.5761 24.9528C23.2014 27.3275 19.9816 28.6632 16.6233 28.6667Z" fill="#1F1E20"/>
<path d="M17.2056 14.2759C17.2461 14.2417 17.261 14.2338 17.2699 14.2216C17.6537 13.6793 18.1879 13.3955 18.8339 13.3095C19.4106 13.2324 19.9825 13.2459 20.5349 13.4498C21.3109 13.7364 21.732 14.3381 21.9532 15.1066C22.1097 15.6494 22.1549 16.2086 22.1591 16.7701C22.1679 18.0024 22.1647 19.2353 22.1651 20.4676C22.1651 20.7683 22.0389 20.8959 21.7422 20.8968C21.2196 20.8982 20.6966 20.8982 20.174 20.8968C19.8717 20.8964 19.7501 20.7762 19.7496 20.4719C19.7487 19.391 19.7617 18.3105 19.7454 17.2301C19.7399 16.8547 19.7007 16.4713 19.6136 16.1071C19.507 15.6621 19.1982 15.3862 18.7324 15.3245C18.2233 15.2572 17.7999 15.4031 17.5153 15.8551C17.2885 16.2156 17.1995 16.6177 17.1986 17.0398C17.1963 18.1614 17.1981 19.283 17.1977 20.4045C17.1977 20.7991 17.0957 20.9001 16.7016 20.9001C16.2251 20.9001 15.7491 20.901 15.2726 20.9001C14.9703 20.8996 14.8446 20.7767 14.8446 20.4779C14.8441 18.2521 14.8441 16.0267 14.8446 13.8009C14.8446 13.5082 14.9657 13.3867 15.2582 13.3853C15.7691 13.3834 16.2806 13.3834 16.7915 13.3853C17.0794 13.3867 17.2 13.5106 17.2047 13.8046C17.207 13.95 17.2047 14.0959 17.2047 14.2759H17.2056Z" fill="#1F1E20"/>
<path d="M11.4268 17.1421C11.4268 16.05 11.4268 14.9574 11.4268 13.8653C11.4268 13.5081 11.5516 13.3824 11.9098 13.3814C12.3746 13.38 12.839 13.38 13.3038 13.3814C13.6522 13.3824 13.7836 13.5095 13.7836 13.8531C13.7845 16.0435 13.7845 18.2338 13.7836 20.4245C13.7836 20.7682 13.649 20.8995 13.3071 20.9C12.8483 20.9005 12.3895 20.9 11.9307 20.9C11.5483 20.9 11.4272 20.7803 11.4272 20.4016C11.4272 19.3151 11.4272 18.2286 11.4272 17.1421H11.4268Z" fill="#1F1E20"/>
<path d="M12.5934 12.7358C11.7583 12.734 11.0788 12.0453 11.0816 11.2038C11.0843 10.3646 11.7686 9.67969 12.6046 9.67969C13.4421 9.67969 14.1235 10.3646 14.1216 11.2057C14.1198 12.0635 13.4467 12.7377 12.5934 12.7358Z" fill="#1F1E20"/>
</g>
<defs>
<clipPath id="clip0_3648_3508">
<rect width="32" height="32" fill="white" transform="translate(0.623291)"/>
</clipPath>
</defs>
</svg>
