<svg width="196" height="143" viewBox="0 0 196 143" fill="none" xmlns="http://www.w3.org/2000/svg">
<path fill-rule="evenodd" clip-rule="evenodd" d="M99.41 9.42973C96.87 9.42973 94.81 7.36973 94.81 4.82973C94.81 2.28973 96.87 0.229727 99.41 0.229727C101.95 0.229727 104.01 2.28973 104.01 4.82973C104.01 7.36973 101.95 9.42973 99.41 9.42973ZM6.2 140.68C6.16 140.55 6.13 140.36 6.11 140.11C5.95 140.32 5.75 140.47 5.51 140.59C5.27 140.7 5.01 140.76 4.73 140.76C4.34 140.76 4.02 140.65 3.78 140.43C3.54 140.21 3.42 139.94 3.42 139.6C3.42 139.2 3.58 138.89 3.91 138.66C4.24 138.43 4.7 138.31 5.29 138.31H6.11V137.85C6.11 137.56 6.02 137.33 5.84 137.16C5.66 136.99 5.4 136.91 5.06 136.91C4.75 136.91 4.49 136.99 4.28 137.15C4.07 137.31 3.97 137.5 3.97 137.73H3.52C3.52 137.4 3.67 137.13 3.97 136.89C4.27 136.66 4.64 136.54 5.08 136.54C5.52 136.54 5.89 136.65 6.15 136.88C6.41 137.11 6.55 137.42 6.55 137.83V139.75C6.55 140.14 6.59 140.44 6.67 140.63V140.67H6.19L6.2 140.68ZM4.79 140.36C5.09 140.36 5.36 140.29 5.6 140.14C5.84 139.99 6.01 139.8 6.12 139.56V138.66H5.31C4.86 138.66 4.51 138.75 4.26 138.91C4.01 139.07 3.88 139.29 3.88 139.57C3.88 139.8 3.96 139.99 4.13 140.14C4.3 140.29 4.52 140.37 4.79 140.37V140.36ZM18.91 140.38C19.22 140.38 19.49 140.29 19.7 140.11C19.91 139.93 20.03 139.7 20.04 139.42H20.47C20.46 139.67 20.38 139.89 20.24 140.1C20.1 140.3 19.91 140.46 19.67 140.58C19.43 140.7 19.18 140.75 18.91 140.75C18.38 140.75 17.95 140.56 17.64 140.19C17.33 139.82 17.17 139.32 17.17 138.69V138.55C17.17 138.15 17.24 137.79 17.38 137.49C17.52 137.18 17.72 136.94 17.98 136.78C18.24 136.61 18.55 136.53 18.9 136.53C19.35 136.53 19.71 136.66 20 136.93C20.29 137.2 20.45 137.55 20.46 137.98H20.03C20.01 137.66 19.9 137.4 19.69 137.21C19.48 137.02 19.22 136.92 18.9 136.92C18.49 136.92 18.18 137.07 17.95 137.36C17.73 137.65 17.61 138.06 17.61 138.59V138.72C17.61 139.24 17.72 139.64 17.95 139.94C18.17 140.23 18.49 140.38 18.9 140.38H18.91ZM33.6 140.68C33.56 140.55 33.53 140.36 33.51 140.11C33.35 140.32 33.15 140.47 32.91 140.59C32.67 140.7 32.41 140.76 32.13 140.76C31.74 140.76 31.42 140.65 31.18 140.43C30.94 140.21 30.82 139.94 30.82 139.6C30.82 139.2 30.98 138.89 31.31 138.66C31.64 138.43 32.1 138.31 32.69 138.31H33.51V137.85C33.51 137.56 33.42 137.33 33.24 137.16C33.06 136.99 32.8 136.91 32.46 136.91C32.15 136.91 31.89 136.99 31.68 137.15C31.47 137.31 31.37 137.5 31.37 137.73H30.92C30.92 137.4 31.07 137.13 31.37 136.89C31.67 136.66 32.04 136.54 32.48 136.54C32.92 136.54 33.29 136.65 33.55 136.88C33.81 137.11 33.95 137.42 33.95 137.83V139.75C33.95 140.14 33.99 140.44 34.07 140.63V140.67H33.59L33.6 140.68ZM32.19 140.36C32.49 140.36 32.76 140.29 33 140.14C33.24 139.99 33.41 139.8 33.52 139.56V138.66H32.71C32.26 138.66 31.91 138.75 31.66 138.91C31.41 139.07 31.28 139.29 31.28 139.57C31.28 139.8 31.36 139.99 31.53 140.14C31.7 140.29 31.92 140.37 32.19 140.37V140.36ZM44.63 138.61C44.63 137.98 44.77 137.47 45.05 137.1C45.33 136.73 45.71 136.54 46.2 136.54C46.75 136.54 47.17 136.76 47.46 137.19V134.91H47.91V140.69H47.49L47.47 140.15C47.18 140.56 46.76 140.77 46.2 140.77C45.73 140.77 45.35 140.58 45.07 140.2C44.78 139.82 44.64 139.31 44.64 138.67V138.62L44.63 138.61ZM45.09 138.69C45.09 139.21 45.19 139.62 45.4 139.92C45.61 140.22 45.9 140.37 46.28 140.37C46.83 140.37 47.23 140.13 47.46 139.64V137.73C47.23 137.2 46.84 136.94 46.29 136.94C45.91 136.94 45.62 137.09 45.41 137.39C45.2 137.69 45.09 138.12 45.09 138.7V138.69ZM60.32 140.76C59.97 140.76 59.66 140.68 59.38 140.5C59.1 140.33 58.88 140.09 58.73 139.79C58.57 139.49 58.5 139.14 58.5 138.77V138.61C58.5 138.22 58.58 137.87 58.73 137.55C58.88 137.24 59.09 136.99 59.36 136.81C59.63 136.63 59.92 136.54 60.24 136.54C60.73 136.54 61.13 136.71 61.42 137.05C61.71 137.39 61.85 137.85 61.85 138.43V138.68H58.95V138.77C58.95 139.23 59.08 139.62 59.35 139.93C59.61 140.24 59.95 140.39 60.35 140.39C60.59 140.39 60.8 140.35 60.99 140.26C61.17 140.17 61.34 140.03 61.49 139.84L61.77 140.05C61.44 140.53 60.96 140.77 60.33 140.77L60.32 140.76ZM60.24 136.92C59.9 136.92 59.62 137.04 59.39 137.29C59.16 137.54 59.02 137.87 58.97 138.29H61.41V138.24C61.4 137.85 61.29 137.53 61.07 137.29C60.86 137.04 60.58 136.92 60.24 136.92ZM72.78 136.61V137.27C72.95 137.02 73.13 136.84 73.36 136.72C73.59 136.6 73.84 136.54 74.11 136.54C74.75 136.54 75.16 136.8 75.33 137.33C75.48 137.08 75.67 136.88 75.91 136.75C76.15 136.61 76.42 136.54 76.71 136.54C77.58 136.54 78.03 137.02 78.04 137.97V140.69H77.59V138.01C77.59 137.65 77.51 137.38 77.35 137.2C77.2 137.02 76.94 136.94 76.6 136.94C76.28 136.94 76 137.05 75.78 137.25C75.56 137.46 75.43 137.7 75.41 138V140.69H74.96V137.98C74.96 137.63 74.88 137.37 74.71 137.2C74.55 137.03 74.3 136.94 73.96 136.94C73.68 136.94 73.43 137.02 73.23 137.18C73.03 137.34 72.88 137.58 72.78 137.9V140.69H72.33V136.62H72.76L72.78 136.61ZM90.14 140.03L91.33 136.61H91.81L90.07 141.37L89.98 141.58C89.76 142.07 89.41 142.32 88.95 142.32C88.84 142.32 88.73 142.3 88.6 142.27V141.9L88.83 141.92C89.05 141.92 89.23 141.87 89.37 141.76C89.51 141.65 89.62 141.46 89.72 141.2L89.92 140.65L88.38 136.62H88.87L90.13 140.04L90.14 140.03ZM103.56 138.45H101.76V138.07H103.56V138.45ZM116.3 136.61V137.27C116.47 137.02 116.65 136.84 116.88 136.72C117.11 136.6 117.36 136.54 117.63 136.54C118.27 136.54 118.68 136.8 118.85 137.33C119 137.08 119.19 136.88 119.43 136.75C119.67 136.61 119.94 136.54 120.23 136.54C121.1 136.54 121.55 137.02 121.56 137.97V140.69H121.11V138.01C121.11 137.65 121.03 137.38 120.87 137.2C120.72 137.02 120.46 136.94 120.12 136.94C119.8 136.94 119.52 137.05 119.3 137.25C119.08 137.46 118.95 137.7 118.93 138V140.69H118.48V137.98C118.48 137.63 118.4 137.37 118.23 137.2C118.07 137.03 117.82 136.94 117.48 136.94C117.2 136.94 116.95 137.02 116.75 137.18C116.55 137.34 116.4 137.58 116.3 137.9V140.69H115.85V136.62H116.28L116.3 136.61ZM132.12 138.58C132.12 138.19 132.2 137.84 132.35 137.52C132.5 137.21 132.72 136.96 132.99 136.79C133.27 136.62 133.58 136.53 133.93 136.53C134.47 136.53 134.91 136.72 135.25 137.1C135.59 137.48 135.75 137.98 135.75 138.61V138.7C135.75 139.09 135.67 139.45 135.52 139.76C135.37 140.07 135.16 140.32 134.88 140.49C134.6 140.66 134.29 140.75 133.94 140.75C133.4 140.75 132.96 140.56 132.63 140.18C132.29 139.8 132.12 139.3 132.12 138.67V138.58ZM132.57 138.71C132.57 139.2 132.7 139.6 132.95 139.91C133.2 140.22 133.53 140.38 133.94 140.38C134.35 140.38 134.67 140.22 134.93 139.91C135.18 139.6 135.31 139.19 135.31 138.67V138.58C135.31 138.27 135.25 137.98 135.14 137.73C135.02 137.47 134.86 137.27 134.66 137.13C134.45 136.99 134.21 136.92 133.95 136.92C133.55 136.92 133.22 137.08 132.97 137.39C132.72 137.7 132.59 138.12 132.59 138.63V138.71H132.57ZM148.77 139.65C148.77 139.43 148.68 139.25 148.5 139.11C148.32 138.97 148.05 138.87 147.69 138.79C147.33 138.71 147.05 138.63 146.85 138.53C146.65 138.43 146.5 138.31 146.41 138.17C146.31 138.03 146.26 137.85 146.26 137.65C146.26 137.33 146.39 137.06 146.66 136.86C146.93 136.65 147.27 136.55 147.69 136.55C148.14 136.55 148.51 136.66 148.78 136.89C149.05 137.11 149.19 137.41 149.19 137.77H148.74C148.74 137.53 148.64 137.33 148.44 137.18C148.24 137.03 147.99 136.94 147.69 136.94C147.39 136.94 147.16 137.01 146.98 137.14C146.8 137.27 146.71 137.44 146.71 137.65C146.71 137.86 146.78 138.01 146.93 138.12C147.08 138.23 147.35 138.33 147.75 138.43C148.15 138.52 148.44 138.62 148.64 138.73C148.84 138.84 148.98 138.96 149.08 139.11C149.18 139.26 149.22 139.44 149.22 139.65C149.22 139.99 149.08 140.27 148.8 140.47C148.52 140.68 148.16 140.78 147.72 140.78C147.25 140.78 146.86 140.67 146.57 140.44C146.28 140.21 146.13 139.92 146.13 139.57H146.58C146.6 139.83 146.71 140.04 146.91 140.19C147.11 140.34 147.38 140.41 147.72 140.41C148.03 140.41 148.29 140.34 148.48 140.2C148.67 140.06 148.77 139.89 148.77 139.68V139.65ZM161.39 140.38C161.7 140.38 161.97 140.29 162.18 140.11C162.39 139.93 162.51 139.7 162.52 139.42H162.95C162.94 139.67 162.86 139.89 162.72 140.1C162.58 140.3 162.39 140.46 162.15 140.58C161.91 140.7 161.66 140.75 161.39 140.75C160.86 140.75 160.43 140.56 160.12 140.19C159.81 139.82 159.65 139.32 159.65 138.69V138.55C159.65 138.15 159.72 137.79 159.86 137.49C160 137.18 160.2 136.94 160.46 136.78C160.72 136.61 161.03 136.53 161.38 136.53C161.83 136.53 162.19 136.66 162.48 136.93C162.77 137.2 162.93 137.55 162.94 137.98H162.51C162.49 137.66 162.38 137.4 162.17 137.21C161.96 137.02 161.7 136.92 161.38 136.92C160.97 136.92 160.66 137.07 160.43 137.36C160.21 137.65 160.09 138.06 160.09 138.59V138.72C160.09 139.24 160.2 139.64 160.43 139.94C160.65 140.23 160.97 140.38 161.38 140.38H161.39ZM173.26 138.59C173.26 138.2 173.34 137.85 173.49 137.53C173.64 137.22 173.86 136.97 174.13 136.8C174.41 136.63 174.72 136.54 175.07 136.54C175.61 136.54 176.05 136.73 176.39 137.11C176.73 137.49 176.89 137.99 176.89 138.62V138.71C176.89 139.1 176.81 139.46 176.66 139.77C176.51 140.08 176.3 140.33 176.02 140.5C175.74 140.67 175.43 140.76 175.08 140.76C174.54 140.76 174.1 140.57 173.77 140.19C173.43 139.81 173.26 139.31 173.26 138.68V138.59ZM173.71 138.72C173.71 139.21 173.84 139.61 174.09 139.92C174.34 140.23 174.67 140.39 175.08 140.39C175.49 140.39 175.81 140.23 176.07 139.92C176.32 139.61 176.45 139.2 176.45 138.68V138.59C176.45 138.28 176.39 137.99 176.28 137.74C176.16 137.48 176 137.28 175.8 137.14C175.59 137 175.35 136.93 175.09 136.93C174.69 136.93 174.36 137.09 174.11 137.4C173.86 137.71 173.73 138.13 173.73 138.64V138.72H173.71ZM188.45 139.75L188.52 140.1L188.61 139.73L189.59 136.62H189.97L190.94 139.71L191.05 140.14L191.14 139.74L191.97 136.62H192.44L191.26 140.69H190.88L189.83 137.47L189.78 137.25L189.73 137.48L188.7 140.7H188.32L187.14 136.63H187.6L188.46 139.76L188.45 139.75ZM10.64 105.9H0V106.14H3.19V126.65H0V126.89H17.02V118.68H16.78C16.77 119.08 16.73 119.48 16.68 119.88C16.61 120.33 16.52 120.79 16.4 121.25C16.27 121.72 16.11 122.17 15.9 122.6C15.69 123.04 15.45 123.46 15.16 123.86C14.88 124.27 14.55 124.65 14.17 124.98C13.79 125.32 13.36 125.61 12.88 125.87C12.4 126.13 11.87 126.32 11.3 126.45C10.73 126.58 10.11 126.64 9.45 126.64H7.16V106.13H10.66V105.89L10.64 105.9ZM21.02 126.65H18.43V126.89H24.68V126.65H21.42L23.93 119.59H30.78L33.73 126.65H30.46V126.89H40.94V126.65H38.26L28.8 104.79L21.14 126.65H21.03H21.02ZM30.41 119.35H24.02L27.06 110.8L30.65 119.35H30.42H30.41ZM59.54 105.9H49.97V106.14H53.16V126.65H49.97V126.89H60.12C60.8 126.89 61.43 126.85 62.01 126.77C62.6 126.69 63.14 126.58 63.64 126.43C64.14 126.28 64.6 126.1 65 125.89C65.4 125.69 65.76 125.46 66.08 125.2C66.39 124.94 66.67 124.66 66.9 124.37C67.13 124.08 67.32 123.77 67.46 123.45C67.61 123.12 67.72 122.79 67.8 122.45C67.87 122.11 67.91 121.77 67.91 121.42C67.91 120.87 67.83 120.36 67.67 119.89C66.89 117.56 63.12 115.86 61.08 115.77C63.27 115.63 65.62 113.66 66.2 111.71C66.32 111.3 66.39 110.86 66.39 110.41C66.39 110.01 66.33 109.62 66.21 109.25C66.09 108.88 65.92 108.53 65.68 108.19C65.21 107.51 64.46 106.96 63.44 106.54C62.93 106.33 62.35 106.17 61.7 106.07C61.05 105.96 60.34 105.91 59.55 105.91L59.54 105.9ZM57.1 115.48V106.14H59.41C59.86 106.14 60.26 106.22 60.63 106.39C61 106.55 61.32 106.8 61.61 107.13C62.15 107.78 62.42 109.06 62.42 110.97C62.42 111.61 62.39 112.18 62.34 112.67C62.28 113.16 62.2 113.58 62.08 113.93C61.96 114.27 61.83 114.56 61.67 114.79C61.51 115.03 61.32 115.2 61.11 115.32C60.71 115.54 60.21 115.64 59.6 115.64H57.09V115.49L57.1 115.48ZM57.1 126.49V115.87H59.72C60.49 115.87 61.13 116 61.64 116.27C62.16 116.54 62.54 116.95 62.77 117.5C63.22 118.54 63.45 119.86 63.45 121.45C63.45 122.21 63.4 122.88 63.31 123.46C63.21 124.04 63.07 124.52 62.87 124.91C62.67 125.3 62.46 125.61 62.23 125.85C61.99 126.1 61.74 126.27 61.47 126.37C61.22 126.46 60.94 126.54 60.64 126.58C60.34 126.63 60.03 126.65 59.7 126.65H57.08V126.49H57.1ZM86.17 105.9H70.06V106.14H73.25V126.65H70.06V126.89H87.38V119.29H87.14C87.12 119.65 87.09 120.02 87.03 120.39C86.96 120.81 86.87 121.23 86.74 121.65C86.62 122.08 86.46 122.5 86.25 122.91C86.05 123.31 85.81 123.71 85.53 124.09C85.24 124.48 84.91 124.82 84.53 125.13C84.15 125.44 83.72 125.71 83.24 125.95C82.76 126.19 82.23 126.36 81.65 126.48C81.07 126.6 80.45 126.66 79.79 126.66H77.2V116.19H77.35C77.77 116.19 78.17 116.23 78.55 116.32C78.93 116.41 79.29 116.54 79.62 116.73C79.96 116.91 80.26 117.13 80.53 117.39C80.8 117.65 81.03 117.95 81.23 118.29C81.43 118.63 81.58 119 81.68 119.4C81.77 119.75 81.82 120.12 81.83 120.51H82.05V111.68H81.83C81.81 112.28 81.71 112.83 81.51 113.32C81.3 113.86 80.98 114.33 80.55 114.73C80.13 115.13 79.65 115.44 79.11 115.64C78.58 115.84 77.99 115.94 77.35 115.94H77.2V106.14H79.63C80.38 106.14 81.06 106.22 81.67 106.39C82.28 106.56 82.83 106.81 83.29 107.15C83.75 107.48 84.15 107.85 84.48 108.25C84.81 108.65 85.07 109.09 85.27 109.56C85.47 110.03 85.62 110.5 85.73 110.98C85.83 111.41 85.9 111.85 85.93 112.29H86.18V105.91L86.17 105.9ZM99.06 105.9H89.26V106.14H92.45V126.65H89.26V126.89H99.6V126.65H96.41V115.75H98.71C99.28 115.75 99.77 115.79 100.18 115.87C100.6 115.95 100.93 116.08 101.19 116.24C101.44 116.41 101.64 116.62 101.8 116.87C101.96 117.12 102.06 117.4 102.12 117.73C102.17 118.04 102.21 118.46 102.25 118.99C102.28 119.51 102.31 120.15 102.32 120.9C102.34 121.7 102.43 122.47 102.61 123.23C102.79 123.98 103.05 124.72 103.39 125.43C103.72 126.12 104.24 126.64 104.94 126.99C105.65 127.34 106.56 127.51 107.66 127.51C107.98 127.51 108.3 127.48 108.62 127.41C108.95 127.34 109.28 127.24 109.61 127.11C110.23 126.86 110.55 126.6 110.55 126.33C110.55 126.28 110.55 126.24 110.53 126.2C110.52 126.16 110.5 126.13 110.47 126.1C110.45 126.07 110.43 126.05 110.41 126.04C110.39 126.03 110.36 126.02 110.33 126.02C110.24 126.02 110.14 126.06 110.03 126.13C109.9 126.21 109.76 126.33 109.59 126.49C109.38 126.69 109.17 126.83 108.97 126.93C108.76 127.03 108.56 127.09 108.36 127.09C108.09 127.09 107.86 127.04 107.65 126.93C107.44 126.82 107.27 126.67 107.13 126.46C107 126.26 106.9 126.04 106.82 125.8C106.74 125.56 106.68 125.29 106.64 125C106.6 124.72 106.58 124.39 106.56 124.01C106.54 123.64 106.53 123.22 106.52 122.74C106.52 122.28 106.51 121.9 106.5 121.59C106.5 121.29 106.48 121.05 106.47 120.88C106.42 120.25 106.31 119.68 106.13 119.17C105.95 118.67 105.71 118.22 105.41 117.84C104.17 116.29 102.2 115.78 100.33 115.48C101.76 115.24 103.74 114.4 104.78 113.35C105.1 113.03 105.33 112.65 105.49 112.22C105.65 111.79 105.73 111.3 105.73 110.76C105.73 110.47 105.7 110.18 105.65 109.9C105.6 109.62 105.52 109.34 105.41 109.06C105.31 108.78 105.17 108.51 104.99 108.26C104.81 108 104.6 107.75 104.36 107.51C104.11 107.27 103.82 107.06 103.47 106.86C103.13 106.66 102.74 106.49 102.3 106.34C101.86 106.19 101.37 106.08 100.83 106.01C100.29 105.94 99.7 105.9 99.05 105.9H99.06ZM96.41 115.35V106.13H98.39C98.69 106.13 98.97 106.16 99.24 106.21C99.5 106.27 99.75 106.35 99.97 106.46C100.2 106.57 100.41 106.75 100.6 106.99C100.78 107.22 100.94 107.51 101.07 107.86C101.21 108.21 101.31 108.63 101.38 109.13C101.45 109.63 101.48 110.2 101.48 110.85C101.48 112.38 101.19 113.54 100.61 114.31C100.02 115.1 99.14 115.5 97.97 115.5H96.42V115.35H96.41ZM127.9 105.9H111.79V106.14H114.98V126.65H111.79V126.89H129.11V119.29H128.87C128.86 119.65 128.82 120.02 128.76 120.39C128.69 120.81 128.6 121.23 128.47 121.65C128.35 122.08 128.19 122.5 127.98 122.91C127.78 123.31 127.54 123.71 127.25 124.09C126.96 124.48 126.63 124.82 126.25 125.13C125.87 125.44 125.44 125.71 124.96 125.95C124.48 126.19 123.95 126.36 123.37 126.48C122.79 126.6 122.17 126.66 121.51 126.66H118.92V116.19H119.07C119.49 116.19 119.89 116.23 120.27 116.32C120.65 116.41 121.01 116.54 121.34 116.73C121.68 116.91 121.98 117.13 122.25 117.39C122.52 117.65 122.75 117.95 122.95 118.29C123.15 118.63 123.3 119 123.4 119.4C123.49 119.75 123.54 120.12 123.55 120.51H123.77V111.68H123.55C123.53 112.28 123.43 112.83 123.23 113.32C123.02 113.86 122.7 114.33 122.27 114.73C121.85 115.13 121.37 115.44 120.83 115.64C120.3 115.84 119.71 115.94 119.07 115.94H118.92V106.14H121.35C122.1 106.14 122.78 106.22 123.39 106.39C124 106.56 124.55 106.81 125.01 107.15C125.47 107.48 125.87 107.85 126.2 108.25C126.53 108.65 126.79 109.09 126.99 109.56C127.19 110.03 127.34 110.5 127.45 110.98C127.55 111.41 127.62 111.85 127.65 112.29H127.9V105.91V105.9ZM146.4 105.9H131.79V112.58H132.05C132.13 111.67 132.3 110.87 132.56 110.17C132.84 109.43 133.23 108.82 133.73 108.32C134.22 107.83 134.72 107.43 135.22 107.13C135.73 106.82 136.25 106.61 136.77 106.49C137.8 106.25 138.79 106.14 139.73 106.14H141.93L130.79 126.89H147.41V118.68H147.18C147.13 119.37 147 120.04 146.8 120.68C146.59 121.36 146.29 122.02 145.92 122.64C145.54 123.26 145.11 123.82 144.62 124.31C144.13 124.8 143.59 125.23 142.99 125.58C142.39 125.94 141.77 126.21 141.13 126.39C140.48 126.57 139.82 126.66 139.13 126.66H135.46L146.41 105.91L146.4 105.9ZM159.6 105.9H149.26V106.14H152.45V126.65H149.26V126.89H159.6V126.65H156.4V106.14H159.6V105.9ZM156.67 116.5L166.06 106.14H163.31V105.9H169.33V106.14H166.38C164.13 108.63 161.88 111.13 159.62 113.62C162.82 117.96 166.03 122.3 169.23 126.65H171.45V126.89H161.42V126.65H164.13L156.63 116.54L156.67 116.5ZM175.15 126.65H172.56V126.89H178.81V126.65H175.55L178.06 119.59H184.91L187.86 126.65H184.59V126.89H195.07V126.65H192.39L182.93 104.79L175.27 126.65H175.16H175.15ZM184.54 119.35H178.15L181.19 110.8L184.78 119.35H184.55H184.54ZM116.97 102.76C116 102.76 115.21 101.97 115.21 101C115.21 100.03 116 99.2397 116.97 99.2397C117.94 99.2397 118.73 100.03 118.73 101C118.73 101.97 117.94 102.76 116.97 102.76ZM124 102.76C123.03 102.76 122.24 101.97 122.24 101C122.24 100.03 123.03 99.2397 124 99.2397C124.97 99.2397 125.76 100.03 125.76 101C125.76 101.97 124.97 102.76 124 102.76ZM95.99 67.2397C95.99 75.9897 90.26 85.3797 80.68 85.4197V85.9297C93.7 85.9197 105.34 82.1497 105.34 67.2397C105.34 55.6297 95.88 49.9297 87.61 48.6297C95.65 47.2497 102.96 42.5097 102.96 32.4297C102.96 19.0497 92.18 16.1197 80.69 16.0397V16.5397C88.82 16.8697 93.62 24.9497 93.62 32.4297C93.62 39.9097 88.85 48.0797 80.69 48.3797V48.8997C90.38 49.1197 96 58.2197 96 67.2397H95.99ZM70.45 16.0297H62.65V85.9097H72.32V16.0297H70.44H70.45ZM107.73 16.5297C115.07 16.5697 122.06 18.7897 126.56 24.8597C129.99 29.4797 131.68 35.1197 131.91 40.8397H132.42V16.0197H107.72V16.5297H107.73ZM107.73 85.9097H132.43V61.0897H131.92C131.69 66.8097 129.99 72.4497 126.57 77.0697C122.02 83.1897 115.14 85.3497 107.74 85.3997V85.9097H107.73ZM113.66 44.9297C115.85 42.7397 117.2 39.7197 117.2 36.3897V35.4997H117.71V61.7597H117.2V60.8697C117.2 57.5297 115.85 54.5097 113.66 52.3297C111.5 50.1697 108.52 48.9197 105.22 48.8897V48.3797C108.51 48.3497 111.49 47.0997 113.66 44.9397V44.9297ZM117.45 9.41973C114.91 9.41973 112.85 7.35973 112.85 4.81973C112.85 2.27973 114.91 0.219727 117.45 0.219727C119.99 0.219727 122.05 2.27973 122.05 4.81973C122.05 7.35973 119.99 9.41973 117.45 9.41973Z" fill="white"/>
</svg>
