<svg width="196" height="46" viewBox="0 0 196 46" fill="none" xmlns="http://www.w3.org/2000/svg">
<path fill-rule="evenodd" clip-rule="evenodd" d="M10.64 7.60742H0V7.85453H3.19V28.9716H0V29.2187H17.02V20.7657H16.78C16.77 21.1775 16.73 21.5894 16.68 22.0012C16.61 22.4645 16.52 22.9382 16.4 23.4118C16.27 23.8957 16.11 24.359 15.9 24.8017C15.69 25.2548 15.45 25.6872 15.16 26.099C14.88 26.5212 14.55 26.9124 14.17 27.2522C13.79 27.6022 13.36 27.9008 12.88 28.1685C12.4 28.4362 11.87 28.6318 11.3 28.7657C10.73 28.8995 10.11 28.9613 9.45 28.9613H7.16V7.85453H10.66V7.60742H10.64ZM116.98 4.36418C116.01 4.36418 115.22 3.5508 115.22 2.55209C115.22 1.55337 116.01 0.73999 116.98 0.73999C117.95 0.73999 118.74 1.55337 118.74 2.55209C118.74 3.5508 117.95 4.36418 116.98 4.36418ZM124.01 4.36418C123.04 4.36418 122.25 3.5508 122.25 2.55209C122.25 1.55337 123.04 0.73999 124.01 0.73999C124.98 0.73999 125.77 1.55337 125.77 2.55209C125.77 3.5508 124.98 4.36418 124.01 4.36418ZM6.2 43.4272C6.15 43.2934 6.13 43.0977 6.11 42.8403C5.95 43.0565 5.75 43.211 5.51 43.3345C5.27 43.4478 5.01 43.5096 4.73 43.5096C4.34 43.5096 4.02 43.3963 3.78 43.1698C3.54 42.9433 3.42 42.6653 3.42 42.3152C3.42 41.9034 3.58 41.5842 3.91 41.3474C4.24 41.1106 4.7 40.987 5.29 40.987H6.11V40.5134C6.11 40.2148 6.02 39.978 5.84 39.803C5.66 39.628 5.4 39.5456 5.06 39.5456C4.75 39.5456 4.49 39.628 4.28 39.7927C4.07 39.9574 3.97 40.1531 3.97 40.3899H3.52C3.52 40.0501 3.67 39.7721 3.97 39.525C4.27 39.2882 4.64 39.1647 5.08 39.1647C5.52 39.1647 5.89 39.2779 6.15 39.5147C6.41 39.7515 6.55 40.0707 6.55 40.4928V42.4697C6.55 42.8712 6.59 43.1801 6.67 43.3757V43.4169H6.19L6.2 43.4272ZM4.79 43.0977C5.09 43.0977 5.36 43.0257 5.6 42.8712C5.84 42.7168 6.01 42.5211 6.12 42.274V41.3474H5.32C4.87 41.3474 4.52 41.4401 4.27 41.6048C4.02 41.7695 3.89 41.9961 3.89 42.2843C3.89 42.5211 3.97 42.7168 4.14 42.8712C4.31 43.0257 4.53 43.108 4.8 43.108L4.79 43.0977ZM18.91 43.1183C19.22 43.1183 19.49 43.0257 19.7 42.8403C19.91 42.655 20.03 42.4182 20.04 42.1299H20.47C20.46 42.3873 20.38 42.6138 20.24 42.83C20.1 43.0359 19.91 43.2007 19.67 43.3242C19.43 43.4478 19.18 43.4993 18.91 43.4993C18.38 43.4993 17.95 43.3036 17.64 42.9227C17.33 42.5417 17.17 42.0269 17.17 41.3783V41.2341C17.17 40.8223 17.24 40.4516 17.38 40.1428C17.52 39.8236 17.72 39.5765 17.98 39.4118C18.24 39.2367 18.55 39.1544 18.9 39.1544C19.35 39.1544 19.71 39.2882 20 39.5662C20.29 39.8442 20.45 40.2045 20.46 40.6473H20.03C20.01 40.3178 19.9 40.0501 19.69 39.8545C19.48 39.6589 19.22 39.5559 18.9 39.5559C18.49 39.5559 18.18 39.7103 17.95 40.0089C17.73 40.3075 17.61 40.7296 17.61 41.2753V41.4092C17.61 41.9446 17.72 42.3564 17.95 42.6653C18.17 42.9639 18.49 43.1183 18.9 43.1183H18.91ZM33.6 43.4272C33.55 43.2934 33.53 43.0977 33.51 42.8403C33.35 43.0565 33.15 43.211 32.91 43.3345C32.67 43.4478 32.41 43.5096 32.13 43.5096C31.74 43.5096 31.42 43.3963 31.18 43.1698C30.94 42.9433 30.82 42.6653 30.82 42.3152C30.82 41.9034 30.98 41.5842 31.31 41.3474C31.64 41.1106 32.1 40.987 32.69 40.987H33.51V40.5134C33.51 40.2148 33.42 39.978 33.24 39.803C33.06 39.628 32.8 39.5456 32.46 39.5456C32.15 39.5456 31.89 39.628 31.68 39.7927C31.47 39.9574 31.37 40.1531 31.37 40.3899H30.92C30.92 40.0501 31.07 39.7721 31.37 39.525C31.67 39.2882 32.04 39.1647 32.48 39.1647C32.92 39.1647 33.29 39.2779 33.55 39.5147C33.81 39.7515 33.95 40.0707 33.95 40.4928V42.4697C33.95 42.8712 33.99 43.1801 34.07 43.3757V43.4169H33.59L33.6 43.4272ZM32.19 43.0977C32.49 43.0977 32.76 43.0257 33 42.8712C33.24 42.7168 33.41 42.5211 33.52 42.274V41.3474H32.71C32.26 41.3474 31.91 41.4401 31.66 41.6048C31.41 41.7695 31.28 41.9961 31.28 42.2843C31.28 42.5211 31.36 42.7168 31.53 42.8712C31.7 43.0257 31.92 43.108 32.19 43.108V43.0977ZM44.63 41.2959C44.63 40.6473 44.77 40.1222 45.05 39.7412C45.33 39.3603 45.71 39.1647 46.2 39.1647C46.75 39.1647 47.17 39.3912 47.46 39.8339V37.4864H47.91V43.4375H47.49L47.47 42.8815C47.18 43.3036 46.76 43.5199 46.2 43.5199C45.73 43.5199 45.35 43.3242 45.07 42.933C44.78 42.5417 44.64 42.0166 44.64 41.3577V41.3062L44.63 41.2959ZM45.09 41.3783C45.09 41.9137 45.19 42.3358 45.4 42.6447C45.61 42.9536 45.9 43.108 46.28 43.108C46.83 43.108 47.23 42.8609 47.46 42.3564V40.3899C47.23 39.8442 46.84 39.5765 46.29 39.5765C45.91 39.5765 45.62 39.7309 45.41 40.0398C45.2 40.3487 45.09 40.7914 45.09 41.3886V41.3783ZM60.32 43.5096C59.97 43.5096 59.66 43.4272 59.38 43.2419C59.1 43.0668 58.88 42.8197 58.73 42.5109C58.57 42.202 58.5 41.8416 58.5 41.4607V41.2959C58.5 40.8944 58.58 40.534 58.73 40.2045C58.88 39.8854 59.09 39.628 59.36 39.4426C59.63 39.2573 59.92 39.1647 60.24 39.1647C60.73 39.1647 61.13 39.3397 61.42 39.6897C61.71 40.0398 61.85 40.5134 61.85 41.1106V41.368H58.95V41.4607C58.95 41.9343 59.08 42.3358 59.35 42.655C59.61 42.9742 59.95 43.1286 60.35 43.1286C60.59 43.1286 60.8 43.0874 60.99 42.9948C61.17 42.9021 61.34 42.758 61.49 42.5623L61.77 42.7785C61.44 43.2728 60.96 43.5199 60.33 43.5199L60.32 43.5096ZM60.24 39.5559C59.9 39.5559 59.62 39.6795 59.39 39.9369C59.16 40.1943 59.02 40.534 58.97 40.9665H61.41V40.915C61.4 40.5134 61.29 40.184 61.07 39.9369C60.86 39.6795 60.58 39.5559 60.24 39.5559ZM72.78 39.2367V39.9163C72.95 39.6589 73.13 39.4735 73.36 39.35C73.59 39.2264 73.84 39.1647 74.11 39.1647C74.75 39.1647 75.16 39.4323 75.33 39.978C75.48 39.7206 75.67 39.5147 75.91 39.3809C76.15 39.2367 76.42 39.1647 76.72 39.1647C77.59 39.1647 78.04 39.6589 78.05 40.637V43.4375H77.6V40.6782C77.6 40.3075 77.52 40.0295 77.36 39.8442C77.21 39.6589 76.95 39.5765 76.61 39.5765C76.29 39.5765 76.01 39.6898 75.79 39.8957C75.57 40.1119 75.44 40.359 75.42 40.6679V43.4375H74.97V40.6473C74.97 40.2869 74.89 40.0192 74.72 39.8442C74.56 39.6692 74.31 39.5765 73.97 39.5765C73.69 39.5765 73.44 39.6589 73.24 39.8236C73.04 39.9883 72.89 40.2354 72.79 40.5649V43.4375H72.34V39.247H72.77L72.78 39.2367ZM90.14 42.758L91.33 39.2367H91.81L90.07 44.1376L89.98 44.3538C89.76 44.8583 89.41 45.1157 88.95 45.1157C88.84 45.1157 88.73 45.0951 88.6 45.0643V44.6833L88.83 44.7039C89.05 44.7039 89.23 44.6524 89.37 44.5392C89.51 44.4259 89.62 44.2303 89.72 43.9626L89.92 43.3963L88.38 39.247H88.87L90.13 42.7683L90.14 42.758ZM103.56 41.1312H101.76V40.7399H103.56V41.1312ZM116.3 39.2367V39.9163C116.47 39.6589 116.65 39.4735 116.88 39.35C117.11 39.2264 117.36 39.1647 117.63 39.1647C118.27 39.1647 118.68 39.4323 118.85 39.978C119 39.7206 119.19 39.5147 119.43 39.3809C119.67 39.2367 119.94 39.1647 120.23 39.1647C121.1 39.1647 121.55 39.6589 121.56 40.637V43.4375H121.11V40.6782C121.11 40.3075 121.03 40.0295 120.87 39.8442C120.72 39.6589 120.46 39.5765 120.12 39.5765C119.8 39.5765 119.52 39.6898 119.3 39.8957C119.08 40.1119 118.95 40.359 118.93 40.6679V43.4375H118.48V40.6473C118.48 40.2869 118.4 40.0192 118.23 39.8442C118.07 39.6692 117.82 39.5765 117.48 39.5765C117.2 39.5765 116.95 39.6589 116.75 39.8236C116.55 39.9883 116.4 40.2354 116.3 40.5649V43.4375H115.85V39.247H116.28L116.3 39.2367ZM132.12 41.265C132.12 40.8635 132.2 40.5031 132.35 40.1737C132.5 39.8545 132.72 39.5971 132.99 39.4221C133.27 39.247 133.58 39.1544 133.93 39.1544C134.47 39.1544 134.91 39.35 135.25 39.7412C135.59 40.1325 135.75 40.6473 135.75 41.2959V41.3886C135.75 41.7901 135.67 42.1608 135.52 42.48C135.37 42.7991 135.16 43.0565 134.88 43.2316C134.6 43.4066 134.29 43.4993 133.94 43.4993C133.4 43.4993 132.96 43.3036 132.63 42.9124C132.29 42.5211 132.12 42.0063 132.12 41.3577V41.265ZM132.57 41.3989C132.57 41.9034 132.7 42.3152 132.95 42.6344C133.2 42.9536 133.53 43.1183 133.94 43.1183C134.35 43.1183 134.67 42.9536 134.93 42.6344C135.18 42.3152 135.31 41.8931 135.31 41.3577V41.265C135.31 40.9459 135.25 40.6473 135.14 40.3899C135.02 40.1222 134.86 39.9163 134.66 39.7721C134.45 39.628 134.21 39.5559 133.95 39.5559C133.55 39.5559 133.22 39.7206 132.97 40.0398C132.72 40.359 132.59 40.7914 132.59 41.3165V41.3989H132.57ZM148.77 42.3667C148.77 42.1402 148.68 41.9549 148.5 41.8107C148.32 41.6666 148.05 41.5636 147.69 41.4813C147.33 41.3989 147.05 41.3165 146.85 41.2136C146.65 41.1106 146.5 40.987 146.41 40.8429C146.31 40.6988 146.26 40.5134 146.26 40.3075C146.26 39.978 146.39 39.7 146.66 39.4941C146.93 39.2779 147.27 39.1749 147.69 39.1749C148.14 39.1749 148.51 39.2882 148.78 39.525C149.05 39.7515 149.19 40.0604 149.19 40.4311H148.74C148.74 40.184 148.64 39.978 148.44 39.8236C148.24 39.6692 147.99 39.5765 147.69 39.5765C147.39 39.5765 147.16 39.6486 146.98 39.7824C146.8 39.9163 146.71 40.0913 146.71 40.3075C146.71 40.5237 146.78 40.6782 146.93 40.7914C147.08 40.9047 147.35 41.0076 147.75 41.1106C148.15 41.2033 148.44 41.3062 148.64 41.4195C148.84 41.5327 148.98 41.6563 149.08 41.8107C149.18 41.9652 149.22 42.1505 149.22 42.3667C149.22 42.7168 149.08 43.0051 148.8 43.211C148.52 43.4272 148.16 43.5302 147.72 43.5302C147.25 43.5302 146.86 43.4169 146.57 43.1801C146.28 42.9433 146.13 42.6447 146.13 42.2843H146.58C146.6 42.552 146.71 42.7682 146.91 42.9227C147.11 43.0771 147.38 43.1492 147.72 43.1492C148.03 43.1492 148.29 43.0771 148.48 42.933C148.67 42.7888 148.77 42.6138 148.77 42.3976V42.3667ZM161.39 43.1183C161.7 43.1183 161.97 43.0257 162.18 42.8403C162.39 42.655 162.51 42.4182 162.52 42.1299H162.95C162.94 42.3873 162.86 42.6138 162.72 42.83C162.58 43.0359 162.39 43.2007 162.15 43.3242C161.91 43.4478 161.66 43.4993 161.39 43.4993C160.86 43.4993 160.43 43.3036 160.12 42.9227C159.81 42.5417 159.65 42.0269 159.65 41.3783V41.2341C159.65 40.8223 159.72 40.4516 159.86 40.1428C160 39.8236 160.2 39.5765 160.46 39.4118C160.72 39.2367 161.03 39.1544 161.38 39.1544C161.83 39.1544 162.19 39.2882 162.48 39.5662C162.77 39.8442 162.93 40.2045 162.94 40.6473H162.51C162.49 40.3178 162.38 40.0501 162.17 39.8545C161.96 39.6589 161.7 39.5559 161.38 39.5559C160.97 39.5559 160.66 39.7103 160.43 40.0089C160.21 40.3075 160.09 40.7296 160.09 41.2753V41.4092C160.09 41.9446 160.2 42.3564 160.43 42.6653C160.65 42.9639 160.97 43.1183 161.38 43.1183H161.39ZM173.26 41.2753C173.26 40.8738 173.34 40.5134 173.49 40.184C173.64 39.8648 173.86 39.6074 174.13 39.4323C174.41 39.2573 174.72 39.1647 175.07 39.1647C175.61 39.1647 176.05 39.3603 176.39 39.7515C176.73 40.1428 176.89 40.6576 176.89 41.3062V41.3989C176.89 41.8004 176.81 42.1711 176.66 42.4903C176.51 42.8094 176.3 43.0668 176.02 43.2419C175.74 43.4169 175.43 43.5096 175.08 43.5096C174.54 43.5096 174.1 43.3139 173.77 42.9227C173.43 42.5314 173.26 42.0166 173.26 41.368V41.2753ZM173.71 41.4092C173.71 41.9137 173.84 42.3255 174.09 42.6447C174.34 42.9639 174.67 43.1286 175.08 43.1286C175.49 43.1286 175.81 42.9639 176.07 42.6447C176.32 42.3255 176.45 41.9034 176.45 41.368V41.2753C176.45 40.9562 176.39 40.6576 176.28 40.4002C176.16 40.1325 176 39.9266 175.8 39.7824C175.59 39.6383 175.35 39.5662 175.09 39.5662C174.69 39.5662 174.36 39.7309 174.11 40.0501C173.86 40.3693 173.73 40.8017 173.73 41.3268V41.4092H173.71ZM188.44 42.4697L188.51 42.83L188.6 42.4491L189.58 39.247H189.96L190.93 42.4285L191.04 42.8712L191.13 42.4594L191.96 39.247H192.43L191.25 43.4375H190.87L189.82 40.1222L189.77 39.8957L189.72 40.1325L188.69 43.4478H188.31L187.13 39.2573H187.59L188.45 42.48L188.44 42.4697ZM21.02 28.9716H18.43V29.2187H24.68V28.9716H21.42L23.93 21.7026H30.78L33.73 28.9716H30.46V29.2187H40.94V28.9716H38.26L28.79 6.46457L21.13 28.9716H21.02ZM30.41 21.4555H24.02L27.06 12.6525L30.65 21.4555H30.42H30.41ZM59.54 7.60742H49.97V7.85453H53.16V28.9716H49.97V29.2187H60.12C60.8 29.2187 61.43 29.1775 62.01 29.0952C62.6 29.0128 63.14 28.8995 63.64 28.7451C64.14 28.5907 64.6 28.4053 65 28.1891C65.4 27.9832 65.76 27.7464 66.08 27.4787C66.39 27.211 66.67 26.9227 66.9 26.6241C67.13 26.3255 67.32 26.0064 67.46 25.6769C67.61 25.3371 67.72 24.9974 67.8 24.6473C67.87 24.2972 67.91 23.9472 67.91 23.5868C67.91 23.0205 67.83 22.4954 67.67 22.0115C66.89 19.6126 63.12 17.8622 61.08 17.7696C63.27 17.6254 65.62 15.5971 66.2 13.5894C66.32 13.1673 66.39 12.7142 66.39 12.2509C66.39 11.8391 66.33 11.4375 66.21 11.0566C66.09 10.6756 65.92 10.3153 65.68 9.9652C65.21 9.26508 64.46 8.6988 63.44 8.26637C62.93 8.05015 62.35 7.88541 61.7 7.78245C61.05 7.6692 60.34 7.61772 59.55 7.61772L59.54 7.60742ZM57.1 17.471V7.85453H59.41C59.86 7.85453 60.26 7.93689 60.63 8.11193C61 8.27666 61.32 8.53406 61.61 8.87383C62.15 9.54307 62.42 10.861 62.42 12.8275C62.42 13.4864 62.39 14.0733 62.33 14.5778C62.27 15.0823 62.19 15.5147 62.07 15.8751C61.95 16.2252 61.82 16.5238 61.66 16.7606C61.5 17.0077 61.31 17.1827 61.1 17.3063C60.7 17.5328 60.2 17.6357 59.59 17.6357H57.08V17.4813L57.1 17.471ZM57.1 28.8069V17.8725H59.72C60.49 17.8725 61.13 18.0064 61.64 18.2844C62.16 18.5624 62.54 18.9845 62.77 19.5508C63.22 20.6216 63.45 21.9806 63.45 23.6177C63.45 24.4002 63.4 25.09 63.31 25.6872C63.21 26.2844 63.07 26.7786 62.87 27.1801C62.67 27.5817 62.46 27.9008 62.23 28.1479C61.99 28.4053 61.74 28.5804 61.47 28.6833C61.22 28.776 60.94 28.8584 60.64 28.8995C60.34 28.951 60.03 28.9716 59.7 28.9716H57.08V28.8172L57.1 28.8069ZM86.17 7.60742H70.06V7.85453H73.25V28.9716H70.06V29.2187H87.38V21.3938H87.14C87.12 21.7644 87.09 22.1454 87.03 22.5263C86.96 22.9588 86.87 23.3912 86.74 23.8236C86.62 24.2663 86.46 24.6988 86.25 25.1209C86.05 25.5328 85.81 25.9446 85.53 26.3358C85.24 26.7374 84.91 27.0874 84.53 27.4066C84.15 27.7258 83.72 28.0038 83.24 28.2509C82.76 28.498 82.23 28.673 81.65 28.7966C81.07 28.9201 80.45 28.9819 79.79 28.9819H77.2V18.202H77.36C77.78 18.202 78.18 18.2432 78.56 18.3359C78.94 18.4285 79.3 18.5624 79.63 18.758C79.97 18.9433 80.27 19.1698 80.54 19.4375C80.81 19.7052 81.04 20.0141 81.24 20.3642C81.44 20.7142 81.59 21.0952 81.69 21.507C81.78 21.8674 81.83 22.2483 81.84 22.6499H82.06V13.5585H81.84C81.82 14.1763 81.72 14.7425 81.52 15.2471C81.31 15.803 80.99 16.2869 80.56 16.6988C80.14 17.1106 79.66 17.4298 79.12 17.6357C78.59 17.8416 78 17.9446 77.36 17.9446H77.2V7.85453H79.63C80.38 7.85453 81.06 7.93689 81.67 8.11193C82.28 8.28696 82.83 8.54436 83.29 8.89442C83.75 9.23419 84.15 9.61514 84.48 10.027C84.81 10.4388 85.07 10.8918 85.27 11.3758C85.47 11.8597 85.62 12.3436 85.73 12.8378C85.83 13.2805 85.9 13.7335 85.93 14.1866H86.18V7.60742H86.17ZM99.06 7.60742H89.26V7.85453H92.45V28.9716H89.26V29.2187H99.6V28.9716H96.41V17.749H98.71C99.28 17.749 99.77 17.7902 100.18 17.8725C100.6 17.9549 100.93 18.0887 101.19 18.2535C101.44 18.4285 101.64 18.6447 101.8 18.9021C101.96 19.1595 102.06 19.4478 102.12 19.7876C102.17 20.1068 102.21 20.5392 102.25 21.0849C102.28 21.6203 102.31 22.2792 102.32 23.0514C102.33 23.8751 102.43 24.6679 102.61 25.4504C102.79 26.2226 103.05 26.9845 103.39 27.7155C103.72 28.4259 104.24 28.9613 104.94 29.3217C105.65 29.682 106.56 29.8571 107.66 29.8571C107.98 29.8571 108.3 29.8262 108.62 29.7541C108.95 29.682 109.28 29.5791 109.61 29.4452C110.23 29.1878 110.55 28.9201 110.55 28.6421C110.55 28.5907 110.55 28.5495 110.53 28.5083C110.52 28.4671 110.5 28.4362 110.47 28.4053C110.45 28.3744 110.43 28.3539 110.41 28.3436C110.39 28.3333 110.36 28.323 110.33 28.323C110.24 28.323 110.14 28.3642 110.03 28.4362C109.9 28.5186 109.76 28.6421 109.59 28.8069C109.38 29.0128 109.17 29.1569 108.97 29.2599C108.76 29.3629 108.56 29.4246 108.36 29.4246C108.09 29.4246 107.86 29.3732 107.65 29.2599C107.44 29.1466 107.27 28.9922 107.13 28.776C107 28.5701 106.9 28.3436 106.82 28.0965C106.74 27.8494 106.68 27.5714 106.64 27.2728C106.6 26.9845 106.58 26.6447 106.56 26.2535C106.54 25.8725 106.53 25.4401 106.52 24.9459C106.52 24.4723 106.51 24.081 106.5 23.7618C106.5 23.453 106.48 23.2059 106.47 23.0308C106.42 22.3822 106.31 21.7953 106.13 21.2702C105.95 20.7554 105.71 20.2921 105.41 19.9008C104.17 18.305 102.2 17.7799 100.33 17.471C101.76 17.2239 103.74 16.359 104.78 15.2779C105.1 14.9485 105.33 14.5572 105.49 14.1145C105.65 13.6718 105.73 13.1673 105.73 12.6113C105.73 12.3127 105.7 12.0141 105.65 11.7258C105.6 11.4375 105.52 11.1492 105.41 10.861C105.31 10.5727 105.17 10.2947 104.99 10.0373C104.81 9.76958 104.6 9.51218 104.36 9.26508C104.11 9.01797 103.82 8.80176 103.47 8.59584C103.13 8.38992 102.73 8.21488 102.3 8.06044C101.86 7.906 101.37 7.79275 100.83 7.72068C100.29 7.6486 99.7 7.60742 99.05 7.60742H99.06ZM96.41 17.3371V7.84423H98.39C98.69 7.84423 98.97 7.87512 99.24 7.9266C99.5 7.98837 99.75 8.07074 99.97 8.184C100.2 8.29725 100.41 8.48258 100.6 8.72968C100.78 8.96649 100.94 9.26508 101.07 9.62544C101.21 9.9858 101.31 10.4182 101.38 10.933C101.45 11.4478 101.48 12.0347 101.48 12.7039C101.48 14.2792 101.19 15.4736 100.61 16.2664C100.02 17.0797 99.14 17.4916 97.97 17.4916H96.42V17.3371H96.41ZM127.9 7.60742H111.79V7.85453H114.98V28.9716H111.79V29.2187H129.11V21.3938H128.87C128.86 21.7644 128.82 22.1454 128.76 22.5263C128.69 22.9588 128.6 23.3912 128.47 23.8236C128.35 24.2663 128.19 24.6988 127.98 25.1209C127.78 25.5328 127.54 25.9446 127.25 26.3358C126.96 26.7374 126.63 27.0874 126.25 27.4066C125.87 27.7258 125.44 28.0038 124.96 28.2509C124.48 28.498 123.95 28.673 123.37 28.7966C122.79 28.9201 122.17 28.9819 121.51 28.9819H118.92V18.202H119.07C119.49 18.202 119.89 18.2432 120.27 18.3359C120.65 18.4285 121.01 18.5624 121.34 18.758C121.68 18.9433 121.98 19.1698 122.25 19.4375C122.52 19.7052 122.75 20.0141 122.95 20.3642C123.15 20.7142 123.3 21.0952 123.4 21.507C123.49 21.8674 123.54 22.2483 123.55 22.6499H123.77V13.5585H123.55C123.53 14.1763 123.43 14.7425 123.23 15.2471C123.02 15.803 122.7 16.2869 122.27 16.6988C121.85 17.1106 121.37 17.4298 120.83 17.6357C120.3 17.8416 119.71 17.9446 119.07 17.9446H118.92V7.85453H121.35C122.1 7.85453 122.78 7.93689 123.39 8.11193C124 8.28696 124.55 8.54436 125.01 8.89442C125.47 9.23419 125.87 9.61514 126.2 10.027C126.53 10.4388 126.79 10.8918 126.99 11.3758C127.19 11.8597 127.34 12.3436 127.45 12.8378C127.55 13.2805 127.62 13.7335 127.65 14.1866H127.9V7.60742ZM146.4 7.60742H131.79V14.4851H132.05C132.13 13.5482 132.3 12.7142 132.56 12.0038C132.84 11.2419 133.23 10.6139 133.73 10.0991C134.22 9.59455 134.72 9.18271 135.22 8.87383C135.73 8.55465 136.25 8.33844 136.77 8.21488C137.8 7.96778 138.79 7.85453 139.73 7.85453H141.93L130.79 29.2187H147.41V20.7657H147.18C147.13 21.4761 147 22.166 146.8 22.8249C146.59 23.525 146.29 24.2046 145.92 24.8429C145.54 25.4813 145.11 26.0578 144.62 26.5624C144.13 27.0669 143.59 27.5096 142.99 27.8699C142.39 28.2406 141.77 28.5186 141.13 28.7039C140.48 28.8892 139.82 28.9819 139.13 28.9819H135.46L146.41 7.61772L146.4 7.60742ZM159.6 7.60742H149.26V7.85453H152.45V28.9716H149.26V29.2187H159.6V28.9716H156.4V7.85453H159.6V7.60742ZM156.67 18.5212L166.06 7.85453H163.31V7.60742H169.33V7.85453H166.38C164.13 10.4182 161.88 12.9922 159.62 15.5559C162.82 20.0244 166.03 24.4929 169.23 28.9716H171.45V29.2187H161.42V28.9716H164.13L156.63 18.5624L156.67 18.5212ZM175.15 28.9716H172.56V29.2187H178.81V28.9716H175.55L178.06 21.7026H184.91L187.86 28.9716H184.59V29.2187H195.07V28.9716H192.39L182.93 6.46457L175.27 28.9716H175.16H175.15ZM184.54 21.4555H178.15L181.19 12.6525L184.78 21.4555H184.55H184.54Z" fill="#231F20"/>
</svg>
