<svg width="51" height="51" viewBox="0 0 51 51" fill="none" xmlns="http://www.w3.org/2000/svg">
<g id="Group 208">
<rect id="Rectangle 143" x="0.883789" y="0.775208" width="50" height="50" rx="3" fill="#444444"/>
<path id="logo" fill-rule="evenodd" clip-rule="evenodd" d="M26.7233 10.8113C25.7282 10.8113 24.9212 10.0043 24.9212 9.00932C24.9212 8.01429 25.7282 7.20729 26.7233 7.20729C27.7183 7.20729 28.5253 8.01429 28.5253 9.00932C28.5253 10.0043 27.7183 10.8113 26.7233 10.8113ZM25.3913 33.4581C25.3913 36.8858 23.1466 40.5643 19.3937 40.58V40.7797C24.4942 40.7758 29.0541 39.299 29.0541 33.4581C29.0541 28.9099 25.3482 26.677 22.1085 26.1677C25.2581 25.6271 28.1218 23.7702 28.1218 19.8214C28.1218 14.5799 23.8988 13.4321 19.3977 13.4008V13.5966C22.5825 13.7259 24.4629 16.8912 24.4629 19.8214C24.4629 22.7517 22.5943 25.9522 19.3977 26.0698V26.2735C23.1937 26.3636 25.3953 29.9245 25.3953 33.4581H25.3913ZM15.3784 13.3968H12.3228V40.7719H16.1109V13.3968H15.3744H15.3784ZM29.9826 13.5927C32.858 13.6084 35.5963 14.4781 37.3591 16.8559C38.7028 18.6658 39.3648 20.8752 39.4549 23.116H39.6547V13.3929H29.9787V13.5927H29.9826ZM29.9826 40.7719H39.6587V31.0527H39.4589C39.3688 33.2935 38.7028 35.503 37.363 37.3128C35.5806 39.7103 32.8854 40.5565 29.9865 40.576V40.7758L29.9826 40.7719ZM32.3056 24.7182C33.1635 23.8603 33.6924 22.6773 33.6924 21.3728V21.0241H33.8922V31.3113H33.6924V30.9626C33.6924 29.6542 33.1635 28.4712 32.3056 27.6171C31.4594 26.771 30.2921 26.2813 28.9993 26.2696V26.0698C30.2881 26.058 31.4555 25.5683 32.3056 24.7222V24.7182ZM33.7903 10.8074C32.7953 10.8074 31.9883 10.0004 31.9883 9.0054C31.9883 8.01037 32.7953 7.20338 33.7903 7.20338C34.7854 7.20338 35.5924 8.01037 35.5924 9.0054C35.5924 10.0004 34.7854 10.8074 33.7903 10.8074Z" fill="white"/>
</g>
</svg>
