<svg width="311" height="765" viewBox="0 0 311 765" fill="none" xmlns="http://www.w3.org/2000/svg">
<g clip-path="url(#clip0_1521_463)">
<path d="M162 531.731H278.069L276.931 530.695C262.138 519.302 255.31 501.695 255.31 484.088V397.089H364.552V485.124C364.552 503.767 357.724 520.338 342.931 531.731H459L457.862 530.695C443.069 519.302 436.241 501.695 436.241 484.088V283.162C436.241 265.555 443.069 247.948 457.862 236.555L459 235.52H342.931C357.724 246.912 364.552 264.519 364.552 283.162V371.197H255.31V284.198C255.31 266.591 262.138 248.984 276.931 237.591L278.069 236.555H162C169.966 242.769 175.655 250.019 179.069 257.269C182.483 265.555 184.759 273.841 184.759 283.162V485.124C183.621 502.731 176.793 520.338 162 531.731ZM388.448 258.305H413.483V508.945H388.448V258.305ZM207.517 258.305H232.552V508.945H207.517V258.305Z" fill="#C49A6C" fill-opacity="0.07"/>
<path d="M310.429 0L51.3578 135.526V189.323L0 216.221V605.212L310.429 764.533L570.642 632.111V578.314L622 551.416V162.424L310.429 0ZM599.174 539.001L571.783 553.485V189.323L310.429 52.7621L97.0092 165.528V190.357L310.429 78.6259L546.675 202.772V620.731L310.429 739.704L22.8257 592.798V228.636L50.2165 214.152V578.314L310.429 714.875L523.85 603.143V578.314L310.429 690.045L74.1835 565.899V147.941L310.429 23.7947L598.033 174.839V539.001H599.174Z" fill="#C49A6C" fill-opacity="0.07"/>
</g>
<defs>
<clipPath id="clip0_1521_463">
<rect width="311" height="765" fill="white"/>
</clipPath>
</defs>
</svg>
